0
SECTION
2
ENTITIES
0
LINE
8
tool_path
62
5
10
0.259350
20
3.209604
11
0.259350
21
0.289454
0
LINE
8
tool_path
62
5
10
0.259350
20
0.289454
11
0.259350
21
0.259350
0
LINE
8
tool_path
62
5
10
0.259350
20
0.259350
11
0.333523
21
0.259350
0
LINE
8
tool_path
62
5
10
0.333523
20
0.259350
11
6.952343
21
0.259350
0
LINE
8
tool_path
62
5
10
6.952343
20
0.259350
11
6.952343
21
0.289454
0
LINE
8
tool_path
62
5
10
6.952343
20
0.289454
11
6.952343
21
6.553781
0
LINE
8
tool_path
62
5
10
6.952343
20
6.553781
11
6.952343
21
6.597850
0
LINE
8
tool_path
62
5
10
6.952343
20
6.597850
11
6.952343
21
6.952263
0
LINE
8
tool_path
62
5
10
6.952343
20
6.952263
11
3.289677
21
6.952263
0
LINE
8
tool_path
62
5
10
3.289677
20
6.952263
11
3.232041
21
6.952263
0
LINE
8
tool_path
62
5
10
3.232041
20
6.952263
11
1.631863
21
6.952263
0
LINE
8
tool_path
62
5
10
1.631863
20
6.952263
11
0.272919
21
6.952263
0
LINE
8
tool_path
62
5
10
0.272919
20
6.952263
11
0.259350
21
6.918233
0
LINE
8
tool_path
62
5
10
0.259350
20
6.918233
11
0.259350
21
3.219641
0
LINE
8
tool_path
62
5
10
0.259350
20
3.219641
11
0.259350
21
3.209604
0
LINE
8
tool_path
62
5
10
0.660964
20
0.436398
11
0.623524
21
0.446437
0
LINE
8
tool_path
62
5
10
0.623524
20
0.446437
11
0.596083
21
0.473878
0
LINE
8
tool_path
62
5
10
0.596083
20
0.473878
11
0.586043
21
0.511319
0
LINE
8
tool_path
62
5
10
0.586043
20
0.511319
11
0.596083
21
0.548799
0
LINE
8
tool_path
62
5
10
0.596083
20
0.548799
11
0.623524
21
0.576200
0
LINE
8
tool_path
62
5
10
0.623524
20
0.576200
11
0.660964
21
0.586240
0
LINE
8
tool_path
62
5
10
0.660964
20
0.586240
11
0.698445
21
0.576200
0
LINE
8
tool_path
62
5
10
0.698445
20
0.576200
11
0.725846
21
0.548799
0
LINE
8
tool_path
62
5
10
0.725846
20
0.548799
11
0.735886
21
0.511319
0
LINE
8
tool_path
62
5
10
0.735886
20
0.511319
11
0.725846
21
0.473878
0
LINE
8
tool_path
62
5
10
0.725846
20
0.473878
11
0.698445
21
0.446437
0
LINE
8
tool_path
62
5
10
0.698445
20
0.446437
11
0.660964
21
0.436398
0
LINE
8
tool_path
62
5
10
0.889193
20
0.377343
11
0.889193
21
0.613799
0
LINE
8
tool_path
62
5
10
0.889193
20
0.613799
11
0.968169
21
0.613799
0
LINE
8
tool_path
62
5
10
0.968169
20
0.613799
11
0.968169
21
0.377343
0
LINE
8
tool_path
62
5
10
0.968169
20
0.377343
11
0.889193
21
0.377343
0
LINE
8
tool_path
62
5
10
1.046673
20
0.377343
11
1.046673
21
0.613799
0
LINE
8
tool_path
62
5
10
1.046673
20
0.613799
11
1.125650
21
0.613799
0
LINE
8
tool_path
62
5
10
1.125650
20
0.613799
11
1.125650
21
0.377343
0
LINE
8
tool_path
62
5
10
1.125650
20
0.377343
11
1.046673
21
0.377343
0
LINE
8
tool_path
62
5
10
1.503030
20
0.956194
11
1.466004
21
0.966122
0
LINE
8
tool_path
62
5
10
1.466004
20
0.966122
11
1.438602
21
0.993524
0
LINE
8
tool_path
62
5
10
1.438602
20
0.993524
11
1.428563
21
1.031004
0
LINE
8
tool_path
62
5
10
1.428563
20
1.031004
11
1.438602
21
1.068445
0
LINE
8
tool_path
62
5
10
1.438602
20
1.068445
11
1.466004
21
1.095886
0
LINE
8
tool_path
62
5
10
1.466004
20
1.095886
11
1.503445
21
1.105925
0
LINE
8
tool_path
62
5
10
1.503445
20
1.105925
11
1.540846
21
1.095886
0
LINE
8
tool_path
62
5
10
1.540846
20
1.095886
11
1.568287
21
1.068445
0
LINE
8
tool_path
62
5
10
1.568287
20
1.068445
11
1.578287
21
1.031004
0
LINE
8
tool_path
62
5
10
1.578287
20
1.031004
11
1.568287
21
0.993524
0
LINE
8
tool_path
62
5
10
1.568287
20
0.993524
11
1.540846
21
0.966122
0
LINE
8
tool_path
62
5
10
1.540846
20
0.966122
11
1.503445
21
0.956082
0
LINE
8
tool_path
62
5
10
1.503445
20
0.956082
11
1.503030
21
0.956194
0
LINE
8
tool_path
62
5
10
0.495492
20
2.975768
11
0.495492
21
3.212224
0
LINE
8
tool_path
62
5
10
0.495492
20
3.212224
11
0.574468
21
3.212224
0
LINE
8
tool_path
62
5
10
0.574468
20
3.212224
11
0.574468
21
2.975768
0
LINE
8
tool_path
62
5
10
0.574468
20
2.975768
11
0.495492
21
2.975768
0
LINE
8
tool_path
62
5
10
0.731074
20
2.975768
11
0.652973
21
2.975768
0
LINE
8
tool_path
62
5
10
0.652973
20
2.975768
11
0.652973
21
3.212224
0
LINE
8
tool_path
62
5
10
0.652973
20
3.212224
11
0.731949
21
3.212224
0
LINE
8
tool_path
62
5
10
0.731949
20
3.212224
11
0.731949
21
2.975768
0
LINE
8
tool_path
62
5
10
0.731949
20
2.975768
11
0.731074
21
2.975768
0
LINE
8
tool_path
62
5
10
1.503069
20
2.838084
11
1.466043
21
2.848012
0
LINE
8
tool_path
62
5
10
1.466043
20
2.848012
11
1.438602
21
2.875413
0
LINE
8
tool_path
62
5
10
1.438602
20
2.875413
11
1.428563
21
2.912894
0
LINE
8
tool_path
62
5
10
1.428563
20
2.912894
11
1.438602
21
2.950334
0
LINE
8
tool_path
62
5
10
1.438602
20
2.950334
11
1.466043
21
2.977775
0
LINE
8
tool_path
62
5
10
1.466043
20
2.977775
11
1.503484
21
2.987815
0
LINE
8
tool_path
62
5
10
1.503484
20
2.987815
11
1.540964
21
2.977775
0
LINE
8
tool_path
62
5
10
1.540964
20
2.977775
11
1.568366
21
2.950334
0
LINE
8
tool_path
62
5
10
1.568366
20
2.950334
11
1.578405
21
2.912894
0
LINE
8
tool_path
62
5
10
1.578405
20
2.912894
11
1.568366
21
2.875413
0
LINE
8
tool_path
62
5
10
1.568366
20
2.875413
11
1.540964
21
2.848012
0
LINE
8
tool_path
62
5
10
1.540964
20
2.848012
11
1.503484
21
2.837972
0
LINE
8
tool_path
62
5
10
1.503484
20
2.837972
11
1.503069
21
2.838084
0
LINE
8
tool_path
62
5
10
1.046463
20
4.117588
11
1.017185
21
4.125413
0
LINE
8
tool_path
62
5
10
1.017185
20
4.125413
11
0.995771
21
4.146827
0
LINE
8
tool_path
62
5
10
0.995771
20
4.146827
11
0.987618
21
4.176673
0
LINE
8
tool_path
62
5
10
0.987618
20
4.176673
11
0.995531
21
4.206279
0
LINE
8
tool_path
62
5
10
0.995531
20
4.206279
11
1.016945
21
4.227693
0
LINE
8
tool_path
62
5
10
1.016945
20
4.227693
11
1.046791
21
4.235846
0
LINE
8
tool_path
62
5
10
1.046791
20
4.235846
11
1.076398
21
4.227933
0
LINE
8
tool_path
62
5
10
1.076398
20
4.227933
11
1.098051
21
4.206279
0
LINE
8
tool_path
62
5
10
1.098051
20
4.206279
11
1.105965
21
4.176673
0
LINE
8
tool_path
62
5
10
1.105965
20
4.176673
11
1.098051
21
4.147067
0
LINE
8
tool_path
62
5
10
1.098051
20
4.147067
11
1.076398
21
4.125413
0
LINE
8
tool_path
62
5
10
1.076398
20
4.125413
11
1.046791
21
4.117500
0
LINE
8
tool_path
62
5
10
1.046791
20
4.117500
11
1.046463
21
4.117588
0
LINE
8
tool_path
62
5
10
3.192133
20
5.121525
11
3.162854
21
5.129350
0
LINE
8
tool_path
62
5
10
3.162854
20
5.129350
11
3.141201
21
5.151004
0
LINE
8
tool_path
62
5
10
3.141201
20
5.151004
11
3.133287
21
5.180610
0
LINE
8
tool_path
62
5
10
3.133287
20
5.180610
11
3.141201
21
5.210216
0
LINE
8
tool_path
62
5
10
3.141201
20
5.210216
11
3.162854
21
5.231870
0
LINE
8
tool_path
62
5
10
3.162854
20
5.231870
11
3.192461
21
5.239783
0
LINE
8
tool_path
62
5
10
3.192461
20
5.239783
11
3.222067
21
5.231870
0
LINE
8
tool_path
62
5
10
3.222067
20
5.231870
11
3.243721
21
5.210216
0
LINE
8
tool_path
62
5
10
3.243721
20
5.210216
11
3.251634
21
5.180610
0
LINE
8
tool_path
62
5
10
3.251634
20
5.180610
11
3.243721
21
5.151004
0
LINE
8
tool_path
62
5
10
3.243721
20
5.151004
11
3.222067
21
5.129350
0
LINE
8
tool_path
62
5
10
3.222067
20
5.129350
11
3.192461
21
5.121437
0
LINE
8
tool_path
62
5
10
3.192461
20
5.121437
11
3.192133
21
5.121525
0
LINE
8
tool_path
62
5
10
1.007303
20
6.204350
11
1.243760
21
6.204350
0
LINE
8
tool_path
62
5
10
1.243760
20
6.204350
11
1.243760
21
6.125374
0
LINE
8
tool_path
62
5
10
1.243760
20
6.125374
11
1.009924
21
6.125374
0
LINE
8
tool_path
62
5
10
1.009924
20
6.125374
11
1.007303
21
6.204350
0
LINE
8
tool_path
62
5
10
1.243760
20
6.282854
11
1.007303
21
6.282854
0
LINE
8
tool_path
62
5
10
1.007303
20
6.282854
11
1.007303
21
6.361831
0
LINE
8
tool_path
62
5
10
1.007303
20
6.361831
11
1.243760
21
6.361831
0
LINE
8
tool_path
62
5
10
1.243760
20
6.361831
11
1.243760
21
6.282854
0
LINE
8
tool_path
62
5
10
1.521122
20
6.643287
11
1.493721
21
6.670728
0
LINE
8
tool_path
62
5
10
1.493721
20
6.670728
11
1.483681
21
6.708169
0
LINE
8
tool_path
62
5
10
1.483681
20
6.708169
11
1.493721
21
6.745649
0
LINE
8
tool_path
62
5
10
1.493721
20
6.745649
11
1.521122
21
6.773051
0
LINE
8
tool_path
62
5
10
1.521122
20
6.773051
11
1.558602
21
6.783090
0
LINE
8
tool_path
62
5
10
1.558602
20
6.783090
11
1.596083
21
6.773051
0
LINE
8
tool_path
62
5
10
1.596083
20
6.773051
11
1.623484
21
6.745649
0
LINE
8
tool_path
62
5
10
1.623484
20
6.745649
11
1.633524
21
6.708169
0
LINE
8
tool_path
62
5
10
1.633524
20
6.708169
11
1.623484
21
6.670728
0
LINE
8
tool_path
62
5
10
1.623484
20
6.670728
11
1.596083
21
6.643287
0
LINE
8
tool_path
62
5
10
1.596083
20
6.643287
11
1.558602
21
6.633248
0
LINE
8
tool_path
62
5
10
1.558602
20
6.633248
11
1.521122
21
6.643287
0
LINE
8
tool_path
62
5
10
4.841652
20
0.956194
11
4.804626
21
0.966122
0
LINE
8
tool_path
62
5
10
4.804626
20
0.966122
11
4.777185
21
0.993524
0
LINE
8
tool_path
62
5
10
4.777185
20
0.993524
11
4.767146
21
1.031004
0
LINE
8
tool_path
62
5
10
4.767146
20
1.031004
11
4.777185
21
1.068445
0
LINE
8
tool_path
62
5
10
4.777185
20
1.068445
11
4.804626
21
1.095886
0
LINE
8
tool_path
62
5
10
4.804626
20
1.095886
11
4.842067
21
1.105925
0
LINE
8
tool_path
62
5
10
4.842067
20
1.105925
11
4.879547
21
1.095886
0
LINE
8
tool_path
62
5
10
4.879547
20
1.095886
11
4.906949
21
1.068445
0
LINE
8
tool_path
62
5
10
4.906949
20
1.068445
11
4.916988
21
1.031004
0
LINE
8
tool_path
62
5
10
4.916988
20
1.031004
11
4.906949
21
0.993524
0
LINE
8
tool_path
62
5
10
4.906949
20
0.993524
11
4.879547
21
0.966122
0
LINE
8
tool_path
62
5
10
4.879547
20
0.966122
11
4.842067
21
0.956082
0
LINE
8
tool_path
62
5
10
4.842067
20
0.956082
11
4.841652
21
0.956194
0
LINE
8
tool_path
62
5
10
4.804626
20
2.848012
11
4.777185
21
2.875413
0
LINE
8
tool_path
62
5
10
4.777185
20
2.875413
11
4.767146
21
2.912894
0
LINE
8
tool_path
62
5
10
4.767146
20
2.912894
11
4.777185
21
2.950334
0
LINE
8
tool_path
62
5
10
4.777185
20
2.950334
11
4.804322
21
2.977471
0
LINE
8
tool_path
62
5
10
4.804322
20
2.977471
11
4.842067
21
2.987815
0
LINE
8
tool_path
62
5
10
4.842067
20
2.987815
11
4.879547
21
2.977775
0
LINE
8
tool_path
62
5
10
4.879547
20
2.977775
11
4.906949
21
2.950334
0
LINE
8
tool_path
62
5
10
4.906949
20
2.950334
11
4.916988
21
2.912894
0
LINE
8
tool_path
62
5
10
4.916988
20
2.912894
11
4.906949
21
2.875413
0
LINE
8
tool_path
62
5
10
4.906949
20
2.875413
11
4.879547
21
2.848012
0
LINE
8
tool_path
62
5
10
4.879547
20
2.848012
11
4.842067
21
2.837972
0
LINE
8
tool_path
62
5
10
4.842067
20
2.837972
11
4.804626
21
2.848012
0
LINE
8
tool_path
62
5
10
6.758974
20
0.436509
11
6.721910
21
0.446437
0
LINE
8
tool_path
62
5
10
6.721910
20
0.446437
11
6.694508
21
0.473878
0
LINE
8
tool_path
62
5
10
6.694508
20
0.473878
11
6.684469
21
0.511319
0
LINE
8
tool_path
62
5
10
6.684469
20
0.511319
11
6.694508
21
0.548799
0
LINE
8
tool_path
62
5
10
6.694508
20
0.548799
11
6.721910
21
0.576200
0
LINE
8
tool_path
62
5
10
6.721910
20
0.576200
11
6.759390
21
0.586240
0
LINE
8
tool_path
62
5
10
6.759390
20
0.586240
11
6.796831
21
0.576200
0
LINE
8
tool_path
62
5
10
6.796831
20
0.576200
11
6.824272
21
0.548799
0
LINE
8
tool_path
62
5
10
6.824272
20
0.548799
11
6.834311
21
0.511319
0
LINE
8
tool_path
62
5
10
6.834311
20
0.511319
11
6.824272
21
0.473878
0
LINE
8
tool_path
62
5
10
6.824272
20
0.473878
11
6.796831
21
0.446437
0
LINE
8
tool_path
62
5
10
6.796831
20
0.446437
11
6.759390
21
0.436398
0
LINE
8
tool_path
62
5
10
6.759390
20
0.436398
11
6.758974
21
0.436509
0
LINE
8
tool_path
62
5
10
4.314390
20
3.645059
11
4.314390
21
3.881516
0
LINE
8
tool_path
62
5
10
4.314390
20
3.881516
11
4.393366
21
3.881516
0
LINE
8
tool_path
62
5
10
4.393366
20
3.881516
11
4.393366
21
3.645059
0
LINE
8
tool_path
62
5
10
4.393366
20
3.645059
11
4.314390
21
3.645059
0
LINE
8
tool_path
62
5
10
4.471870
20
3.645059
11
4.471870
21
3.881516
0
LINE
8
tool_path
62
5
10
4.471870
20
3.881516
11
4.550846
21
3.881516
0
LINE
8
tool_path
62
5
10
4.550846
20
3.881516
11
4.550846
21
3.645059
0
LINE
8
tool_path
62
5
10
4.550846
20
3.645059
11
4.471870
21
3.645059
0
LINE
8
tool_path
62
5
10
6.758974
20
6.593989
11
6.721910
21
6.603917
0
LINE
8
tool_path
62
5
10
6.721910
20
6.603917
11
6.694508
21
6.631358
0
LINE
8
tool_path
62
5
10
6.694508
20
6.631358
11
6.684469
21
6.668799
0
LINE
8
tool_path
62
5
10
6.684469
20
6.668799
11
6.694508
21
6.706279
0
LINE
8
tool_path
62
5
10
6.694508
20
6.706279
11
6.721910
21
6.733681
0
LINE
8
tool_path
62
5
10
6.721910
20
6.733681
11
6.759390
21
6.743720
0
LINE
8
tool_path
62
5
10
6.759390
20
6.743720
11
6.796831
21
6.733681
0
LINE
8
tool_path
62
5
10
6.796831
20
6.733681
11
6.824272
21
6.706279
0
LINE
8
tool_path
62
5
10
6.824272
20
6.706279
11
6.834311
21
6.668799
0
LINE
8
tool_path
62
5
10
6.834311
20
6.668799
11
6.824272
21
6.631358
0
LINE
8
tool_path
62
5
10
6.824272
20
6.631358
11
6.796831
21
6.603917
0
LINE
8
tool_path
62
5
10
6.796831
20
6.603917
11
6.759390
21
6.593878
0
LINE
8
tool_path
62
5
10
6.759390
20
6.593878
11
6.758974
21
6.593989
0
LINE
8
annotation
62
1
10
6.203648
20
1.693930
11
6.203648
21
5.308507
0
LINE
8
annotation
62
1
10
6.203648
20
5.308507
11
5.400081
21
4.504714
0
LINE
8
tool_path
62
5
10
0.000000
20
0.000000
11
7.125984
21
0.000000
0
LINE
8
tool_path
62
5
10
7.125984
20
0.000000
11
7.125984
21
7.125984
0
LINE
8
tool_path
62
5
10
7.125984
20
7.125984
11
0.000000
21
7.125984
0
LINE
8
tool_path
62
5
10
0.000000
20
7.125984
11
0.000000
21
0.000000
0
ENDSEC
0
EOF
