%
M48
M72
T01C0.0236
T02C0.0276
T03C0.0320
T04C0.0354
T05C0.0400
T06C0.0472
T07C0.0709
T08C0.0910
T09C0.1181
T10C0.1380
%
T01
X11119Y18753
X13875Y16587
X11808Y27316
X16828Y34501
T02
X10013Y28308
X10013Y27308
X8524Y28477
X8524Y30477
X9961Y30934
X9961Y29934
X6725Y24457
X5725Y24457
X13174Y2713
X14174Y2713
T03
X14729Y9005
X14729Y10005
X14729Y11005
X14729Y12005
X14729Y13005
X14729Y14005
X14729Y15005
X14729Y16005
X14729Y17005
X14729Y18005
X13997Y20918
X13997Y21918
X13997Y22918
X13997Y23918
X13997Y24918
X13997Y25918
X13997Y26918
X13997Y27918
X13997Y28918
X13997Y29918
X13997Y30918
X13997Y31918
X13997Y32918
X13997Y33918
X10997Y33918
X10997Y32918
X10997Y31918
X10997Y30918
X10997Y29918
X10997Y28918
X10997Y27918
X10997Y26918
X10997Y25918
X10997Y24918
X10997Y23918
X10997Y22918
X10997Y21918
X10997Y20918
X11729Y18005
X11729Y17005
X11729Y16005
X11729Y15005
X11729Y14005
X11729Y13005
X11729Y12005
X11729Y11005
X11729Y10005
X11729Y9005
X19363Y27123
X20363Y27123
X20351Y30371
X19351Y30371
X19347Y33816
X20347Y33816
T04
X19418Y35780
X17910Y34532
X15418Y35780
X17910Y30532
X17910Y29512
X17910Y25512
X16304Y25631
X16304Y24631
X16304Y23631
X15304Y23631
X15304Y24631
X15304Y25631
X10135Y19276
X10135Y15276
X6887Y28268
X5607Y28268
X5607Y32268
X6887Y32268
X8493Y34009
X4493Y34009
T05
X4686Y35717
X3686Y35717
X5993Y35745
X6993Y35745
X8312Y35745
X9312Y35745
X9481Y33717
X9481Y32717
X8922Y26461
X8922Y25461
X8922Y24461
X15580Y26855
X15580Y27855
X15580Y28855
X15580Y29855
X15580Y30855
X15580Y31855
X15580Y32855
X15580Y33855
X17509Y24072
X17509Y23072
X17509Y22072
X17509Y21072
X17509Y20072
X17509Y19072
X17509Y18072
X17509Y17072
X17509Y16072
X17509Y15072
X17509Y14072
X17509Y13072
X17509Y12072
X17509Y11072
X18509Y11072
X18509Y12072
X18509Y13072
X18509Y14072
X18509Y15072
X18509Y16072
X18509Y17072
X18509Y18072
X18509Y19072
X18509Y20072
X18509Y21072
X18509Y22072
X18509Y23072
X18509Y24072
X19922Y24072
X19922Y23072
X19922Y22072
X19922Y21072
X19922Y20072
X19922Y19072
X19922Y18072
X19922Y17072
X19922Y16072
X19922Y15072
X19922Y14072
X19922Y13072
X19922Y12072
X19922Y11072
X20922Y11072
X20922Y12072
X20922Y13072
X20922Y14072
X20922Y15072
X20922Y16072
X20922Y17072
X20922Y18072
X20922Y19072
X20922Y20072
X20922Y21072
X20922Y22072
X20922Y23072
X20922Y24072
X16009Y14201
X16009Y13201
X16009Y12201
X16009Y11201
X16009Y10201
X16009Y9201
X10367Y9233
X10367Y10233
X10367Y11233
X10367Y12233
X10367Y13233
X10367Y14233
T06
X2709Y25427
X2709Y26945
X2709Y28533
X2709Y30051
X2709Y31639
X2709Y33157
T07
X6674Y22103
X6674Y20449
X6674Y18796
X6674Y17142
X6674Y15489
X6674Y13835
X6674Y12182
X6674Y10528
X6674Y8875
X6674Y7221
X6674Y5568
X6674Y3914
X8839Y3914
X8839Y5568
X8839Y7221
X8839Y8875
X8839Y10528
X8839Y12182
X8839Y13835
X8839Y15489
X8839Y17142
X8839Y18796
X8839Y20449
X8839Y22103
T08
X17536Y7936
X17536Y2766
T09
X3800Y3914
X3800Y22103
T10
X1965Y1922
X20666Y1922
X20666Y35682
X1965Y35682
M30
