G75*
G70*
%OFA0B0*%
%FSLAX24Y24*%
%IPPOS*%
%LPD*%
%AMOC8*
5,1,8,0,0,1.08239X$1,22.5*
%
%ADD10C,0.0000*%
%ADD11C,0.0030*%
%ADD12C,0.0100*%
%ADD13C,0.0160*%
%ADD14C,0.0120*%
%ADD15C,0.0020*%
%ADD16R,0.0394X0.0394*%
%ADD17C,0.0835*%
%ADD18C,0.0880*%
%ADD19C,0.0060*%
%ADD20C,0.0050*%
%ADD21C,0.0080*%
%ADD22C,0.0010*%
D10*
X000981Y000938D02*
X000981Y036568D01*
X021650Y036568D01*
X021650Y000938D01*
X000981Y000938D01*
X001275Y001922D02*
X001277Y001974D01*
X001283Y002026D01*
X001293Y002077D01*
X001306Y002128D01*
X001324Y002177D01*
X001345Y002225D01*
X001370Y002271D01*
X001398Y002315D01*
X001429Y002357D01*
X001463Y002396D01*
X001501Y002432D01*
X001541Y002466D01*
X001583Y002497D01*
X001628Y002524D01*
X001674Y002548D01*
X001722Y002568D01*
X001772Y002584D01*
X001822Y002597D01*
X001874Y002606D01*
X001926Y002611D01*
X001978Y002612D01*
X002030Y002609D01*
X002082Y002602D01*
X002133Y002591D01*
X002183Y002577D01*
X002232Y002558D01*
X002279Y002536D01*
X002325Y002511D01*
X002368Y002482D01*
X002410Y002450D01*
X002448Y002414D01*
X002484Y002377D01*
X002517Y002336D01*
X002547Y002293D01*
X002573Y002248D01*
X002596Y002201D01*
X002615Y002153D01*
X002631Y002103D01*
X002643Y002052D01*
X002651Y002000D01*
X002655Y001948D01*
X002655Y001896D01*
X002651Y001844D01*
X002643Y001792D01*
X002631Y001741D01*
X002615Y001691D01*
X002596Y001643D01*
X002573Y001596D01*
X002547Y001551D01*
X002517Y001508D01*
X002484Y001467D01*
X002448Y001430D01*
X002410Y001394D01*
X002368Y001362D01*
X002325Y001333D01*
X002279Y001308D01*
X002232Y001286D01*
X002183Y001267D01*
X002133Y001253D01*
X002082Y001242D01*
X002030Y001235D01*
X001978Y001232D01*
X001926Y001233D01*
X001874Y001238D01*
X001822Y001247D01*
X001772Y001260D01*
X001722Y001276D01*
X001674Y001296D01*
X001628Y001320D01*
X001583Y001347D01*
X001541Y001378D01*
X001501Y001412D01*
X001463Y001448D01*
X001429Y001487D01*
X001398Y001529D01*
X001370Y001573D01*
X001345Y001619D01*
X001324Y001667D01*
X001306Y001716D01*
X001293Y001767D01*
X001283Y001818D01*
X001277Y001870D01*
X001275Y001922D01*
X003209Y003914D02*
X003211Y003962D01*
X003217Y004010D01*
X003227Y004057D01*
X003240Y004103D01*
X003258Y004148D01*
X003278Y004192D01*
X003303Y004234D01*
X003331Y004273D01*
X003361Y004310D01*
X003395Y004344D01*
X003432Y004376D01*
X003470Y004405D01*
X003511Y004430D01*
X003554Y004452D01*
X003599Y004470D01*
X003645Y004484D01*
X003692Y004495D01*
X003740Y004502D01*
X003788Y004505D01*
X003836Y004504D01*
X003884Y004499D01*
X003932Y004490D01*
X003978Y004478D01*
X004023Y004461D01*
X004067Y004441D01*
X004109Y004418D01*
X004149Y004391D01*
X004187Y004361D01*
X004222Y004328D01*
X004254Y004292D01*
X004284Y004254D01*
X004310Y004213D01*
X004332Y004170D01*
X004352Y004126D01*
X004367Y004081D01*
X004379Y004034D01*
X004387Y003986D01*
X004391Y003938D01*
X004391Y003890D01*
X004387Y003842D01*
X004379Y003794D01*
X004367Y003747D01*
X004352Y003702D01*
X004332Y003658D01*
X004310Y003615D01*
X004284Y003574D01*
X004254Y003536D01*
X004222Y003500D01*
X004187Y003467D01*
X004149Y003437D01*
X004109Y003410D01*
X004067Y003387D01*
X004023Y003367D01*
X003978Y003350D01*
X003932Y003338D01*
X003884Y003329D01*
X003836Y003324D01*
X003788Y003323D01*
X003740Y003326D01*
X003692Y003333D01*
X003645Y003344D01*
X003599Y003358D01*
X003554Y003376D01*
X003511Y003398D01*
X003470Y003423D01*
X003432Y003452D01*
X003395Y003484D01*
X003361Y003518D01*
X003331Y003555D01*
X003303Y003594D01*
X003278Y003636D01*
X003258Y003680D01*
X003240Y003725D01*
X003227Y003771D01*
X003217Y003818D01*
X003211Y003866D01*
X003209Y003914D01*
X003209Y022103D02*
X003211Y022151D01*
X003217Y022199D01*
X003227Y022246D01*
X003240Y022292D01*
X003258Y022337D01*
X003278Y022381D01*
X003303Y022423D01*
X003331Y022462D01*
X003361Y022499D01*
X003395Y022533D01*
X003432Y022565D01*
X003470Y022594D01*
X003511Y022619D01*
X003554Y022641D01*
X003599Y022659D01*
X003645Y022673D01*
X003692Y022684D01*
X003740Y022691D01*
X003788Y022694D01*
X003836Y022693D01*
X003884Y022688D01*
X003932Y022679D01*
X003978Y022667D01*
X004023Y022650D01*
X004067Y022630D01*
X004109Y022607D01*
X004149Y022580D01*
X004187Y022550D01*
X004222Y022517D01*
X004254Y022481D01*
X004284Y022443D01*
X004310Y022402D01*
X004332Y022359D01*
X004352Y022315D01*
X004367Y022270D01*
X004379Y022223D01*
X004387Y022175D01*
X004391Y022127D01*
X004391Y022079D01*
X004387Y022031D01*
X004379Y021983D01*
X004367Y021936D01*
X004352Y021891D01*
X004332Y021847D01*
X004310Y021804D01*
X004284Y021763D01*
X004254Y021725D01*
X004222Y021689D01*
X004187Y021656D01*
X004149Y021626D01*
X004109Y021599D01*
X004067Y021576D01*
X004023Y021556D01*
X003978Y021539D01*
X003932Y021527D01*
X003884Y021518D01*
X003836Y021513D01*
X003788Y021512D01*
X003740Y021515D01*
X003692Y021522D01*
X003645Y021533D01*
X003599Y021547D01*
X003554Y021565D01*
X003511Y021587D01*
X003470Y021612D01*
X003432Y021641D01*
X003395Y021673D01*
X003361Y021707D01*
X003331Y021744D01*
X003303Y021783D01*
X003278Y021825D01*
X003258Y021869D01*
X003240Y021914D01*
X003227Y021960D01*
X003217Y022007D01*
X003211Y022055D01*
X003209Y022103D01*
X001275Y035682D02*
X001277Y035734D01*
X001283Y035786D01*
X001293Y035837D01*
X001306Y035888D01*
X001324Y035937D01*
X001345Y035985D01*
X001370Y036031D01*
X001398Y036075D01*
X001429Y036117D01*
X001463Y036156D01*
X001501Y036192D01*
X001541Y036226D01*
X001583Y036257D01*
X001628Y036284D01*
X001674Y036308D01*
X001722Y036328D01*
X001772Y036344D01*
X001822Y036357D01*
X001874Y036366D01*
X001926Y036371D01*
X001978Y036372D01*
X002030Y036369D01*
X002082Y036362D01*
X002133Y036351D01*
X002183Y036337D01*
X002232Y036318D01*
X002279Y036296D01*
X002325Y036271D01*
X002368Y036242D01*
X002410Y036210D01*
X002448Y036174D01*
X002484Y036137D01*
X002517Y036096D01*
X002547Y036053D01*
X002573Y036008D01*
X002596Y035961D01*
X002615Y035913D01*
X002631Y035863D01*
X002643Y035812D01*
X002651Y035760D01*
X002655Y035708D01*
X002655Y035656D01*
X002651Y035604D01*
X002643Y035552D01*
X002631Y035501D01*
X002615Y035451D01*
X002596Y035403D01*
X002573Y035356D01*
X002547Y035311D01*
X002517Y035268D01*
X002484Y035227D01*
X002448Y035190D01*
X002410Y035154D01*
X002368Y035122D01*
X002325Y035093D01*
X002279Y035068D01*
X002232Y035046D01*
X002183Y035027D01*
X002133Y035013D01*
X002082Y035002D01*
X002030Y034995D01*
X001978Y034992D01*
X001926Y034993D01*
X001874Y034998D01*
X001822Y035007D01*
X001772Y035020D01*
X001722Y035036D01*
X001674Y035056D01*
X001628Y035080D01*
X001583Y035107D01*
X001541Y035138D01*
X001501Y035172D01*
X001463Y035208D01*
X001429Y035247D01*
X001398Y035289D01*
X001370Y035333D01*
X001345Y035379D01*
X001324Y035427D01*
X001306Y035476D01*
X001293Y035527D01*
X001283Y035578D01*
X001277Y035630D01*
X001275Y035682D01*
X019976Y035682D02*
X019978Y035734D01*
X019984Y035786D01*
X019994Y035837D01*
X020007Y035888D01*
X020025Y035937D01*
X020046Y035985D01*
X020071Y036031D01*
X020099Y036075D01*
X020130Y036117D01*
X020164Y036156D01*
X020202Y036192D01*
X020242Y036226D01*
X020284Y036257D01*
X020329Y036284D01*
X020375Y036308D01*
X020423Y036328D01*
X020473Y036344D01*
X020523Y036357D01*
X020575Y036366D01*
X020627Y036371D01*
X020679Y036372D01*
X020731Y036369D01*
X020783Y036362D01*
X020834Y036351D01*
X020884Y036337D01*
X020933Y036318D01*
X020980Y036296D01*
X021026Y036271D01*
X021069Y036242D01*
X021111Y036210D01*
X021149Y036174D01*
X021185Y036137D01*
X021218Y036096D01*
X021248Y036053D01*
X021274Y036008D01*
X021297Y035961D01*
X021316Y035913D01*
X021332Y035863D01*
X021344Y035812D01*
X021352Y035760D01*
X021356Y035708D01*
X021356Y035656D01*
X021352Y035604D01*
X021344Y035552D01*
X021332Y035501D01*
X021316Y035451D01*
X021297Y035403D01*
X021274Y035356D01*
X021248Y035311D01*
X021218Y035268D01*
X021185Y035227D01*
X021149Y035190D01*
X021111Y035154D01*
X021069Y035122D01*
X021026Y035093D01*
X020980Y035068D01*
X020933Y035046D01*
X020884Y035027D01*
X020834Y035013D01*
X020783Y035002D01*
X020731Y034995D01*
X020679Y034992D01*
X020627Y034993D01*
X020575Y034998D01*
X020523Y035007D01*
X020473Y035020D01*
X020423Y035036D01*
X020375Y035056D01*
X020329Y035080D01*
X020284Y035107D01*
X020242Y035138D01*
X020202Y035172D01*
X020164Y035208D01*
X020130Y035247D01*
X020099Y035289D01*
X020071Y035333D01*
X020046Y035379D01*
X020025Y035427D01*
X020007Y035476D01*
X019994Y035527D01*
X019984Y035578D01*
X019978Y035630D01*
X019976Y035682D01*
X019976Y001922D02*
X019978Y001974D01*
X019984Y002026D01*
X019994Y002077D01*
X020007Y002128D01*
X020025Y002177D01*
X020046Y002225D01*
X020071Y002271D01*
X020099Y002315D01*
X020130Y002357D01*
X020164Y002396D01*
X020202Y002432D01*
X020242Y002466D01*
X020284Y002497D01*
X020329Y002524D01*
X020375Y002548D01*
X020423Y002568D01*
X020473Y002584D01*
X020523Y002597D01*
X020575Y002606D01*
X020627Y002611D01*
X020679Y002612D01*
X020731Y002609D01*
X020783Y002602D01*
X020834Y002591D01*
X020884Y002577D01*
X020933Y002558D01*
X020980Y002536D01*
X021026Y002511D01*
X021069Y002482D01*
X021111Y002450D01*
X021149Y002414D01*
X021185Y002377D01*
X021218Y002336D01*
X021248Y002293D01*
X021274Y002248D01*
X021297Y002201D01*
X021316Y002153D01*
X021332Y002103D01*
X021344Y002052D01*
X021352Y002000D01*
X021356Y001948D01*
X021356Y001896D01*
X021352Y001844D01*
X021344Y001792D01*
X021332Y001741D01*
X021316Y001691D01*
X021297Y001643D01*
X021274Y001596D01*
X021248Y001551D01*
X021218Y001508D01*
X021185Y001467D01*
X021149Y001430D01*
X021111Y001394D01*
X021069Y001362D01*
X021026Y001333D01*
X020980Y001308D01*
X020933Y001286D01*
X020884Y001267D01*
X020834Y001253D01*
X020783Y001242D01*
X020731Y001235D01*
X020679Y001232D01*
X020627Y001233D01*
X020575Y001238D01*
X020523Y001247D01*
X020473Y001260D01*
X020423Y001276D01*
X020375Y001296D01*
X020329Y001320D01*
X020284Y001347D01*
X020242Y001378D01*
X020202Y001412D01*
X020164Y001448D01*
X020130Y001487D01*
X020099Y001529D01*
X020071Y001573D01*
X020046Y001619D01*
X020025Y001667D01*
X020007Y001716D01*
X019994Y001767D01*
X019984Y001818D01*
X019978Y001870D01*
X019976Y001922D01*
D11*
X019083Y001710D02*
X018836Y001710D01*
X018715Y001710D02*
X018715Y001402D01*
X018653Y001340D01*
X018530Y001340D01*
X018468Y001402D01*
X018468Y001710D01*
X018347Y001649D02*
X018347Y001402D01*
X018285Y001340D01*
X018162Y001340D01*
X018100Y001402D01*
X018100Y001649D01*
X018162Y001710D01*
X018285Y001710D01*
X018347Y001649D01*
X018960Y001710D02*
X018960Y001340D01*
X017610Y001464D02*
X017610Y001710D01*
X017610Y001464D02*
X017487Y001340D01*
X017363Y001464D01*
X017363Y001710D01*
X017242Y001710D02*
X016995Y001710D01*
X016995Y001525D01*
X017118Y001587D01*
X017180Y001587D01*
X017242Y001525D01*
X017242Y001402D01*
X017180Y001340D01*
X017057Y001340D01*
X016995Y001402D01*
X016504Y001340D02*
X016381Y001340D01*
X016443Y001340D02*
X016443Y001710D01*
X016504Y001710D02*
X016381Y001710D01*
X016260Y001649D02*
X016260Y001525D01*
X016198Y001464D01*
X016013Y001464D01*
X016013Y001340D02*
X016013Y001710D01*
X016198Y001710D01*
X016260Y001649D01*
X015891Y001649D02*
X015891Y001525D01*
X015830Y001464D01*
X015644Y001464D01*
X015768Y001464D02*
X015891Y001340D01*
X015644Y001340D02*
X015644Y001710D01*
X015830Y001710D01*
X015891Y001649D01*
X013478Y005283D02*
X013540Y005345D01*
X013540Y005592D01*
X013478Y005654D01*
X013293Y005654D01*
X013293Y005283D01*
X013478Y005283D01*
X013172Y005283D02*
X012925Y005283D01*
X012925Y005654D01*
X013172Y005654D01*
X013048Y005469D02*
X012925Y005469D01*
X012803Y005407D02*
X012803Y005654D01*
X012556Y005654D02*
X012556Y005407D01*
X012680Y005283D01*
X012803Y005407D01*
X012435Y005469D02*
X012373Y005407D01*
X012188Y005407D01*
X012312Y005407D02*
X012435Y005283D01*
X012435Y005469D02*
X012435Y005592D01*
X012373Y005654D01*
X012188Y005654D01*
X012188Y005283D01*
X012067Y005283D02*
X011820Y005283D01*
X011820Y005654D01*
X012067Y005654D01*
X011943Y005469D02*
X011820Y005469D01*
X011698Y005407D02*
X011698Y005345D01*
X011637Y005283D01*
X011513Y005283D01*
X011451Y005345D01*
X011330Y005283D02*
X011083Y005283D01*
X011083Y005654D01*
X011330Y005654D01*
X011451Y005592D02*
X011451Y005530D01*
X011513Y005469D01*
X011637Y005469D01*
X011698Y005407D01*
X011698Y005592D02*
X011637Y005654D01*
X011513Y005654D01*
X011451Y005592D01*
X011207Y005469D02*
X011083Y005469D01*
X010962Y005469D02*
X010962Y005592D01*
X010900Y005654D01*
X010715Y005654D01*
X010715Y005283D01*
X010715Y005407D02*
X010900Y005407D01*
X010962Y005469D01*
X010838Y005407D02*
X010962Y005283D01*
X010593Y005407D02*
X010346Y005407D01*
X010346Y005530D02*
X010593Y005530D01*
X010715Y005972D02*
X010715Y006343D01*
X010962Y005972D01*
X010962Y006343D01*
X011083Y006281D02*
X011083Y006034D01*
X011145Y005972D01*
X011268Y005972D01*
X011330Y006034D01*
X011330Y006281D01*
X011268Y006343D01*
X011145Y006343D01*
X011083Y006281D01*
X011022Y006760D02*
X010898Y006760D01*
X010837Y006821D01*
X010837Y007068D01*
X010898Y007130D01*
X011022Y007130D01*
X011083Y007068D01*
X011083Y006821D01*
X011022Y006760D01*
X010714Y006760D02*
X010591Y006760D01*
X010653Y006760D02*
X010653Y007130D01*
X010714Y007130D02*
X010591Y007130D01*
X010470Y007068D02*
X010470Y006945D01*
X010408Y006883D01*
X010223Y006883D01*
X010223Y006760D02*
X010223Y007130D01*
X010408Y007130D01*
X010470Y007068D01*
X010101Y007068D02*
X010040Y007130D01*
X009916Y007130D01*
X009854Y007068D01*
X009854Y006821D01*
X009916Y006760D01*
X010040Y006760D01*
X010101Y006821D01*
X010101Y006945D01*
X009978Y006945D01*
X010346Y006219D02*
X010593Y006219D01*
X010593Y006096D02*
X010346Y006096D01*
X011573Y006760D02*
X011573Y007130D01*
X011758Y007130D01*
X011820Y007068D01*
X011820Y006945D01*
X011758Y006883D01*
X011573Y006883D01*
X011941Y006760D02*
X012065Y006760D01*
X012003Y006760D02*
X012003Y007130D01*
X011941Y007130D02*
X012065Y007130D01*
X012187Y007130D02*
X012434Y006760D01*
X012434Y007130D01*
X012555Y007068D02*
X012555Y007007D01*
X012617Y006945D01*
X012740Y006945D01*
X012802Y006883D01*
X012802Y006821D01*
X012740Y006760D01*
X012617Y006760D01*
X012555Y006821D01*
X012555Y007068D02*
X012617Y007130D01*
X012740Y007130D01*
X012802Y007068D01*
X012803Y006343D02*
X012803Y005972D01*
X012556Y006343D01*
X012556Y005972D01*
X012435Y006034D02*
X012435Y006281D01*
X012373Y006343D01*
X012250Y006343D01*
X012188Y006281D01*
X012188Y006034D01*
X012250Y005972D01*
X012373Y005972D01*
X012435Y006034D01*
X012067Y006034D02*
X012005Y005972D01*
X011881Y005972D01*
X011820Y006034D01*
X011820Y006281D01*
X011881Y006343D01*
X012005Y006343D01*
X012067Y006281D01*
X012187Y006760D02*
X012187Y007130D01*
X012925Y006343D02*
X012925Y005972D01*
X013172Y005972D02*
X012925Y006343D01*
X013172Y006343D02*
X013172Y005972D01*
X013293Y005972D02*
X013540Y005972D01*
X013661Y006034D02*
X013723Y005972D01*
X013846Y005972D01*
X013908Y006034D01*
X013661Y006034D02*
X013661Y006281D01*
X013723Y006343D01*
X013846Y006343D01*
X013908Y006281D01*
X014030Y006343D02*
X014277Y006343D01*
X014398Y006343D02*
X014521Y006343D01*
X014460Y006343D02*
X014460Y005972D01*
X014521Y005972D02*
X014398Y005972D01*
X014153Y005972D02*
X014153Y006343D01*
X014643Y006281D02*
X014643Y006034D01*
X014705Y005972D01*
X014829Y005972D01*
X014890Y006034D01*
X014890Y006281D01*
X014829Y006343D01*
X014705Y006343D01*
X014643Y006281D01*
X015012Y006343D02*
X015259Y005972D01*
X015259Y006343D01*
X015012Y006343D02*
X015012Y005972D01*
X015526Y008039D02*
X015465Y008101D01*
X015526Y008039D02*
X015650Y008039D01*
X015711Y008101D01*
X015711Y008163D01*
X015650Y008224D01*
X015588Y008224D01*
X015650Y008224D02*
X015711Y008286D01*
X015711Y008348D01*
X015650Y008410D01*
X015526Y008410D01*
X015465Y008348D01*
X015833Y008101D02*
X015895Y008101D01*
X015895Y008039D01*
X015833Y008039D01*
X015833Y008101D01*
X016017Y008101D02*
X016079Y008039D01*
X016202Y008039D01*
X016264Y008101D01*
X016264Y008163D01*
X016202Y008224D01*
X016141Y008224D01*
X016202Y008224D02*
X016264Y008286D01*
X016264Y008348D01*
X016202Y008410D01*
X016079Y008410D01*
X016017Y008348D01*
X016385Y008410D02*
X016385Y008163D01*
X016509Y008039D01*
X016632Y008163D01*
X016632Y008410D01*
X018221Y009220D02*
X018221Y009591D01*
X018406Y009591D01*
X018467Y009529D01*
X018467Y009406D01*
X018406Y009344D01*
X018221Y009344D01*
X018344Y009344D02*
X018467Y009220D01*
X018589Y009220D02*
X018589Y009591D01*
X018774Y009591D01*
X018836Y009529D01*
X018836Y009406D01*
X018774Y009344D01*
X018589Y009344D01*
X018541Y010008D02*
X018541Y010378D01*
X018417Y010255D01*
X018417Y010008D02*
X018664Y010008D01*
X018957Y009591D02*
X019081Y009591D01*
X019019Y009591D02*
X019019Y009220D01*
X018957Y009220D02*
X019081Y009220D01*
X019571Y009282D02*
X019633Y009220D01*
X019756Y009220D01*
X019818Y009282D01*
X019818Y009406D01*
X019694Y009406D01*
X019571Y009529D02*
X019571Y009282D01*
X019571Y009529D02*
X019633Y009591D01*
X019756Y009591D01*
X019818Y009529D01*
X019939Y009591D02*
X020124Y009591D01*
X020186Y009529D01*
X020186Y009406D01*
X020124Y009344D01*
X019939Y009344D01*
X019939Y009220D02*
X019939Y009591D01*
X020308Y009591D02*
X020431Y009591D01*
X020369Y009591D02*
X020369Y009220D01*
X020308Y009220D02*
X020431Y009220D01*
X020553Y009282D02*
X020553Y009529D01*
X020615Y009591D01*
X020738Y009591D01*
X020800Y009529D01*
X020800Y009282D01*
X020738Y009220D01*
X020615Y009220D01*
X020553Y009282D01*
X020878Y010008D02*
X021125Y010008D01*
X021001Y010008D02*
X021001Y010378D01*
X020878Y010255D01*
X013540Y006343D02*
X013293Y006343D01*
X013293Y005972D01*
X013293Y006158D02*
X013416Y006158D01*
X012868Y004473D02*
X012683Y004287D01*
X012930Y004287D01*
X012868Y004102D02*
X012868Y004473D01*
X012562Y004411D02*
X012500Y004473D01*
X012377Y004473D01*
X012315Y004411D01*
X012315Y004164D01*
X012377Y004102D01*
X012500Y004102D01*
X012562Y004164D01*
X012587Y001495D02*
X012649Y001495D01*
X012711Y001433D01*
X012772Y001495D01*
X012834Y001433D01*
X012834Y001248D01*
X012711Y001248D02*
X012711Y001433D01*
X012587Y001495D02*
X012587Y001248D01*
X012466Y001310D02*
X012466Y001433D01*
X012404Y001495D01*
X012281Y001495D01*
X012219Y001433D01*
X012219Y001310D01*
X012281Y001248D01*
X012404Y001248D01*
X012466Y001310D01*
X012097Y001248D02*
X011912Y001248D01*
X011851Y001310D01*
X011851Y001433D01*
X011912Y001495D01*
X012097Y001495D01*
X011728Y001310D02*
X011728Y001248D01*
X011666Y001248D01*
X011666Y001310D01*
X011728Y001310D01*
X011544Y001248D02*
X011421Y001248D01*
X011483Y001248D02*
X011483Y001618D01*
X011421Y001618D01*
X011237Y001618D02*
X011237Y001680D01*
X011237Y001495D02*
X011237Y001248D01*
X011175Y001248D02*
X011299Y001248D01*
X011054Y001248D02*
X010869Y001248D01*
X010807Y001310D01*
X010869Y001371D01*
X011054Y001371D01*
X011054Y001433D02*
X011054Y001248D01*
X011054Y001433D02*
X010992Y001495D01*
X010869Y001495D01*
X010686Y001433D02*
X010686Y001248D01*
X010562Y001248D02*
X010562Y001433D01*
X010624Y001495D01*
X010686Y001433D01*
X010562Y001433D02*
X010500Y001495D01*
X010439Y001495D01*
X010439Y001248D01*
X010317Y001248D02*
X010132Y001248D01*
X010070Y001310D01*
X010070Y001433D01*
X010132Y001495D01*
X010317Y001495D01*
X010317Y001186D01*
X010256Y001125D01*
X010194Y001125D01*
X009949Y001310D02*
X009887Y001248D01*
X009764Y001248D01*
X009702Y001310D01*
X009702Y001557D01*
X009764Y001618D01*
X009887Y001618D01*
X009949Y001557D01*
X009949Y001433D01*
X009887Y001371D01*
X009887Y001495D01*
X009764Y001495D01*
X009764Y001371D01*
X009887Y001371D01*
X009581Y001618D02*
X009334Y001618D01*
X009334Y001248D01*
X009212Y001310D02*
X009151Y001248D01*
X009027Y001248D01*
X008965Y001310D01*
X008844Y001310D02*
X008782Y001248D01*
X008659Y001248D01*
X008597Y001310D01*
X008476Y001310D02*
X008414Y001248D01*
X008291Y001248D01*
X008229Y001310D01*
X008229Y001371D01*
X008291Y001433D01*
X008414Y001433D01*
X008476Y001371D01*
X008476Y001310D01*
X008414Y001433D02*
X008476Y001495D01*
X008476Y001557D01*
X008414Y001618D01*
X008291Y001618D01*
X008229Y001557D01*
X008229Y001495D01*
X008291Y001433D01*
X008107Y001310D02*
X008107Y001557D01*
X008046Y001618D01*
X007860Y001618D01*
X007860Y001248D01*
X008046Y001248D01*
X008107Y001310D01*
X007739Y001248D02*
X007554Y001433D01*
X007492Y001371D02*
X007739Y001618D01*
X007739Y001839D02*
X007616Y001962D01*
X007677Y001962D02*
X007492Y001962D01*
X007492Y001839D02*
X007492Y002209D01*
X007677Y002209D01*
X007739Y002147D01*
X007739Y002024D01*
X007677Y001962D01*
X007860Y002024D02*
X007984Y002024D01*
X008107Y002209D02*
X007860Y002209D01*
X007860Y001839D01*
X008107Y001839D01*
X008229Y001962D02*
X008352Y001839D01*
X008476Y001962D01*
X008476Y002209D01*
X008229Y002209D02*
X008229Y001962D01*
X008597Y001557D02*
X008597Y001495D01*
X008659Y001433D01*
X008782Y001433D01*
X008844Y001371D01*
X008844Y001310D01*
X009027Y001433D02*
X008965Y001495D01*
X008965Y001557D01*
X009027Y001618D01*
X009151Y001618D01*
X009212Y001557D01*
X009151Y001433D02*
X009212Y001371D01*
X009212Y001310D01*
X009151Y001433D02*
X009027Y001433D01*
X008844Y001557D02*
X008782Y001618D01*
X008659Y001618D01*
X008597Y001557D01*
X008965Y001839D02*
X009212Y002085D01*
X009212Y002147D01*
X009151Y002209D01*
X009027Y002209D01*
X008965Y002147D01*
X008965Y001839D02*
X009212Y001839D01*
X009334Y001839D02*
X009334Y001900D01*
X009395Y001900D01*
X009395Y001839D01*
X009334Y001839D01*
X009518Y001900D02*
X009765Y002147D01*
X009765Y001900D01*
X009703Y001839D01*
X009580Y001839D01*
X009518Y001900D01*
X009518Y002147D01*
X009580Y002209D01*
X009703Y002209D01*
X009765Y002147D01*
X009457Y001433D02*
X009334Y001433D01*
X011175Y001495D02*
X011237Y001495D01*
X007492Y001618D02*
X007492Y001248D01*
X006993Y001248D02*
X006993Y001495D01*
X006870Y001618D01*
X006746Y001495D01*
X006746Y001248D01*
X006625Y001310D02*
X006563Y001248D01*
X006440Y001248D01*
X006378Y001310D01*
X006440Y001433D02*
X006378Y001495D01*
X006378Y001557D01*
X006440Y001618D01*
X006563Y001618D01*
X006625Y001557D01*
X006563Y001433D02*
X006625Y001371D01*
X006625Y001310D01*
X006563Y001433D02*
X006440Y001433D01*
X006256Y001433D02*
X006010Y001433D01*
X005888Y001310D02*
X005826Y001248D01*
X005703Y001248D01*
X005641Y001310D01*
X005641Y001557D01*
X005703Y001618D01*
X005826Y001618D01*
X005888Y001557D01*
X005520Y001618D02*
X005520Y001248D01*
X005273Y001618D01*
X005273Y001248D01*
X005151Y001433D02*
X004905Y001433D01*
X004783Y001557D02*
X004783Y001618D01*
X004783Y001557D02*
X004660Y001433D01*
X004660Y001248D01*
X004660Y001433D02*
X004536Y001557D01*
X004536Y001618D01*
X004415Y001557D02*
X004415Y001495D01*
X004353Y001433D01*
X004168Y001433D01*
X004168Y001248D02*
X004353Y001248D01*
X004415Y001310D01*
X004415Y001371D01*
X004353Y001433D01*
X004415Y001557D02*
X004353Y001618D01*
X004168Y001618D01*
X004168Y001248D01*
X004047Y001839D02*
X003800Y002209D01*
X003678Y002209D02*
X003431Y002209D01*
X003555Y002209D02*
X003555Y001839D01*
X003617Y001618D02*
X003493Y001618D01*
X003431Y001557D01*
X003431Y001310D01*
X003493Y001248D01*
X003617Y001248D01*
X003678Y001310D01*
X003678Y001557D02*
X003617Y001618D01*
X003800Y001839D02*
X004047Y002209D01*
X004168Y002024D02*
X004415Y002024D01*
X004536Y001962D02*
X004721Y001962D01*
X004783Y002024D01*
X004783Y002147D01*
X004721Y002209D01*
X004536Y002209D01*
X004536Y001839D01*
X004905Y001839D02*
X005028Y001839D01*
X004966Y001839D02*
X004966Y002085D01*
X004905Y002085D01*
X004966Y002209D02*
X004966Y002271D01*
X003310Y002085D02*
X003310Y001839D01*
X003310Y002024D02*
X003063Y002024D01*
X003063Y002085D02*
X003186Y002209D01*
X003310Y002085D01*
X003063Y002085D02*
X003063Y001839D01*
X003125Y001618D02*
X003063Y001557D01*
X003063Y001310D01*
X003125Y001248D01*
X003248Y001248D01*
X003310Y001310D01*
X003310Y001557D02*
X003248Y001618D01*
X003125Y001618D01*
X006746Y001433D02*
X006993Y001433D01*
X010211Y008039D02*
X010150Y008101D01*
X010211Y008039D02*
X010335Y008039D01*
X010397Y008101D01*
X010397Y008224D01*
X010335Y008286D01*
X010273Y008286D01*
X010150Y008224D01*
X010150Y008410D01*
X010397Y008410D01*
X010518Y008410D02*
X010518Y008163D01*
X010641Y008039D01*
X010765Y008163D01*
X010765Y008410D01*
X010316Y016307D02*
X009946Y016307D01*
X009946Y016492D01*
X010008Y016554D01*
X010131Y016554D01*
X010193Y016492D01*
X010193Y016307D01*
X010193Y016430D02*
X010316Y016554D01*
X010255Y016675D02*
X010316Y016737D01*
X010316Y016860D01*
X010255Y016922D01*
X010193Y016922D01*
X010131Y016860D01*
X010131Y016675D01*
X010255Y016675D01*
X010131Y016675D02*
X010008Y016799D01*
X009946Y016922D01*
X010703Y019063D02*
X010827Y019063D01*
X010889Y019125D01*
X010889Y019248D01*
X010765Y019248D01*
X010642Y019125D02*
X010642Y019372D01*
X010703Y019433D01*
X010827Y019433D01*
X010889Y019372D01*
X011010Y019433D02*
X011257Y019063D01*
X011257Y019433D01*
X011378Y019433D02*
X011378Y019063D01*
X011564Y019063D01*
X011625Y019125D01*
X011625Y019372D01*
X011564Y019433D01*
X011378Y019433D01*
X011010Y019433D02*
X011010Y019063D01*
X010703Y019063D02*
X010642Y019125D01*
X012118Y019138D02*
X012242Y019138D01*
X012180Y019138D02*
X012180Y018768D01*
X012118Y018768D02*
X012242Y018768D01*
X012364Y018829D02*
X012364Y019076D01*
X012425Y019138D01*
X012549Y019138D01*
X012611Y019076D01*
X012732Y019076D02*
X012794Y019138D01*
X012917Y019138D01*
X012979Y019076D01*
X012979Y019015D01*
X012732Y018768D01*
X012979Y018768D01*
X012611Y018829D02*
X012549Y018768D01*
X012425Y018768D01*
X012364Y018829D01*
X014778Y022600D02*
X014901Y022600D01*
X014839Y022600D02*
X014839Y022970D01*
X014778Y022970D02*
X014901Y022970D01*
X015023Y022909D02*
X015023Y022847D01*
X015085Y022785D01*
X015208Y022785D01*
X015270Y022723D01*
X015270Y022662D01*
X015208Y022600D01*
X015085Y022600D01*
X015023Y022662D01*
X015023Y022909D02*
X015085Y022970D01*
X015208Y022970D01*
X015270Y022909D01*
X015392Y022970D02*
X015392Y022600D01*
X015392Y022723D02*
X015577Y022723D01*
X015638Y022785D01*
X015638Y022909D01*
X015577Y022970D01*
X015392Y022970D01*
X016651Y023092D02*
X016774Y023216D01*
X016774Y022846D01*
X016651Y022846D02*
X016898Y022846D01*
X017722Y026543D02*
X017722Y026728D01*
X017783Y026790D01*
X017907Y026790D01*
X017969Y026728D01*
X017969Y026543D01*
X018092Y026543D02*
X017722Y026543D01*
X017969Y026667D02*
X018092Y026790D01*
X018030Y026912D02*
X018092Y026973D01*
X018092Y027097D01*
X018030Y027158D01*
X017969Y027158D01*
X017907Y027097D01*
X017907Y027035D01*
X017907Y027097D02*
X017845Y027158D01*
X017783Y027158D01*
X017722Y027097D01*
X017722Y026973D01*
X017783Y026912D01*
X017174Y028807D02*
X017050Y028807D01*
X016989Y028869D01*
X017236Y029116D01*
X017236Y028869D01*
X017174Y028807D01*
X016989Y028869D02*
X016989Y029116D01*
X017050Y029177D01*
X017174Y029177D01*
X017236Y029116D01*
X016867Y029116D02*
X016867Y028869D01*
X016805Y028807D01*
X016620Y028807D01*
X016620Y029177D01*
X016805Y029177D01*
X016867Y029116D01*
X016499Y029054D02*
X016499Y028807D01*
X016499Y028992D02*
X016252Y028992D01*
X016252Y029054D02*
X016252Y028807D01*
X016252Y029054D02*
X016375Y029177D01*
X016499Y029054D01*
X016499Y029791D02*
X016499Y030038D01*
X016375Y030162D01*
X016252Y030038D01*
X016252Y029791D01*
X016252Y029976D02*
X016499Y029976D01*
X016620Y029791D02*
X016805Y029791D01*
X016867Y029853D01*
X016867Y030100D01*
X016805Y030162D01*
X016620Y030162D01*
X016620Y029791D01*
X016989Y029791D02*
X017236Y029791D01*
X017112Y029791D02*
X017112Y030162D01*
X016989Y030038D01*
X016989Y030776D02*
X017236Y031022D01*
X017236Y031084D01*
X017174Y031146D01*
X017050Y031146D01*
X016989Y031084D01*
X016867Y031084D02*
X016867Y030837D01*
X016805Y030776D01*
X016620Y030776D01*
X016620Y031146D01*
X016805Y031146D01*
X016867Y031084D01*
X016989Y030776D02*
X017236Y030776D01*
X017722Y031563D02*
X017722Y031748D01*
X017783Y031810D01*
X017907Y031810D01*
X017969Y031748D01*
X017969Y031563D01*
X018092Y031563D02*
X017722Y031563D01*
X017969Y031686D02*
X018092Y031810D01*
X018092Y031931D02*
X017845Y032178D01*
X017783Y032178D01*
X017722Y032116D01*
X017722Y031993D01*
X017783Y031931D01*
X018092Y031931D02*
X018092Y032178D01*
X017236Y032068D02*
X017236Y032007D01*
X017174Y031945D01*
X017236Y031883D01*
X017236Y031821D01*
X017174Y031760D01*
X017050Y031760D01*
X016989Y031821D01*
X016867Y031821D02*
X016867Y032068D01*
X016805Y032130D01*
X016620Y032130D01*
X016620Y031760D01*
X016805Y031760D01*
X016867Y031821D01*
X017112Y031945D02*
X017174Y031945D01*
X017236Y032068D02*
X017174Y032130D01*
X017050Y032130D01*
X016989Y032068D01*
X016499Y032007D02*
X016499Y031760D01*
X016499Y031945D02*
X016252Y031945D01*
X016252Y032007D02*
X016252Y031760D01*
X016252Y032007D02*
X016375Y032130D01*
X016499Y032007D01*
X016499Y032744D02*
X016499Y032991D01*
X016375Y033114D01*
X016252Y032991D01*
X016252Y032744D01*
X016252Y032929D02*
X016499Y032929D01*
X016620Y032744D02*
X016805Y032744D01*
X016867Y032806D01*
X016867Y033053D01*
X016805Y033114D01*
X016620Y033114D01*
X016620Y032744D01*
X016989Y032929D02*
X017236Y032929D01*
X017174Y032744D02*
X017174Y033114D01*
X016989Y032929D01*
X017050Y033728D02*
X016989Y033790D01*
X017050Y033728D02*
X017174Y033728D01*
X017236Y033790D01*
X017236Y033913D01*
X017174Y033975D01*
X017112Y033975D01*
X016989Y033913D01*
X016989Y034099D01*
X017236Y034099D01*
X016867Y034037D02*
X016867Y033790D01*
X016805Y033728D01*
X016620Y033728D01*
X016620Y034099D01*
X016805Y034099D01*
X016867Y034037D01*
X016499Y033975D02*
X016499Y033728D01*
X016499Y033913D02*
X016252Y033913D01*
X016252Y033975D02*
X016375Y034099D01*
X016499Y033975D01*
X016252Y033975D02*
X016252Y033728D01*
X016449Y035598D02*
X016449Y035969D01*
X016634Y035969D01*
X016696Y035907D01*
X016696Y035784D01*
X016634Y035722D01*
X016449Y035722D01*
X016572Y035722D02*
X016696Y035598D01*
X016817Y035598D02*
X017064Y035598D01*
X016941Y035598D02*
X016941Y035969D01*
X016817Y035845D01*
X014407Y035784D02*
X014160Y035784D01*
X014038Y035907D02*
X013977Y035969D01*
X013853Y035969D01*
X013791Y035907D01*
X013791Y035660D01*
X013853Y035598D01*
X013977Y035598D01*
X014038Y035660D01*
X014160Y035598D02*
X014160Y035969D01*
X014407Y035969D02*
X014407Y035598D01*
X012930Y035784D02*
X012868Y035722D01*
X012683Y035722D01*
X012683Y035598D02*
X012683Y035969D01*
X012868Y035969D01*
X012930Y035907D01*
X012930Y035784D01*
X012562Y035907D02*
X012500Y035969D01*
X012377Y035969D01*
X012315Y035907D01*
X012315Y035660D01*
X012377Y035598D01*
X012500Y035598D01*
X012562Y035660D01*
X012265Y034984D02*
X012265Y034614D01*
X012388Y034614D02*
X012141Y034614D01*
X012020Y034676D02*
X011958Y034614D01*
X011835Y034614D01*
X011773Y034676D01*
X011773Y034923D01*
X011835Y034984D01*
X011958Y034984D01*
X012020Y034923D01*
X012141Y034861D02*
X012265Y034984D01*
X011651Y034984D02*
X011528Y034984D01*
X011589Y034984D02*
X011589Y034614D01*
X011528Y034614D02*
X011651Y034614D01*
X011392Y035598D02*
X011269Y035598D01*
X011207Y035660D01*
X011085Y035660D02*
X011024Y035598D01*
X010900Y035598D01*
X010839Y035660D01*
X010839Y035907D01*
X010900Y035969D01*
X011024Y035969D01*
X011085Y035907D01*
X011207Y035907D02*
X011207Y035845D01*
X011269Y035784D01*
X011392Y035784D01*
X011454Y035722D01*
X011454Y035660D01*
X011392Y035598D01*
X011454Y035907D02*
X011392Y035969D01*
X011269Y035969D01*
X011207Y035907D01*
X010415Y034048D02*
X010045Y033801D01*
X010106Y033680D02*
X010230Y033680D01*
X010291Y033618D01*
X010291Y033433D01*
X010291Y033556D02*
X010415Y033680D01*
X010415Y033801D02*
X010045Y034048D01*
X010106Y033680D02*
X010045Y033618D01*
X010045Y033433D01*
X010415Y033433D01*
X010149Y031736D02*
X010149Y031366D01*
X010026Y031366D02*
X010273Y031366D01*
X010026Y031613D02*
X010149Y031736D01*
X009904Y031675D02*
X009843Y031736D01*
X009719Y031736D01*
X009658Y031675D01*
X009658Y031428D01*
X009719Y031366D01*
X009843Y031366D01*
X009904Y031428D01*
X008840Y032572D02*
X008470Y032572D01*
X008470Y032449D02*
X008470Y032696D01*
X008470Y032817D02*
X008840Y033064D01*
X008840Y032817D02*
X008470Y033064D01*
X008305Y034873D02*
X008305Y035120D01*
X008428Y034996D02*
X008181Y034996D01*
X009165Y034996D02*
X009412Y034996D01*
X007148Y034996D02*
X006902Y034996D01*
X006066Y034996D02*
X005819Y034996D01*
X005942Y034873D02*
X005942Y035120D01*
X006077Y034197D02*
X005892Y034012D01*
X006139Y034012D01*
X006077Y033827D02*
X006077Y034197D01*
X005771Y034135D02*
X005771Y034012D01*
X005709Y033950D01*
X005524Y033950D01*
X005647Y033950D02*
X005771Y033827D01*
X005524Y033827D02*
X005524Y034197D01*
X005709Y034197D01*
X005771Y034135D01*
X004786Y034996D02*
X004539Y034996D01*
X004663Y034873D02*
X004663Y035120D01*
X003802Y034996D02*
X003555Y034996D01*
X004466Y033545D02*
X004466Y033298D01*
X004343Y033421D02*
X004589Y033421D01*
X004484Y032842D02*
X004238Y032842D01*
X004484Y032842D02*
X004608Y032718D01*
X004484Y032595D01*
X004238Y032595D01*
X004299Y032473D02*
X004238Y032412D01*
X004238Y032288D01*
X004299Y032227D01*
X004299Y032473D02*
X004361Y032473D01*
X004608Y032227D01*
X004608Y032473D01*
X004608Y032105D02*
X004608Y031858D01*
X004608Y031982D02*
X004238Y031982D01*
X004361Y031858D01*
X004343Y031453D02*
X004589Y031453D01*
X004466Y030395D02*
X004466Y030148D01*
X004343Y030272D02*
X004589Y030272D01*
X004484Y029521D02*
X004238Y029521D01*
X004484Y029521D02*
X004608Y029397D01*
X004484Y029274D01*
X004238Y029274D01*
X004238Y029152D02*
X004238Y028905D01*
X004423Y028905D01*
X004361Y029029D01*
X004361Y029091D01*
X004423Y029152D01*
X004546Y029152D01*
X004608Y029091D01*
X004608Y028967D01*
X004546Y028905D01*
X004589Y028303D02*
X004343Y028303D01*
X004466Y027344D02*
X004466Y027097D01*
X004343Y027221D02*
X004589Y027221D01*
X004484Y026825D02*
X004238Y026825D01*
X004484Y026825D02*
X004608Y026702D01*
X004484Y026578D01*
X004238Y026578D01*
X004299Y026457D02*
X004361Y026457D01*
X004423Y026395D01*
X004484Y026457D01*
X004546Y026457D01*
X004608Y026395D01*
X004608Y026272D01*
X004546Y026210D01*
X004546Y026087D02*
X004608Y026087D01*
X004608Y026026D01*
X004546Y026026D01*
X004546Y026087D01*
X004546Y025904D02*
X004608Y025843D01*
X004608Y025719D01*
X004546Y025657D01*
X004423Y025781D02*
X004423Y025843D01*
X004484Y025904D01*
X004546Y025904D01*
X004423Y025843D02*
X004361Y025904D01*
X004299Y025904D01*
X004238Y025843D01*
X004238Y025719D01*
X004299Y025657D01*
X004343Y025252D02*
X004589Y025252D01*
X003872Y024453D02*
X003625Y024083D01*
X003504Y024083D02*
X003504Y024329D01*
X003380Y024453D01*
X003257Y024329D01*
X003257Y024083D01*
X003135Y024083D02*
X003135Y024453D01*
X003012Y024329D01*
X002888Y024453D01*
X002888Y024083D01*
X003257Y024268D02*
X003504Y024268D01*
X003625Y024453D02*
X003872Y024083D01*
X002399Y024083D02*
X002399Y024329D01*
X002275Y024453D01*
X002152Y024329D01*
X002152Y024083D01*
X002030Y024144D02*
X002030Y024206D01*
X001969Y024268D01*
X001907Y024268D01*
X001969Y024268D02*
X002030Y024329D01*
X002030Y024391D01*
X001969Y024453D01*
X001845Y024453D01*
X001784Y024391D01*
X001784Y024144D02*
X001845Y024083D01*
X001969Y024083D01*
X002030Y024144D01*
X002152Y024268D02*
X002399Y024268D01*
X004299Y026210D02*
X004238Y026272D01*
X004238Y026395D01*
X004299Y026457D01*
X004423Y026395D02*
X004423Y026333D01*
X005524Y025671D02*
X005524Y025424D01*
X005585Y025362D01*
X005709Y025362D01*
X005771Y025424D01*
X005892Y025424D02*
X005954Y025362D01*
X006077Y025362D01*
X006139Y025424D01*
X006139Y025486D01*
X006077Y025547D01*
X006015Y025547D01*
X006077Y025547D02*
X006139Y025609D01*
X006139Y025671D01*
X006077Y025732D01*
X005954Y025732D01*
X005892Y025671D01*
X005771Y025671D02*
X005709Y025732D01*
X005585Y025732D01*
X005524Y025671D01*
X007689Y025634D02*
X007689Y025264D01*
X007874Y025264D01*
X007936Y025325D01*
X007936Y025572D01*
X007874Y025634D01*
X007689Y025634D01*
X008057Y025449D02*
X008242Y025449D01*
X008304Y025387D01*
X008304Y025325D01*
X008242Y025264D01*
X008119Y025264D01*
X008057Y025325D01*
X008057Y025449D01*
X008181Y025572D01*
X008304Y025634D01*
X008242Y026248D02*
X008119Y026248D01*
X008057Y026310D01*
X007936Y026310D02*
X007936Y026557D01*
X007874Y026618D01*
X007689Y026618D01*
X007689Y026248D01*
X007874Y026248D01*
X007936Y026310D01*
X008057Y026433D02*
X008181Y026495D01*
X008242Y026495D01*
X008304Y026433D01*
X008304Y026310D01*
X008242Y026248D01*
X008057Y026433D02*
X008057Y026618D01*
X008304Y026618D01*
X008304Y024650D02*
X008057Y024650D01*
X007936Y024588D02*
X007936Y024341D01*
X007874Y024279D01*
X007689Y024279D01*
X007689Y024650D01*
X007874Y024650D01*
X007936Y024588D01*
X008057Y024341D02*
X008057Y024279D01*
X008057Y024341D02*
X008304Y024588D01*
X008304Y024650D01*
X008250Y029004D02*
X007879Y029251D01*
X007879Y029372D02*
X007879Y029619D01*
X007879Y029496D02*
X008250Y029496D01*
X008250Y029740D02*
X008003Y029740D01*
X007879Y029864D01*
X008003Y029987D01*
X008250Y029987D01*
X008250Y030109D02*
X008250Y030356D01*
X008250Y030109D02*
X007879Y030109D01*
X008064Y029987D02*
X008064Y029740D01*
X008250Y029251D02*
X007879Y029004D01*
X007068Y029299D02*
X006698Y029299D01*
X006698Y029484D01*
X006760Y029546D01*
X006883Y029546D01*
X006945Y029484D01*
X006945Y029299D01*
X006945Y029423D02*
X007068Y029546D01*
X007007Y029667D02*
X007068Y029729D01*
X007068Y029853D01*
X007007Y029914D01*
X006883Y029914D01*
X006822Y029853D01*
X006822Y029791D01*
X006883Y029667D01*
X006698Y029667D01*
X006698Y029914D01*
X005789Y029667D02*
X005727Y029667D01*
X005480Y029914D01*
X005419Y029914D01*
X005419Y029667D01*
X005480Y029546D02*
X005604Y029546D01*
X005665Y029484D01*
X005665Y029299D01*
X005665Y029423D02*
X005789Y029546D01*
X005789Y029299D02*
X005419Y029299D01*
X005419Y029484D01*
X005480Y029546D01*
X009658Y029116D02*
X009658Y028869D01*
X009719Y028807D01*
X009843Y028807D01*
X009904Y028869D01*
X010026Y028807D02*
X010273Y029054D01*
X010273Y029116D01*
X010211Y029177D01*
X010088Y029177D01*
X010026Y029116D01*
X009904Y029116D02*
X009843Y029177D01*
X009719Y029177D01*
X009658Y029116D01*
X010026Y028807D02*
X010273Y028807D01*
X016252Y030776D02*
X016252Y031022D01*
X016375Y031146D01*
X016499Y031022D01*
X016499Y030776D01*
X016499Y030961D02*
X016252Y030961D01*
X020970Y030969D02*
X021340Y031216D01*
X020970Y031216D01*
X020970Y030969D02*
X021340Y030969D01*
X021278Y030848D02*
X021032Y030848D01*
X020970Y030786D01*
X020970Y030663D01*
X021032Y030601D01*
X021278Y030601D01*
X021340Y030663D01*
X021340Y030786D01*
X021278Y030848D01*
X021340Y030480D02*
X021217Y030356D01*
X021217Y030418D02*
X021217Y030233D01*
X021340Y030233D02*
X020970Y030233D01*
X020970Y030418D01*
X021032Y030480D01*
X021155Y030480D01*
X021217Y030418D01*
X021340Y030111D02*
X020970Y030111D01*
X020970Y029864D02*
X021340Y029864D01*
X021217Y029988D01*
X021340Y030111D01*
X021155Y029743D02*
X021217Y029681D01*
X021217Y029496D01*
X021340Y029496D02*
X020970Y029496D01*
X020970Y029681D01*
X021032Y029743D01*
X021155Y029743D01*
X020970Y028140D02*
X020970Y027893D01*
X021340Y027893D01*
X021155Y027893D02*
X021155Y028016D01*
X020970Y027771D02*
X020970Y027524D01*
X021340Y027524D01*
X021278Y027403D02*
X021032Y027403D01*
X020970Y027341D01*
X020970Y027218D01*
X021032Y027156D01*
X021278Y027156D01*
X021340Y027218D01*
X021340Y027341D01*
X021278Y027403D01*
X021155Y027524D02*
X021155Y027648D01*
X021155Y027035D02*
X021217Y026973D01*
X021217Y026788D01*
X021340Y026788D02*
X020970Y026788D01*
X020970Y026973D01*
X021032Y027035D01*
X021155Y027035D01*
X021217Y026911D02*
X021340Y027035D01*
X021340Y026666D02*
X021217Y026543D01*
X021340Y026419D01*
X020970Y026419D01*
X021032Y026298D02*
X020970Y026236D01*
X020970Y026051D01*
X021340Y026051D01*
X021217Y026051D02*
X021217Y026236D01*
X021155Y026298D01*
X021032Y026298D01*
X020970Y026666D02*
X021340Y026666D01*
X021285Y032969D02*
X021346Y033031D01*
X021346Y033155D01*
X021285Y033216D01*
X021223Y033216D01*
X021161Y033155D01*
X021161Y033031D01*
X021100Y032969D01*
X021038Y032969D01*
X020976Y033031D01*
X020976Y033155D01*
X021038Y033216D01*
X020976Y033338D02*
X020976Y033585D01*
X020976Y033706D02*
X020976Y033891D01*
X021038Y033953D01*
X021285Y033953D01*
X021346Y033891D01*
X021346Y033706D01*
X020976Y033706D01*
X020976Y033461D02*
X021346Y033461D01*
X021346Y034074D02*
X020976Y034074D01*
X020976Y034259D01*
X021038Y034321D01*
X021100Y034321D01*
X021161Y034259D01*
X021161Y034074D01*
X021346Y034074D02*
X021346Y034259D01*
X021285Y034321D01*
X021223Y034321D01*
X021161Y034259D01*
X021038Y034443D02*
X021161Y034566D01*
X021346Y034566D01*
X021161Y034566D02*
X021038Y034690D01*
X020976Y034690D01*
X020976Y034443D02*
X021038Y034443D01*
D12*
X018698Y024560D02*
X018599Y024461D01*
X017221Y024461D01*
X017221Y024264D01*
X017320Y024363D01*
X017713Y024363D01*
X017910Y024166D01*
X017910Y023969D01*
X018009Y023871D01*
X017910Y023871D01*
X017812Y023772D01*
X017910Y023772D01*
X018107Y023969D01*
X018107Y024166D01*
X018206Y024264D01*
X018107Y024264D01*
X018009Y024166D01*
X018009Y023871D01*
X018304Y023871D01*
X018206Y023969D01*
X018206Y024068D01*
X018107Y024166D01*
X018107Y024264D02*
X018009Y024264D01*
X017910Y024166D01*
X017910Y024264D02*
X018009Y024264D01*
X017910Y024264D02*
X017910Y024363D01*
X017812Y024264D01*
X017812Y023871D01*
X017713Y023871D01*
X017812Y023772D01*
X017320Y023772D01*
X017221Y023871D01*
X017221Y024264D01*
X017123Y024363D01*
X017024Y024264D01*
X017123Y024264D01*
X017123Y023871D01*
X017320Y023674D01*
X018698Y023674D01*
X018894Y023871D01*
X018894Y024166D01*
X018796Y024166D01*
X018796Y023871D01*
X018698Y023772D01*
X017910Y023772D01*
X017910Y023969D01*
X018107Y023969D02*
X018206Y023969D01*
X018206Y024068D02*
X018206Y024264D01*
X018304Y024264D01*
X018599Y024363D02*
X018698Y024461D01*
X018698Y024363D01*
X018894Y024166D01*
X018894Y024264D01*
X018698Y024461D01*
X018599Y024560D01*
X017320Y024560D01*
X017221Y024461D01*
X017123Y024363D01*
X017320Y024363D01*
X017024Y024264D02*
X017024Y023871D01*
X017320Y023575D01*
X018107Y023575D01*
X018698Y023575D01*
X018993Y023871D01*
X018993Y024264D01*
X018698Y024560D01*
X018599Y024363D02*
X017910Y024363D01*
X017713Y024363D01*
X018009Y023575D02*
X018009Y023477D01*
X018107Y023575D01*
X018009Y023477D02*
X018698Y023477D01*
X018599Y023379D01*
X018402Y023379D01*
X018107Y023280D01*
X018304Y022788D01*
X018206Y022887D01*
X018894Y022887D01*
X018698Y022690D01*
X018599Y022788D01*
X018304Y022788D01*
X018107Y022788D01*
X018206Y023379D01*
X018304Y023379D01*
X018206Y023182D01*
X018402Y023379D01*
X018304Y023379D01*
X018206Y023379D02*
X018009Y023379D01*
X018107Y023280D01*
X018107Y022788D01*
X018107Y022690D01*
X018009Y022690D01*
X018009Y022591D01*
X018698Y022591D01*
X018993Y022887D01*
X018993Y023280D01*
X018698Y023575D01*
X018698Y023477D01*
X018894Y023280D01*
X018894Y023182D01*
X018796Y023182D01*
X018894Y022985D01*
X018796Y022985D01*
X018894Y022985D02*
X018894Y023182D01*
X018698Y023379D01*
X018698Y023477D01*
X018894Y022985D02*
X018894Y022887D01*
X018894Y022985D02*
X018698Y022788D01*
X018698Y022690D01*
X018206Y022690D01*
X018206Y023083D01*
X018009Y023379D02*
X018009Y023477D01*
X018009Y023379D02*
X018009Y022690D01*
X018107Y022690D02*
X018206Y022690D01*
X018009Y020524D02*
X018009Y019638D01*
X017910Y019638D02*
X017812Y019737D01*
X017812Y019835D01*
X017910Y019737D01*
X017910Y019638D01*
X017517Y019638D01*
X017123Y020032D01*
X017517Y020032D01*
X017713Y019835D01*
X017615Y019737D01*
X017713Y019737D01*
X017812Y019835D01*
X017910Y019934D01*
X017910Y019737D01*
X017713Y019737D01*
X017615Y019737D02*
X017320Y019737D01*
X017221Y019737D01*
X017123Y019835D01*
X017123Y019934D01*
X017123Y020032D01*
X017418Y020327D01*
X017418Y020426D01*
X017123Y020131D01*
X017123Y020032D01*
X017123Y019934D02*
X017320Y019737D01*
X017221Y019737D02*
X017123Y019737D01*
X017221Y019638D02*
X017024Y019835D01*
X017024Y020131D01*
X017320Y020426D01*
X017418Y020426D01*
X017615Y020426D01*
X017713Y020426D01*
X017910Y020229D01*
X017910Y020327D01*
X017910Y020426D01*
X017910Y020524D01*
X017221Y020524D01*
X017221Y020426D02*
X017024Y020229D01*
X017123Y020327D02*
X017123Y020131D01*
X017123Y020426D02*
X017221Y020426D01*
X017320Y020426D01*
X017615Y020426D02*
X017910Y020131D01*
X017910Y019934D01*
X017812Y019934D02*
X017812Y020131D01*
X017910Y020131D02*
X017910Y020229D01*
X017910Y020327D02*
X017812Y020426D01*
X017910Y020426D01*
X017812Y020426D02*
X017713Y020426D01*
X017812Y019934D02*
X017713Y019835D01*
X017517Y019638D02*
X017221Y019638D01*
X018107Y019540D02*
X018107Y018753D01*
X018206Y018753D01*
X018304Y018851D01*
X018206Y018949D01*
X018206Y019245D01*
X018402Y019442D01*
X018501Y019343D01*
X018206Y019343D01*
X018304Y019442D01*
X018206Y019442D01*
X018206Y019343D01*
X018206Y019245D01*
X018206Y019442D02*
X018206Y019540D01*
X018402Y019540D01*
X018304Y019442D01*
X018402Y019442D01*
X018599Y019442D01*
X018894Y019146D01*
X018796Y019146D01*
X018796Y018949D01*
X018698Y018851D01*
X018796Y018851D01*
X018698Y018753D01*
X018796Y018654D01*
X018796Y018753D01*
X018894Y018851D01*
X018894Y018949D01*
X018796Y018851D01*
X018698Y018753D02*
X018206Y018753D01*
X018206Y018949D01*
X018107Y018753D02*
X018107Y018654D01*
X018796Y018654D01*
X018993Y018851D01*
X018993Y019245D01*
X018698Y019540D01*
X018599Y019540D01*
X018402Y019540D01*
X018599Y019540D02*
X018894Y019245D01*
X018894Y019146D01*
X018894Y018949D01*
X018599Y019343D02*
X018501Y019343D01*
X018009Y017572D02*
X018009Y017079D01*
X017910Y017178D01*
X017910Y017276D01*
X017910Y017375D01*
X017713Y017572D01*
X017812Y017572D01*
X017910Y017473D01*
X017615Y017473D01*
X017418Y017473D01*
X017320Y017375D01*
X017320Y017276D01*
X017123Y017079D01*
X017123Y016981D01*
X017221Y017079D01*
X017221Y016981D01*
X017418Y016784D01*
X017713Y016784D01*
X017812Y016883D01*
X017910Y016883D01*
X017910Y016784D01*
X017910Y016686D01*
X017418Y016686D01*
X017123Y016981D01*
X017024Y017079D01*
X017320Y017375D01*
X017615Y017375D01*
X017910Y017079D01*
X017910Y016981D01*
X017812Y017079D01*
X017812Y016883D01*
X017910Y016981D01*
X017910Y016883D01*
X017910Y016784D02*
X017713Y016784D01*
X017910Y016686D02*
X018009Y016686D01*
X018009Y017079D01*
X017910Y017178D02*
X017615Y017473D01*
X017517Y017572D01*
X017615Y017572D01*
X017910Y017276D01*
X017910Y017375D02*
X017910Y017473D01*
X017910Y017572D01*
X017812Y017572D01*
X017713Y017572D02*
X017615Y017572D01*
X017517Y017572D02*
X017320Y017572D01*
X017024Y017276D01*
X017024Y017178D01*
X017024Y017079D01*
X017024Y016981D01*
X017320Y016686D01*
X017418Y016686D01*
X017320Y016587D02*
X017024Y016883D01*
X017024Y016981D01*
X017024Y017178D02*
X017320Y017473D01*
X017418Y017473D01*
X017320Y016587D02*
X018009Y016587D01*
X018009Y016686D01*
X018009Y015505D02*
X018009Y014717D01*
X018107Y014816D01*
X018107Y014914D01*
X018206Y015012D01*
X018206Y015209D01*
X018304Y015308D01*
X018304Y015406D01*
X018402Y015308D01*
X018698Y015308D01*
X018599Y015406D01*
X018304Y015406D01*
X018206Y015505D01*
X018206Y015209D01*
X018107Y015012D02*
X018206Y014914D01*
X018107Y014816D01*
X018304Y014816D01*
X018206Y014914D01*
X018107Y014914D02*
X018107Y015012D01*
X018107Y015505D01*
X018206Y015505D01*
X018599Y015505D01*
X018698Y015505D01*
X018796Y015406D01*
X018894Y015308D01*
X018894Y015209D01*
X018993Y015308D01*
X018796Y015308D01*
X018599Y015505D01*
X018698Y015505D02*
X018796Y015505D01*
X018993Y015308D01*
X018993Y014914D01*
X018698Y014619D01*
X018698Y014717D01*
X018599Y014717D01*
X018206Y014717D01*
X018107Y014816D01*
X018009Y014717D02*
X018206Y014717D01*
X018304Y014816D02*
X018402Y014816D01*
X018599Y014717D02*
X018796Y014914D01*
X018796Y015111D01*
X018894Y015012D01*
X018894Y014914D01*
X018698Y014717D01*
X018698Y014816D01*
X018894Y015012D01*
X018894Y015209D01*
X018796Y015111D02*
X018796Y015406D01*
X018894Y014914D02*
X018993Y014816D01*
X018796Y014619D01*
X018698Y014619D01*
X018009Y014619D01*
X018009Y014717D01*
X018009Y012552D02*
X018009Y012453D01*
X017910Y012552D01*
X017320Y012552D01*
X017024Y012257D01*
X017024Y011863D01*
X017221Y011666D01*
X017221Y011764D01*
X017320Y011764D01*
X017615Y011764D01*
X017812Y011961D01*
X017812Y012453D01*
X017713Y012453D01*
X017615Y012355D01*
X017320Y012355D01*
X017221Y012257D01*
X017221Y011961D01*
X017123Y011863D01*
X017221Y011863D01*
X017320Y011764D01*
X017221Y011764D02*
X017123Y011863D01*
X017123Y012257D01*
X017320Y012453D01*
X017615Y012453D01*
X017713Y012453D01*
X017910Y012257D01*
X017910Y012453D01*
X017812Y012453D01*
X018009Y012453D02*
X018009Y011764D01*
X017812Y011568D01*
X017320Y011568D01*
X017221Y011666D01*
X017910Y011666D01*
X018009Y011568D01*
X018009Y011764D01*
X017910Y011764D02*
X017910Y011863D01*
X017812Y011764D01*
X017812Y011961D01*
X017910Y011961D02*
X017910Y011863D01*
X017910Y011961D02*
X017713Y011764D01*
X017615Y011764D01*
X017713Y011764D02*
X017812Y011764D01*
X017910Y011764D01*
X017910Y011961D02*
X017910Y012158D01*
X017615Y012453D01*
X017910Y012257D02*
X017910Y012158D01*
X013481Y008123D02*
X013284Y007926D01*
X013481Y008123D02*
X013284Y008320D01*
X013481Y008123D02*
X012891Y008123D01*
X012792Y006646D02*
X009839Y006646D01*
X009741Y005465D02*
X009743Y005492D01*
X009749Y005519D01*
X009758Y005545D01*
X009771Y005569D01*
X009787Y005592D01*
X009806Y005611D01*
X009828Y005628D01*
X009852Y005642D01*
X009877Y005652D01*
X009904Y005659D01*
X009931Y005662D01*
X009959Y005661D01*
X009986Y005656D01*
X010012Y005648D01*
X010036Y005636D01*
X010059Y005620D01*
X010080Y005602D01*
X010097Y005581D01*
X010112Y005557D01*
X010123Y005532D01*
X010131Y005506D01*
X010135Y005479D01*
X010135Y005451D01*
X010131Y005424D01*
X010123Y005398D01*
X010112Y005373D01*
X010097Y005349D01*
X010080Y005328D01*
X010059Y005310D01*
X010037Y005294D01*
X010012Y005282D01*
X009986Y005274D01*
X009959Y005269D01*
X009931Y005268D01*
X009904Y005271D01*
X009877Y005278D01*
X009852Y005288D01*
X009828Y005302D01*
X009806Y005319D01*
X009787Y005338D01*
X009771Y005361D01*
X009758Y005385D01*
X009749Y005411D01*
X009743Y005438D01*
X009741Y005465D01*
X006139Y005135D02*
X006139Y004347D01*
X006139Y003560D02*
X006139Y002812D01*
X001202Y002812D01*
X001202Y023205D01*
X006139Y023205D01*
X006139Y022457D01*
X006139Y021670D02*
X006139Y020883D01*
X006139Y020016D02*
X006139Y019229D01*
X006139Y018324D02*
X006139Y017536D01*
X006139Y016709D02*
X006139Y015922D01*
X006139Y015056D02*
X006139Y014268D01*
X006139Y013402D02*
X006139Y012615D01*
X006139Y011749D02*
X006139Y010961D01*
X006139Y010095D02*
X006139Y009308D01*
X006139Y008442D02*
X006139Y007654D01*
X006139Y006788D02*
X006139Y006001D01*
X002438Y012339D02*
X002044Y012339D01*
X002044Y013678D01*
X002438Y013678D01*
X002438Y012339D01*
X001257Y012339D01*
X002044Y012364D02*
X002438Y012364D01*
X002438Y012339D02*
X002438Y013678D01*
X001257Y013678D01*
X002044Y013644D02*
X002438Y013644D01*
X002438Y013546D02*
X002044Y013546D01*
X002044Y013447D02*
X002438Y013447D01*
X002438Y013349D02*
X002044Y013349D01*
X002044Y013250D02*
X002438Y013250D01*
X002438Y013152D02*
X002044Y013152D01*
X002044Y013053D02*
X002438Y013053D01*
X002438Y012955D02*
X002044Y012955D01*
X002044Y012856D02*
X002438Y012856D01*
X002438Y012758D02*
X002044Y012758D01*
X002044Y012659D02*
X002438Y012659D01*
X002438Y012561D02*
X002044Y012561D01*
X002044Y012462D02*
X002438Y012462D01*
D13*
X019485Y023871D02*
X019583Y023772D01*
X021158Y023772D01*
X021158Y023871D01*
X021257Y023969D01*
X021257Y024264D01*
X021158Y024264D01*
X021060Y024363D01*
X019682Y024363D01*
X019583Y024264D01*
X019583Y023969D01*
X019682Y023871D01*
X020272Y023871D01*
X020371Y023871D01*
X020568Y024068D01*
X020568Y024166D01*
X020371Y024166D01*
X020371Y024068D01*
X020469Y024068D01*
X020568Y023969D01*
X020371Y023969D01*
X020371Y023871D02*
X020666Y023871D01*
X020666Y024264D01*
X020272Y024264D01*
X020272Y023871D01*
X019682Y023674D02*
X021158Y023674D01*
X021355Y023871D01*
X021355Y024264D01*
X021158Y024461D01*
X019682Y024461D01*
X019485Y024264D01*
X019485Y023871D01*
D14*
X014761Y035387D02*
X010528Y035387D01*
X010528Y036174D01*
X014761Y036174D01*
X014761Y035387D01*
X013284Y035485D02*
X013284Y036075D01*
X011906Y036075D02*
X011906Y035485D01*
D15*
X016220Y027995D02*
X016313Y027901D01*
X016313Y027715D01*
X016403Y027808D02*
X016403Y027995D01*
X016313Y027855D02*
X016126Y027855D01*
X016126Y027901D02*
X016220Y027995D01*
X016126Y027901D02*
X016126Y027715D01*
X016403Y027808D02*
X016496Y027715D01*
X016589Y027808D01*
X016589Y027995D01*
X016679Y027948D02*
X016679Y027761D01*
X016725Y027715D01*
X016819Y027715D01*
X016866Y027761D01*
X016955Y027761D02*
X016955Y027948D01*
X017002Y027995D01*
X017095Y027995D01*
X017142Y027948D01*
X017142Y027761D02*
X017095Y027715D01*
X017002Y027715D01*
X016955Y027761D01*
X016866Y027948D02*
X016819Y027995D01*
X016725Y027995D01*
X016679Y027948D01*
X016679Y027011D02*
X016679Y026730D01*
X016866Y026730D01*
X016955Y026730D02*
X016955Y027011D01*
X017142Y027011D01*
X017048Y026870D02*
X016955Y026870D01*
X016866Y027011D02*
X016679Y027011D01*
X016589Y026964D02*
X016589Y026870D01*
X016543Y026824D01*
X016403Y026824D01*
X016496Y026824D02*
X016589Y026730D01*
X016679Y026870D02*
X016772Y026870D01*
X016589Y026964D02*
X016543Y027011D01*
X016403Y027011D01*
X016403Y026730D01*
X016313Y026730D02*
X016313Y026917D01*
X016220Y027011D01*
X016126Y026917D01*
X016126Y026730D01*
X016126Y026870D02*
X016313Y026870D01*
D16*
X009938Y006154D03*
D17*
X017517Y023083D03*
D18*
X017517Y022099D03*
D19*
X017259Y022572D02*
X018759Y022572D01*
X019009Y022322D01*
X019009Y021822D01*
X018759Y021572D01*
X017259Y021572D01*
X017009Y021822D01*
X017009Y022322D01*
X017259Y022572D01*
X017009Y022822D01*
X017009Y023322D01*
X017259Y023572D01*
X017009Y023822D01*
X017009Y024322D01*
X017259Y024572D01*
X018759Y024572D01*
X019009Y024322D01*
X019009Y023822D01*
X018759Y023572D01*
X017259Y023572D01*
X018759Y023572D02*
X019009Y023322D01*
X019009Y022822D01*
X018759Y022572D01*
X019422Y022822D02*
X019422Y023322D01*
X019672Y023572D01*
X019422Y023822D01*
X019422Y024322D01*
X019672Y024572D01*
X021172Y024572D01*
X021422Y024322D01*
X021422Y023822D01*
X021172Y023572D01*
X019672Y023572D01*
X019422Y022822D02*
X019672Y022572D01*
X021172Y022572D01*
X021422Y022322D01*
X021422Y021822D01*
X021172Y021572D01*
X019672Y021572D01*
X019422Y021822D01*
X019422Y022322D01*
X019672Y022572D01*
X019672Y021572D02*
X019422Y021322D01*
X019422Y020822D01*
X019672Y020572D01*
X021172Y020572D01*
X021422Y020322D01*
X021422Y019822D01*
X021172Y019572D01*
X019672Y019572D01*
X019422Y019822D01*
X019422Y020322D01*
X019672Y020572D01*
X019009Y020822D02*
X019009Y021322D01*
X018759Y021572D01*
X019009Y020822D02*
X018759Y020572D01*
X017259Y020572D01*
X017009Y020822D01*
X017009Y021322D01*
X017259Y021572D01*
X017259Y020572D02*
X017009Y020322D01*
X017009Y019822D01*
X017259Y019572D01*
X018759Y019572D01*
X019009Y019322D01*
X019009Y018822D01*
X018759Y018572D01*
X017259Y018572D01*
X017009Y018822D01*
X017009Y019322D01*
X017259Y019572D01*
X017259Y018572D02*
X017009Y018322D01*
X017009Y017822D01*
X017259Y017572D01*
X018759Y017572D01*
X019009Y017322D01*
X019009Y016822D01*
X018759Y016572D01*
X017259Y016572D01*
X017009Y016822D01*
X017009Y017322D01*
X017259Y017572D01*
X017259Y016572D02*
X017009Y016322D01*
X017009Y015822D01*
X017259Y015572D01*
X018759Y015572D01*
X019009Y015822D01*
X019009Y016322D01*
X018759Y016572D01*
X019422Y016822D02*
X019422Y017322D01*
X019672Y017572D01*
X021172Y017572D01*
X021422Y017322D01*
X021422Y016822D01*
X021172Y016572D01*
X019672Y016572D01*
X019422Y016822D01*
X019672Y016572D02*
X019422Y016322D01*
X019422Y015822D01*
X019672Y015572D01*
X021172Y015572D01*
X021422Y015822D01*
X021422Y016322D01*
X021172Y016572D01*
X021172Y017572D02*
X021422Y017822D01*
X021422Y018322D01*
X021172Y018572D01*
X019672Y018572D01*
X019422Y018822D01*
X019422Y019322D01*
X019672Y019572D01*
X019009Y019822D02*
X019009Y020322D01*
X018759Y020572D01*
X019009Y019822D02*
X018759Y019572D01*
X018759Y018572D02*
X019009Y018322D01*
X019009Y017822D01*
X018759Y017572D01*
X019422Y017822D02*
X019422Y018322D01*
X019672Y018572D01*
X019422Y017822D02*
X019672Y017572D01*
X021172Y018572D02*
X021422Y018822D01*
X021422Y019322D01*
X021172Y019572D01*
X021172Y020572D02*
X021422Y020822D01*
X021422Y021322D01*
X021172Y021572D01*
X021172Y022572D02*
X021422Y022822D01*
X021422Y023322D01*
X021172Y023572D01*
X018863Y027123D02*
X018865Y027186D01*
X018871Y027248D01*
X018881Y027310D01*
X018894Y027372D01*
X018912Y027432D01*
X018933Y027491D01*
X018958Y027549D01*
X018987Y027605D01*
X019019Y027659D01*
X019054Y027711D01*
X019092Y027760D01*
X019134Y027808D01*
X019178Y027852D01*
X019226Y027894D01*
X019275Y027932D01*
X019327Y027967D01*
X019381Y027999D01*
X019437Y028028D01*
X019495Y028053D01*
X019554Y028074D01*
X019614Y028092D01*
X019676Y028105D01*
X019738Y028115D01*
X019800Y028121D01*
X019863Y028123D01*
X019926Y028121D01*
X019988Y028115D01*
X020050Y028105D01*
X020112Y028092D01*
X020172Y028074D01*
X020231Y028053D01*
X020289Y028028D01*
X020345Y027999D01*
X020399Y027967D01*
X020451Y027932D01*
X020500Y027894D01*
X020548Y027852D01*
X020592Y027808D01*
X020634Y027760D01*
X020672Y027711D01*
X020707Y027659D01*
X020739Y027605D01*
X020768Y027549D01*
X020793Y027491D01*
X020814Y027432D01*
X020832Y027372D01*
X020845Y027310D01*
X020855Y027248D01*
X020861Y027186D01*
X020863Y027123D01*
X020861Y027060D01*
X020855Y026998D01*
X020845Y026936D01*
X020832Y026874D01*
X020814Y026814D01*
X020793Y026755D01*
X020768Y026697D01*
X020739Y026641D01*
X020707Y026587D01*
X020672Y026535D01*
X020634Y026486D01*
X020592Y026438D01*
X020548Y026394D01*
X020500Y026352D01*
X020451Y026314D01*
X020399Y026279D01*
X020345Y026247D01*
X020289Y026218D01*
X020231Y026193D01*
X020172Y026172D01*
X020112Y026154D01*
X020050Y026141D01*
X019988Y026131D01*
X019926Y026125D01*
X019863Y026123D01*
X019800Y026125D01*
X019738Y026131D01*
X019676Y026141D01*
X019614Y026154D01*
X019554Y026172D01*
X019495Y026193D01*
X019437Y026218D01*
X019381Y026247D01*
X019327Y026279D01*
X019275Y026314D01*
X019226Y026352D01*
X019178Y026394D01*
X019134Y026438D01*
X019092Y026486D01*
X019054Y026535D01*
X019019Y026587D01*
X018987Y026641D01*
X018958Y026697D01*
X018933Y026755D01*
X018912Y026814D01*
X018894Y026874D01*
X018881Y026936D01*
X018871Y026998D01*
X018865Y027060D01*
X018863Y027123D01*
X018851Y030371D02*
X018853Y030434D01*
X018859Y030496D01*
X018869Y030558D01*
X018882Y030620D01*
X018900Y030680D01*
X018921Y030739D01*
X018946Y030797D01*
X018975Y030853D01*
X019007Y030907D01*
X019042Y030959D01*
X019080Y031008D01*
X019122Y031056D01*
X019166Y031100D01*
X019214Y031142D01*
X019263Y031180D01*
X019315Y031215D01*
X019369Y031247D01*
X019425Y031276D01*
X019483Y031301D01*
X019542Y031322D01*
X019602Y031340D01*
X019664Y031353D01*
X019726Y031363D01*
X019788Y031369D01*
X019851Y031371D01*
X019914Y031369D01*
X019976Y031363D01*
X020038Y031353D01*
X020100Y031340D01*
X020160Y031322D01*
X020219Y031301D01*
X020277Y031276D01*
X020333Y031247D01*
X020387Y031215D01*
X020439Y031180D01*
X020488Y031142D01*
X020536Y031100D01*
X020580Y031056D01*
X020622Y031008D01*
X020660Y030959D01*
X020695Y030907D01*
X020727Y030853D01*
X020756Y030797D01*
X020781Y030739D01*
X020802Y030680D01*
X020820Y030620D01*
X020833Y030558D01*
X020843Y030496D01*
X020849Y030434D01*
X020851Y030371D01*
X020849Y030308D01*
X020843Y030246D01*
X020833Y030184D01*
X020820Y030122D01*
X020802Y030062D01*
X020781Y030003D01*
X020756Y029945D01*
X020727Y029889D01*
X020695Y029835D01*
X020660Y029783D01*
X020622Y029734D01*
X020580Y029686D01*
X020536Y029642D01*
X020488Y029600D01*
X020439Y029562D01*
X020387Y029527D01*
X020333Y029495D01*
X020277Y029466D01*
X020219Y029441D01*
X020160Y029420D01*
X020100Y029402D01*
X020038Y029389D01*
X019976Y029379D01*
X019914Y029373D01*
X019851Y029371D01*
X019788Y029373D01*
X019726Y029379D01*
X019664Y029389D01*
X019602Y029402D01*
X019542Y029420D01*
X019483Y029441D01*
X019425Y029466D01*
X019369Y029495D01*
X019315Y029527D01*
X019263Y029562D01*
X019214Y029600D01*
X019166Y029642D01*
X019122Y029686D01*
X019080Y029734D01*
X019042Y029783D01*
X019007Y029835D01*
X018975Y029889D01*
X018946Y029945D01*
X018921Y030003D01*
X018900Y030062D01*
X018882Y030122D01*
X018869Y030184D01*
X018859Y030246D01*
X018853Y030308D01*
X018851Y030371D01*
X018847Y033816D02*
X018849Y033879D01*
X018855Y033941D01*
X018865Y034003D01*
X018878Y034065D01*
X018896Y034125D01*
X018917Y034184D01*
X018942Y034242D01*
X018971Y034298D01*
X019003Y034352D01*
X019038Y034404D01*
X019076Y034453D01*
X019118Y034501D01*
X019162Y034545D01*
X019210Y034587D01*
X019259Y034625D01*
X019311Y034660D01*
X019365Y034692D01*
X019421Y034721D01*
X019479Y034746D01*
X019538Y034767D01*
X019598Y034785D01*
X019660Y034798D01*
X019722Y034808D01*
X019784Y034814D01*
X019847Y034816D01*
X019910Y034814D01*
X019972Y034808D01*
X020034Y034798D01*
X020096Y034785D01*
X020156Y034767D01*
X020215Y034746D01*
X020273Y034721D01*
X020329Y034692D01*
X020383Y034660D01*
X020435Y034625D01*
X020484Y034587D01*
X020532Y034545D01*
X020576Y034501D01*
X020618Y034453D01*
X020656Y034404D01*
X020691Y034352D01*
X020723Y034298D01*
X020752Y034242D01*
X020777Y034184D01*
X020798Y034125D01*
X020816Y034065D01*
X020829Y034003D01*
X020839Y033941D01*
X020845Y033879D01*
X020847Y033816D01*
X020845Y033753D01*
X020839Y033691D01*
X020829Y033629D01*
X020816Y033567D01*
X020798Y033507D01*
X020777Y033448D01*
X020752Y033390D01*
X020723Y033334D01*
X020691Y033280D01*
X020656Y033228D01*
X020618Y033179D01*
X020576Y033131D01*
X020532Y033087D01*
X020484Y033045D01*
X020435Y033007D01*
X020383Y032972D01*
X020329Y032940D01*
X020273Y032911D01*
X020215Y032886D01*
X020156Y032865D01*
X020096Y032847D01*
X020034Y032834D01*
X019972Y032824D01*
X019910Y032818D01*
X019847Y032816D01*
X019784Y032818D01*
X019722Y032824D01*
X019660Y032834D01*
X019598Y032847D01*
X019538Y032865D01*
X019479Y032886D01*
X019421Y032911D01*
X019365Y032940D01*
X019311Y032972D01*
X019259Y033007D01*
X019210Y033045D01*
X019162Y033087D01*
X019118Y033131D01*
X019076Y033179D01*
X019038Y033228D01*
X019003Y033280D01*
X018971Y033334D01*
X018942Y033390D01*
X018917Y033448D01*
X018896Y033507D01*
X018878Y033567D01*
X018865Y033629D01*
X018855Y033691D01*
X018849Y033753D01*
X018847Y033816D01*
X013497Y034418D02*
X013497Y020418D01*
X011497Y020418D01*
X011497Y034368D01*
X011497Y034418D02*
X011997Y034418D01*
X011999Y034374D01*
X012005Y034331D01*
X012014Y034289D01*
X012027Y034247D01*
X012044Y034207D01*
X012064Y034168D01*
X012087Y034131D01*
X012114Y034097D01*
X012143Y034064D01*
X012176Y034035D01*
X012210Y034008D01*
X012247Y033985D01*
X012286Y033965D01*
X012326Y033948D01*
X012368Y033935D01*
X012410Y033926D01*
X012453Y033920D01*
X012497Y033918D01*
X012541Y033920D01*
X012584Y033926D01*
X012626Y033935D01*
X012668Y033948D01*
X012708Y033965D01*
X012747Y033985D01*
X012784Y034008D01*
X012818Y034035D01*
X012851Y034064D01*
X012880Y034097D01*
X012907Y034131D01*
X012930Y034168D01*
X012950Y034207D01*
X012967Y034247D01*
X012980Y034289D01*
X012989Y034331D01*
X012995Y034374D01*
X012997Y034418D01*
X013497Y034418D01*
X009172Y026961D02*
X008672Y026961D01*
X008422Y026711D01*
X008422Y026211D01*
X008672Y025961D01*
X008422Y025711D01*
X008422Y025211D01*
X008672Y024961D01*
X008422Y024711D01*
X008422Y024211D01*
X008672Y023961D01*
X009172Y023961D01*
X009422Y024211D01*
X009422Y024711D01*
X009172Y024961D01*
X008672Y024961D01*
X009172Y024961D02*
X009422Y025211D01*
X009422Y025711D01*
X009172Y025961D01*
X008672Y025961D01*
X009172Y025961D02*
X009422Y026211D01*
X009422Y026711D01*
X009172Y026961D01*
X012079Y018505D02*
X012829Y018505D01*
X012831Y018466D01*
X012837Y018427D01*
X012846Y018389D01*
X012859Y018352D01*
X012876Y018316D01*
X012896Y018283D01*
X012920Y018251D01*
X012946Y018222D01*
X012975Y018196D01*
X013007Y018172D01*
X013040Y018152D01*
X013076Y018135D01*
X013113Y018122D01*
X013151Y018113D01*
X013190Y018107D01*
X013229Y018105D01*
X013268Y018107D01*
X013307Y018113D01*
X013345Y018122D01*
X013382Y018135D01*
X013418Y018152D01*
X013451Y018172D01*
X013483Y018196D01*
X013512Y018222D01*
X013538Y018251D01*
X013562Y018283D01*
X013582Y018316D01*
X013599Y018352D01*
X013612Y018389D01*
X013621Y018427D01*
X013627Y018466D01*
X013629Y018505D01*
X014379Y018505D01*
X014379Y008505D01*
X012079Y008505D01*
X012079Y018505D01*
X010617Y014733D02*
X010117Y014733D01*
X009867Y014483D01*
X009867Y013983D01*
X010117Y013733D01*
X009867Y013483D01*
X009867Y012983D01*
X010117Y012733D01*
X010617Y012733D01*
X010867Y012983D01*
X010867Y013483D01*
X010617Y013733D01*
X010117Y013733D01*
X010617Y013733D02*
X010867Y013983D01*
X010867Y014483D01*
X010617Y014733D01*
X010617Y012733D02*
X010867Y012483D01*
X010867Y011983D01*
X010617Y011733D01*
X010867Y011483D01*
X010867Y010983D01*
X010617Y010733D01*
X010867Y010483D01*
X010867Y009983D01*
X010617Y009733D01*
X010867Y009483D01*
X010867Y008983D01*
X010617Y008733D01*
X010117Y008733D01*
X009867Y008983D01*
X009867Y009483D01*
X010117Y009733D01*
X009867Y009983D01*
X009867Y010483D01*
X010117Y010733D01*
X009867Y010983D01*
X009867Y011483D01*
X010117Y011733D01*
X009867Y011983D01*
X009867Y012483D01*
X010117Y012733D01*
X010117Y011733D02*
X010617Y011733D01*
X010617Y010733D02*
X010117Y010733D01*
X010117Y009733D02*
X010617Y009733D01*
X015509Y009951D02*
X015509Y010451D01*
X015759Y010701D01*
X015509Y010951D01*
X015509Y011451D01*
X015759Y011701D01*
X015509Y011951D01*
X015509Y012451D01*
X015759Y012701D01*
X015509Y012951D01*
X015509Y013451D01*
X015759Y013701D01*
X015509Y013951D01*
X015509Y014451D01*
X015759Y014701D01*
X016259Y014701D01*
X016509Y014451D01*
X016509Y013951D01*
X016259Y013701D01*
X016509Y013451D01*
X016509Y012951D01*
X016259Y012701D01*
X015759Y012701D01*
X016259Y012701D02*
X016509Y012451D01*
X016509Y011951D01*
X016259Y011701D01*
X016509Y011451D01*
X016509Y010951D01*
X016259Y010701D01*
X016509Y010451D01*
X016509Y009951D01*
X016259Y009701D01*
X016509Y009451D01*
X016509Y008951D01*
X016259Y008701D01*
X015759Y008701D01*
X015509Y008951D01*
X015509Y009451D01*
X015759Y009701D01*
X015509Y009951D01*
X015759Y009701D02*
X016259Y009701D01*
X016259Y010701D02*
X015759Y010701D01*
X015759Y011701D02*
X016259Y011701D01*
X017009Y011822D02*
X017009Y012322D01*
X017259Y012572D01*
X018759Y012572D01*
X019009Y012822D01*
X019009Y013322D01*
X018759Y013572D01*
X017259Y013572D01*
X017009Y013822D01*
X017009Y014322D01*
X017259Y014572D01*
X018759Y014572D01*
X019009Y014822D01*
X019009Y015322D01*
X018759Y015572D01*
X019422Y015322D02*
X019422Y014822D01*
X019672Y014572D01*
X021172Y014572D01*
X021422Y014822D01*
X021422Y015322D01*
X021172Y015572D01*
X021172Y014572D02*
X021422Y014322D01*
X021422Y013822D01*
X021172Y013572D01*
X019672Y013572D01*
X019422Y013822D01*
X019422Y014322D01*
X019672Y014572D01*
X019009Y014322D02*
X019009Y013822D01*
X018759Y013572D01*
X019422Y013322D02*
X019422Y012822D01*
X019672Y012572D01*
X021172Y012572D01*
X021422Y012822D01*
X021422Y013322D01*
X021172Y013572D01*
X021172Y012572D02*
X021422Y012322D01*
X021422Y011822D01*
X021172Y011572D01*
X019672Y011572D01*
X019422Y011822D01*
X019422Y012322D01*
X019672Y012572D01*
X019009Y012322D02*
X019009Y011822D01*
X018759Y011572D01*
X017259Y011572D01*
X017009Y011822D01*
X017259Y011572D02*
X017009Y011322D01*
X017009Y010822D01*
X017259Y010572D01*
X018759Y010572D01*
X019009Y010822D01*
X019009Y011322D01*
X018759Y011572D01*
X019422Y011322D02*
X019422Y010822D01*
X019672Y010572D01*
X021172Y010572D01*
X021422Y010822D01*
X021422Y011322D01*
X021172Y011572D01*
X019672Y011572D02*
X019422Y011322D01*
X019009Y012322D02*
X018759Y012572D01*
X019422Y013322D02*
X019672Y013572D01*
X019009Y014322D02*
X018759Y014572D01*
X019422Y015322D02*
X019672Y015572D01*
X017259Y015572D02*
X017009Y015322D01*
X017009Y014822D01*
X017259Y014572D01*
X017259Y013572D02*
X017009Y013322D01*
X017009Y012822D01*
X017259Y012572D01*
X016259Y013701D02*
X015759Y013701D01*
D20*
X016081Y007936D02*
X021586Y007936D01*
X021586Y007901D02*
X021586Y002801D01*
X021586Y002766D02*
X016081Y002766D01*
X016076Y002791D02*
X016076Y007911D01*
X018536Y007351D02*
X021036Y007101D01*
X021036Y005851D01*
X018536Y005601D01*
X018536Y005101D02*
X021036Y004851D01*
X021036Y003601D01*
X018536Y003351D01*
X016504Y023131D02*
X015104Y023131D01*
X014804Y023431D01*
X014804Y023931D01*
X015004Y024131D01*
X014804Y024331D01*
X014804Y024931D01*
X015004Y025131D01*
X014804Y025331D01*
X014804Y025831D01*
X015104Y026131D01*
X016504Y026131D01*
X016804Y025831D01*
X016804Y025331D01*
X016604Y025131D01*
X016804Y024931D01*
X016804Y024331D01*
X016604Y024131D01*
X016804Y023931D01*
X016804Y023431D01*
X016504Y023131D01*
X016080Y026355D02*
X015080Y026355D01*
X015080Y034355D01*
X016080Y034355D01*
X016080Y026355D01*
D21*
X017438Y026272D02*
X017438Y028753D01*
X018383Y028753D01*
X018383Y026272D01*
X017438Y026272D01*
X020863Y026373D02*
X020863Y027873D01*
X020851Y029621D02*
X020851Y031121D01*
X020847Y033066D02*
X020847Y034566D01*
X018658Y035308D02*
X016178Y035308D01*
X016178Y036253D01*
X018658Y036253D01*
X018658Y035308D01*
X018383Y033772D02*
X017438Y033772D01*
X017438Y031292D01*
X018383Y031292D01*
X018383Y033772D01*
X010263Y027808D02*
X009763Y027808D01*
X009424Y028127D02*
X009424Y030827D01*
X009711Y030434D02*
X010211Y030434D01*
X009731Y032217D02*
X009231Y032217D01*
X008981Y032467D01*
X008981Y032967D01*
X009231Y033217D01*
X008981Y033467D01*
X008981Y033967D01*
X009231Y034217D01*
X009731Y034217D01*
X009981Y033967D01*
X009981Y033467D01*
X009731Y033217D01*
X009981Y032967D01*
X009981Y032467D01*
X009731Y032217D01*
X009424Y030827D02*
X009422Y030886D01*
X009416Y030944D01*
X009407Y031003D01*
X009393Y031060D01*
X009376Y031116D01*
X009355Y031171D01*
X009331Y031225D01*
X009303Y031277D01*
X009272Y031327D01*
X009238Y031375D01*
X009201Y031420D01*
X009160Y031463D01*
X009117Y031504D01*
X009072Y031541D01*
X009024Y031575D01*
X008974Y031606D01*
X008922Y031634D01*
X008868Y031658D01*
X008813Y031679D01*
X008757Y031696D01*
X008700Y031710D01*
X008641Y031719D01*
X008583Y031725D01*
X008524Y031727D01*
X008465Y031725D01*
X008407Y031719D01*
X008348Y031710D01*
X008291Y031696D01*
X008235Y031679D01*
X008180Y031658D01*
X008126Y031634D01*
X008074Y031606D01*
X008024Y031575D01*
X007976Y031541D01*
X007931Y031504D01*
X007888Y031463D01*
X007847Y031420D01*
X007810Y031375D01*
X007776Y031327D01*
X007745Y031277D01*
X007717Y031225D01*
X007693Y031171D01*
X007672Y031116D01*
X007655Y031060D01*
X007641Y031003D01*
X007632Y030944D01*
X007626Y030886D01*
X007624Y030827D01*
X007624Y028127D01*
X007359Y029028D02*
X006414Y029028D01*
X006414Y031509D01*
X007359Y031509D01*
X007359Y029028D01*
X006080Y029028D02*
X005135Y029028D01*
X005135Y031509D01*
X006080Y031509D01*
X006080Y029028D01*
X004048Y027914D02*
X001607Y027914D01*
X001607Y030670D01*
X004048Y030670D01*
X004048Y027914D01*
X004048Y027564D02*
X001607Y027564D01*
X001607Y024808D01*
X001292Y024808D01*
X001292Y027564D01*
X001607Y027564D01*
X001607Y027914D02*
X001292Y027914D01*
X001292Y030670D01*
X001607Y030670D01*
X001607Y031020D02*
X001292Y031020D01*
X001292Y033776D01*
X001607Y033776D01*
X001607Y031020D01*
X004048Y031020D01*
X004048Y033776D01*
X001607Y033776D01*
X003186Y035467D02*
X003186Y035967D01*
X003436Y036217D01*
X003936Y036217D01*
X004186Y035967D01*
X004436Y036217D01*
X004936Y036217D01*
X005186Y035967D01*
X005186Y035467D01*
X004936Y035217D01*
X004436Y035217D01*
X004186Y035467D01*
X003936Y035217D01*
X003436Y035217D01*
X003186Y035467D01*
X005253Y034481D02*
X005253Y033536D01*
X007733Y033536D01*
X007733Y034481D01*
X005253Y034481D01*
X005743Y035245D02*
X005493Y035495D01*
X005493Y035995D01*
X005743Y036245D01*
X006243Y036245D01*
X006493Y035995D01*
X006743Y036245D01*
X007243Y036245D01*
X007493Y035995D01*
X007493Y035495D01*
X007243Y035245D01*
X006743Y035245D01*
X006493Y035495D01*
X006243Y035245D01*
X005743Y035245D01*
X007812Y035495D02*
X007812Y035995D01*
X008062Y036245D01*
X008562Y036245D01*
X008812Y035995D01*
X009062Y036245D01*
X009562Y036245D01*
X009812Y035995D01*
X009812Y035495D01*
X009562Y035245D01*
X009062Y035245D01*
X008812Y035495D01*
X008562Y035245D01*
X008062Y035245D01*
X007812Y035495D01*
X007624Y028127D02*
X007626Y028068D01*
X007632Y028010D01*
X007641Y027951D01*
X007655Y027894D01*
X007672Y027838D01*
X007693Y027783D01*
X007717Y027729D01*
X007745Y027677D01*
X007776Y027627D01*
X007810Y027579D01*
X007847Y027534D01*
X007888Y027491D01*
X007931Y027450D01*
X007976Y027413D01*
X008024Y027379D01*
X008074Y027348D01*
X008126Y027320D01*
X008180Y027296D01*
X008235Y027275D01*
X008291Y027258D01*
X008348Y027244D01*
X008407Y027235D01*
X008465Y027229D01*
X008524Y027227D01*
X008583Y027229D01*
X008641Y027235D01*
X008700Y027244D01*
X008757Y027258D01*
X008813Y027275D01*
X008868Y027296D01*
X008922Y027320D01*
X008974Y027348D01*
X009024Y027379D01*
X009072Y027413D01*
X009117Y027450D01*
X009160Y027491D01*
X009201Y027534D01*
X009238Y027579D01*
X009272Y027627D01*
X009303Y027677D01*
X009331Y027729D01*
X009355Y027783D01*
X009376Y027838D01*
X009393Y027894D01*
X009407Y027951D01*
X009416Y028010D01*
X009422Y028068D01*
X009424Y028127D01*
X005241Y024457D02*
X005243Y024519D01*
X005249Y024582D01*
X005259Y024643D01*
X005273Y024704D01*
X005290Y024764D01*
X005311Y024823D01*
X005337Y024880D01*
X005365Y024935D01*
X005397Y024989D01*
X005433Y025040D01*
X005471Y025090D01*
X005513Y025136D01*
X005557Y025180D01*
X005605Y025221D01*
X005654Y025259D01*
X005706Y025293D01*
X005760Y025324D01*
X005816Y025352D01*
X005874Y025376D01*
X005933Y025397D01*
X005993Y025413D01*
X006054Y025426D01*
X006116Y025435D01*
X006178Y025440D01*
X006241Y025441D01*
X006303Y025438D01*
X006365Y025431D01*
X006427Y025420D01*
X006487Y025405D01*
X006547Y025387D01*
X006605Y025365D01*
X006662Y025339D01*
X006717Y025309D01*
X006770Y025276D01*
X006821Y025240D01*
X006869Y025201D01*
X006915Y025158D01*
X006958Y025113D01*
X006998Y025065D01*
X007035Y025015D01*
X007069Y024962D01*
X007100Y024908D01*
X007126Y024852D01*
X007150Y024794D01*
X007169Y024734D01*
X007185Y024674D01*
X007197Y024612D01*
X007205Y024551D01*
X007209Y024488D01*
X007209Y024426D01*
X007205Y024363D01*
X007197Y024302D01*
X007185Y024240D01*
X007169Y024180D01*
X007150Y024120D01*
X007126Y024062D01*
X007100Y024006D01*
X007069Y023952D01*
X007035Y023899D01*
X006998Y023849D01*
X006958Y023801D01*
X006915Y023756D01*
X006869Y023713D01*
X006821Y023674D01*
X006770Y023638D01*
X006717Y023605D01*
X006662Y023575D01*
X006605Y023549D01*
X006547Y023527D01*
X006487Y023509D01*
X006427Y023494D01*
X006365Y023483D01*
X006303Y023476D01*
X006241Y023473D01*
X006178Y023474D01*
X006116Y023479D01*
X006054Y023488D01*
X005993Y023501D01*
X005933Y023517D01*
X005874Y023538D01*
X005816Y023562D01*
X005760Y023590D01*
X005706Y023621D01*
X005654Y023655D01*
X005605Y023693D01*
X005557Y023734D01*
X005513Y023778D01*
X005471Y023824D01*
X005433Y023874D01*
X005397Y023925D01*
X005365Y023979D01*
X005337Y024034D01*
X005311Y024091D01*
X005290Y024150D01*
X005273Y024210D01*
X005259Y024271D01*
X005249Y024332D01*
X005243Y024395D01*
X005241Y024457D01*
X005525Y025007D02*
X005925Y025007D01*
X004048Y024808D02*
X001607Y024808D01*
X004048Y024808D02*
X004048Y027564D01*
X009662Y018516D02*
X010607Y018516D01*
X010607Y016036D01*
X009662Y016036D01*
X009662Y018516D01*
X012924Y003213D02*
X013424Y003213D01*
X012394Y002713D02*
X012396Y002784D01*
X012402Y002855D01*
X012412Y002926D01*
X012426Y002995D01*
X012443Y003064D01*
X012465Y003132D01*
X012490Y003199D01*
X012519Y003264D01*
X012551Y003327D01*
X012587Y003389D01*
X012626Y003448D01*
X012669Y003505D01*
X012714Y003560D01*
X012763Y003612D01*
X012814Y003661D01*
X012868Y003707D01*
X012925Y003751D01*
X012983Y003791D01*
X013044Y003827D01*
X013107Y003861D01*
X013172Y003890D01*
X013238Y003916D01*
X013306Y003939D01*
X013374Y003957D01*
X013444Y003972D01*
X013514Y003983D01*
X013585Y003990D01*
X013656Y003993D01*
X013727Y003992D01*
X013798Y003987D01*
X013869Y003978D01*
X013939Y003965D01*
X014008Y003949D01*
X014076Y003928D01*
X014143Y003904D01*
X014209Y003876D01*
X014272Y003844D01*
X014334Y003809D01*
X014394Y003771D01*
X014452Y003729D01*
X014507Y003685D01*
X014560Y003637D01*
X014610Y003586D01*
X014657Y003533D01*
X014701Y003477D01*
X014742Y003419D01*
X014780Y003358D01*
X014814Y003296D01*
X014844Y003231D01*
X014871Y003166D01*
X014895Y003098D01*
X014914Y003030D01*
X014930Y002961D01*
X014942Y002890D01*
X014950Y002820D01*
X014954Y002749D01*
X014954Y002677D01*
X014950Y002606D01*
X014942Y002536D01*
X014930Y002465D01*
X014914Y002396D01*
X014895Y002328D01*
X014871Y002260D01*
X014844Y002195D01*
X014814Y002130D01*
X014780Y002068D01*
X014742Y002007D01*
X014701Y001949D01*
X014657Y001893D01*
X014610Y001840D01*
X014560Y001789D01*
X014507Y001741D01*
X014452Y001697D01*
X014394Y001655D01*
X014334Y001617D01*
X014272Y001582D01*
X014209Y001550D01*
X014143Y001522D01*
X014076Y001498D01*
X014008Y001477D01*
X013939Y001461D01*
X013869Y001448D01*
X013798Y001439D01*
X013727Y001434D01*
X013656Y001433D01*
X013585Y001436D01*
X013514Y001443D01*
X013444Y001454D01*
X013374Y001469D01*
X013306Y001487D01*
X013238Y001510D01*
X013172Y001536D01*
X013107Y001565D01*
X013044Y001599D01*
X012983Y001635D01*
X012925Y001675D01*
X012868Y001719D01*
X012814Y001765D01*
X012763Y001814D01*
X012714Y001866D01*
X012669Y001921D01*
X012626Y001978D01*
X012587Y002037D01*
X012551Y002099D01*
X012519Y002162D01*
X012490Y002227D01*
X012465Y002294D01*
X012443Y002362D01*
X012426Y002431D01*
X012412Y002500D01*
X012402Y002571D01*
X012396Y002642D01*
X012394Y002713D01*
D22*
X020895Y027903D02*
X020823Y027849D01*
X020824Y027850D02*
X020781Y027903D01*
X020736Y027954D01*
X020687Y028002D01*
X020636Y028047D01*
X020582Y028090D01*
X020526Y028129D01*
X020468Y028165D01*
X020408Y028198D01*
X020347Y028227D01*
X020283Y028252D01*
X020219Y028274D01*
X020153Y028293D01*
X020086Y028307D01*
X020019Y028318D01*
X019951Y028325D01*
X019883Y028328D01*
X019814Y028327D01*
X019746Y028322D01*
X019678Y028314D01*
X019611Y028301D01*
X019545Y028285D01*
X019480Y028265D01*
X019415Y028242D01*
X019353Y028215D01*
X019292Y028184D01*
X019233Y028150D01*
X019175Y028113D01*
X019120Y028072D01*
X019068Y028028D01*
X019018Y027982D01*
X018971Y027933D01*
X018926Y027881D01*
X018885Y027827D01*
X018846Y027770D01*
X018811Y027711D01*
X018780Y027651D01*
X018752Y027589D01*
X018727Y027525D01*
X018706Y027460D01*
X018689Y027394D01*
X018675Y027327D01*
X018666Y027259D01*
X018660Y027191D01*
X018658Y027123D01*
X018660Y027055D01*
X018666Y026987D01*
X018675Y026919D01*
X018689Y026852D01*
X018706Y026786D01*
X018727Y026721D01*
X018752Y026657D01*
X018780Y026595D01*
X018811Y026535D01*
X018846Y026476D01*
X018885Y026419D01*
X018926Y026365D01*
X018971Y026313D01*
X019018Y026264D01*
X019068Y026218D01*
X019120Y026174D01*
X019175Y026133D01*
X019233Y026096D01*
X019292Y026062D01*
X019353Y026031D01*
X019415Y026004D01*
X019480Y025981D01*
X019545Y025961D01*
X019611Y025945D01*
X019678Y025932D01*
X019746Y025924D01*
X019814Y025919D01*
X019883Y025918D01*
X019951Y025921D01*
X020019Y025928D01*
X020086Y025939D01*
X020153Y025953D01*
X020219Y025972D01*
X020283Y025994D01*
X020347Y026019D01*
X020408Y026048D01*
X020468Y026081D01*
X020526Y026117D01*
X020582Y026156D01*
X020636Y026199D01*
X020687Y026244D01*
X020736Y026292D01*
X020781Y026343D01*
X020824Y026396D01*
X020895Y026343D01*
X020896Y026342D01*
X020852Y026287D01*
X020804Y026234D01*
X020754Y026183D01*
X020701Y026136D01*
X020646Y026092D01*
X020588Y026050D01*
X020528Y026012D01*
X020467Y025977D01*
X020403Y025946D01*
X020338Y025918D01*
X020271Y025894D01*
X020203Y025873D01*
X020134Y025857D01*
X020064Y025844D01*
X019994Y025835D01*
X019923Y025829D01*
X019852Y025828D01*
X019781Y025831D01*
X019710Y025837D01*
X019640Y025847D01*
X019571Y025861D01*
X019502Y025879D01*
X019434Y025901D01*
X019368Y025926D01*
X019303Y025955D01*
X019240Y025988D01*
X019179Y026024D01*
X019120Y026063D01*
X019063Y026105D01*
X019008Y026150D01*
X018956Y026199D01*
X018907Y026250D01*
X018860Y026303D01*
X018817Y026360D01*
X018777Y026418D01*
X018740Y026479D01*
X018706Y026541D01*
X018676Y026605D01*
X018649Y026671D01*
X018626Y026738D01*
X018607Y026807D01*
X018592Y026876D01*
X018580Y026946D01*
X018572Y027017D01*
X018568Y027088D01*
X018568Y027158D01*
X018572Y027229D01*
X018580Y027300D01*
X018592Y027370D01*
X018607Y027439D01*
X018626Y027508D01*
X018649Y027575D01*
X018676Y027641D01*
X018706Y027705D01*
X018740Y027767D01*
X018777Y027828D01*
X018817Y027886D01*
X018860Y027943D01*
X018907Y027996D01*
X018956Y028047D01*
X019008Y028096D01*
X019063Y028141D01*
X019120Y028183D01*
X019179Y028222D01*
X019240Y028258D01*
X019303Y028291D01*
X019368Y028320D01*
X019434Y028345D01*
X019502Y028367D01*
X019571Y028385D01*
X019640Y028399D01*
X019710Y028409D01*
X019781Y028415D01*
X019852Y028418D01*
X019923Y028417D01*
X019994Y028411D01*
X020064Y028402D01*
X020134Y028389D01*
X020203Y028373D01*
X020271Y028352D01*
X020338Y028328D01*
X020403Y028300D01*
X020467Y028269D01*
X020528Y028234D01*
X020588Y028196D01*
X020646Y028154D01*
X020701Y028110D01*
X020754Y028063D01*
X020804Y028012D01*
X020852Y027959D01*
X020896Y027904D01*
X020889Y027899D01*
X020844Y027954D01*
X020797Y028007D01*
X020746Y028058D01*
X020693Y028105D01*
X020637Y028150D01*
X020579Y028191D01*
X020519Y028229D01*
X020457Y028264D01*
X020393Y028295D01*
X020327Y028322D01*
X020260Y028346D01*
X020191Y028366D01*
X020122Y028383D01*
X020052Y028395D01*
X019981Y028404D01*
X019910Y028408D01*
X019839Y028409D01*
X019768Y028405D01*
X019697Y028398D01*
X019626Y028387D01*
X019557Y028372D01*
X019488Y028353D01*
X019420Y028330D01*
X019354Y028304D01*
X019289Y028274D01*
X019227Y028240D01*
X019166Y028204D01*
X019107Y028163D01*
X019050Y028120D01*
X018996Y028073D01*
X018945Y028024D01*
X018897Y027971D01*
X018851Y027917D01*
X018809Y027859D01*
X018770Y027800D01*
X018734Y027738D01*
X018701Y027675D01*
X018673Y027610D01*
X018647Y027543D01*
X018626Y027475D01*
X018608Y027406D01*
X018595Y027336D01*
X018585Y027265D01*
X018579Y027194D01*
X018577Y027123D01*
X018579Y027052D01*
X018585Y026981D01*
X018595Y026910D01*
X018608Y026840D01*
X018626Y026771D01*
X018647Y026703D01*
X018673Y026636D01*
X018701Y026571D01*
X018734Y026508D01*
X018770Y026446D01*
X018809Y026387D01*
X018851Y026329D01*
X018897Y026275D01*
X018945Y026222D01*
X018996Y026173D01*
X019050Y026126D01*
X019107Y026083D01*
X019166Y026042D01*
X019227Y026006D01*
X019289Y025972D01*
X019354Y025942D01*
X019420Y025916D01*
X019488Y025893D01*
X019557Y025874D01*
X019626Y025859D01*
X019697Y025848D01*
X019768Y025841D01*
X019839Y025837D01*
X019910Y025838D01*
X019981Y025842D01*
X020052Y025851D01*
X020122Y025863D01*
X020191Y025880D01*
X020260Y025900D01*
X020327Y025924D01*
X020393Y025951D01*
X020457Y025982D01*
X020519Y026017D01*
X020579Y026055D01*
X020637Y026096D01*
X020693Y026141D01*
X020746Y026188D01*
X020797Y026239D01*
X020844Y026292D01*
X020889Y026347D01*
X020882Y026353D01*
X020837Y026298D01*
X020790Y026245D01*
X020740Y026195D01*
X020687Y026148D01*
X020632Y026104D01*
X020574Y026062D01*
X020515Y026025D01*
X020453Y025990D01*
X020389Y025959D01*
X020324Y025932D01*
X020257Y025908D01*
X020189Y025888D01*
X020120Y025872D01*
X020051Y025860D01*
X019980Y025851D01*
X019910Y025847D01*
X019839Y025846D01*
X019768Y025850D01*
X019698Y025857D01*
X019628Y025868D01*
X019559Y025883D01*
X019491Y025902D01*
X019423Y025924D01*
X019358Y025950D01*
X019293Y025980D01*
X019231Y026013D01*
X019171Y026050D01*
X019112Y026090D01*
X019056Y026133D01*
X019002Y026179D01*
X018952Y026229D01*
X018903Y026280D01*
X018858Y026335D01*
X018816Y026392D01*
X018777Y026451D01*
X018742Y026512D01*
X018709Y026575D01*
X018681Y026640D01*
X018656Y026706D01*
X018635Y026774D01*
X018617Y026842D01*
X018604Y026912D01*
X018594Y026982D01*
X018588Y027052D01*
X018586Y027123D01*
X018588Y027194D01*
X018594Y027264D01*
X018604Y027334D01*
X018617Y027404D01*
X018635Y027472D01*
X018656Y027540D01*
X018681Y027606D01*
X018709Y027671D01*
X018742Y027734D01*
X018777Y027795D01*
X018816Y027854D01*
X018858Y027911D01*
X018903Y027966D01*
X018952Y028017D01*
X019002Y028067D01*
X019056Y028113D01*
X019112Y028156D01*
X019171Y028196D01*
X019231Y028233D01*
X019293Y028266D01*
X019358Y028296D01*
X019423Y028322D01*
X019491Y028344D01*
X019559Y028363D01*
X019628Y028378D01*
X019698Y028389D01*
X019768Y028396D01*
X019839Y028400D01*
X019910Y028399D01*
X019980Y028395D01*
X020051Y028386D01*
X020120Y028374D01*
X020189Y028358D01*
X020257Y028338D01*
X020324Y028314D01*
X020389Y028287D01*
X020453Y028256D01*
X020515Y028221D01*
X020574Y028184D01*
X020632Y028142D01*
X020687Y028098D01*
X020740Y028051D01*
X020790Y028001D01*
X020837Y027948D01*
X020882Y027893D01*
X020874Y027888D01*
X020830Y027943D01*
X020782Y027996D01*
X020732Y028046D01*
X020679Y028094D01*
X020623Y028138D01*
X020565Y028179D01*
X020505Y028216D01*
X020443Y028251D01*
X020379Y028281D01*
X020313Y028308D01*
X020246Y028332D01*
X020178Y028351D01*
X020108Y028367D01*
X020038Y028379D01*
X019968Y028387D01*
X019897Y028391D01*
X019826Y028390D01*
X019755Y028386D01*
X019684Y028378D01*
X019614Y028366D01*
X019545Y028350D01*
X019477Y028331D01*
X019409Y028307D01*
X019344Y028280D01*
X019280Y028249D01*
X019218Y028215D01*
X019158Y028177D01*
X019100Y028135D01*
X019044Y028091D01*
X018991Y028044D01*
X018941Y027993D01*
X018894Y027940D01*
X018849Y027885D01*
X018808Y027827D01*
X018771Y027767D01*
X018736Y027704D01*
X018705Y027640D01*
X018678Y027575D01*
X018655Y027508D01*
X018635Y027439D01*
X018619Y027370D01*
X018607Y027300D01*
X018599Y027229D01*
X018595Y027159D01*
X018595Y027087D01*
X018599Y027017D01*
X018607Y026946D01*
X018619Y026876D01*
X018635Y026807D01*
X018655Y026738D01*
X018678Y026671D01*
X018705Y026606D01*
X018736Y026542D01*
X018771Y026479D01*
X018808Y026419D01*
X018849Y026361D01*
X018894Y026306D01*
X018941Y026253D01*
X018991Y026202D01*
X019044Y026155D01*
X019100Y026111D01*
X019158Y026069D01*
X019218Y026031D01*
X019280Y025997D01*
X019344Y025966D01*
X019409Y025939D01*
X019477Y025915D01*
X019545Y025896D01*
X019614Y025880D01*
X019684Y025868D01*
X019755Y025860D01*
X019826Y025856D01*
X019897Y025855D01*
X019968Y025859D01*
X020038Y025867D01*
X020108Y025879D01*
X020178Y025895D01*
X020246Y025914D01*
X020313Y025938D01*
X020379Y025965D01*
X020443Y025995D01*
X020505Y026030D01*
X020565Y026067D01*
X020623Y026108D01*
X020679Y026152D01*
X020732Y026200D01*
X020782Y026250D01*
X020830Y026303D01*
X020874Y026358D01*
X020867Y026364D01*
X020823Y026309D01*
X020776Y026256D01*
X020726Y026206D01*
X020673Y026159D01*
X020618Y026115D01*
X020560Y026075D01*
X020501Y026037D01*
X020439Y026003D01*
X020375Y025973D01*
X020310Y025946D01*
X020243Y025923D01*
X020175Y025903D01*
X020107Y025888D01*
X020037Y025876D01*
X019967Y025868D01*
X019896Y025864D01*
X019826Y025865D01*
X019755Y025869D01*
X019685Y025877D01*
X019616Y025889D01*
X019547Y025904D01*
X019479Y025924D01*
X019413Y025947D01*
X019348Y025974D01*
X019284Y026005D01*
X019222Y026039D01*
X019163Y026077D01*
X019105Y026118D01*
X019050Y026162D01*
X018997Y026209D01*
X018948Y026259D01*
X018901Y026311D01*
X018857Y026367D01*
X018816Y026424D01*
X018778Y026484D01*
X018744Y026546D01*
X018714Y026609D01*
X018687Y026674D01*
X018663Y026741D01*
X018644Y026809D01*
X018628Y026878D01*
X018616Y026947D01*
X018608Y027017D01*
X018604Y027088D01*
X018604Y027158D01*
X018608Y027229D01*
X018616Y027299D01*
X018628Y027368D01*
X018644Y027437D01*
X018663Y027505D01*
X018687Y027572D01*
X018714Y027637D01*
X018744Y027700D01*
X018778Y027762D01*
X018816Y027822D01*
X018857Y027879D01*
X018901Y027935D01*
X018948Y027987D01*
X018997Y028037D01*
X019050Y028084D01*
X019105Y028128D01*
X019163Y028169D01*
X019222Y028207D01*
X019284Y028241D01*
X019348Y028272D01*
X019413Y028299D01*
X019479Y028322D01*
X019547Y028342D01*
X019616Y028357D01*
X019685Y028369D01*
X019755Y028377D01*
X019826Y028381D01*
X019896Y028382D01*
X019967Y028378D01*
X020037Y028370D01*
X020107Y028358D01*
X020175Y028343D01*
X020243Y028323D01*
X020310Y028300D01*
X020375Y028273D01*
X020439Y028243D01*
X020501Y028209D01*
X020560Y028171D01*
X020618Y028131D01*
X020673Y028087D01*
X020726Y028040D01*
X020776Y027990D01*
X020823Y027937D01*
X020867Y027882D01*
X020860Y027877D01*
X020816Y027932D01*
X020769Y027984D01*
X020720Y028033D01*
X020667Y028080D01*
X020613Y028123D01*
X020555Y028164D01*
X020496Y028201D01*
X020435Y028235D01*
X020371Y028265D01*
X020307Y028292D01*
X020240Y028315D01*
X020173Y028334D01*
X020105Y028349D01*
X020036Y028361D01*
X019966Y028369D01*
X019896Y028373D01*
X019826Y028372D01*
X019756Y028368D01*
X019687Y028360D01*
X019618Y028349D01*
X019549Y028333D01*
X019482Y028314D01*
X019416Y028290D01*
X019351Y028263D01*
X019288Y028233D01*
X019227Y028199D01*
X019168Y028162D01*
X019110Y028121D01*
X019056Y028077D01*
X019004Y028031D01*
X018954Y027981D01*
X018907Y027929D01*
X018864Y027874D01*
X018823Y027817D01*
X018786Y027758D01*
X018752Y027696D01*
X018722Y027633D01*
X018695Y027568D01*
X018672Y027502D01*
X018653Y027435D01*
X018637Y027367D01*
X018625Y027298D01*
X018617Y027228D01*
X018613Y027158D01*
X018613Y027088D01*
X018617Y027018D01*
X018625Y026948D01*
X018637Y026879D01*
X018653Y026811D01*
X018672Y026744D01*
X018695Y026678D01*
X018722Y026613D01*
X018752Y026550D01*
X018786Y026488D01*
X018823Y026429D01*
X018864Y026372D01*
X018907Y026317D01*
X018954Y026265D01*
X019004Y026215D01*
X019056Y026169D01*
X019110Y026125D01*
X019168Y026084D01*
X019227Y026047D01*
X019288Y026013D01*
X019351Y025983D01*
X019416Y025956D01*
X019482Y025932D01*
X019549Y025913D01*
X019618Y025897D01*
X019687Y025886D01*
X019756Y025878D01*
X019826Y025874D01*
X019896Y025873D01*
X019966Y025877D01*
X020036Y025885D01*
X020105Y025897D01*
X020173Y025912D01*
X020240Y025931D01*
X020307Y025954D01*
X020371Y025981D01*
X020435Y026011D01*
X020496Y026045D01*
X020555Y026082D01*
X020613Y026123D01*
X020667Y026166D01*
X020720Y026213D01*
X020769Y026262D01*
X020816Y026314D01*
X020860Y026369D01*
X020853Y026374D01*
X020809Y026320D01*
X020763Y026268D01*
X020714Y026219D01*
X020662Y026173D01*
X020607Y026130D01*
X020550Y026090D01*
X020491Y026053D01*
X020430Y026019D01*
X020368Y025989D01*
X020303Y025963D01*
X020238Y025940D01*
X020171Y025921D01*
X020103Y025905D01*
X020034Y025894D01*
X019965Y025886D01*
X019896Y025882D01*
X019826Y025883D01*
X019757Y025887D01*
X019688Y025894D01*
X019619Y025906D01*
X019552Y025922D01*
X019485Y025941D01*
X019419Y025964D01*
X019355Y025991D01*
X019292Y026021D01*
X019231Y026055D01*
X019173Y026092D01*
X019116Y026132D01*
X019062Y026175D01*
X019010Y026222D01*
X018961Y026271D01*
X018914Y026323D01*
X018871Y026377D01*
X018831Y026434D01*
X018794Y026493D01*
X018760Y026554D01*
X018730Y026617D01*
X018703Y026681D01*
X018680Y026746D01*
X018661Y026813D01*
X018646Y026881D01*
X018634Y026950D01*
X018626Y027019D01*
X018622Y027088D01*
X018622Y027158D01*
X018626Y027227D01*
X018634Y027296D01*
X018646Y027365D01*
X018661Y027433D01*
X018680Y027500D01*
X018703Y027565D01*
X018730Y027629D01*
X018760Y027692D01*
X018794Y027753D01*
X018831Y027812D01*
X018871Y027869D01*
X018914Y027923D01*
X018961Y027975D01*
X019010Y028024D01*
X019062Y028071D01*
X019116Y028114D01*
X019173Y028154D01*
X019231Y028191D01*
X019292Y028225D01*
X019355Y028255D01*
X019419Y028282D01*
X019485Y028305D01*
X019552Y028324D01*
X019619Y028340D01*
X019688Y028352D01*
X019757Y028359D01*
X019826Y028363D01*
X019896Y028364D01*
X019965Y028360D01*
X020034Y028352D01*
X020103Y028341D01*
X020171Y028325D01*
X020238Y028306D01*
X020303Y028283D01*
X020368Y028257D01*
X020430Y028227D01*
X020491Y028193D01*
X020550Y028156D01*
X020607Y028116D01*
X020662Y028073D01*
X020714Y028027D01*
X020763Y027978D01*
X020809Y027926D01*
X020853Y027872D01*
X020846Y027866D01*
X020802Y027920D01*
X020756Y027971D01*
X020707Y028020D01*
X020656Y028066D01*
X020602Y028109D01*
X020545Y028149D01*
X020487Y028185D01*
X020426Y028219D01*
X020364Y028249D01*
X020300Y028275D01*
X020235Y028297D01*
X020169Y028316D01*
X020101Y028332D01*
X020033Y028343D01*
X019965Y028351D01*
X019896Y028355D01*
X019827Y028354D01*
X019758Y028350D01*
X019689Y028343D01*
X019621Y028331D01*
X019554Y028316D01*
X019487Y028296D01*
X019422Y028273D01*
X019359Y028247D01*
X019296Y028217D01*
X019236Y028184D01*
X019178Y028147D01*
X019121Y028107D01*
X019067Y028064D01*
X019016Y028018D01*
X018967Y027969D01*
X018921Y027917D01*
X018878Y027863D01*
X018838Y027807D01*
X018802Y027748D01*
X018768Y027688D01*
X018738Y027626D01*
X018712Y027562D01*
X018689Y027497D01*
X018670Y027430D01*
X018655Y027363D01*
X018643Y027295D01*
X018635Y027226D01*
X018631Y027158D01*
X018631Y027088D01*
X018635Y027020D01*
X018643Y026951D01*
X018655Y026883D01*
X018670Y026816D01*
X018689Y026749D01*
X018712Y026684D01*
X018738Y026620D01*
X018768Y026558D01*
X018802Y026498D01*
X018838Y026439D01*
X018878Y026383D01*
X018921Y026329D01*
X018967Y026277D01*
X019016Y026228D01*
X019067Y026182D01*
X019121Y026139D01*
X019178Y026099D01*
X019236Y026062D01*
X019296Y026029D01*
X019359Y025999D01*
X019422Y025973D01*
X019487Y025950D01*
X019554Y025930D01*
X019621Y025915D01*
X019689Y025903D01*
X019758Y025896D01*
X019827Y025892D01*
X019896Y025891D01*
X019965Y025895D01*
X020033Y025903D01*
X020101Y025914D01*
X020169Y025930D01*
X020235Y025949D01*
X020300Y025971D01*
X020364Y025997D01*
X020426Y026027D01*
X020487Y026061D01*
X020545Y026097D01*
X020602Y026137D01*
X020656Y026180D01*
X020707Y026226D01*
X020756Y026275D01*
X020802Y026326D01*
X020846Y026380D01*
X020838Y026385D01*
X020795Y026331D01*
X020749Y026280D01*
X020699Y026231D01*
X020648Y026185D01*
X020593Y026142D01*
X020536Y026102D01*
X020478Y026066D01*
X020417Y026032D01*
X020354Y026003D01*
X020290Y025977D01*
X020224Y025955D01*
X020157Y025936D01*
X020090Y025921D01*
X020021Y025910D01*
X019952Y025903D01*
X019883Y025900D01*
X019814Y025901D01*
X019744Y025906D01*
X019676Y025914D01*
X019608Y025927D01*
X019540Y025943D01*
X019474Y025964D01*
X019409Y025987D01*
X019345Y026015D01*
X019283Y026046D01*
X019223Y026081D01*
X019165Y026119D01*
X019109Y026160D01*
X019056Y026204D01*
X019005Y026251D01*
X018957Y026301D01*
X018912Y026354D01*
X018870Y026409D01*
X018831Y026466D01*
X018796Y026526D01*
X018764Y026587D01*
X018735Y026650D01*
X018710Y026715D01*
X018689Y026781D01*
X018671Y026848D01*
X018658Y026916D01*
X018648Y026985D01*
X018642Y027054D01*
X018640Y027123D01*
X018642Y027192D01*
X018648Y027261D01*
X018658Y027330D01*
X018671Y027398D01*
X018689Y027465D01*
X018710Y027531D01*
X018735Y027596D01*
X018764Y027659D01*
X018796Y027720D01*
X018831Y027780D01*
X018870Y027837D01*
X018912Y027892D01*
X018957Y027945D01*
X019005Y027995D01*
X019056Y028042D01*
X019109Y028086D01*
X019165Y028127D01*
X019223Y028165D01*
X019283Y028200D01*
X019345Y028231D01*
X019409Y028259D01*
X019474Y028282D01*
X019540Y028303D01*
X019608Y028319D01*
X019676Y028332D01*
X019744Y028340D01*
X019814Y028345D01*
X019883Y028346D01*
X019952Y028343D01*
X020021Y028336D01*
X020090Y028325D01*
X020157Y028310D01*
X020224Y028291D01*
X020290Y028269D01*
X020354Y028243D01*
X020417Y028214D01*
X020478Y028180D01*
X020536Y028144D01*
X020593Y028104D01*
X020648Y028061D01*
X020699Y028015D01*
X020749Y027966D01*
X020795Y027915D01*
X020838Y027861D01*
X020831Y027855D01*
X020788Y027909D01*
X020742Y027960D01*
X020693Y028009D01*
X020642Y028054D01*
X020588Y028097D01*
X020531Y028136D01*
X020473Y028173D01*
X020413Y028206D01*
X020350Y028235D01*
X020287Y028261D01*
X020221Y028283D01*
X020155Y028301D01*
X020088Y028316D01*
X020020Y028327D01*
X019951Y028334D01*
X019883Y028337D01*
X019814Y028336D01*
X019745Y028331D01*
X019677Y028323D01*
X019609Y028310D01*
X019543Y028294D01*
X019477Y028274D01*
X019412Y028250D01*
X019349Y028223D01*
X019288Y028192D01*
X019228Y028158D01*
X019170Y028120D01*
X019115Y028079D01*
X019062Y028035D01*
X019012Y027988D01*
X018964Y027939D01*
X018919Y027887D01*
X018877Y027832D01*
X018839Y027775D01*
X018804Y027716D01*
X018772Y027655D01*
X018743Y027592D01*
X018719Y027528D01*
X018697Y027462D01*
X018680Y027396D01*
X018667Y027328D01*
X018657Y027260D01*
X018651Y027192D01*
X018649Y027123D01*
X018651Y027054D01*
X018657Y026986D01*
X018667Y026918D01*
X018680Y026850D01*
X018697Y026784D01*
X018719Y026718D01*
X018743Y026654D01*
X018772Y026591D01*
X018804Y026530D01*
X018839Y026471D01*
X018877Y026414D01*
X018919Y026359D01*
X018964Y026307D01*
X019012Y026258D01*
X019062Y026211D01*
X019115Y026167D01*
X019170Y026126D01*
X019228Y026088D01*
X019288Y026054D01*
X019349Y026023D01*
X019412Y025996D01*
X019477Y025972D01*
X019543Y025952D01*
X019609Y025936D01*
X019677Y025923D01*
X019745Y025915D01*
X019814Y025910D01*
X019883Y025909D01*
X019951Y025912D01*
X020020Y025919D01*
X020088Y025930D01*
X020155Y025945D01*
X020221Y025963D01*
X020287Y025985D01*
X020350Y026011D01*
X020413Y026040D01*
X020473Y026073D01*
X020531Y026110D01*
X020588Y026149D01*
X020642Y026192D01*
X020693Y026237D01*
X020742Y026286D01*
X020788Y026337D01*
X020831Y026391D01*
X020883Y031151D02*
X020811Y031097D01*
X020812Y031098D02*
X020769Y031151D01*
X020724Y031202D01*
X020675Y031250D01*
X020624Y031295D01*
X020570Y031338D01*
X020514Y031377D01*
X020456Y031413D01*
X020396Y031446D01*
X020335Y031475D01*
X020271Y031500D01*
X020207Y031522D01*
X020141Y031541D01*
X020074Y031555D01*
X020007Y031566D01*
X019939Y031573D01*
X019871Y031576D01*
X019802Y031575D01*
X019734Y031570D01*
X019666Y031562D01*
X019599Y031549D01*
X019533Y031533D01*
X019468Y031513D01*
X019403Y031490D01*
X019341Y031463D01*
X019280Y031432D01*
X019221Y031398D01*
X019163Y031361D01*
X019108Y031320D01*
X019056Y031276D01*
X019006Y031230D01*
X018959Y031181D01*
X018914Y031129D01*
X018873Y031075D01*
X018834Y031018D01*
X018799Y030959D01*
X018768Y030899D01*
X018740Y030837D01*
X018715Y030773D01*
X018694Y030708D01*
X018677Y030642D01*
X018663Y030575D01*
X018654Y030507D01*
X018648Y030439D01*
X018646Y030371D01*
X018648Y030303D01*
X018654Y030235D01*
X018663Y030167D01*
X018677Y030100D01*
X018694Y030034D01*
X018715Y029969D01*
X018740Y029905D01*
X018768Y029843D01*
X018799Y029783D01*
X018834Y029724D01*
X018873Y029667D01*
X018914Y029613D01*
X018959Y029561D01*
X019006Y029512D01*
X019056Y029466D01*
X019108Y029422D01*
X019163Y029381D01*
X019221Y029344D01*
X019280Y029310D01*
X019341Y029279D01*
X019403Y029252D01*
X019468Y029229D01*
X019533Y029209D01*
X019599Y029193D01*
X019666Y029180D01*
X019734Y029172D01*
X019802Y029167D01*
X019871Y029166D01*
X019939Y029169D01*
X020007Y029176D01*
X020074Y029187D01*
X020141Y029201D01*
X020207Y029220D01*
X020271Y029242D01*
X020335Y029267D01*
X020396Y029296D01*
X020456Y029329D01*
X020514Y029365D01*
X020570Y029404D01*
X020624Y029447D01*
X020675Y029492D01*
X020724Y029540D01*
X020769Y029591D01*
X020812Y029644D01*
X020883Y029591D01*
X020884Y029590D01*
X020840Y029535D01*
X020792Y029482D01*
X020742Y029431D01*
X020689Y029384D01*
X020634Y029340D01*
X020576Y029298D01*
X020516Y029260D01*
X020455Y029225D01*
X020391Y029194D01*
X020326Y029166D01*
X020259Y029142D01*
X020191Y029121D01*
X020122Y029105D01*
X020052Y029092D01*
X019982Y029083D01*
X019911Y029077D01*
X019840Y029076D01*
X019769Y029079D01*
X019698Y029085D01*
X019628Y029095D01*
X019559Y029109D01*
X019490Y029127D01*
X019422Y029149D01*
X019356Y029174D01*
X019291Y029203D01*
X019228Y029236D01*
X019167Y029272D01*
X019108Y029311D01*
X019051Y029353D01*
X018996Y029398D01*
X018944Y029447D01*
X018895Y029498D01*
X018848Y029551D01*
X018805Y029608D01*
X018765Y029666D01*
X018728Y029727D01*
X018694Y029789D01*
X018664Y029853D01*
X018637Y029919D01*
X018614Y029986D01*
X018595Y030055D01*
X018580Y030124D01*
X018568Y030194D01*
X018560Y030265D01*
X018556Y030336D01*
X018556Y030406D01*
X018560Y030477D01*
X018568Y030548D01*
X018580Y030618D01*
X018595Y030687D01*
X018614Y030756D01*
X018637Y030823D01*
X018664Y030889D01*
X018694Y030953D01*
X018728Y031015D01*
X018765Y031076D01*
X018805Y031134D01*
X018848Y031191D01*
X018895Y031244D01*
X018944Y031295D01*
X018996Y031344D01*
X019051Y031389D01*
X019108Y031431D01*
X019167Y031470D01*
X019228Y031506D01*
X019291Y031539D01*
X019356Y031568D01*
X019422Y031593D01*
X019490Y031615D01*
X019559Y031633D01*
X019628Y031647D01*
X019698Y031657D01*
X019769Y031663D01*
X019840Y031666D01*
X019911Y031665D01*
X019982Y031659D01*
X020052Y031650D01*
X020122Y031637D01*
X020191Y031621D01*
X020259Y031600D01*
X020326Y031576D01*
X020391Y031548D01*
X020455Y031517D01*
X020516Y031482D01*
X020576Y031444D01*
X020634Y031402D01*
X020689Y031358D01*
X020742Y031311D01*
X020792Y031260D01*
X020840Y031207D01*
X020884Y031152D01*
X020877Y031147D01*
X020832Y031202D01*
X020785Y031255D01*
X020734Y031306D01*
X020681Y031353D01*
X020625Y031398D01*
X020567Y031439D01*
X020507Y031477D01*
X020445Y031512D01*
X020381Y031543D01*
X020315Y031570D01*
X020248Y031594D01*
X020179Y031614D01*
X020110Y031631D01*
X020040Y031643D01*
X019969Y031652D01*
X019898Y031656D01*
X019827Y031657D01*
X019756Y031653D01*
X019685Y031646D01*
X019614Y031635D01*
X019545Y031620D01*
X019476Y031601D01*
X019408Y031578D01*
X019342Y031552D01*
X019277Y031522D01*
X019215Y031488D01*
X019154Y031452D01*
X019095Y031411D01*
X019038Y031368D01*
X018984Y031321D01*
X018933Y031272D01*
X018885Y031219D01*
X018839Y031165D01*
X018797Y031107D01*
X018758Y031048D01*
X018722Y030986D01*
X018689Y030923D01*
X018661Y030858D01*
X018635Y030791D01*
X018614Y030723D01*
X018596Y030654D01*
X018583Y030584D01*
X018573Y030513D01*
X018567Y030442D01*
X018565Y030371D01*
X018567Y030300D01*
X018573Y030229D01*
X018583Y030158D01*
X018596Y030088D01*
X018614Y030019D01*
X018635Y029951D01*
X018661Y029884D01*
X018689Y029819D01*
X018722Y029756D01*
X018758Y029694D01*
X018797Y029635D01*
X018839Y029577D01*
X018885Y029523D01*
X018933Y029470D01*
X018984Y029421D01*
X019038Y029374D01*
X019095Y029331D01*
X019154Y029290D01*
X019215Y029254D01*
X019277Y029220D01*
X019342Y029190D01*
X019408Y029164D01*
X019476Y029141D01*
X019545Y029122D01*
X019614Y029107D01*
X019685Y029096D01*
X019756Y029089D01*
X019827Y029085D01*
X019898Y029086D01*
X019969Y029090D01*
X020040Y029099D01*
X020110Y029111D01*
X020179Y029128D01*
X020248Y029148D01*
X020315Y029172D01*
X020381Y029199D01*
X020445Y029230D01*
X020507Y029265D01*
X020567Y029303D01*
X020625Y029344D01*
X020681Y029389D01*
X020734Y029436D01*
X020785Y029487D01*
X020832Y029540D01*
X020877Y029595D01*
X020870Y029601D01*
X020825Y029546D01*
X020778Y029493D01*
X020728Y029443D01*
X020675Y029396D01*
X020620Y029352D01*
X020562Y029310D01*
X020503Y029273D01*
X020441Y029238D01*
X020377Y029207D01*
X020312Y029180D01*
X020245Y029156D01*
X020177Y029136D01*
X020108Y029120D01*
X020039Y029108D01*
X019968Y029099D01*
X019898Y029095D01*
X019827Y029094D01*
X019756Y029098D01*
X019686Y029105D01*
X019616Y029116D01*
X019547Y029131D01*
X019479Y029150D01*
X019411Y029172D01*
X019346Y029198D01*
X019281Y029228D01*
X019219Y029261D01*
X019159Y029298D01*
X019100Y029338D01*
X019044Y029381D01*
X018990Y029427D01*
X018940Y029477D01*
X018891Y029528D01*
X018846Y029583D01*
X018804Y029640D01*
X018765Y029699D01*
X018730Y029760D01*
X018697Y029823D01*
X018669Y029888D01*
X018644Y029954D01*
X018623Y030022D01*
X018605Y030090D01*
X018592Y030160D01*
X018582Y030230D01*
X018576Y030300D01*
X018574Y030371D01*
X018576Y030442D01*
X018582Y030512D01*
X018592Y030582D01*
X018605Y030652D01*
X018623Y030720D01*
X018644Y030788D01*
X018669Y030854D01*
X018697Y030919D01*
X018730Y030982D01*
X018765Y031043D01*
X018804Y031102D01*
X018846Y031159D01*
X018891Y031214D01*
X018940Y031265D01*
X018990Y031315D01*
X019044Y031361D01*
X019100Y031404D01*
X019159Y031444D01*
X019219Y031481D01*
X019281Y031514D01*
X019346Y031544D01*
X019411Y031570D01*
X019479Y031592D01*
X019547Y031611D01*
X019616Y031626D01*
X019686Y031637D01*
X019756Y031644D01*
X019827Y031648D01*
X019898Y031647D01*
X019968Y031643D01*
X020039Y031634D01*
X020108Y031622D01*
X020177Y031606D01*
X020245Y031586D01*
X020312Y031562D01*
X020377Y031535D01*
X020441Y031504D01*
X020503Y031469D01*
X020562Y031432D01*
X020620Y031390D01*
X020675Y031346D01*
X020728Y031299D01*
X020778Y031249D01*
X020825Y031196D01*
X020870Y031141D01*
X020862Y031136D01*
X020818Y031191D01*
X020770Y031244D01*
X020720Y031294D01*
X020667Y031342D01*
X020611Y031386D01*
X020553Y031427D01*
X020493Y031464D01*
X020431Y031499D01*
X020367Y031529D01*
X020301Y031556D01*
X020234Y031580D01*
X020166Y031599D01*
X020096Y031615D01*
X020026Y031627D01*
X019956Y031635D01*
X019885Y031639D01*
X019814Y031638D01*
X019743Y031634D01*
X019672Y031626D01*
X019602Y031614D01*
X019533Y031598D01*
X019465Y031579D01*
X019397Y031555D01*
X019332Y031528D01*
X019268Y031497D01*
X019206Y031463D01*
X019146Y031425D01*
X019088Y031383D01*
X019032Y031339D01*
X018979Y031292D01*
X018929Y031241D01*
X018882Y031188D01*
X018837Y031133D01*
X018796Y031075D01*
X018759Y031015D01*
X018724Y030952D01*
X018693Y030888D01*
X018666Y030823D01*
X018643Y030756D01*
X018623Y030687D01*
X018607Y030618D01*
X018595Y030548D01*
X018587Y030477D01*
X018583Y030407D01*
X018583Y030335D01*
X018587Y030265D01*
X018595Y030194D01*
X018607Y030124D01*
X018623Y030055D01*
X018643Y029986D01*
X018666Y029919D01*
X018693Y029854D01*
X018724Y029790D01*
X018759Y029727D01*
X018796Y029667D01*
X018837Y029609D01*
X018882Y029554D01*
X018929Y029501D01*
X018979Y029450D01*
X019032Y029403D01*
X019088Y029359D01*
X019146Y029317D01*
X019206Y029279D01*
X019268Y029245D01*
X019332Y029214D01*
X019397Y029187D01*
X019465Y029163D01*
X019533Y029144D01*
X019602Y029128D01*
X019672Y029116D01*
X019743Y029108D01*
X019814Y029104D01*
X019885Y029103D01*
X019956Y029107D01*
X020026Y029115D01*
X020096Y029127D01*
X020166Y029143D01*
X020234Y029162D01*
X020301Y029186D01*
X020367Y029213D01*
X020431Y029243D01*
X020493Y029278D01*
X020553Y029315D01*
X020611Y029356D01*
X020667Y029400D01*
X020720Y029448D01*
X020770Y029498D01*
X020818Y029551D01*
X020862Y029606D01*
X020855Y029612D01*
X020811Y029557D01*
X020764Y029504D01*
X020714Y029454D01*
X020661Y029407D01*
X020606Y029363D01*
X020548Y029323D01*
X020489Y029285D01*
X020427Y029251D01*
X020363Y029221D01*
X020298Y029194D01*
X020231Y029171D01*
X020163Y029151D01*
X020095Y029136D01*
X020025Y029124D01*
X019955Y029116D01*
X019884Y029112D01*
X019814Y029113D01*
X019743Y029117D01*
X019673Y029125D01*
X019604Y029137D01*
X019535Y029152D01*
X019467Y029172D01*
X019401Y029195D01*
X019336Y029222D01*
X019272Y029253D01*
X019210Y029287D01*
X019151Y029325D01*
X019093Y029366D01*
X019038Y029410D01*
X018985Y029457D01*
X018936Y029507D01*
X018889Y029559D01*
X018845Y029615D01*
X018804Y029672D01*
X018766Y029732D01*
X018732Y029794D01*
X018702Y029857D01*
X018675Y029922D01*
X018651Y029989D01*
X018632Y030057D01*
X018616Y030126D01*
X018604Y030195D01*
X018596Y030265D01*
X018592Y030336D01*
X018592Y030406D01*
X018596Y030477D01*
X018604Y030547D01*
X018616Y030616D01*
X018632Y030685D01*
X018651Y030753D01*
X018675Y030820D01*
X018702Y030885D01*
X018732Y030948D01*
X018766Y031010D01*
X018804Y031070D01*
X018845Y031127D01*
X018889Y031183D01*
X018936Y031235D01*
X018985Y031285D01*
X019038Y031332D01*
X019093Y031376D01*
X019151Y031417D01*
X019210Y031455D01*
X019272Y031489D01*
X019336Y031520D01*
X019401Y031547D01*
X019467Y031570D01*
X019535Y031590D01*
X019604Y031605D01*
X019673Y031617D01*
X019743Y031625D01*
X019814Y031629D01*
X019884Y031630D01*
X019955Y031626D01*
X020025Y031618D01*
X020095Y031606D01*
X020163Y031591D01*
X020231Y031571D01*
X020298Y031548D01*
X020363Y031521D01*
X020427Y031491D01*
X020489Y031457D01*
X020548Y031419D01*
X020606Y031379D01*
X020661Y031335D01*
X020714Y031288D01*
X020764Y031238D01*
X020811Y031185D01*
X020855Y031130D01*
X020848Y031125D01*
X020804Y031180D01*
X020757Y031232D01*
X020708Y031281D01*
X020655Y031328D01*
X020601Y031371D01*
X020543Y031412D01*
X020484Y031449D01*
X020423Y031483D01*
X020359Y031513D01*
X020295Y031540D01*
X020228Y031563D01*
X020161Y031582D01*
X020093Y031597D01*
X020024Y031609D01*
X019954Y031617D01*
X019884Y031621D01*
X019814Y031620D01*
X019744Y031616D01*
X019675Y031608D01*
X019606Y031597D01*
X019537Y031581D01*
X019470Y031562D01*
X019404Y031538D01*
X019339Y031511D01*
X019276Y031481D01*
X019215Y031447D01*
X019156Y031410D01*
X019098Y031369D01*
X019044Y031325D01*
X018992Y031279D01*
X018942Y031229D01*
X018895Y031177D01*
X018852Y031122D01*
X018811Y031065D01*
X018774Y031006D01*
X018740Y030944D01*
X018710Y030881D01*
X018683Y030816D01*
X018660Y030750D01*
X018641Y030683D01*
X018625Y030615D01*
X018613Y030546D01*
X018605Y030476D01*
X018601Y030406D01*
X018601Y030336D01*
X018605Y030266D01*
X018613Y030196D01*
X018625Y030127D01*
X018641Y030059D01*
X018660Y029992D01*
X018683Y029926D01*
X018710Y029861D01*
X018740Y029798D01*
X018774Y029736D01*
X018811Y029677D01*
X018852Y029620D01*
X018895Y029565D01*
X018942Y029513D01*
X018992Y029463D01*
X019044Y029417D01*
X019098Y029373D01*
X019156Y029332D01*
X019215Y029295D01*
X019276Y029261D01*
X019339Y029231D01*
X019404Y029204D01*
X019470Y029180D01*
X019537Y029161D01*
X019606Y029145D01*
X019675Y029134D01*
X019744Y029126D01*
X019814Y029122D01*
X019884Y029121D01*
X019954Y029125D01*
X020024Y029133D01*
X020093Y029145D01*
X020161Y029160D01*
X020228Y029179D01*
X020295Y029202D01*
X020359Y029229D01*
X020423Y029259D01*
X020484Y029293D01*
X020543Y029330D01*
X020601Y029371D01*
X020655Y029414D01*
X020708Y029461D01*
X020757Y029510D01*
X020804Y029562D01*
X020848Y029617D01*
X020841Y029622D01*
X020797Y029568D01*
X020751Y029516D01*
X020702Y029467D01*
X020650Y029421D01*
X020595Y029378D01*
X020538Y029338D01*
X020479Y029301D01*
X020418Y029267D01*
X020356Y029237D01*
X020291Y029211D01*
X020226Y029188D01*
X020159Y029169D01*
X020091Y029153D01*
X020022Y029142D01*
X019953Y029134D01*
X019884Y029130D01*
X019814Y029131D01*
X019745Y029135D01*
X019676Y029142D01*
X019607Y029154D01*
X019540Y029170D01*
X019473Y029189D01*
X019407Y029212D01*
X019343Y029239D01*
X019280Y029269D01*
X019219Y029303D01*
X019161Y029340D01*
X019104Y029380D01*
X019050Y029423D01*
X018998Y029470D01*
X018949Y029519D01*
X018902Y029571D01*
X018859Y029625D01*
X018819Y029682D01*
X018782Y029741D01*
X018748Y029802D01*
X018718Y029865D01*
X018691Y029929D01*
X018668Y029994D01*
X018649Y030061D01*
X018634Y030129D01*
X018622Y030198D01*
X018614Y030267D01*
X018610Y030336D01*
X018610Y030406D01*
X018614Y030475D01*
X018622Y030544D01*
X018634Y030613D01*
X018649Y030681D01*
X018668Y030748D01*
X018691Y030813D01*
X018718Y030877D01*
X018748Y030940D01*
X018782Y031001D01*
X018819Y031060D01*
X018859Y031117D01*
X018902Y031171D01*
X018949Y031223D01*
X018998Y031272D01*
X019050Y031319D01*
X019104Y031362D01*
X019161Y031402D01*
X019219Y031439D01*
X019280Y031473D01*
X019343Y031503D01*
X019407Y031530D01*
X019473Y031553D01*
X019540Y031572D01*
X019607Y031588D01*
X019676Y031600D01*
X019745Y031607D01*
X019814Y031611D01*
X019884Y031612D01*
X019953Y031608D01*
X020022Y031600D01*
X020091Y031589D01*
X020159Y031573D01*
X020226Y031554D01*
X020291Y031531D01*
X020356Y031505D01*
X020418Y031475D01*
X020479Y031441D01*
X020538Y031404D01*
X020595Y031364D01*
X020650Y031321D01*
X020702Y031275D01*
X020751Y031226D01*
X020797Y031174D01*
X020841Y031120D01*
X020834Y031114D01*
X020790Y031168D01*
X020744Y031219D01*
X020695Y031268D01*
X020644Y031314D01*
X020590Y031357D01*
X020533Y031397D01*
X020475Y031433D01*
X020414Y031467D01*
X020352Y031497D01*
X020288Y031523D01*
X020223Y031545D01*
X020157Y031564D01*
X020089Y031580D01*
X020021Y031591D01*
X019953Y031599D01*
X019884Y031603D01*
X019815Y031602D01*
X019746Y031598D01*
X019677Y031591D01*
X019609Y031579D01*
X019542Y031564D01*
X019475Y031544D01*
X019410Y031521D01*
X019347Y031495D01*
X019284Y031465D01*
X019224Y031432D01*
X019166Y031395D01*
X019109Y031355D01*
X019055Y031312D01*
X019004Y031266D01*
X018955Y031217D01*
X018909Y031165D01*
X018866Y031111D01*
X018826Y031055D01*
X018790Y030996D01*
X018756Y030936D01*
X018726Y030874D01*
X018700Y030810D01*
X018677Y030745D01*
X018658Y030678D01*
X018643Y030611D01*
X018631Y030543D01*
X018623Y030474D01*
X018619Y030406D01*
X018619Y030336D01*
X018623Y030268D01*
X018631Y030199D01*
X018643Y030131D01*
X018658Y030064D01*
X018677Y029997D01*
X018700Y029932D01*
X018726Y029868D01*
X018756Y029806D01*
X018790Y029746D01*
X018826Y029687D01*
X018866Y029631D01*
X018909Y029577D01*
X018955Y029525D01*
X019004Y029476D01*
X019055Y029430D01*
X019109Y029387D01*
X019166Y029347D01*
X019224Y029310D01*
X019284Y029277D01*
X019347Y029247D01*
X019410Y029221D01*
X019475Y029198D01*
X019542Y029178D01*
X019609Y029163D01*
X019677Y029151D01*
X019746Y029144D01*
X019815Y029140D01*
X019884Y029139D01*
X019953Y029143D01*
X020021Y029151D01*
X020089Y029162D01*
X020157Y029178D01*
X020223Y029197D01*
X020288Y029219D01*
X020352Y029245D01*
X020414Y029275D01*
X020475Y029309D01*
X020533Y029345D01*
X020590Y029385D01*
X020644Y029428D01*
X020695Y029474D01*
X020744Y029523D01*
X020790Y029574D01*
X020834Y029628D01*
X020826Y029633D01*
X020783Y029579D01*
X020737Y029528D01*
X020687Y029479D01*
X020636Y029433D01*
X020581Y029390D01*
X020524Y029350D01*
X020466Y029314D01*
X020405Y029280D01*
X020342Y029251D01*
X020278Y029225D01*
X020212Y029203D01*
X020145Y029184D01*
X020078Y029169D01*
X020009Y029158D01*
X019940Y029151D01*
X019871Y029148D01*
X019802Y029149D01*
X019732Y029154D01*
X019664Y029162D01*
X019596Y029175D01*
X019528Y029191D01*
X019462Y029212D01*
X019397Y029235D01*
X019333Y029263D01*
X019271Y029294D01*
X019211Y029329D01*
X019153Y029367D01*
X019097Y029408D01*
X019044Y029452D01*
X018993Y029499D01*
X018945Y029549D01*
X018900Y029602D01*
X018858Y029657D01*
X018819Y029714D01*
X018784Y029774D01*
X018752Y029835D01*
X018723Y029898D01*
X018698Y029963D01*
X018677Y030029D01*
X018659Y030096D01*
X018646Y030164D01*
X018636Y030233D01*
X018630Y030302D01*
X018628Y030371D01*
X018630Y030440D01*
X018636Y030509D01*
X018646Y030578D01*
X018659Y030646D01*
X018677Y030713D01*
X018698Y030779D01*
X018723Y030844D01*
X018752Y030907D01*
X018784Y030968D01*
X018819Y031028D01*
X018858Y031085D01*
X018900Y031140D01*
X018945Y031193D01*
X018993Y031243D01*
X019044Y031290D01*
X019097Y031334D01*
X019153Y031375D01*
X019211Y031413D01*
X019271Y031448D01*
X019333Y031479D01*
X019397Y031507D01*
X019462Y031530D01*
X019528Y031551D01*
X019596Y031567D01*
X019664Y031580D01*
X019732Y031588D01*
X019802Y031593D01*
X019871Y031594D01*
X019940Y031591D01*
X020009Y031584D01*
X020078Y031573D01*
X020145Y031558D01*
X020212Y031539D01*
X020278Y031517D01*
X020342Y031491D01*
X020405Y031462D01*
X020466Y031428D01*
X020524Y031392D01*
X020581Y031352D01*
X020636Y031309D01*
X020687Y031263D01*
X020737Y031214D01*
X020783Y031163D01*
X020826Y031109D01*
X020819Y031103D01*
X020776Y031157D01*
X020730Y031208D01*
X020681Y031257D01*
X020630Y031302D01*
X020576Y031345D01*
X020519Y031384D01*
X020461Y031421D01*
X020401Y031454D01*
X020338Y031483D01*
X020275Y031509D01*
X020209Y031531D01*
X020143Y031549D01*
X020076Y031564D01*
X020008Y031575D01*
X019939Y031582D01*
X019871Y031585D01*
X019802Y031584D01*
X019733Y031579D01*
X019665Y031571D01*
X019597Y031558D01*
X019531Y031542D01*
X019465Y031522D01*
X019400Y031498D01*
X019337Y031471D01*
X019276Y031440D01*
X019216Y031406D01*
X019158Y031368D01*
X019103Y031327D01*
X019050Y031283D01*
X019000Y031236D01*
X018952Y031187D01*
X018907Y031135D01*
X018865Y031080D01*
X018827Y031023D01*
X018792Y030964D01*
X018760Y030903D01*
X018731Y030840D01*
X018707Y030776D01*
X018685Y030710D01*
X018668Y030644D01*
X018655Y030576D01*
X018645Y030508D01*
X018639Y030440D01*
X018637Y030371D01*
X018639Y030302D01*
X018645Y030234D01*
X018655Y030166D01*
X018668Y030098D01*
X018685Y030032D01*
X018707Y029966D01*
X018731Y029902D01*
X018760Y029839D01*
X018792Y029778D01*
X018827Y029719D01*
X018865Y029662D01*
X018907Y029607D01*
X018952Y029555D01*
X019000Y029506D01*
X019050Y029459D01*
X019103Y029415D01*
X019158Y029374D01*
X019216Y029336D01*
X019276Y029302D01*
X019337Y029271D01*
X019400Y029244D01*
X019465Y029220D01*
X019531Y029200D01*
X019597Y029184D01*
X019665Y029171D01*
X019733Y029163D01*
X019802Y029158D01*
X019871Y029157D01*
X019939Y029160D01*
X020008Y029167D01*
X020076Y029178D01*
X020143Y029193D01*
X020209Y029211D01*
X020275Y029233D01*
X020338Y029259D01*
X020401Y029288D01*
X020461Y029321D01*
X020519Y029358D01*
X020576Y029397D01*
X020630Y029440D01*
X020681Y029485D01*
X020730Y029534D01*
X020776Y029585D01*
X020819Y029639D01*
X020879Y034596D02*
X020807Y034542D01*
X020808Y034543D02*
X020765Y034596D01*
X020720Y034647D01*
X020671Y034695D01*
X020620Y034740D01*
X020566Y034783D01*
X020510Y034822D01*
X020452Y034858D01*
X020392Y034891D01*
X020331Y034920D01*
X020267Y034945D01*
X020203Y034967D01*
X020137Y034986D01*
X020070Y035000D01*
X020003Y035011D01*
X019935Y035018D01*
X019867Y035021D01*
X019798Y035020D01*
X019730Y035015D01*
X019662Y035007D01*
X019595Y034994D01*
X019529Y034978D01*
X019464Y034958D01*
X019399Y034935D01*
X019337Y034908D01*
X019276Y034877D01*
X019217Y034843D01*
X019159Y034806D01*
X019104Y034765D01*
X019052Y034721D01*
X019002Y034675D01*
X018955Y034626D01*
X018910Y034574D01*
X018869Y034520D01*
X018830Y034463D01*
X018795Y034404D01*
X018764Y034344D01*
X018736Y034282D01*
X018711Y034218D01*
X018690Y034153D01*
X018673Y034087D01*
X018659Y034020D01*
X018650Y033952D01*
X018644Y033884D01*
X018642Y033816D01*
X018644Y033748D01*
X018650Y033680D01*
X018659Y033612D01*
X018673Y033545D01*
X018690Y033479D01*
X018711Y033414D01*
X018736Y033350D01*
X018764Y033288D01*
X018795Y033228D01*
X018830Y033169D01*
X018869Y033112D01*
X018910Y033058D01*
X018955Y033006D01*
X019002Y032957D01*
X019052Y032911D01*
X019104Y032867D01*
X019159Y032826D01*
X019217Y032789D01*
X019276Y032755D01*
X019337Y032724D01*
X019399Y032697D01*
X019464Y032674D01*
X019529Y032654D01*
X019595Y032638D01*
X019662Y032625D01*
X019730Y032617D01*
X019798Y032612D01*
X019867Y032611D01*
X019935Y032614D01*
X020003Y032621D01*
X020070Y032632D01*
X020137Y032646D01*
X020203Y032665D01*
X020267Y032687D01*
X020331Y032712D01*
X020392Y032741D01*
X020452Y032774D01*
X020510Y032810D01*
X020566Y032849D01*
X020620Y032892D01*
X020671Y032937D01*
X020720Y032985D01*
X020765Y033036D01*
X020808Y033089D01*
X020879Y033036D01*
X020880Y033035D01*
X020836Y032980D01*
X020788Y032927D01*
X020738Y032876D01*
X020685Y032829D01*
X020630Y032785D01*
X020572Y032743D01*
X020512Y032705D01*
X020451Y032670D01*
X020387Y032639D01*
X020322Y032611D01*
X020255Y032587D01*
X020187Y032566D01*
X020118Y032550D01*
X020048Y032537D01*
X019978Y032528D01*
X019907Y032522D01*
X019836Y032521D01*
X019765Y032524D01*
X019694Y032530D01*
X019624Y032540D01*
X019555Y032554D01*
X019486Y032572D01*
X019418Y032594D01*
X019352Y032619D01*
X019287Y032648D01*
X019224Y032681D01*
X019163Y032717D01*
X019104Y032756D01*
X019047Y032798D01*
X018992Y032843D01*
X018940Y032892D01*
X018891Y032943D01*
X018844Y032996D01*
X018801Y033053D01*
X018761Y033111D01*
X018724Y033172D01*
X018690Y033234D01*
X018660Y033298D01*
X018633Y033364D01*
X018610Y033431D01*
X018591Y033500D01*
X018576Y033569D01*
X018564Y033639D01*
X018556Y033710D01*
X018552Y033781D01*
X018552Y033851D01*
X018556Y033922D01*
X018564Y033993D01*
X018576Y034063D01*
X018591Y034132D01*
X018610Y034201D01*
X018633Y034268D01*
X018660Y034334D01*
X018690Y034398D01*
X018724Y034460D01*
X018761Y034521D01*
X018801Y034579D01*
X018844Y034636D01*
X018891Y034689D01*
X018940Y034740D01*
X018992Y034789D01*
X019047Y034834D01*
X019104Y034876D01*
X019163Y034915D01*
X019224Y034951D01*
X019287Y034984D01*
X019352Y035013D01*
X019418Y035038D01*
X019486Y035060D01*
X019555Y035078D01*
X019624Y035092D01*
X019694Y035102D01*
X019765Y035108D01*
X019836Y035111D01*
X019907Y035110D01*
X019978Y035104D01*
X020048Y035095D01*
X020118Y035082D01*
X020187Y035066D01*
X020255Y035045D01*
X020322Y035021D01*
X020387Y034993D01*
X020451Y034962D01*
X020512Y034927D01*
X020572Y034889D01*
X020630Y034847D01*
X020685Y034803D01*
X020738Y034756D01*
X020788Y034705D01*
X020836Y034652D01*
X020880Y034597D01*
X020873Y034592D01*
X020828Y034647D01*
X020781Y034700D01*
X020730Y034751D01*
X020677Y034798D01*
X020621Y034843D01*
X020563Y034884D01*
X020503Y034922D01*
X020441Y034957D01*
X020377Y034988D01*
X020311Y035015D01*
X020244Y035039D01*
X020175Y035059D01*
X020106Y035076D01*
X020036Y035088D01*
X019965Y035097D01*
X019894Y035101D01*
X019823Y035102D01*
X019752Y035098D01*
X019681Y035091D01*
X019610Y035080D01*
X019541Y035065D01*
X019472Y035046D01*
X019404Y035023D01*
X019338Y034997D01*
X019273Y034967D01*
X019211Y034933D01*
X019150Y034897D01*
X019091Y034856D01*
X019034Y034813D01*
X018980Y034766D01*
X018929Y034717D01*
X018881Y034664D01*
X018835Y034610D01*
X018793Y034552D01*
X018754Y034493D01*
X018718Y034431D01*
X018685Y034368D01*
X018657Y034303D01*
X018631Y034236D01*
X018610Y034168D01*
X018592Y034099D01*
X018579Y034029D01*
X018569Y033958D01*
X018563Y033887D01*
X018561Y033816D01*
X018563Y033745D01*
X018569Y033674D01*
X018579Y033603D01*
X018592Y033533D01*
X018610Y033464D01*
X018631Y033396D01*
X018657Y033329D01*
X018685Y033264D01*
X018718Y033201D01*
X018754Y033139D01*
X018793Y033080D01*
X018835Y033022D01*
X018881Y032968D01*
X018929Y032915D01*
X018980Y032866D01*
X019034Y032819D01*
X019091Y032776D01*
X019150Y032735D01*
X019211Y032699D01*
X019273Y032665D01*
X019338Y032635D01*
X019404Y032609D01*
X019472Y032586D01*
X019541Y032567D01*
X019610Y032552D01*
X019681Y032541D01*
X019752Y032534D01*
X019823Y032530D01*
X019894Y032531D01*
X019965Y032535D01*
X020036Y032544D01*
X020106Y032556D01*
X020175Y032573D01*
X020244Y032593D01*
X020311Y032617D01*
X020377Y032644D01*
X020441Y032675D01*
X020503Y032710D01*
X020563Y032748D01*
X020621Y032789D01*
X020677Y032834D01*
X020730Y032881D01*
X020781Y032932D01*
X020828Y032985D01*
X020873Y033040D01*
X020866Y033046D01*
X020821Y032991D01*
X020774Y032938D01*
X020724Y032888D01*
X020671Y032841D01*
X020616Y032797D01*
X020558Y032755D01*
X020499Y032718D01*
X020437Y032683D01*
X020373Y032652D01*
X020308Y032625D01*
X020241Y032601D01*
X020173Y032581D01*
X020104Y032565D01*
X020035Y032553D01*
X019964Y032544D01*
X019894Y032540D01*
X019823Y032539D01*
X019752Y032543D01*
X019682Y032550D01*
X019612Y032561D01*
X019543Y032576D01*
X019475Y032595D01*
X019407Y032617D01*
X019342Y032643D01*
X019277Y032673D01*
X019215Y032706D01*
X019155Y032743D01*
X019096Y032783D01*
X019040Y032826D01*
X018986Y032872D01*
X018936Y032922D01*
X018887Y032973D01*
X018842Y033028D01*
X018800Y033085D01*
X018761Y033144D01*
X018726Y033205D01*
X018693Y033268D01*
X018665Y033333D01*
X018640Y033399D01*
X018619Y033467D01*
X018601Y033535D01*
X018588Y033605D01*
X018578Y033675D01*
X018572Y033745D01*
X018570Y033816D01*
X018572Y033887D01*
X018578Y033957D01*
X018588Y034027D01*
X018601Y034097D01*
X018619Y034165D01*
X018640Y034233D01*
X018665Y034299D01*
X018693Y034364D01*
X018726Y034427D01*
X018761Y034488D01*
X018800Y034547D01*
X018842Y034604D01*
X018887Y034659D01*
X018936Y034710D01*
X018986Y034760D01*
X019040Y034806D01*
X019096Y034849D01*
X019155Y034889D01*
X019215Y034926D01*
X019277Y034959D01*
X019342Y034989D01*
X019407Y035015D01*
X019475Y035037D01*
X019543Y035056D01*
X019612Y035071D01*
X019682Y035082D01*
X019752Y035089D01*
X019823Y035093D01*
X019894Y035092D01*
X019964Y035088D01*
X020035Y035079D01*
X020104Y035067D01*
X020173Y035051D01*
X020241Y035031D01*
X020308Y035007D01*
X020373Y034980D01*
X020437Y034949D01*
X020499Y034914D01*
X020558Y034877D01*
X020616Y034835D01*
X020671Y034791D01*
X020724Y034744D01*
X020774Y034694D01*
X020821Y034641D01*
X020866Y034586D01*
X020858Y034581D01*
X020814Y034636D01*
X020766Y034689D01*
X020716Y034739D01*
X020663Y034787D01*
X020607Y034831D01*
X020549Y034872D01*
X020489Y034909D01*
X020427Y034944D01*
X020363Y034974D01*
X020297Y035001D01*
X020230Y035025D01*
X020162Y035044D01*
X020092Y035060D01*
X020022Y035072D01*
X019952Y035080D01*
X019881Y035084D01*
X019810Y035083D01*
X019739Y035079D01*
X019668Y035071D01*
X019598Y035059D01*
X019529Y035043D01*
X019461Y035024D01*
X019393Y035000D01*
X019328Y034973D01*
X019264Y034942D01*
X019202Y034908D01*
X019142Y034870D01*
X019084Y034828D01*
X019028Y034784D01*
X018975Y034737D01*
X018925Y034686D01*
X018878Y034633D01*
X018833Y034578D01*
X018792Y034520D01*
X018755Y034460D01*
X018720Y034397D01*
X018689Y034333D01*
X018662Y034268D01*
X018639Y034201D01*
X018619Y034132D01*
X018603Y034063D01*
X018591Y033993D01*
X018583Y033922D01*
X018579Y033852D01*
X018579Y033780D01*
X018583Y033710D01*
X018591Y033639D01*
X018603Y033569D01*
X018619Y033500D01*
X018639Y033431D01*
X018662Y033364D01*
X018689Y033299D01*
X018720Y033235D01*
X018755Y033172D01*
X018792Y033112D01*
X018833Y033054D01*
X018878Y032999D01*
X018925Y032946D01*
X018975Y032895D01*
X019028Y032848D01*
X019084Y032804D01*
X019142Y032762D01*
X019202Y032724D01*
X019264Y032690D01*
X019328Y032659D01*
X019393Y032632D01*
X019461Y032608D01*
X019529Y032589D01*
X019598Y032573D01*
X019668Y032561D01*
X019739Y032553D01*
X019810Y032549D01*
X019881Y032548D01*
X019952Y032552D01*
X020022Y032560D01*
X020092Y032572D01*
X020162Y032588D01*
X020230Y032607D01*
X020297Y032631D01*
X020363Y032658D01*
X020427Y032688D01*
X020489Y032723D01*
X020549Y032760D01*
X020607Y032801D01*
X020663Y032845D01*
X020716Y032893D01*
X020766Y032943D01*
X020814Y032996D01*
X020858Y033051D01*
X020851Y033057D01*
X020807Y033002D01*
X020760Y032949D01*
X020710Y032899D01*
X020657Y032852D01*
X020602Y032808D01*
X020544Y032768D01*
X020485Y032730D01*
X020423Y032696D01*
X020359Y032666D01*
X020294Y032639D01*
X020227Y032616D01*
X020159Y032596D01*
X020091Y032581D01*
X020021Y032569D01*
X019951Y032561D01*
X019880Y032557D01*
X019810Y032558D01*
X019739Y032562D01*
X019669Y032570D01*
X019600Y032582D01*
X019531Y032597D01*
X019463Y032617D01*
X019397Y032640D01*
X019332Y032667D01*
X019268Y032698D01*
X019206Y032732D01*
X019147Y032770D01*
X019089Y032811D01*
X019034Y032855D01*
X018981Y032902D01*
X018932Y032952D01*
X018885Y033004D01*
X018841Y033060D01*
X018800Y033117D01*
X018762Y033177D01*
X018728Y033239D01*
X018698Y033302D01*
X018671Y033367D01*
X018647Y033434D01*
X018628Y033502D01*
X018612Y033571D01*
X018600Y033640D01*
X018592Y033710D01*
X018588Y033781D01*
X018588Y033851D01*
X018592Y033922D01*
X018600Y033992D01*
X018612Y034061D01*
X018628Y034130D01*
X018647Y034198D01*
X018671Y034265D01*
X018698Y034330D01*
X018728Y034393D01*
X018762Y034455D01*
X018800Y034515D01*
X018841Y034572D01*
X018885Y034628D01*
X018932Y034680D01*
X018981Y034730D01*
X019034Y034777D01*
X019089Y034821D01*
X019147Y034862D01*
X019206Y034900D01*
X019268Y034934D01*
X019332Y034965D01*
X019397Y034992D01*
X019463Y035015D01*
X019531Y035035D01*
X019600Y035050D01*
X019669Y035062D01*
X019739Y035070D01*
X019810Y035074D01*
X019880Y035075D01*
X019951Y035071D01*
X020021Y035063D01*
X020091Y035051D01*
X020159Y035036D01*
X020227Y035016D01*
X020294Y034993D01*
X020359Y034966D01*
X020423Y034936D01*
X020485Y034902D01*
X020544Y034864D01*
X020602Y034824D01*
X020657Y034780D01*
X020710Y034733D01*
X020760Y034683D01*
X020807Y034630D01*
X020851Y034575D01*
X020844Y034570D01*
X020800Y034625D01*
X020753Y034677D01*
X020704Y034726D01*
X020651Y034773D01*
X020597Y034816D01*
X020539Y034857D01*
X020480Y034894D01*
X020419Y034928D01*
X020355Y034958D01*
X020291Y034985D01*
X020224Y035008D01*
X020157Y035027D01*
X020089Y035042D01*
X020020Y035054D01*
X019950Y035062D01*
X019880Y035066D01*
X019810Y035065D01*
X019740Y035061D01*
X019671Y035053D01*
X019602Y035042D01*
X019533Y035026D01*
X019466Y035007D01*
X019400Y034983D01*
X019335Y034956D01*
X019272Y034926D01*
X019211Y034892D01*
X019152Y034855D01*
X019094Y034814D01*
X019040Y034770D01*
X018988Y034724D01*
X018938Y034674D01*
X018891Y034622D01*
X018848Y034567D01*
X018807Y034510D01*
X018770Y034451D01*
X018736Y034389D01*
X018706Y034326D01*
X018679Y034261D01*
X018656Y034195D01*
X018637Y034128D01*
X018621Y034060D01*
X018609Y033991D01*
X018601Y033921D01*
X018597Y033851D01*
X018597Y033781D01*
X018601Y033711D01*
X018609Y033641D01*
X018621Y033572D01*
X018637Y033504D01*
X018656Y033437D01*
X018679Y033371D01*
X018706Y033306D01*
X018736Y033243D01*
X018770Y033181D01*
X018807Y033122D01*
X018848Y033065D01*
X018891Y033010D01*
X018938Y032958D01*
X018988Y032908D01*
X019040Y032862D01*
X019094Y032818D01*
X019152Y032777D01*
X019211Y032740D01*
X019272Y032706D01*
X019335Y032676D01*
X019400Y032649D01*
X019466Y032625D01*
X019533Y032606D01*
X019602Y032590D01*
X019671Y032579D01*
X019740Y032571D01*
X019810Y032567D01*
X019880Y032566D01*
X019950Y032570D01*
X020020Y032578D01*
X020089Y032590D01*
X020157Y032605D01*
X020224Y032624D01*
X020291Y032647D01*
X020355Y032674D01*
X020419Y032704D01*
X020480Y032738D01*
X020539Y032775D01*
X020597Y032816D01*
X020651Y032859D01*
X020704Y032906D01*
X020753Y032955D01*
X020800Y033007D01*
X020844Y033062D01*
X020837Y033067D01*
X020793Y033013D01*
X020747Y032961D01*
X020698Y032912D01*
X020646Y032866D01*
X020591Y032823D01*
X020534Y032783D01*
X020475Y032746D01*
X020414Y032712D01*
X020352Y032682D01*
X020287Y032656D01*
X020222Y032633D01*
X020155Y032614D01*
X020087Y032598D01*
X020018Y032587D01*
X019949Y032579D01*
X019880Y032575D01*
X019810Y032576D01*
X019741Y032580D01*
X019672Y032587D01*
X019603Y032599D01*
X019536Y032615D01*
X019469Y032634D01*
X019403Y032657D01*
X019339Y032684D01*
X019276Y032714D01*
X019215Y032748D01*
X019157Y032785D01*
X019100Y032825D01*
X019046Y032868D01*
X018994Y032915D01*
X018945Y032964D01*
X018898Y033016D01*
X018855Y033070D01*
X018815Y033127D01*
X018778Y033186D01*
X018744Y033247D01*
X018714Y033310D01*
X018687Y033374D01*
X018664Y033439D01*
X018645Y033506D01*
X018630Y033574D01*
X018618Y033643D01*
X018610Y033712D01*
X018606Y033781D01*
X018606Y033851D01*
X018610Y033920D01*
X018618Y033989D01*
X018630Y034058D01*
X018645Y034126D01*
X018664Y034193D01*
X018687Y034258D01*
X018714Y034322D01*
X018744Y034385D01*
X018778Y034446D01*
X018815Y034505D01*
X018855Y034562D01*
X018898Y034616D01*
X018945Y034668D01*
X018994Y034717D01*
X019046Y034764D01*
X019100Y034807D01*
X019157Y034847D01*
X019215Y034884D01*
X019276Y034918D01*
X019339Y034948D01*
X019403Y034975D01*
X019469Y034998D01*
X019536Y035017D01*
X019603Y035033D01*
X019672Y035045D01*
X019741Y035052D01*
X019810Y035056D01*
X019880Y035057D01*
X019949Y035053D01*
X020018Y035045D01*
X020087Y035034D01*
X020155Y035018D01*
X020222Y034999D01*
X020287Y034976D01*
X020352Y034950D01*
X020414Y034920D01*
X020475Y034886D01*
X020534Y034849D01*
X020591Y034809D01*
X020646Y034766D01*
X020698Y034720D01*
X020747Y034671D01*
X020793Y034619D01*
X020837Y034565D01*
X020830Y034559D01*
X020786Y034613D01*
X020740Y034664D01*
X020691Y034713D01*
X020640Y034759D01*
X020586Y034802D01*
X020529Y034842D01*
X020471Y034878D01*
X020410Y034912D01*
X020348Y034942D01*
X020284Y034968D01*
X020219Y034990D01*
X020153Y035009D01*
X020085Y035025D01*
X020017Y035036D01*
X019949Y035044D01*
X019880Y035048D01*
X019811Y035047D01*
X019742Y035043D01*
X019673Y035036D01*
X019605Y035024D01*
X019538Y035009D01*
X019471Y034989D01*
X019406Y034966D01*
X019343Y034940D01*
X019280Y034910D01*
X019220Y034877D01*
X019162Y034840D01*
X019105Y034800D01*
X019051Y034757D01*
X019000Y034711D01*
X018951Y034662D01*
X018905Y034610D01*
X018862Y034556D01*
X018822Y034500D01*
X018786Y034441D01*
X018752Y034381D01*
X018722Y034319D01*
X018696Y034255D01*
X018673Y034190D01*
X018654Y034123D01*
X018639Y034056D01*
X018627Y033988D01*
X018619Y033919D01*
X018615Y033851D01*
X018615Y033781D01*
X018619Y033713D01*
X018627Y033644D01*
X018639Y033576D01*
X018654Y033509D01*
X018673Y033442D01*
X018696Y033377D01*
X018722Y033313D01*
X018752Y033251D01*
X018786Y033191D01*
X018822Y033132D01*
X018862Y033076D01*
X018905Y033022D01*
X018951Y032970D01*
X019000Y032921D01*
X019051Y032875D01*
X019105Y032832D01*
X019162Y032792D01*
X019220Y032755D01*
X019280Y032722D01*
X019343Y032692D01*
X019406Y032666D01*
X019471Y032643D01*
X019538Y032623D01*
X019605Y032608D01*
X019673Y032596D01*
X019742Y032589D01*
X019811Y032585D01*
X019880Y032584D01*
X019949Y032588D01*
X020017Y032596D01*
X020085Y032607D01*
X020153Y032623D01*
X020219Y032642D01*
X020284Y032664D01*
X020348Y032690D01*
X020410Y032720D01*
X020471Y032754D01*
X020529Y032790D01*
X020586Y032830D01*
X020640Y032873D01*
X020691Y032919D01*
X020740Y032968D01*
X020786Y033019D01*
X020830Y033073D01*
X020822Y033078D01*
X020779Y033024D01*
X020733Y032973D01*
X020683Y032924D01*
X020632Y032878D01*
X020577Y032835D01*
X020520Y032795D01*
X020462Y032759D01*
X020401Y032725D01*
X020338Y032696D01*
X020274Y032670D01*
X020208Y032648D01*
X020141Y032629D01*
X020074Y032614D01*
X020005Y032603D01*
X019936Y032596D01*
X019867Y032593D01*
X019798Y032594D01*
X019728Y032599D01*
X019660Y032607D01*
X019592Y032620D01*
X019524Y032636D01*
X019458Y032657D01*
X019393Y032680D01*
X019329Y032708D01*
X019267Y032739D01*
X019207Y032774D01*
X019149Y032812D01*
X019093Y032853D01*
X019040Y032897D01*
X018989Y032944D01*
X018941Y032994D01*
X018896Y033047D01*
X018854Y033102D01*
X018815Y033159D01*
X018780Y033219D01*
X018748Y033280D01*
X018719Y033343D01*
X018694Y033408D01*
X018673Y033474D01*
X018655Y033541D01*
X018642Y033609D01*
X018632Y033678D01*
X018626Y033747D01*
X018624Y033816D01*
X018626Y033885D01*
X018632Y033954D01*
X018642Y034023D01*
X018655Y034091D01*
X018673Y034158D01*
X018694Y034224D01*
X018719Y034289D01*
X018748Y034352D01*
X018780Y034413D01*
X018815Y034473D01*
X018854Y034530D01*
X018896Y034585D01*
X018941Y034638D01*
X018989Y034688D01*
X019040Y034735D01*
X019093Y034779D01*
X019149Y034820D01*
X019207Y034858D01*
X019267Y034893D01*
X019329Y034924D01*
X019393Y034952D01*
X019458Y034975D01*
X019524Y034996D01*
X019592Y035012D01*
X019660Y035025D01*
X019728Y035033D01*
X019798Y035038D01*
X019867Y035039D01*
X019936Y035036D01*
X020005Y035029D01*
X020074Y035018D01*
X020141Y035003D01*
X020208Y034984D01*
X020274Y034962D01*
X020338Y034936D01*
X020401Y034907D01*
X020462Y034873D01*
X020520Y034837D01*
X020577Y034797D01*
X020632Y034754D01*
X020683Y034708D01*
X020733Y034659D01*
X020779Y034608D01*
X020822Y034554D01*
X020815Y034548D01*
X020772Y034602D01*
X020726Y034653D01*
X020677Y034702D01*
X020626Y034747D01*
X020572Y034790D01*
X020515Y034829D01*
X020457Y034866D01*
X020397Y034899D01*
X020334Y034928D01*
X020271Y034954D01*
X020205Y034976D01*
X020139Y034994D01*
X020072Y035009D01*
X020004Y035020D01*
X019935Y035027D01*
X019867Y035030D01*
X019798Y035029D01*
X019729Y035024D01*
X019661Y035016D01*
X019593Y035003D01*
X019527Y034987D01*
X019461Y034967D01*
X019396Y034943D01*
X019333Y034916D01*
X019272Y034885D01*
X019212Y034851D01*
X019154Y034813D01*
X019099Y034772D01*
X019046Y034728D01*
X018996Y034681D01*
X018948Y034632D01*
X018903Y034580D01*
X018861Y034525D01*
X018823Y034468D01*
X018788Y034409D01*
X018756Y034348D01*
X018727Y034285D01*
X018703Y034221D01*
X018681Y034155D01*
X018664Y034089D01*
X018651Y034021D01*
X018641Y033953D01*
X018635Y033885D01*
X018633Y033816D01*
X018635Y033747D01*
X018641Y033679D01*
X018651Y033611D01*
X018664Y033543D01*
X018681Y033477D01*
X018703Y033411D01*
X018727Y033347D01*
X018756Y033284D01*
X018788Y033223D01*
X018823Y033164D01*
X018861Y033107D01*
X018903Y033052D01*
X018948Y033000D01*
X018996Y032951D01*
X019046Y032904D01*
X019099Y032860D01*
X019154Y032819D01*
X019212Y032781D01*
X019272Y032747D01*
X019333Y032716D01*
X019396Y032689D01*
X019461Y032665D01*
X019527Y032645D01*
X019593Y032629D01*
X019661Y032616D01*
X019729Y032608D01*
X019798Y032603D01*
X019867Y032602D01*
X019935Y032605D01*
X020004Y032612D01*
X020072Y032623D01*
X020139Y032638D01*
X020205Y032656D01*
X020271Y032678D01*
X020334Y032704D01*
X020397Y032733D01*
X020457Y032766D01*
X020515Y032803D01*
X020572Y032842D01*
X020626Y032885D01*
X020677Y032930D01*
X020726Y032979D01*
X020772Y033030D01*
X020815Y033084D01*
M02*
