G75*
G70*
%OFA0B0*%
%FSLAX24Y24*%
%IPPOS*%
%LPD*%
%AMOC8*
5,1,8,0,0,1.08239X$1,22.5*
%
%ADD10C,0.0000*%
%ADD11C,0.0030*%
D10*
X000981Y000938D02*
X000981Y036568D01*
X021650Y036568D01*
X021650Y000938D01*
X000981Y000938D01*
X001275Y001922D02*
X001277Y001974D01*
X001283Y002026D01*
X001293Y002077D01*
X001306Y002128D01*
X001324Y002177D01*
X001345Y002225D01*
X001370Y002271D01*
X001398Y002315D01*
X001429Y002357D01*
X001463Y002396D01*
X001501Y002432D01*
X001541Y002466D01*
X001583Y002497D01*
X001628Y002524D01*
X001674Y002548D01*
X001722Y002568D01*
X001772Y002584D01*
X001822Y002597D01*
X001874Y002606D01*
X001926Y002611D01*
X001978Y002612D01*
X002030Y002609D01*
X002082Y002602D01*
X002133Y002591D01*
X002183Y002577D01*
X002232Y002558D01*
X002279Y002536D01*
X002325Y002511D01*
X002368Y002482D01*
X002410Y002450D01*
X002448Y002414D01*
X002484Y002377D01*
X002517Y002336D01*
X002547Y002293D01*
X002573Y002248D01*
X002596Y002201D01*
X002615Y002153D01*
X002631Y002103D01*
X002643Y002052D01*
X002651Y002000D01*
X002655Y001948D01*
X002655Y001896D01*
X002651Y001844D01*
X002643Y001792D01*
X002631Y001741D01*
X002615Y001691D01*
X002596Y001643D01*
X002573Y001596D01*
X002547Y001551D01*
X002517Y001508D01*
X002484Y001467D01*
X002448Y001430D01*
X002410Y001394D01*
X002368Y001362D01*
X002325Y001333D01*
X002279Y001308D01*
X002232Y001286D01*
X002183Y001267D01*
X002133Y001253D01*
X002082Y001242D01*
X002030Y001235D01*
X001978Y001232D01*
X001926Y001233D01*
X001874Y001238D01*
X001822Y001247D01*
X001772Y001260D01*
X001722Y001276D01*
X001674Y001296D01*
X001628Y001320D01*
X001583Y001347D01*
X001541Y001378D01*
X001501Y001412D01*
X001463Y001448D01*
X001429Y001487D01*
X001398Y001529D01*
X001370Y001573D01*
X001345Y001619D01*
X001324Y001667D01*
X001306Y001716D01*
X001293Y001767D01*
X001283Y001818D01*
X001277Y001870D01*
X001275Y001922D01*
X003209Y003914D02*
X003211Y003962D01*
X003217Y004010D01*
X003227Y004057D01*
X003240Y004103D01*
X003258Y004148D01*
X003278Y004192D01*
X003303Y004234D01*
X003331Y004273D01*
X003361Y004310D01*
X003395Y004344D01*
X003432Y004376D01*
X003470Y004405D01*
X003511Y004430D01*
X003554Y004452D01*
X003599Y004470D01*
X003645Y004484D01*
X003692Y004495D01*
X003740Y004502D01*
X003788Y004505D01*
X003836Y004504D01*
X003884Y004499D01*
X003932Y004490D01*
X003978Y004478D01*
X004023Y004461D01*
X004067Y004441D01*
X004109Y004418D01*
X004149Y004391D01*
X004187Y004361D01*
X004222Y004328D01*
X004254Y004292D01*
X004284Y004254D01*
X004310Y004213D01*
X004332Y004170D01*
X004352Y004126D01*
X004367Y004081D01*
X004379Y004034D01*
X004387Y003986D01*
X004391Y003938D01*
X004391Y003890D01*
X004387Y003842D01*
X004379Y003794D01*
X004367Y003747D01*
X004352Y003702D01*
X004332Y003658D01*
X004310Y003615D01*
X004284Y003574D01*
X004254Y003536D01*
X004222Y003500D01*
X004187Y003467D01*
X004149Y003437D01*
X004109Y003410D01*
X004067Y003387D01*
X004023Y003367D01*
X003978Y003350D01*
X003932Y003338D01*
X003884Y003329D01*
X003836Y003324D01*
X003788Y003323D01*
X003740Y003326D01*
X003692Y003333D01*
X003645Y003344D01*
X003599Y003358D01*
X003554Y003376D01*
X003511Y003398D01*
X003470Y003423D01*
X003432Y003452D01*
X003395Y003484D01*
X003361Y003518D01*
X003331Y003555D01*
X003303Y003594D01*
X003278Y003636D01*
X003258Y003680D01*
X003240Y003725D01*
X003227Y003771D01*
X003217Y003818D01*
X003211Y003866D01*
X003209Y003914D01*
X003209Y022103D02*
X003211Y022151D01*
X003217Y022199D01*
X003227Y022246D01*
X003240Y022292D01*
X003258Y022337D01*
X003278Y022381D01*
X003303Y022423D01*
X003331Y022462D01*
X003361Y022499D01*
X003395Y022533D01*
X003432Y022565D01*
X003470Y022594D01*
X003511Y022619D01*
X003554Y022641D01*
X003599Y022659D01*
X003645Y022673D01*
X003692Y022684D01*
X003740Y022691D01*
X003788Y022694D01*
X003836Y022693D01*
X003884Y022688D01*
X003932Y022679D01*
X003978Y022667D01*
X004023Y022650D01*
X004067Y022630D01*
X004109Y022607D01*
X004149Y022580D01*
X004187Y022550D01*
X004222Y022517D01*
X004254Y022481D01*
X004284Y022443D01*
X004310Y022402D01*
X004332Y022359D01*
X004352Y022315D01*
X004367Y022270D01*
X004379Y022223D01*
X004387Y022175D01*
X004391Y022127D01*
X004391Y022079D01*
X004387Y022031D01*
X004379Y021983D01*
X004367Y021936D01*
X004352Y021891D01*
X004332Y021847D01*
X004310Y021804D01*
X004284Y021763D01*
X004254Y021725D01*
X004222Y021689D01*
X004187Y021656D01*
X004149Y021626D01*
X004109Y021599D01*
X004067Y021576D01*
X004023Y021556D01*
X003978Y021539D01*
X003932Y021527D01*
X003884Y021518D01*
X003836Y021513D01*
X003788Y021512D01*
X003740Y021515D01*
X003692Y021522D01*
X003645Y021533D01*
X003599Y021547D01*
X003554Y021565D01*
X003511Y021587D01*
X003470Y021612D01*
X003432Y021641D01*
X003395Y021673D01*
X003361Y021707D01*
X003331Y021744D01*
X003303Y021783D01*
X003278Y021825D01*
X003258Y021869D01*
X003240Y021914D01*
X003227Y021960D01*
X003217Y022007D01*
X003211Y022055D01*
X003209Y022103D01*
X001275Y035682D02*
X001277Y035734D01*
X001283Y035786D01*
X001293Y035837D01*
X001306Y035888D01*
X001324Y035937D01*
X001345Y035985D01*
X001370Y036031D01*
X001398Y036075D01*
X001429Y036117D01*
X001463Y036156D01*
X001501Y036192D01*
X001541Y036226D01*
X001583Y036257D01*
X001628Y036284D01*
X001674Y036308D01*
X001722Y036328D01*
X001772Y036344D01*
X001822Y036357D01*
X001874Y036366D01*
X001926Y036371D01*
X001978Y036372D01*
X002030Y036369D01*
X002082Y036362D01*
X002133Y036351D01*
X002183Y036337D01*
X002232Y036318D01*
X002279Y036296D01*
X002325Y036271D01*
X002368Y036242D01*
X002410Y036210D01*
X002448Y036174D01*
X002484Y036137D01*
X002517Y036096D01*
X002547Y036053D01*
X002573Y036008D01*
X002596Y035961D01*
X002615Y035913D01*
X002631Y035863D01*
X002643Y035812D01*
X002651Y035760D01*
X002655Y035708D01*
X002655Y035656D01*
X002651Y035604D01*
X002643Y035552D01*
X002631Y035501D01*
X002615Y035451D01*
X002596Y035403D01*
X002573Y035356D01*
X002547Y035311D01*
X002517Y035268D01*
X002484Y035227D01*
X002448Y035190D01*
X002410Y035154D01*
X002368Y035122D01*
X002325Y035093D01*
X002279Y035068D01*
X002232Y035046D01*
X002183Y035027D01*
X002133Y035013D01*
X002082Y035002D01*
X002030Y034995D01*
X001978Y034992D01*
X001926Y034993D01*
X001874Y034998D01*
X001822Y035007D01*
X001772Y035020D01*
X001722Y035036D01*
X001674Y035056D01*
X001628Y035080D01*
X001583Y035107D01*
X001541Y035138D01*
X001501Y035172D01*
X001463Y035208D01*
X001429Y035247D01*
X001398Y035289D01*
X001370Y035333D01*
X001345Y035379D01*
X001324Y035427D01*
X001306Y035476D01*
X001293Y035527D01*
X001283Y035578D01*
X001277Y035630D01*
X001275Y035682D01*
X019976Y035682D02*
X019978Y035734D01*
X019984Y035786D01*
X019994Y035837D01*
X020007Y035888D01*
X020025Y035937D01*
X020046Y035985D01*
X020071Y036031D01*
X020099Y036075D01*
X020130Y036117D01*
X020164Y036156D01*
X020202Y036192D01*
X020242Y036226D01*
X020284Y036257D01*
X020329Y036284D01*
X020375Y036308D01*
X020423Y036328D01*
X020473Y036344D01*
X020523Y036357D01*
X020575Y036366D01*
X020627Y036371D01*
X020679Y036372D01*
X020731Y036369D01*
X020783Y036362D01*
X020834Y036351D01*
X020884Y036337D01*
X020933Y036318D01*
X020980Y036296D01*
X021026Y036271D01*
X021069Y036242D01*
X021111Y036210D01*
X021149Y036174D01*
X021185Y036137D01*
X021218Y036096D01*
X021248Y036053D01*
X021274Y036008D01*
X021297Y035961D01*
X021316Y035913D01*
X021332Y035863D01*
X021344Y035812D01*
X021352Y035760D01*
X021356Y035708D01*
X021356Y035656D01*
X021352Y035604D01*
X021344Y035552D01*
X021332Y035501D01*
X021316Y035451D01*
X021297Y035403D01*
X021274Y035356D01*
X021248Y035311D01*
X021218Y035268D01*
X021185Y035227D01*
X021149Y035190D01*
X021111Y035154D01*
X021069Y035122D01*
X021026Y035093D01*
X020980Y035068D01*
X020933Y035046D01*
X020884Y035027D01*
X020834Y035013D01*
X020783Y035002D01*
X020731Y034995D01*
X020679Y034992D01*
X020627Y034993D01*
X020575Y034998D01*
X020523Y035007D01*
X020473Y035020D01*
X020423Y035036D01*
X020375Y035056D01*
X020329Y035080D01*
X020284Y035107D01*
X020242Y035138D01*
X020202Y035172D01*
X020164Y035208D01*
X020130Y035247D01*
X020099Y035289D01*
X020071Y035333D01*
X020046Y035379D01*
X020025Y035427D01*
X020007Y035476D01*
X019994Y035527D01*
X019984Y035578D01*
X019978Y035630D01*
X019976Y035682D01*
X019976Y001922D02*
X019978Y001974D01*
X019984Y002026D01*
X019994Y002077D01*
X020007Y002128D01*
X020025Y002177D01*
X020046Y002225D01*
X020071Y002271D01*
X020099Y002315D01*
X020130Y002357D01*
X020164Y002396D01*
X020202Y002432D01*
X020242Y002466D01*
X020284Y002497D01*
X020329Y002524D01*
X020375Y002548D01*
X020423Y002568D01*
X020473Y002584D01*
X020523Y002597D01*
X020575Y002606D01*
X020627Y002611D01*
X020679Y002612D01*
X020731Y002609D01*
X020783Y002602D01*
X020834Y002591D01*
X020884Y002577D01*
X020933Y002558D01*
X020980Y002536D01*
X021026Y002511D01*
X021069Y002482D01*
X021111Y002450D01*
X021149Y002414D01*
X021185Y002377D01*
X021218Y002336D01*
X021248Y002293D01*
X021274Y002248D01*
X021297Y002201D01*
X021316Y002153D01*
X021332Y002103D01*
X021344Y002052D01*
X021352Y002000D01*
X021356Y001948D01*
X021356Y001896D01*
X021352Y001844D01*
X021344Y001792D01*
X021332Y001741D01*
X021316Y001691D01*
X021297Y001643D01*
X021274Y001596D01*
X021248Y001551D01*
X021218Y001508D01*
X021185Y001467D01*
X021149Y001430D01*
X021111Y001394D01*
X021069Y001362D01*
X021026Y001333D01*
X020980Y001308D01*
X020933Y001286D01*
X020884Y001267D01*
X020834Y001253D01*
X020783Y001242D01*
X020731Y001235D01*
X020679Y001232D01*
X020627Y001233D01*
X020575Y001238D01*
X020523Y001247D01*
X020473Y001260D01*
X020423Y001276D01*
X020375Y001296D01*
X020329Y001320D01*
X020284Y001347D01*
X020242Y001378D01*
X020202Y001412D01*
X020164Y001448D01*
X020130Y001487D01*
X020099Y001529D01*
X020071Y001573D01*
X020046Y001619D01*
X020025Y001667D01*
X020007Y001716D01*
X019994Y001767D01*
X019984Y001818D01*
X019978Y001870D01*
X019976Y001922D01*
D11*
X005986Y012235D02*
X005924Y012173D01*
X005801Y012173D01*
X005739Y012235D01*
X005617Y012173D02*
X005617Y012543D01*
X005739Y012482D02*
X005801Y012543D01*
X005924Y012543D01*
X005986Y012482D01*
X005986Y012235D01*
X005617Y012358D02*
X005371Y012358D01*
X005249Y012297D02*
X005002Y012297D01*
X005002Y012420D02*
X005249Y012420D01*
X005371Y012543D02*
X005371Y012173D01*
X004881Y012235D02*
X004881Y012482D01*
X004819Y012543D01*
X004696Y012543D01*
X004634Y012482D01*
X004451Y012420D02*
X004327Y012420D01*
X004266Y012358D01*
X004266Y012173D01*
X004451Y012173D01*
X004513Y012235D01*
X004451Y012297D01*
X004266Y012297D01*
X004144Y012358D02*
X004082Y012420D01*
X003897Y012420D01*
X003776Y012358D02*
X003776Y012235D01*
X003714Y012173D01*
X003591Y012173D01*
X003529Y012297D02*
X003776Y012297D01*
X003776Y012358D02*
X003714Y012420D01*
X003591Y012420D01*
X003529Y012358D01*
X003529Y012297D01*
X003883Y012764D02*
X003821Y012825D01*
X003821Y013072D01*
X003883Y013134D01*
X004068Y013134D01*
X004068Y012764D01*
X003883Y012764D01*
X004189Y012764D02*
X004436Y012764D01*
X004436Y013134D01*
X004189Y013134D01*
X004313Y012949D02*
X004436Y012949D01*
X004558Y012764D02*
X004805Y012764D01*
X004805Y013134D01*
X004819Y013453D02*
X004696Y013453D01*
X004634Y013514D01*
X004513Y013514D02*
X004451Y013576D01*
X004266Y013576D01*
X004266Y013638D02*
X004266Y013453D01*
X004451Y013453D01*
X004513Y013514D01*
X004451Y013700D02*
X004327Y013700D01*
X004266Y013638D01*
X004144Y013638D02*
X004082Y013700D01*
X003897Y013700D01*
X003776Y013638D02*
X003714Y013700D01*
X003591Y013700D01*
X003529Y013638D01*
X003529Y013576D01*
X003776Y013576D01*
X003776Y013514D02*
X003776Y013638D01*
X003776Y013514D02*
X003714Y013453D01*
X003591Y013453D01*
X003897Y013514D02*
X003959Y013576D01*
X004082Y013576D01*
X004144Y013638D01*
X004144Y013453D02*
X003959Y013453D01*
X003897Y013514D01*
X003798Y014142D02*
X003859Y014203D01*
X003859Y014450D01*
X003921Y014389D02*
X003798Y014389D01*
X003675Y014327D02*
X003675Y014203D01*
X003614Y014142D01*
X003429Y014142D01*
X003307Y014142D02*
X003307Y014512D01*
X003245Y014389D02*
X003122Y014389D01*
X003060Y014327D01*
X003060Y014142D01*
X003307Y014327D02*
X003245Y014389D01*
X003429Y014389D02*
X003614Y014389D01*
X003675Y014327D01*
X003689Y014732D02*
X003813Y014732D01*
X003874Y014794D01*
X003874Y014917D01*
X003813Y014979D01*
X003689Y014979D01*
X003627Y014917D01*
X003627Y014856D01*
X003874Y014856D01*
X003996Y014794D02*
X004057Y014856D01*
X004181Y014856D01*
X004243Y014917D01*
X004181Y014979D01*
X003996Y014979D01*
X003996Y014794D02*
X004057Y014732D01*
X004243Y014732D01*
X004364Y014732D02*
X004364Y014917D01*
X004426Y014979D01*
X004549Y014979D01*
X004549Y014856D02*
X004364Y014856D01*
X004364Y014732D02*
X004549Y014732D01*
X004611Y014794D01*
X004549Y014856D01*
X004732Y014794D02*
X004794Y014732D01*
X004918Y014732D01*
X004979Y014794D01*
X004979Y015041D01*
X004918Y015103D01*
X004794Y015103D01*
X004732Y015041D01*
X004634Y015323D02*
X004881Y015323D01*
X004881Y015693D01*
X005002Y015570D02*
X005002Y015323D01*
X005002Y015508D02*
X005249Y015508D01*
X005249Y015570D02*
X005126Y015693D01*
X005002Y015570D01*
X005249Y015570D02*
X005249Y015323D01*
X005494Y015323D02*
X005494Y015693D01*
X005617Y015693D02*
X005371Y015693D01*
X005372Y015913D02*
X005125Y016160D01*
X005125Y016222D01*
X005187Y016284D01*
X005310Y016284D01*
X005372Y016222D01*
X005493Y016222D02*
X005555Y016284D01*
X005679Y016284D01*
X005740Y016222D01*
X005740Y015975D01*
X005679Y015913D01*
X005555Y015913D01*
X005493Y015975D01*
X005372Y015913D02*
X005125Y015913D01*
X005004Y016037D02*
X004757Y016037D01*
X004757Y016160D02*
X005004Y016160D01*
X004635Y016284D02*
X004388Y016284D01*
X004388Y016222D01*
X004635Y015975D01*
X004635Y015913D01*
X004513Y015570D02*
X004266Y015570D01*
X004144Y015570D02*
X004021Y015693D01*
X004021Y015323D01*
X004144Y015323D02*
X003897Y015323D01*
X003776Y015384D02*
X003714Y015323D01*
X003591Y015323D01*
X003529Y015384D01*
X003529Y015446D01*
X003591Y015508D01*
X003776Y015508D01*
X003776Y015384D01*
X003776Y015508D02*
X003652Y015631D01*
X003529Y015693D01*
X003469Y015913D02*
X003530Y015975D01*
X003469Y015913D02*
X003345Y015913D01*
X003283Y015975D01*
X003283Y016037D01*
X003345Y016098D01*
X003469Y016098D01*
X003530Y016160D01*
X003530Y016222D01*
X003469Y016284D01*
X003345Y016284D01*
X003283Y016222D01*
X003162Y016222D02*
X003100Y016284D01*
X002977Y016284D01*
X002915Y016222D01*
X002915Y016160D01*
X003162Y015913D01*
X002915Y015913D01*
X002794Y016098D02*
X002547Y016098D01*
X002425Y016098D02*
X002302Y016160D01*
X002240Y016160D01*
X002179Y016098D01*
X002179Y015975D01*
X002240Y015913D01*
X002364Y015913D01*
X002425Y015975D01*
X002425Y016098D02*
X002425Y016284D01*
X002179Y016284D01*
X002057Y016284D02*
X001810Y015913D01*
X001810Y016284D01*
X002057Y016284D02*
X002057Y015913D01*
X002056Y015570D02*
X002303Y015323D01*
X002056Y015323D01*
X002056Y015570D02*
X002303Y015570D01*
X002424Y015508D02*
X002424Y015323D01*
X002424Y015508D02*
X002486Y015570D01*
X002609Y015570D01*
X002671Y015508D01*
X002671Y015693D02*
X002671Y015323D01*
X002792Y015323D02*
X002792Y015693D01*
X002916Y015570D01*
X003039Y015693D01*
X003039Y015323D01*
X002609Y015913D02*
X002609Y016284D01*
X002794Y016098D01*
X003318Y016627D02*
X003503Y016627D01*
X003624Y016627D02*
X003624Y016566D01*
X003686Y016504D01*
X003809Y016504D01*
X003871Y016566D01*
X003871Y016627D01*
X003809Y016689D01*
X003686Y016689D01*
X003624Y016627D01*
X003686Y016689D02*
X003624Y016751D01*
X003624Y016812D01*
X003686Y016874D01*
X003809Y016874D01*
X003871Y016812D01*
X003871Y016751D01*
X003809Y016689D01*
X003993Y016751D02*
X003993Y016812D01*
X004054Y016874D01*
X004178Y016874D01*
X004240Y016812D01*
X004361Y016812D02*
X004361Y016751D01*
X004423Y016689D01*
X004361Y016627D01*
X004361Y016566D01*
X004423Y016504D01*
X004546Y016504D01*
X004608Y016566D01*
X004484Y016689D02*
X004423Y016689D01*
X004361Y016812D02*
X004423Y016874D01*
X004546Y016874D01*
X004608Y016812D01*
X004635Y017094D02*
X004635Y017341D01*
X004512Y017465D01*
X004388Y017341D01*
X004388Y017094D01*
X004388Y017280D02*
X004635Y017280D01*
X004757Y017341D02*
X005004Y017341D01*
X005004Y017218D02*
X004757Y017218D01*
X004757Y017685D02*
X004757Y018055D01*
X004881Y017932D01*
X005002Y017932D02*
X005249Y017932D01*
X005249Y017808D02*
X005002Y017808D01*
X004881Y017685D02*
X004634Y017685D01*
X004513Y017747D02*
X004513Y017994D01*
X004451Y018055D01*
X004327Y018055D01*
X004266Y017994D01*
X004513Y017747D01*
X004451Y017685D01*
X004327Y017685D01*
X004266Y017747D01*
X004266Y017994D01*
X004144Y017994D02*
X004082Y018055D01*
X003959Y018055D01*
X003897Y017994D01*
X004144Y017747D01*
X004082Y017685D01*
X003959Y017685D01*
X003897Y017747D01*
X003897Y017994D01*
X003776Y017932D02*
X003776Y017747D01*
X003714Y017685D01*
X003529Y017685D01*
X003529Y017932D01*
X003408Y017870D02*
X003284Y017870D01*
X003408Y017685D02*
X003408Y018055D01*
X003161Y018055D01*
X003100Y017465D02*
X002977Y017465D01*
X002915Y017403D01*
X002915Y017280D02*
X003039Y017280D01*
X002915Y017280D02*
X002915Y017156D01*
X002977Y017094D01*
X003100Y017094D01*
X003162Y017156D01*
X003162Y017403D01*
X003100Y017465D01*
X003283Y017465D02*
X003530Y017465D01*
X003530Y017094D01*
X003283Y017094D01*
X003318Y016874D02*
X003256Y016812D01*
X003256Y016689D01*
X003318Y016627D01*
X003503Y016504D02*
X003503Y016874D01*
X003318Y016874D01*
X003407Y017280D02*
X003530Y017280D01*
X003652Y017465D02*
X003652Y017094D01*
X003899Y017094D02*
X003899Y017465D01*
X003775Y017341D01*
X003652Y017465D01*
X004020Y017465D02*
X004267Y017465D01*
X004144Y017465D02*
X004144Y017094D01*
X003993Y016751D02*
X004240Y016504D01*
X003993Y016504D01*
X004082Y016284D02*
X004267Y016098D01*
X004020Y016098D01*
X004082Y015913D02*
X004082Y016284D01*
X003899Y016284D02*
X003899Y015913D01*
X003652Y015913D01*
X004266Y015446D02*
X004513Y015446D01*
X005101Y014979D02*
X005348Y014979D01*
X005348Y014856D02*
X005101Y014856D01*
X004841Y014389D02*
X004656Y014389D01*
X004535Y014389D02*
X004535Y014203D01*
X004473Y014142D01*
X004411Y014203D01*
X004350Y014142D01*
X004288Y014203D01*
X004288Y014389D01*
X004166Y014389D02*
X004105Y014389D01*
X004105Y014142D01*
X004166Y014142D02*
X004043Y014142D01*
X004105Y014512D02*
X004105Y014574D01*
X004656Y014203D02*
X004718Y014265D01*
X004841Y014265D01*
X004903Y014327D01*
X004841Y014389D01*
X004903Y014142D02*
X004718Y014142D01*
X004656Y014203D01*
X004696Y013823D02*
X004819Y013823D01*
X004881Y013761D01*
X004881Y013514D01*
X004819Y013453D01*
X005002Y013576D02*
X005249Y013576D01*
X005249Y013700D02*
X005002Y013700D01*
X004696Y013823D02*
X004634Y013761D01*
X005371Y013761D02*
X005371Y013638D01*
X005432Y013576D01*
X005617Y013576D01*
X005617Y013453D02*
X005617Y013823D01*
X005432Y013823D01*
X005371Y013761D01*
X005739Y013761D02*
X005801Y013823D01*
X005924Y013823D01*
X005986Y013761D01*
X005986Y013514D01*
X005924Y013453D01*
X005801Y013453D01*
X005739Y013514D01*
X005654Y014732D02*
X005531Y014732D01*
X005469Y014794D01*
X005469Y014856D01*
X005531Y014917D01*
X005654Y014917D01*
X005716Y014979D01*
X005716Y015041D01*
X005654Y015103D01*
X005531Y015103D01*
X005469Y015041D01*
X005716Y014794D02*
X005654Y014732D01*
X005837Y014794D02*
X005899Y014732D01*
X006022Y014732D01*
X006084Y014794D01*
X006084Y015041D01*
X006022Y015103D01*
X005899Y015103D01*
X005837Y015041D01*
X005739Y015323D02*
X005986Y015693D01*
X005986Y015913D02*
X005862Y015913D01*
X005924Y015913D02*
X005924Y016284D01*
X005986Y016284D02*
X005862Y016284D01*
X005739Y015693D02*
X005986Y015323D01*
X005986Y017094D02*
X005862Y017094D01*
X005924Y017094D02*
X005924Y017465D01*
X005986Y017465D02*
X005862Y017465D01*
X005740Y017403D02*
X005740Y017156D01*
X005679Y017094D01*
X005555Y017094D01*
X005493Y017156D01*
X005372Y017094D02*
X005125Y017094D01*
X005248Y017094D02*
X005248Y017465D01*
X005372Y017341D01*
X005493Y017403D02*
X005555Y017465D01*
X005679Y017465D01*
X005740Y017403D01*
X005801Y017685D02*
X005739Y017747D01*
X005801Y017685D02*
X005924Y017685D01*
X005986Y017747D01*
X005986Y017994D01*
X005924Y018055D01*
X005801Y018055D01*
X005739Y017994D01*
X005617Y017870D02*
X005371Y017870D01*
X005432Y017685D02*
X005432Y018055D01*
X005617Y017870D01*
X005556Y018374D02*
X005617Y018436D01*
X005556Y018374D02*
X005432Y018374D01*
X005371Y018436D01*
X005371Y018497D01*
X005432Y018559D01*
X005494Y018559D01*
X005432Y018559D02*
X005371Y018621D01*
X005371Y018683D01*
X005432Y018744D01*
X005556Y018744D01*
X005617Y018683D01*
X005739Y018683D02*
X005801Y018744D01*
X005924Y018744D01*
X005986Y018683D01*
X005986Y018436D01*
X005924Y018374D01*
X005801Y018374D01*
X005739Y018436D01*
X005801Y018964D02*
X005739Y019026D01*
X005801Y018964D02*
X005924Y018964D01*
X005986Y019026D01*
X005986Y019273D01*
X005924Y019335D01*
X005801Y019335D01*
X005739Y019273D01*
X005617Y019211D02*
X005494Y019335D01*
X005494Y018964D01*
X005617Y018964D02*
X005371Y018964D01*
X005249Y018964D02*
X005002Y019335D01*
X004881Y019273D02*
X004881Y019026D01*
X004819Y018964D01*
X004696Y018964D01*
X004634Y019026D01*
X004513Y018964D02*
X004266Y019211D01*
X004266Y019273D01*
X004327Y019335D01*
X004451Y019335D01*
X004513Y019273D01*
X004634Y019273D02*
X004696Y019335D01*
X004819Y019335D01*
X004881Y019273D01*
X004881Y019555D02*
X004634Y019555D01*
X004757Y019555D02*
X004757Y019925D01*
X004881Y019802D01*
X005002Y019802D02*
X005249Y019802D01*
X005249Y019678D02*
X005002Y019678D01*
X004881Y020047D02*
X004634Y020047D01*
X004513Y020047D02*
X004513Y020417D01*
X004327Y020294D02*
X004513Y020171D01*
X004327Y020047D01*
X004327Y019925D02*
X004266Y019864D01*
X004513Y019617D01*
X004451Y019555D01*
X004327Y019555D01*
X004266Y019617D01*
X004266Y019864D01*
X004327Y019925D02*
X004451Y019925D01*
X004513Y019864D01*
X004513Y019617D01*
X004144Y019678D02*
X003959Y019802D01*
X004144Y019925D02*
X004144Y019555D01*
X004144Y019678D02*
X003959Y019555D01*
X003714Y019335D02*
X003776Y019273D01*
X003714Y019335D02*
X003591Y019335D01*
X003529Y019273D01*
X003529Y019211D01*
X003776Y018964D01*
X003529Y018964D01*
X003408Y018964D02*
X003161Y019211D01*
X003161Y019273D01*
X003222Y019335D01*
X003346Y019335D01*
X003408Y019273D01*
X003407Y019555D02*
X003284Y019555D01*
X003222Y019617D01*
X003222Y019740D01*
X003284Y019802D01*
X003407Y019802D01*
X003469Y019740D01*
X003469Y019617D01*
X003407Y019555D01*
X003101Y019555D02*
X003101Y019925D01*
X003101Y020047D02*
X003101Y020294D01*
X003039Y020294D01*
X002977Y020232D01*
X002916Y020294D01*
X002854Y020232D01*
X002854Y020047D01*
X002977Y020047D02*
X002977Y020232D01*
X003222Y020232D02*
X003222Y020047D01*
X003222Y020232D02*
X003284Y020294D01*
X003407Y020294D01*
X003469Y020232D01*
X003590Y020232D02*
X003652Y020294D01*
X003776Y020294D01*
X003837Y020232D01*
X003837Y020109D01*
X003776Y020047D01*
X003652Y020047D01*
X003590Y020109D01*
X003590Y020232D01*
X003469Y020417D02*
X003469Y020047D01*
X003101Y019740D02*
X003039Y019802D01*
X002916Y019802D01*
X002854Y019740D01*
X002854Y019555D01*
X002732Y019555D02*
X002732Y019802D01*
X002671Y019802D01*
X002609Y019740D01*
X002547Y019802D01*
X002485Y019740D01*
X002485Y019555D01*
X002609Y019555D02*
X002609Y019740D01*
X002671Y019335D02*
X002424Y019335D01*
X002548Y019150D02*
X002671Y019150D01*
X002792Y019150D02*
X002792Y019026D01*
X002854Y018964D01*
X003039Y018964D01*
X003161Y018964D02*
X003408Y018964D01*
X003529Y018744D02*
X003776Y018744D01*
X003776Y018374D01*
X003897Y018374D02*
X003897Y018621D01*
X003776Y018559D02*
X003652Y018559D01*
X003897Y018374D02*
X004082Y018374D01*
X004144Y018436D01*
X004144Y018621D01*
X004266Y018683D02*
X004513Y018436D01*
X004451Y018374D01*
X004327Y018374D01*
X004266Y018436D01*
X004266Y018683D01*
X004327Y018744D01*
X004451Y018744D01*
X004513Y018683D01*
X004513Y018436D01*
X004634Y018374D02*
X004881Y018374D01*
X004757Y018374D02*
X004757Y018744D01*
X004881Y018621D01*
X005002Y018621D02*
X005249Y018621D01*
X005249Y018497D02*
X005002Y018497D01*
X004513Y018964D02*
X004266Y018964D01*
X004144Y019088D02*
X003897Y019088D01*
X003897Y019211D02*
X004144Y019211D01*
X004757Y020047D02*
X004757Y020417D01*
X004881Y020294D01*
X005002Y020294D02*
X005249Y020294D01*
X005249Y020171D02*
X005002Y020171D01*
X005371Y020171D02*
X005432Y020232D01*
X005617Y020232D01*
X005617Y020109D01*
X005556Y020047D01*
X005432Y020047D01*
X005371Y020109D01*
X005371Y020171D01*
X005494Y020356D02*
X005371Y020417D01*
X005494Y020356D02*
X005617Y020232D01*
X005739Y020232D02*
X005801Y020171D01*
X005986Y020171D01*
X005862Y020171D02*
X005739Y020047D01*
X005801Y019925D02*
X005739Y019864D01*
X005739Y019740D01*
X005801Y019678D01*
X005986Y019678D01*
X005986Y019555D02*
X005986Y019925D01*
X005801Y019925D01*
X005617Y019925D02*
X005371Y019925D01*
X005371Y019864D01*
X005617Y019617D01*
X005617Y019555D01*
X005739Y019555D02*
X005862Y019678D01*
X005986Y020047D02*
X005986Y020417D01*
X005801Y020417D01*
X005739Y020356D01*
X005739Y020232D01*
X005739Y020638D02*
X005862Y020761D01*
X005801Y020761D02*
X005986Y020761D01*
X005986Y020638D02*
X005986Y021008D01*
X005801Y021008D01*
X005739Y020946D01*
X005739Y020823D01*
X005801Y020761D01*
X005617Y020638D02*
X005371Y020638D01*
X005494Y020638D02*
X005494Y021008D01*
X005617Y020885D01*
X005249Y020823D02*
X005002Y020823D01*
X004881Y020761D02*
X004696Y020761D01*
X004634Y020823D01*
X004634Y020946D01*
X004696Y021008D01*
X004881Y021008D01*
X004881Y020638D01*
X004757Y020761D02*
X004634Y020638D01*
X004513Y020699D02*
X004451Y020638D01*
X004327Y020638D01*
X004266Y020699D01*
X004266Y020823D01*
X004327Y020885D01*
X004389Y020885D01*
X004513Y020823D01*
X004513Y021008D01*
X004266Y021008D01*
X004144Y020885D02*
X003897Y020885D01*
X003897Y020761D02*
X004144Y020761D01*
X003776Y020699D02*
X003714Y020638D01*
X003591Y020638D01*
X003529Y020699D01*
X003529Y020761D01*
X003591Y020823D01*
X003652Y020823D01*
X003591Y020823D02*
X003529Y020885D01*
X003529Y020946D01*
X003591Y021008D01*
X003714Y021008D01*
X003776Y020946D01*
X003408Y020946D02*
X003346Y021008D01*
X003222Y021008D01*
X003161Y020946D01*
X003161Y020885D01*
X003222Y020823D01*
X003161Y020761D01*
X003161Y020699D01*
X003222Y020638D01*
X003346Y020638D01*
X003408Y020699D01*
X003284Y020823D02*
X003222Y020823D01*
X003039Y020946D02*
X002978Y021008D01*
X002854Y021008D01*
X002792Y020946D01*
X003039Y020699D01*
X002978Y020638D01*
X002854Y020638D01*
X002792Y020699D01*
X002792Y020946D01*
X003039Y020946D02*
X003039Y020699D01*
X002303Y020699D02*
X002241Y020638D01*
X002117Y020638D01*
X002056Y020699D01*
X002056Y020823D01*
X002117Y020885D01*
X002241Y020885D01*
X002303Y020823D01*
X002303Y020699D01*
X001934Y020638D02*
X001934Y021008D01*
X001873Y020885D02*
X001749Y020885D01*
X001687Y020823D01*
X001687Y020638D01*
X001566Y020638D02*
X001566Y020885D01*
X001504Y020885D01*
X001443Y020823D01*
X001381Y020885D01*
X001319Y020823D01*
X001319Y020638D01*
X001443Y020638D02*
X001443Y020823D01*
X001873Y020885D02*
X001934Y020823D01*
X002671Y019335D02*
X002671Y018964D01*
X002792Y019150D02*
X002854Y019211D01*
X003039Y019211D01*
X003039Y018841D01*
X002670Y017465D02*
X002547Y017341D01*
X002547Y017094D01*
X002547Y017280D02*
X002794Y017280D01*
X002794Y017341D02*
X002670Y017465D01*
X002794Y017341D02*
X002794Y017094D01*
X004144Y017747D02*
X004144Y017994D01*
X003039Y013823D02*
X002854Y013823D01*
X002792Y013761D01*
X002792Y013638D01*
X002854Y013576D01*
X003039Y013576D01*
X003039Y013453D02*
X003039Y013823D01*
X002671Y013823D02*
X002671Y013453D01*
X002548Y013576D01*
X002424Y013453D01*
X002424Y013823D01*
X002303Y013823D02*
X002303Y013453D01*
X002303Y013576D02*
X002117Y013576D01*
X002056Y013638D01*
X002056Y013761D01*
X002117Y013823D01*
X002303Y013823D01*
X002179Y013576D02*
X002056Y013453D01*
X002117Y012543D02*
X002303Y012543D01*
X002303Y012173D01*
X002117Y012173D01*
X002056Y012235D01*
X002056Y012482D01*
X002117Y012543D01*
X002424Y012482D02*
X002424Y012235D01*
X002486Y012173D01*
X002671Y012173D01*
X002671Y012543D01*
X002486Y012543D01*
X002424Y012482D01*
X002792Y012543D02*
X002792Y012173D01*
X002792Y012358D02*
X003039Y012358D01*
X003039Y012173D02*
X003039Y012543D01*
X003821Y011793D02*
X003883Y011854D01*
X004068Y011854D01*
X004068Y011484D01*
X003883Y011484D01*
X003821Y011546D01*
X003821Y011793D01*
X003959Y012173D02*
X003897Y012235D01*
X003959Y012297D01*
X004082Y012297D01*
X004144Y012358D01*
X004144Y012173D02*
X003959Y012173D01*
X004189Y011854D02*
X004436Y011854D01*
X004436Y011484D01*
X004189Y011484D01*
X004313Y011669D02*
X004436Y011669D01*
X004558Y011484D02*
X004805Y011484D01*
X004805Y011854D01*
X004819Y012173D02*
X004696Y012173D01*
X004634Y012235D01*
X004819Y012173D02*
X004881Y012235D01*
M02*
