G75*
G70*
%OFA0B0*%
%FSLAX24Y24*%
%IPPOS*%
%LPD*%
%AMOC8*
5,1,8,0,0,1.08239X$1,22.5*
%
%ADD10C,0.0000*%
D10*
X000981Y000938D02*
X000981Y036568D01*
X021650Y036568D01*
X021650Y000938D01*
X000981Y000938D01*
X001275Y001922D02*
X001277Y001974D01*
X001283Y002026D01*
X001293Y002077D01*
X001306Y002128D01*
X001324Y002177D01*
X001345Y002225D01*
X001370Y002271D01*
X001398Y002315D01*
X001429Y002357D01*
X001463Y002396D01*
X001501Y002432D01*
X001541Y002466D01*
X001583Y002497D01*
X001628Y002524D01*
X001674Y002548D01*
X001722Y002568D01*
X001772Y002584D01*
X001822Y002597D01*
X001874Y002606D01*
X001926Y002611D01*
X001978Y002612D01*
X002030Y002609D01*
X002082Y002602D01*
X002133Y002591D01*
X002183Y002577D01*
X002232Y002558D01*
X002279Y002536D01*
X002325Y002511D01*
X002368Y002482D01*
X002410Y002450D01*
X002448Y002414D01*
X002484Y002377D01*
X002517Y002336D01*
X002547Y002293D01*
X002573Y002248D01*
X002596Y002201D01*
X002615Y002153D01*
X002631Y002103D01*
X002643Y002052D01*
X002651Y002000D01*
X002655Y001948D01*
X002655Y001896D01*
X002651Y001844D01*
X002643Y001792D01*
X002631Y001741D01*
X002615Y001691D01*
X002596Y001643D01*
X002573Y001596D01*
X002547Y001551D01*
X002517Y001508D01*
X002484Y001467D01*
X002448Y001430D01*
X002410Y001394D01*
X002368Y001362D01*
X002325Y001333D01*
X002279Y001308D01*
X002232Y001286D01*
X002183Y001267D01*
X002133Y001253D01*
X002082Y001242D01*
X002030Y001235D01*
X001978Y001232D01*
X001926Y001233D01*
X001874Y001238D01*
X001822Y001247D01*
X001772Y001260D01*
X001722Y001276D01*
X001674Y001296D01*
X001628Y001320D01*
X001583Y001347D01*
X001541Y001378D01*
X001501Y001412D01*
X001463Y001448D01*
X001429Y001487D01*
X001398Y001529D01*
X001370Y001573D01*
X001345Y001619D01*
X001324Y001667D01*
X001306Y001716D01*
X001293Y001767D01*
X001283Y001818D01*
X001277Y001870D01*
X001275Y001922D01*
X003209Y003914D02*
X003211Y003962D01*
X003217Y004010D01*
X003227Y004057D01*
X003240Y004103D01*
X003258Y004148D01*
X003278Y004192D01*
X003303Y004234D01*
X003331Y004273D01*
X003361Y004310D01*
X003395Y004344D01*
X003432Y004376D01*
X003470Y004405D01*
X003511Y004430D01*
X003554Y004452D01*
X003599Y004470D01*
X003645Y004484D01*
X003692Y004495D01*
X003740Y004502D01*
X003788Y004505D01*
X003836Y004504D01*
X003884Y004499D01*
X003932Y004490D01*
X003978Y004478D01*
X004023Y004461D01*
X004067Y004441D01*
X004109Y004418D01*
X004149Y004391D01*
X004187Y004361D01*
X004222Y004328D01*
X004254Y004292D01*
X004284Y004254D01*
X004310Y004213D01*
X004332Y004170D01*
X004352Y004126D01*
X004367Y004081D01*
X004379Y004034D01*
X004387Y003986D01*
X004391Y003938D01*
X004391Y003890D01*
X004387Y003842D01*
X004379Y003794D01*
X004367Y003747D01*
X004352Y003702D01*
X004332Y003658D01*
X004310Y003615D01*
X004284Y003574D01*
X004254Y003536D01*
X004222Y003500D01*
X004187Y003467D01*
X004149Y003437D01*
X004109Y003410D01*
X004067Y003387D01*
X004023Y003367D01*
X003978Y003350D01*
X003932Y003338D01*
X003884Y003329D01*
X003836Y003324D01*
X003788Y003323D01*
X003740Y003326D01*
X003692Y003333D01*
X003645Y003344D01*
X003599Y003358D01*
X003554Y003376D01*
X003511Y003398D01*
X003470Y003423D01*
X003432Y003452D01*
X003395Y003484D01*
X003361Y003518D01*
X003331Y003555D01*
X003303Y003594D01*
X003278Y003636D01*
X003258Y003680D01*
X003240Y003725D01*
X003227Y003771D01*
X003217Y003818D01*
X003211Y003866D01*
X003209Y003914D01*
X003209Y022103D02*
X003211Y022151D01*
X003217Y022199D01*
X003227Y022246D01*
X003240Y022292D01*
X003258Y022337D01*
X003278Y022381D01*
X003303Y022423D01*
X003331Y022462D01*
X003361Y022499D01*
X003395Y022533D01*
X003432Y022565D01*
X003470Y022594D01*
X003511Y022619D01*
X003554Y022641D01*
X003599Y022659D01*
X003645Y022673D01*
X003692Y022684D01*
X003740Y022691D01*
X003788Y022694D01*
X003836Y022693D01*
X003884Y022688D01*
X003932Y022679D01*
X003978Y022667D01*
X004023Y022650D01*
X004067Y022630D01*
X004109Y022607D01*
X004149Y022580D01*
X004187Y022550D01*
X004222Y022517D01*
X004254Y022481D01*
X004284Y022443D01*
X004310Y022402D01*
X004332Y022359D01*
X004352Y022315D01*
X004367Y022270D01*
X004379Y022223D01*
X004387Y022175D01*
X004391Y022127D01*
X004391Y022079D01*
X004387Y022031D01*
X004379Y021983D01*
X004367Y021936D01*
X004352Y021891D01*
X004332Y021847D01*
X004310Y021804D01*
X004284Y021763D01*
X004254Y021725D01*
X004222Y021689D01*
X004187Y021656D01*
X004149Y021626D01*
X004109Y021599D01*
X004067Y021576D01*
X004023Y021556D01*
X003978Y021539D01*
X003932Y021527D01*
X003884Y021518D01*
X003836Y021513D01*
X003788Y021512D01*
X003740Y021515D01*
X003692Y021522D01*
X003645Y021533D01*
X003599Y021547D01*
X003554Y021565D01*
X003511Y021587D01*
X003470Y021612D01*
X003432Y021641D01*
X003395Y021673D01*
X003361Y021707D01*
X003331Y021744D01*
X003303Y021783D01*
X003278Y021825D01*
X003258Y021869D01*
X003240Y021914D01*
X003227Y021960D01*
X003217Y022007D01*
X003211Y022055D01*
X003209Y022103D01*
X001275Y035682D02*
X001277Y035734D01*
X001283Y035786D01*
X001293Y035837D01*
X001306Y035888D01*
X001324Y035937D01*
X001345Y035985D01*
X001370Y036031D01*
X001398Y036075D01*
X001429Y036117D01*
X001463Y036156D01*
X001501Y036192D01*
X001541Y036226D01*
X001583Y036257D01*
X001628Y036284D01*
X001674Y036308D01*
X001722Y036328D01*
X001772Y036344D01*
X001822Y036357D01*
X001874Y036366D01*
X001926Y036371D01*
X001978Y036372D01*
X002030Y036369D01*
X002082Y036362D01*
X002133Y036351D01*
X002183Y036337D01*
X002232Y036318D01*
X002279Y036296D01*
X002325Y036271D01*
X002368Y036242D01*
X002410Y036210D01*
X002448Y036174D01*
X002484Y036137D01*
X002517Y036096D01*
X002547Y036053D01*
X002573Y036008D01*
X002596Y035961D01*
X002615Y035913D01*
X002631Y035863D01*
X002643Y035812D01*
X002651Y035760D01*
X002655Y035708D01*
X002655Y035656D01*
X002651Y035604D01*
X002643Y035552D01*
X002631Y035501D01*
X002615Y035451D01*
X002596Y035403D01*
X002573Y035356D01*
X002547Y035311D01*
X002517Y035268D01*
X002484Y035227D01*
X002448Y035190D01*
X002410Y035154D01*
X002368Y035122D01*
X002325Y035093D01*
X002279Y035068D01*
X002232Y035046D01*
X002183Y035027D01*
X002133Y035013D01*
X002082Y035002D01*
X002030Y034995D01*
X001978Y034992D01*
X001926Y034993D01*
X001874Y034998D01*
X001822Y035007D01*
X001772Y035020D01*
X001722Y035036D01*
X001674Y035056D01*
X001628Y035080D01*
X001583Y035107D01*
X001541Y035138D01*
X001501Y035172D01*
X001463Y035208D01*
X001429Y035247D01*
X001398Y035289D01*
X001370Y035333D01*
X001345Y035379D01*
X001324Y035427D01*
X001306Y035476D01*
X001293Y035527D01*
X001283Y035578D01*
X001277Y035630D01*
X001275Y035682D01*
X019976Y035682D02*
X019978Y035734D01*
X019984Y035786D01*
X019994Y035837D01*
X020007Y035888D01*
X020025Y035937D01*
X020046Y035985D01*
X020071Y036031D01*
X020099Y036075D01*
X020130Y036117D01*
X020164Y036156D01*
X020202Y036192D01*
X020242Y036226D01*
X020284Y036257D01*
X020329Y036284D01*
X020375Y036308D01*
X020423Y036328D01*
X020473Y036344D01*
X020523Y036357D01*
X020575Y036366D01*
X020627Y036371D01*
X020679Y036372D01*
X020731Y036369D01*
X020783Y036362D01*
X020834Y036351D01*
X020884Y036337D01*
X020933Y036318D01*
X020980Y036296D01*
X021026Y036271D01*
X021069Y036242D01*
X021111Y036210D01*
X021149Y036174D01*
X021185Y036137D01*
X021218Y036096D01*
X021248Y036053D01*
X021274Y036008D01*
X021297Y035961D01*
X021316Y035913D01*
X021332Y035863D01*
X021344Y035812D01*
X021352Y035760D01*
X021356Y035708D01*
X021356Y035656D01*
X021352Y035604D01*
X021344Y035552D01*
X021332Y035501D01*
X021316Y035451D01*
X021297Y035403D01*
X021274Y035356D01*
X021248Y035311D01*
X021218Y035268D01*
X021185Y035227D01*
X021149Y035190D01*
X021111Y035154D01*
X021069Y035122D01*
X021026Y035093D01*
X020980Y035068D01*
X020933Y035046D01*
X020884Y035027D01*
X020834Y035013D01*
X020783Y035002D01*
X020731Y034995D01*
X020679Y034992D01*
X020627Y034993D01*
X020575Y034998D01*
X020523Y035007D01*
X020473Y035020D01*
X020423Y035036D01*
X020375Y035056D01*
X020329Y035080D01*
X020284Y035107D01*
X020242Y035138D01*
X020202Y035172D01*
X020164Y035208D01*
X020130Y035247D01*
X020099Y035289D01*
X020071Y035333D01*
X020046Y035379D01*
X020025Y035427D01*
X020007Y035476D01*
X019994Y035527D01*
X019984Y035578D01*
X019978Y035630D01*
X019976Y035682D01*
X019976Y001922D02*
X019978Y001974D01*
X019984Y002026D01*
X019994Y002077D01*
X020007Y002128D01*
X020025Y002177D01*
X020046Y002225D01*
X020071Y002271D01*
X020099Y002315D01*
X020130Y002357D01*
X020164Y002396D01*
X020202Y002432D01*
X020242Y002466D01*
X020284Y002497D01*
X020329Y002524D01*
X020375Y002548D01*
X020423Y002568D01*
X020473Y002584D01*
X020523Y002597D01*
X020575Y002606D01*
X020627Y002611D01*
X020679Y002612D01*
X020731Y002609D01*
X020783Y002602D01*
X020834Y002591D01*
X020884Y002577D01*
X020933Y002558D01*
X020980Y002536D01*
X021026Y002511D01*
X021069Y002482D01*
X021111Y002450D01*
X021149Y002414D01*
X021185Y002377D01*
X021218Y002336D01*
X021248Y002293D01*
X021274Y002248D01*
X021297Y002201D01*
X021316Y002153D01*
X021332Y002103D01*
X021344Y002052D01*
X021352Y002000D01*
X021356Y001948D01*
X021356Y001896D01*
X021352Y001844D01*
X021344Y001792D01*
X021332Y001741D01*
X021316Y001691D01*
X021297Y001643D01*
X021274Y001596D01*
X021248Y001551D01*
X021218Y001508D01*
X021185Y001467D01*
X021149Y001430D01*
X021111Y001394D01*
X021069Y001362D01*
X021026Y001333D01*
X020980Y001308D01*
X020933Y001286D01*
X020884Y001267D01*
X020834Y001253D01*
X020783Y001242D01*
X020731Y001235D01*
X020679Y001232D01*
X020627Y001233D01*
X020575Y001238D01*
X020523Y001247D01*
X020473Y001260D01*
X020423Y001276D01*
X020375Y001296D01*
X020329Y001320D01*
X020284Y001347D01*
X020242Y001378D01*
X020202Y001412D01*
X020164Y001448D01*
X020130Y001487D01*
X020099Y001529D01*
X020071Y001573D01*
X020046Y001619D01*
X020025Y001667D01*
X020007Y001716D01*
X019994Y001767D01*
X019984Y001818D01*
X019978Y001870D01*
X019976Y001922D01*
M02*
