G75*
G70*
%OFA0B0*%
%FSLAX24Y24*%
%IPPOS*%
%LPD*%
%AMOC8*
5,1,8,0,0,1.08239X$1,22.5*
%
%ADD10C,0.1182*%
%ADD11C,0.1222*%
%ADD12C,0.1261*%
%ADD13C,0.0560*%
%ADD14C,0.0720*%
%ADD15OC8,0.0680*%
%ADD16C,0.0730*%
%ADD17C,0.0820*%
%ADD18R,0.0880X0.0880*%
%ADD19C,0.0880*%
%ADD20C,0.1390*%
%ADD21OC8,0.0780*%
%ADD22R,0.0730X0.0730*%
%ADD23C,0.0680*%
%ADD24R,0.0456X0.0456*%
D10*
X001769Y001922D03*
X020863Y001922D03*
X020863Y035977D03*
X001769Y035977D03*
D11*
X006674Y022005D03*
X006674Y020351D03*
X006674Y018698D03*
X006674Y017044D03*
X006674Y015390D03*
X006674Y013737D03*
X006674Y012083D03*
X006674Y010430D03*
X006674Y008776D03*
X006674Y007123D03*
X006674Y005469D03*
X006674Y003816D03*
X008839Y003816D03*
X008839Y005469D03*
X008839Y007123D03*
X008839Y008776D03*
X008839Y010430D03*
X008839Y012083D03*
X008839Y013737D03*
X008839Y015390D03*
X008839Y017044D03*
X008839Y018698D03*
X008839Y020351D03*
X008839Y022005D03*
D12*
X003800Y022005D03*
X003800Y003816D03*
D13*
X011489Y009201D02*
X011969Y009201D01*
X011969Y010201D02*
X011489Y010201D01*
X011489Y011201D02*
X011969Y011201D01*
X011969Y012201D02*
X011489Y012201D01*
X011489Y013201D02*
X011969Y013201D01*
X011969Y014201D02*
X011489Y014201D01*
X011489Y015201D02*
X011969Y015201D01*
X011969Y016201D02*
X011489Y016201D01*
X011489Y017201D02*
X011969Y017201D01*
X011969Y018201D02*
X011489Y018201D01*
X011237Y021115D02*
X010757Y021115D01*
X010757Y022115D02*
X011237Y022115D01*
X011237Y023115D02*
X010757Y023115D01*
X010757Y024115D02*
X011237Y024115D01*
X011237Y025115D02*
X010757Y025115D01*
X010757Y026115D02*
X011237Y026115D01*
X011237Y027115D02*
X010757Y027115D01*
X010757Y028115D02*
X011237Y028115D01*
X011237Y029115D02*
X010757Y029115D01*
X010757Y030115D02*
X011237Y030115D01*
X011237Y031115D02*
X010757Y031115D01*
X010757Y032115D02*
X011237Y032115D01*
X011237Y033115D02*
X010757Y033115D01*
X010757Y034115D02*
X011237Y034115D01*
X013757Y034115D02*
X014237Y034115D01*
X014237Y033115D02*
X013757Y033115D01*
X013757Y032115D02*
X014237Y032115D01*
X014237Y031115D02*
X013757Y031115D01*
X013757Y030115D02*
X014237Y030115D01*
X014237Y029115D02*
X013757Y029115D01*
X013757Y028115D02*
X014237Y028115D01*
X014237Y027115D02*
X013757Y027115D01*
X013757Y026115D02*
X014237Y026115D01*
X014237Y025115D02*
X013757Y025115D01*
X013757Y024115D02*
X014237Y024115D01*
X014237Y023115D02*
X013757Y023115D01*
X013757Y022115D02*
X014237Y022115D01*
X014237Y021115D02*
X013757Y021115D01*
X014489Y018201D02*
X014969Y018201D01*
X014969Y017201D02*
X014489Y017201D01*
X014489Y016201D02*
X014969Y016201D01*
X014969Y015201D02*
X014489Y015201D01*
X014489Y014201D02*
X014969Y014201D01*
X014969Y013201D02*
X014489Y013201D01*
X014489Y012201D02*
X014969Y012201D01*
X014969Y011201D02*
X014489Y011201D01*
X014489Y010201D02*
X014969Y010201D01*
X014969Y009201D02*
X014489Y009201D01*
D14*
X015304Y023827D03*
X015304Y024827D03*
X015304Y025827D03*
X016304Y025827D03*
X016304Y024827D03*
X016304Y023827D03*
D15*
X017509Y024268D03*
X017509Y023268D03*
X017509Y022268D03*
X017509Y021268D03*
X017509Y020268D03*
X017509Y019268D03*
X017509Y018268D03*
X017509Y017268D03*
X017509Y016268D03*
X017509Y015268D03*
X017509Y014268D03*
X017509Y013268D03*
X017509Y012268D03*
X017509Y011268D03*
X018509Y011268D03*
X018509Y012268D03*
X018509Y013268D03*
X018509Y014268D03*
X018509Y015268D03*
X018509Y016268D03*
X018509Y017268D03*
X018509Y018268D03*
X018509Y019268D03*
X018509Y020268D03*
X018509Y021268D03*
X018509Y022268D03*
X018509Y023268D03*
X018509Y024268D03*
X019922Y024268D03*
X019922Y023268D03*
X019922Y022268D03*
X019922Y021268D03*
X019922Y020268D03*
X019922Y019268D03*
X019922Y018268D03*
X019922Y017268D03*
X019922Y016268D03*
X019922Y015268D03*
X019922Y014268D03*
X019922Y013268D03*
X019922Y012268D03*
X019922Y011268D03*
X020922Y011268D03*
X020922Y012268D03*
X020922Y013268D03*
X020922Y014268D03*
X020922Y015268D03*
X020922Y016268D03*
X020922Y017268D03*
X020922Y018268D03*
X020922Y019268D03*
X020922Y020268D03*
X020922Y021268D03*
X020922Y022268D03*
X020922Y023268D03*
X020922Y024268D03*
X016009Y014398D03*
X016009Y013398D03*
X016009Y012398D03*
X016009Y011398D03*
X016009Y010398D03*
X016009Y009398D03*
X010367Y009430D03*
X010367Y010430D03*
X010367Y011430D03*
X010367Y012430D03*
X010367Y013430D03*
X010367Y014430D03*
D16*
X005922Y024359D03*
X008524Y028674D03*
X009961Y030131D03*
X009961Y031131D03*
X008524Y030674D03*
X010013Y028505D03*
X010013Y027505D03*
X013174Y002910D03*
D17*
X010135Y015473D03*
X010135Y019473D03*
X006887Y028465D03*
X005607Y028465D03*
X005607Y032465D03*
X006887Y032465D03*
X008493Y034205D03*
X009481Y033914D03*
X009481Y032914D03*
X009312Y035942D03*
X008312Y035942D03*
X006993Y035942D03*
X005993Y035942D03*
X004686Y035914D03*
X003686Y035914D03*
X004493Y034205D03*
X015418Y035977D03*
X017910Y034729D03*
X019347Y034012D03*
X020347Y034012D03*
X019418Y035977D03*
X017910Y030729D03*
X017910Y029709D03*
X019351Y030568D03*
X020351Y030568D03*
X020363Y027320D03*
X019363Y027320D03*
X017910Y025709D03*
D18*
X002709Y027142D03*
X002709Y030248D03*
X002709Y033354D03*
D19*
X002709Y031836D03*
X002709Y028730D03*
X002709Y025624D03*
D20*
X017438Y007936D03*
X017438Y002766D03*
D21*
X015580Y027052D03*
X015580Y028052D03*
X015580Y029052D03*
X015580Y030052D03*
X015580Y031052D03*
X015580Y032052D03*
X015580Y033052D03*
X015580Y034052D03*
D22*
X006922Y024359D03*
X014174Y002910D03*
D23*
X008922Y024658D03*
X008922Y025658D03*
X008922Y026658D03*
D24*
X011808Y027512D03*
X016828Y034698D03*
X011119Y018949D03*
X013875Y016784D03*
M02*
