G75*
G70*
%OFA0B0*%
%FSLAX24Y24*%
%IPPOS*%
%LPD*%
%AMOC8*
5,1,8,0,0,1.08239X$1,22.5*
%
%ADD10C,0.1460*%
%ADD11C,0.1222*%
%ADD12C,0.1261*%
%ADD13C,0.0560*%
%ADD14C,0.0720*%
%ADD15OC8,0.0680*%
%ADD16C,0.0730*%
%ADD17C,0.0820*%
%ADD18R,0.0880X0.0880*%
%ADD19C,0.0880*%
%ADD20C,0.1390*%
%ADD21OC8,0.0780*%
%ADD22R,0.0730X0.0730*%
%ADD23C,0.0680*%
%ADD24R,0.0456X0.0456*%
D10*
X001965Y001922D03*
X020666Y001922D03*
X020666Y035682D03*
X001965Y035682D03*
D11*
X006674Y022103D03*
X006674Y020449D03*
X006674Y018796D03*
X006674Y017142D03*
X006674Y015489D03*
X006674Y013835D03*
X006674Y012182D03*
X006674Y010528D03*
X006674Y008875D03*
X006674Y007221D03*
X006674Y005568D03*
X006674Y003914D03*
X008839Y003914D03*
X008839Y005568D03*
X008839Y007221D03*
X008839Y008875D03*
X008839Y010528D03*
X008839Y012182D03*
X008839Y013835D03*
X008839Y015489D03*
X008839Y017142D03*
X008839Y018796D03*
X008839Y020449D03*
X008839Y022103D03*
D12*
X003800Y022103D03*
X003800Y003914D03*
D13*
X011489Y009005D02*
X011969Y009005D01*
X011969Y010005D02*
X011489Y010005D01*
X011489Y011005D02*
X011969Y011005D01*
X011969Y012005D02*
X011489Y012005D01*
X011489Y013005D02*
X011969Y013005D01*
X011969Y014005D02*
X011489Y014005D01*
X011489Y015005D02*
X011969Y015005D01*
X011969Y016005D02*
X011489Y016005D01*
X011489Y017005D02*
X011969Y017005D01*
X011969Y018005D02*
X011489Y018005D01*
X011237Y020918D02*
X010757Y020918D01*
X010757Y021918D02*
X011237Y021918D01*
X011237Y022918D02*
X010757Y022918D01*
X010757Y023918D02*
X011237Y023918D01*
X011237Y024918D02*
X010757Y024918D01*
X010757Y025918D02*
X011237Y025918D01*
X011237Y026918D02*
X010757Y026918D01*
X010757Y027918D02*
X011237Y027918D01*
X011237Y028918D02*
X010757Y028918D01*
X010757Y029918D02*
X011237Y029918D01*
X011237Y030918D02*
X010757Y030918D01*
X010757Y031918D02*
X011237Y031918D01*
X011237Y032918D02*
X010757Y032918D01*
X010757Y033918D02*
X011237Y033918D01*
X013757Y033918D02*
X014237Y033918D01*
X014237Y032918D02*
X013757Y032918D01*
X013757Y031918D02*
X014237Y031918D01*
X014237Y030918D02*
X013757Y030918D01*
X013757Y029918D02*
X014237Y029918D01*
X014237Y028918D02*
X013757Y028918D01*
X013757Y027918D02*
X014237Y027918D01*
X014237Y026918D02*
X013757Y026918D01*
X013757Y025918D02*
X014237Y025918D01*
X014237Y024918D02*
X013757Y024918D01*
X013757Y023918D02*
X014237Y023918D01*
X014237Y022918D02*
X013757Y022918D01*
X013757Y021918D02*
X014237Y021918D01*
X014237Y020918D02*
X013757Y020918D01*
X014489Y018005D02*
X014969Y018005D01*
X014969Y017005D02*
X014489Y017005D01*
X014489Y016005D02*
X014969Y016005D01*
X014969Y015005D02*
X014489Y015005D01*
X014489Y014005D02*
X014969Y014005D01*
X014969Y013005D02*
X014489Y013005D01*
X014489Y012005D02*
X014969Y012005D01*
X014969Y011005D02*
X014489Y011005D01*
X014489Y010005D02*
X014969Y010005D01*
X014969Y009005D02*
X014489Y009005D01*
D14*
X015304Y023631D03*
X015304Y024631D03*
X015304Y025631D03*
X016304Y025631D03*
X016304Y024631D03*
X016304Y023631D03*
D15*
X017509Y024072D03*
X017509Y023072D03*
X017509Y022072D03*
X017509Y021072D03*
X017509Y020072D03*
X017509Y019072D03*
X017509Y018072D03*
X017509Y017072D03*
X017509Y016072D03*
X017509Y015072D03*
X017509Y014072D03*
X017509Y013072D03*
X017509Y012072D03*
X017509Y011072D03*
X018509Y011072D03*
X018509Y012072D03*
X018509Y013072D03*
X018509Y014072D03*
X018509Y015072D03*
X018509Y016072D03*
X018509Y017072D03*
X018509Y018072D03*
X018509Y019072D03*
X018509Y020072D03*
X018509Y021072D03*
X018509Y022072D03*
X018509Y023072D03*
X018509Y024072D03*
X019922Y024072D03*
X019922Y023072D03*
X019922Y022072D03*
X019922Y021072D03*
X019922Y020072D03*
X019922Y019072D03*
X019922Y018072D03*
X019922Y017072D03*
X019922Y016072D03*
X019922Y015072D03*
X019922Y014072D03*
X019922Y013072D03*
X019922Y012072D03*
X019922Y011072D03*
X020922Y011072D03*
X020922Y012072D03*
X020922Y013072D03*
X020922Y014072D03*
X020922Y015072D03*
X020922Y016072D03*
X020922Y017072D03*
X020922Y018072D03*
X020922Y019072D03*
X020922Y020072D03*
X020922Y021072D03*
X020922Y022072D03*
X020922Y023072D03*
X020922Y024072D03*
X016009Y014201D03*
X016009Y013201D03*
X016009Y012201D03*
X016009Y011201D03*
X016009Y010201D03*
X016009Y009201D03*
X010367Y009233D03*
X010367Y010233D03*
X010367Y011233D03*
X010367Y012233D03*
X010367Y013233D03*
X010367Y014233D03*
D16*
X005725Y024457D03*
X008524Y028477D03*
X008524Y030477D03*
X009961Y030934D03*
X009961Y029934D03*
X010013Y028308D03*
X010013Y027308D03*
X013174Y002713D03*
D17*
X010135Y015276D03*
X010135Y019276D03*
X006887Y028268D03*
X005607Y028268D03*
X005607Y032268D03*
X006887Y032268D03*
X008493Y034009D03*
X009481Y033717D03*
X009481Y032717D03*
X009312Y035745D03*
X008312Y035745D03*
X006993Y035745D03*
X005993Y035745D03*
X004686Y035717D03*
X003686Y035717D03*
X004493Y034009D03*
X015418Y035780D03*
X017910Y034532D03*
X019347Y033816D03*
X020347Y033816D03*
X019418Y035780D03*
X017910Y030532D03*
X017910Y029512D03*
X019351Y030371D03*
X020351Y030371D03*
X020363Y027123D03*
X019363Y027123D03*
X017910Y025512D03*
D18*
X002709Y026945D03*
X002709Y030051D03*
X002709Y033157D03*
D19*
X002709Y031639D03*
X002709Y028533D03*
X002709Y025427D03*
D20*
X017536Y007936D03*
X017536Y002766D03*
D21*
X015580Y026855D03*
X015580Y027855D03*
X015580Y028855D03*
X015580Y029855D03*
X015580Y030855D03*
X015580Y031855D03*
X015580Y032855D03*
X015580Y033855D03*
D22*
X006725Y024457D03*
X014174Y002713D03*
D23*
X008922Y024461D03*
X008922Y025461D03*
X008922Y026461D03*
D24*
X011808Y027316D03*
X016828Y034501D03*
X011119Y018753D03*
X013875Y016587D03*
M02*
