G75*
G70*
%OFA0B0*%
%FSLAX24Y24*%
%IPPOS*%
%LPD*%
%AMOC8*
5,1,8,0,0,1.08239X$1,22.5*
%
%ADD10C,0.0000*%
D10*
X000981Y001135D02*
X000981Y036764D01*
X021650Y036764D01*
X021650Y001135D01*
X000981Y001135D01*
X001218Y001922D02*
X001220Y001969D01*
X001226Y002015D01*
X001236Y002061D01*
X001249Y002106D01*
X001267Y002149D01*
X001288Y002191D01*
X001312Y002231D01*
X001340Y002268D01*
X001371Y002303D01*
X001405Y002336D01*
X001441Y002365D01*
X001480Y002391D01*
X001521Y002414D01*
X001564Y002433D01*
X001608Y002449D01*
X001653Y002461D01*
X001699Y002469D01*
X001746Y002473D01*
X001792Y002473D01*
X001839Y002469D01*
X001885Y002461D01*
X001930Y002449D01*
X001974Y002433D01*
X002017Y002414D01*
X002058Y002391D01*
X002097Y002365D01*
X002133Y002336D01*
X002167Y002303D01*
X002198Y002268D01*
X002226Y002231D01*
X002250Y002191D01*
X002271Y002149D01*
X002289Y002106D01*
X002302Y002061D01*
X002312Y002015D01*
X002318Y001969D01*
X002320Y001922D01*
X002318Y001875D01*
X002312Y001829D01*
X002302Y001783D01*
X002289Y001738D01*
X002271Y001695D01*
X002250Y001653D01*
X002226Y001613D01*
X002198Y001576D01*
X002167Y001541D01*
X002133Y001508D01*
X002097Y001479D01*
X002058Y001453D01*
X002017Y001430D01*
X001974Y001411D01*
X001930Y001395D01*
X001885Y001383D01*
X001839Y001375D01*
X001792Y001371D01*
X001746Y001371D01*
X001699Y001375D01*
X001653Y001383D01*
X001608Y001395D01*
X001564Y001411D01*
X001521Y001430D01*
X001480Y001453D01*
X001441Y001479D01*
X001405Y001508D01*
X001371Y001541D01*
X001340Y001576D01*
X001312Y001613D01*
X001288Y001653D01*
X001267Y001695D01*
X001249Y001738D01*
X001236Y001783D01*
X001226Y001829D01*
X001220Y001875D01*
X001218Y001922D01*
X003209Y003816D02*
X003211Y003864D01*
X003217Y003912D01*
X003227Y003959D01*
X003240Y004005D01*
X003258Y004050D01*
X003278Y004094D01*
X003303Y004136D01*
X003331Y004175D01*
X003361Y004212D01*
X003395Y004246D01*
X003432Y004278D01*
X003470Y004307D01*
X003511Y004332D01*
X003554Y004354D01*
X003599Y004372D01*
X003645Y004386D01*
X003692Y004397D01*
X003740Y004404D01*
X003788Y004407D01*
X003836Y004406D01*
X003884Y004401D01*
X003932Y004392D01*
X003978Y004380D01*
X004023Y004363D01*
X004067Y004343D01*
X004109Y004320D01*
X004149Y004293D01*
X004187Y004263D01*
X004222Y004230D01*
X004254Y004194D01*
X004284Y004156D01*
X004310Y004115D01*
X004332Y004072D01*
X004352Y004028D01*
X004367Y003983D01*
X004379Y003936D01*
X004387Y003888D01*
X004391Y003840D01*
X004391Y003792D01*
X004387Y003744D01*
X004379Y003696D01*
X004367Y003649D01*
X004352Y003604D01*
X004332Y003560D01*
X004310Y003517D01*
X004284Y003476D01*
X004254Y003438D01*
X004222Y003402D01*
X004187Y003369D01*
X004149Y003339D01*
X004109Y003312D01*
X004067Y003289D01*
X004023Y003269D01*
X003978Y003252D01*
X003932Y003240D01*
X003884Y003231D01*
X003836Y003226D01*
X003788Y003225D01*
X003740Y003228D01*
X003692Y003235D01*
X003645Y003246D01*
X003599Y003260D01*
X003554Y003278D01*
X003511Y003300D01*
X003470Y003325D01*
X003432Y003354D01*
X003395Y003386D01*
X003361Y003420D01*
X003331Y003457D01*
X003303Y003496D01*
X003278Y003538D01*
X003258Y003582D01*
X003240Y003627D01*
X003227Y003673D01*
X003217Y003720D01*
X003211Y003768D01*
X003209Y003816D01*
X003209Y022005D02*
X003211Y022053D01*
X003217Y022101D01*
X003227Y022148D01*
X003240Y022194D01*
X003258Y022239D01*
X003278Y022283D01*
X003303Y022325D01*
X003331Y022364D01*
X003361Y022401D01*
X003395Y022435D01*
X003432Y022467D01*
X003470Y022496D01*
X003511Y022521D01*
X003554Y022543D01*
X003599Y022561D01*
X003645Y022575D01*
X003692Y022586D01*
X003740Y022593D01*
X003788Y022596D01*
X003836Y022595D01*
X003884Y022590D01*
X003932Y022581D01*
X003978Y022569D01*
X004023Y022552D01*
X004067Y022532D01*
X004109Y022509D01*
X004149Y022482D01*
X004187Y022452D01*
X004222Y022419D01*
X004254Y022383D01*
X004284Y022345D01*
X004310Y022304D01*
X004332Y022261D01*
X004352Y022217D01*
X004367Y022172D01*
X004379Y022125D01*
X004387Y022077D01*
X004391Y022029D01*
X004391Y021981D01*
X004387Y021933D01*
X004379Y021885D01*
X004367Y021838D01*
X004352Y021793D01*
X004332Y021749D01*
X004310Y021706D01*
X004284Y021665D01*
X004254Y021627D01*
X004222Y021591D01*
X004187Y021558D01*
X004149Y021528D01*
X004109Y021501D01*
X004067Y021478D01*
X004023Y021458D01*
X003978Y021441D01*
X003932Y021429D01*
X003884Y021420D01*
X003836Y021415D01*
X003788Y021414D01*
X003740Y021417D01*
X003692Y021424D01*
X003645Y021435D01*
X003599Y021449D01*
X003554Y021467D01*
X003511Y021489D01*
X003470Y021514D01*
X003432Y021543D01*
X003395Y021575D01*
X003361Y021609D01*
X003331Y021646D01*
X003303Y021685D01*
X003278Y021727D01*
X003258Y021771D01*
X003240Y021816D01*
X003227Y021862D01*
X003217Y021909D01*
X003211Y021957D01*
X003209Y022005D01*
X001218Y035977D02*
X001220Y036024D01*
X001226Y036070D01*
X001236Y036116D01*
X001249Y036161D01*
X001267Y036204D01*
X001288Y036246D01*
X001312Y036286D01*
X001340Y036323D01*
X001371Y036358D01*
X001405Y036391D01*
X001441Y036420D01*
X001480Y036446D01*
X001521Y036469D01*
X001564Y036488D01*
X001608Y036504D01*
X001653Y036516D01*
X001699Y036524D01*
X001746Y036528D01*
X001792Y036528D01*
X001839Y036524D01*
X001885Y036516D01*
X001930Y036504D01*
X001974Y036488D01*
X002017Y036469D01*
X002058Y036446D01*
X002097Y036420D01*
X002133Y036391D01*
X002167Y036358D01*
X002198Y036323D01*
X002226Y036286D01*
X002250Y036246D01*
X002271Y036204D01*
X002289Y036161D01*
X002302Y036116D01*
X002312Y036070D01*
X002318Y036024D01*
X002320Y035977D01*
X002318Y035930D01*
X002312Y035884D01*
X002302Y035838D01*
X002289Y035793D01*
X002271Y035750D01*
X002250Y035708D01*
X002226Y035668D01*
X002198Y035631D01*
X002167Y035596D01*
X002133Y035563D01*
X002097Y035534D01*
X002058Y035508D01*
X002017Y035485D01*
X001974Y035466D01*
X001930Y035450D01*
X001885Y035438D01*
X001839Y035430D01*
X001792Y035426D01*
X001746Y035426D01*
X001699Y035430D01*
X001653Y035438D01*
X001608Y035450D01*
X001564Y035466D01*
X001521Y035485D01*
X001480Y035508D01*
X001441Y035534D01*
X001405Y035563D01*
X001371Y035596D01*
X001340Y035631D01*
X001312Y035668D01*
X001288Y035708D01*
X001267Y035750D01*
X001249Y035793D01*
X001236Y035838D01*
X001226Y035884D01*
X001220Y035930D01*
X001218Y035977D01*
X020312Y035977D02*
X020314Y036024D01*
X020320Y036070D01*
X020330Y036116D01*
X020343Y036161D01*
X020361Y036204D01*
X020382Y036246D01*
X020406Y036286D01*
X020434Y036323D01*
X020465Y036358D01*
X020499Y036391D01*
X020535Y036420D01*
X020574Y036446D01*
X020615Y036469D01*
X020658Y036488D01*
X020702Y036504D01*
X020747Y036516D01*
X020793Y036524D01*
X020840Y036528D01*
X020886Y036528D01*
X020933Y036524D01*
X020979Y036516D01*
X021024Y036504D01*
X021068Y036488D01*
X021111Y036469D01*
X021152Y036446D01*
X021191Y036420D01*
X021227Y036391D01*
X021261Y036358D01*
X021292Y036323D01*
X021320Y036286D01*
X021344Y036246D01*
X021365Y036204D01*
X021383Y036161D01*
X021396Y036116D01*
X021406Y036070D01*
X021412Y036024D01*
X021414Y035977D01*
X021412Y035930D01*
X021406Y035884D01*
X021396Y035838D01*
X021383Y035793D01*
X021365Y035750D01*
X021344Y035708D01*
X021320Y035668D01*
X021292Y035631D01*
X021261Y035596D01*
X021227Y035563D01*
X021191Y035534D01*
X021152Y035508D01*
X021111Y035485D01*
X021068Y035466D01*
X021024Y035450D01*
X020979Y035438D01*
X020933Y035430D01*
X020886Y035426D01*
X020840Y035426D01*
X020793Y035430D01*
X020747Y035438D01*
X020702Y035450D01*
X020658Y035466D01*
X020615Y035485D01*
X020574Y035508D01*
X020535Y035534D01*
X020499Y035563D01*
X020465Y035596D01*
X020434Y035631D01*
X020406Y035668D01*
X020382Y035708D01*
X020361Y035750D01*
X020343Y035793D01*
X020330Y035838D01*
X020320Y035884D01*
X020314Y035930D01*
X020312Y035977D01*
X020312Y001922D02*
X020314Y001969D01*
X020320Y002015D01*
X020330Y002061D01*
X020343Y002106D01*
X020361Y002149D01*
X020382Y002191D01*
X020406Y002231D01*
X020434Y002268D01*
X020465Y002303D01*
X020499Y002336D01*
X020535Y002365D01*
X020574Y002391D01*
X020615Y002414D01*
X020658Y002433D01*
X020702Y002449D01*
X020747Y002461D01*
X020793Y002469D01*
X020840Y002473D01*
X020886Y002473D01*
X020933Y002469D01*
X020979Y002461D01*
X021024Y002449D01*
X021068Y002433D01*
X021111Y002414D01*
X021152Y002391D01*
X021191Y002365D01*
X021227Y002336D01*
X021261Y002303D01*
X021292Y002268D01*
X021320Y002231D01*
X021344Y002191D01*
X021365Y002149D01*
X021383Y002106D01*
X021396Y002061D01*
X021406Y002015D01*
X021412Y001969D01*
X021414Y001922D01*
X021412Y001875D01*
X021406Y001829D01*
X021396Y001783D01*
X021383Y001738D01*
X021365Y001695D01*
X021344Y001653D01*
X021320Y001613D01*
X021292Y001576D01*
X021261Y001541D01*
X021227Y001508D01*
X021191Y001479D01*
X021152Y001453D01*
X021111Y001430D01*
X021068Y001411D01*
X021024Y001395D01*
X020979Y001383D01*
X020933Y001375D01*
X020886Y001371D01*
X020840Y001371D01*
X020793Y001375D01*
X020747Y001383D01*
X020702Y001395D01*
X020658Y001411D01*
X020615Y001430D01*
X020574Y001453D01*
X020535Y001479D01*
X020499Y001508D01*
X020465Y001541D01*
X020434Y001576D01*
X020406Y001613D01*
X020382Y001653D01*
X020361Y001695D01*
X020343Y001738D01*
X020330Y001783D01*
X020320Y001829D01*
X020314Y001875D01*
X020312Y001922D01*
M02*
