%
M48
M72
T01C0.0236
T02C0.0276
T03C0.0320
T04C0.0354
T05C0.0400
T06C0.0472
T07C0.0709
T08C0.0910
T09C0.1102
T10C0.1181
%
T01
X11119Y18949
X13875Y16784
X11808Y27512
X16828Y34698
T02
X10013Y28505
X10013Y27505
X8524Y28674
X9961Y30131
X9961Y31131
X8524Y30674
X6922Y24359
X5922Y24359
X13174Y2910
X14174Y2910
T03
X14729Y9201
X14729Y10201
X14729Y11201
X14729Y12201
X14729Y13201
X14729Y14201
X14729Y15201
X14729Y16201
X14729Y17201
X14729Y18201
X13997Y21115
X13997Y22115
X13997Y23115
X13997Y24115
X13997Y25115
X13997Y26115
X13997Y27115
X13997Y28115
X13997Y29115
X13997Y30115
X13997Y31115
X13997Y32115
X13997Y33115
X13997Y34115
X10997Y34115
X10997Y33115
X10997Y32115
X10997Y31115
X10997Y30115
X10997Y29115
X10997Y28115
X10997Y27115
X10997Y26115
X10997Y25115
X10997Y24115
X10997Y23115
X10997Y22115
X10997Y21115
X11729Y18201
X11729Y17201
X11729Y16201
X11729Y15201
X11729Y14201
X11729Y13201
X11729Y12201
X11729Y11201
X11729Y10201
X11729Y9201
X19363Y27320
X20363Y27320
X20351Y30568
X19351Y30568
X19347Y34012
X20347Y34012
T04
X19418Y35977
X17910Y34729
X15418Y35977
X17910Y30729
X17910Y29709
X16304Y25827
X16304Y24827
X16304Y23827
X15304Y23827
X15304Y24827
X15304Y25827
X17910Y25709
X10135Y19473
X10135Y15473
X6887Y28465
X5607Y28465
X5607Y32465
X6887Y32465
X8493Y34205
X4493Y34205
T05
X4686Y35914
X3686Y35914
X5993Y35942
X6993Y35942
X8312Y35942
X9312Y35942
X9481Y33914
X9481Y32914
X8922Y26658
X8922Y25658
X8922Y24658
X15580Y27052
X15580Y28052
X15580Y29052
X15580Y30052
X15580Y31052
X15580Y32052
X15580Y33052
X15580Y34052
X17509Y24268
X17509Y23268
X17509Y22268
X17509Y21268
X17509Y20268
X17509Y19268
X17509Y18268
X17509Y17268
X17509Y16268
X17509Y15268
X17509Y14268
X17509Y13268
X17509Y12268
X17509Y11268
X18509Y11268
X18509Y12268
X18509Y13268
X18509Y14268
X18509Y15268
X18509Y16268
X18509Y17268
X18509Y18268
X18509Y19268
X18509Y20268
X18509Y21268
X18509Y22268
X18509Y23268
X18509Y24268
X19922Y24268
X19922Y23268
X19922Y22268
X19922Y21268
X19922Y20268
X19922Y19268
X19922Y18268
X19922Y17268
X19922Y16268
X19922Y15268
X19922Y14268
X19922Y13268
X19922Y12268
X19922Y11268
X20922Y11268
X20922Y12268
X20922Y13268
X20922Y14268
X20922Y15268
X20922Y16268
X20922Y17268
X20922Y18268
X20922Y19268
X20922Y20268
X20922Y21268
X20922Y22268
X20922Y23268
X20922Y24268
X16009Y14398
X16009Y13398
X16009Y12398
X16009Y11398
X16009Y10398
X16009Y9398
X10367Y9430
X10367Y10430
X10367Y11430
X10367Y12430
X10367Y13430
X10367Y14430
T06
X2709Y25624
X2709Y27142
X2709Y28730
X2709Y30248
X2709Y31836
X2709Y33354
T07
X6674Y22005
X6674Y20351
X6674Y18698
X6674Y17044
X6674Y15390
X6674Y13737
X6674Y12083
X6674Y10430
X6674Y8776
X6674Y7123
X6674Y5469
X6674Y3816
X8839Y3816
X8839Y5469
X8839Y7123
X8839Y8776
X8839Y10430
X8839Y12083
X8839Y13737
X8839Y15390
X8839Y17044
X8839Y18698
X8839Y20351
X8839Y22005
T08
X17438Y7936
X17438Y2766
T09
X1769Y1922
X20863Y1922
X20863Y35977
X1769Y35977
T10
X3800Y22005
X3800Y3816
M30
