G75*
G70*
%OFA0B0*%
%FSLAX24Y24*%
%IPPOS*%
%LPD*%
%AMOC8*
5,1,8,0,0,1.08239X$1,22.5*
%
%ADD10C,0.0000*%
%ADD11C,0.0030*%
%ADD12C,0.0100*%
%ADD13C,0.0160*%
%ADD14C,0.0120*%
%ADD15C,0.0020*%
%ADD16R,0.0394X0.0394*%
%ADD17C,0.0835*%
%ADD18C,0.0880*%
%ADD19C,0.0060*%
%ADD20C,0.0050*%
%ADD21C,0.0080*%
%ADD22C,0.0010*%
D10*
X000981Y001135D02*
X000981Y036764D01*
X021650Y036764D01*
X021650Y001135D01*
X000981Y001135D01*
X001218Y001922D02*
X001220Y001969D01*
X001226Y002015D01*
X001236Y002061D01*
X001249Y002106D01*
X001267Y002149D01*
X001288Y002191D01*
X001312Y002231D01*
X001340Y002268D01*
X001371Y002303D01*
X001405Y002336D01*
X001441Y002365D01*
X001480Y002391D01*
X001521Y002414D01*
X001564Y002433D01*
X001608Y002449D01*
X001653Y002461D01*
X001699Y002469D01*
X001746Y002473D01*
X001792Y002473D01*
X001839Y002469D01*
X001885Y002461D01*
X001930Y002449D01*
X001974Y002433D01*
X002017Y002414D01*
X002058Y002391D01*
X002097Y002365D01*
X002133Y002336D01*
X002167Y002303D01*
X002198Y002268D01*
X002226Y002231D01*
X002250Y002191D01*
X002271Y002149D01*
X002289Y002106D01*
X002302Y002061D01*
X002312Y002015D01*
X002318Y001969D01*
X002320Y001922D01*
X002318Y001875D01*
X002312Y001829D01*
X002302Y001783D01*
X002289Y001738D01*
X002271Y001695D01*
X002250Y001653D01*
X002226Y001613D01*
X002198Y001576D01*
X002167Y001541D01*
X002133Y001508D01*
X002097Y001479D01*
X002058Y001453D01*
X002017Y001430D01*
X001974Y001411D01*
X001930Y001395D01*
X001885Y001383D01*
X001839Y001375D01*
X001792Y001371D01*
X001746Y001371D01*
X001699Y001375D01*
X001653Y001383D01*
X001608Y001395D01*
X001564Y001411D01*
X001521Y001430D01*
X001480Y001453D01*
X001441Y001479D01*
X001405Y001508D01*
X001371Y001541D01*
X001340Y001576D01*
X001312Y001613D01*
X001288Y001653D01*
X001267Y001695D01*
X001249Y001738D01*
X001236Y001783D01*
X001226Y001829D01*
X001220Y001875D01*
X001218Y001922D01*
X003209Y003816D02*
X003211Y003864D01*
X003217Y003912D01*
X003227Y003959D01*
X003240Y004005D01*
X003258Y004050D01*
X003278Y004094D01*
X003303Y004136D01*
X003331Y004175D01*
X003361Y004212D01*
X003395Y004246D01*
X003432Y004278D01*
X003470Y004307D01*
X003511Y004332D01*
X003554Y004354D01*
X003599Y004372D01*
X003645Y004386D01*
X003692Y004397D01*
X003740Y004404D01*
X003788Y004407D01*
X003836Y004406D01*
X003884Y004401D01*
X003932Y004392D01*
X003978Y004380D01*
X004023Y004363D01*
X004067Y004343D01*
X004109Y004320D01*
X004149Y004293D01*
X004187Y004263D01*
X004222Y004230D01*
X004254Y004194D01*
X004284Y004156D01*
X004310Y004115D01*
X004332Y004072D01*
X004352Y004028D01*
X004367Y003983D01*
X004379Y003936D01*
X004387Y003888D01*
X004391Y003840D01*
X004391Y003792D01*
X004387Y003744D01*
X004379Y003696D01*
X004367Y003649D01*
X004352Y003604D01*
X004332Y003560D01*
X004310Y003517D01*
X004284Y003476D01*
X004254Y003438D01*
X004222Y003402D01*
X004187Y003369D01*
X004149Y003339D01*
X004109Y003312D01*
X004067Y003289D01*
X004023Y003269D01*
X003978Y003252D01*
X003932Y003240D01*
X003884Y003231D01*
X003836Y003226D01*
X003788Y003225D01*
X003740Y003228D01*
X003692Y003235D01*
X003645Y003246D01*
X003599Y003260D01*
X003554Y003278D01*
X003511Y003300D01*
X003470Y003325D01*
X003432Y003354D01*
X003395Y003386D01*
X003361Y003420D01*
X003331Y003457D01*
X003303Y003496D01*
X003278Y003538D01*
X003258Y003582D01*
X003240Y003627D01*
X003227Y003673D01*
X003217Y003720D01*
X003211Y003768D01*
X003209Y003816D01*
X003209Y022005D02*
X003211Y022053D01*
X003217Y022101D01*
X003227Y022148D01*
X003240Y022194D01*
X003258Y022239D01*
X003278Y022283D01*
X003303Y022325D01*
X003331Y022364D01*
X003361Y022401D01*
X003395Y022435D01*
X003432Y022467D01*
X003470Y022496D01*
X003511Y022521D01*
X003554Y022543D01*
X003599Y022561D01*
X003645Y022575D01*
X003692Y022586D01*
X003740Y022593D01*
X003788Y022596D01*
X003836Y022595D01*
X003884Y022590D01*
X003932Y022581D01*
X003978Y022569D01*
X004023Y022552D01*
X004067Y022532D01*
X004109Y022509D01*
X004149Y022482D01*
X004187Y022452D01*
X004222Y022419D01*
X004254Y022383D01*
X004284Y022345D01*
X004310Y022304D01*
X004332Y022261D01*
X004352Y022217D01*
X004367Y022172D01*
X004379Y022125D01*
X004387Y022077D01*
X004391Y022029D01*
X004391Y021981D01*
X004387Y021933D01*
X004379Y021885D01*
X004367Y021838D01*
X004352Y021793D01*
X004332Y021749D01*
X004310Y021706D01*
X004284Y021665D01*
X004254Y021627D01*
X004222Y021591D01*
X004187Y021558D01*
X004149Y021528D01*
X004109Y021501D01*
X004067Y021478D01*
X004023Y021458D01*
X003978Y021441D01*
X003932Y021429D01*
X003884Y021420D01*
X003836Y021415D01*
X003788Y021414D01*
X003740Y021417D01*
X003692Y021424D01*
X003645Y021435D01*
X003599Y021449D01*
X003554Y021467D01*
X003511Y021489D01*
X003470Y021514D01*
X003432Y021543D01*
X003395Y021575D01*
X003361Y021609D01*
X003331Y021646D01*
X003303Y021685D01*
X003278Y021727D01*
X003258Y021771D01*
X003240Y021816D01*
X003227Y021862D01*
X003217Y021909D01*
X003211Y021957D01*
X003209Y022005D01*
X001218Y035977D02*
X001220Y036024D01*
X001226Y036070D01*
X001236Y036116D01*
X001249Y036161D01*
X001267Y036204D01*
X001288Y036246D01*
X001312Y036286D01*
X001340Y036323D01*
X001371Y036358D01*
X001405Y036391D01*
X001441Y036420D01*
X001480Y036446D01*
X001521Y036469D01*
X001564Y036488D01*
X001608Y036504D01*
X001653Y036516D01*
X001699Y036524D01*
X001746Y036528D01*
X001792Y036528D01*
X001839Y036524D01*
X001885Y036516D01*
X001930Y036504D01*
X001974Y036488D01*
X002017Y036469D01*
X002058Y036446D01*
X002097Y036420D01*
X002133Y036391D01*
X002167Y036358D01*
X002198Y036323D01*
X002226Y036286D01*
X002250Y036246D01*
X002271Y036204D01*
X002289Y036161D01*
X002302Y036116D01*
X002312Y036070D01*
X002318Y036024D01*
X002320Y035977D01*
X002318Y035930D01*
X002312Y035884D01*
X002302Y035838D01*
X002289Y035793D01*
X002271Y035750D01*
X002250Y035708D01*
X002226Y035668D01*
X002198Y035631D01*
X002167Y035596D01*
X002133Y035563D01*
X002097Y035534D01*
X002058Y035508D01*
X002017Y035485D01*
X001974Y035466D01*
X001930Y035450D01*
X001885Y035438D01*
X001839Y035430D01*
X001792Y035426D01*
X001746Y035426D01*
X001699Y035430D01*
X001653Y035438D01*
X001608Y035450D01*
X001564Y035466D01*
X001521Y035485D01*
X001480Y035508D01*
X001441Y035534D01*
X001405Y035563D01*
X001371Y035596D01*
X001340Y035631D01*
X001312Y035668D01*
X001288Y035708D01*
X001267Y035750D01*
X001249Y035793D01*
X001236Y035838D01*
X001226Y035884D01*
X001220Y035930D01*
X001218Y035977D01*
X020312Y035977D02*
X020314Y036024D01*
X020320Y036070D01*
X020330Y036116D01*
X020343Y036161D01*
X020361Y036204D01*
X020382Y036246D01*
X020406Y036286D01*
X020434Y036323D01*
X020465Y036358D01*
X020499Y036391D01*
X020535Y036420D01*
X020574Y036446D01*
X020615Y036469D01*
X020658Y036488D01*
X020702Y036504D01*
X020747Y036516D01*
X020793Y036524D01*
X020840Y036528D01*
X020886Y036528D01*
X020933Y036524D01*
X020979Y036516D01*
X021024Y036504D01*
X021068Y036488D01*
X021111Y036469D01*
X021152Y036446D01*
X021191Y036420D01*
X021227Y036391D01*
X021261Y036358D01*
X021292Y036323D01*
X021320Y036286D01*
X021344Y036246D01*
X021365Y036204D01*
X021383Y036161D01*
X021396Y036116D01*
X021406Y036070D01*
X021412Y036024D01*
X021414Y035977D01*
X021412Y035930D01*
X021406Y035884D01*
X021396Y035838D01*
X021383Y035793D01*
X021365Y035750D01*
X021344Y035708D01*
X021320Y035668D01*
X021292Y035631D01*
X021261Y035596D01*
X021227Y035563D01*
X021191Y035534D01*
X021152Y035508D01*
X021111Y035485D01*
X021068Y035466D01*
X021024Y035450D01*
X020979Y035438D01*
X020933Y035430D01*
X020886Y035426D01*
X020840Y035426D01*
X020793Y035430D01*
X020747Y035438D01*
X020702Y035450D01*
X020658Y035466D01*
X020615Y035485D01*
X020574Y035508D01*
X020535Y035534D01*
X020499Y035563D01*
X020465Y035596D01*
X020434Y035631D01*
X020406Y035668D01*
X020382Y035708D01*
X020361Y035750D01*
X020343Y035793D01*
X020330Y035838D01*
X020320Y035884D01*
X020314Y035930D01*
X020312Y035977D01*
X020312Y001922D02*
X020314Y001969D01*
X020320Y002015D01*
X020330Y002061D01*
X020343Y002106D01*
X020361Y002149D01*
X020382Y002191D01*
X020406Y002231D01*
X020434Y002268D01*
X020465Y002303D01*
X020499Y002336D01*
X020535Y002365D01*
X020574Y002391D01*
X020615Y002414D01*
X020658Y002433D01*
X020702Y002449D01*
X020747Y002461D01*
X020793Y002469D01*
X020840Y002473D01*
X020886Y002473D01*
X020933Y002469D01*
X020979Y002461D01*
X021024Y002449D01*
X021068Y002433D01*
X021111Y002414D01*
X021152Y002391D01*
X021191Y002365D01*
X021227Y002336D01*
X021261Y002303D01*
X021292Y002268D01*
X021320Y002231D01*
X021344Y002191D01*
X021365Y002149D01*
X021383Y002106D01*
X021396Y002061D01*
X021406Y002015D01*
X021412Y001969D01*
X021414Y001922D01*
X021412Y001875D01*
X021406Y001829D01*
X021396Y001783D01*
X021383Y001738D01*
X021365Y001695D01*
X021344Y001653D01*
X021320Y001613D01*
X021292Y001576D01*
X021261Y001541D01*
X021227Y001508D01*
X021191Y001479D01*
X021152Y001453D01*
X021111Y001430D01*
X021068Y001411D01*
X021024Y001395D01*
X020979Y001383D01*
X020933Y001375D01*
X020886Y001371D01*
X020840Y001371D01*
X020793Y001375D01*
X020747Y001383D01*
X020702Y001395D01*
X020658Y001411D01*
X020615Y001430D01*
X020574Y001453D01*
X020535Y001479D01*
X020499Y001508D01*
X020465Y001541D01*
X020434Y001576D01*
X020406Y001613D01*
X020382Y001653D01*
X020361Y001695D01*
X020343Y001738D01*
X020330Y001783D01*
X020320Y001829D01*
X020314Y001875D01*
X020312Y001922D01*
D11*
X019772Y001809D02*
X019525Y001809D01*
X019404Y001809D02*
X019404Y001500D01*
X019342Y001439D01*
X019219Y001439D01*
X019157Y001500D01*
X019157Y001809D01*
X019036Y001747D02*
X018974Y001809D01*
X018851Y001809D01*
X018789Y001747D01*
X018789Y001500D01*
X018851Y001439D01*
X018974Y001439D01*
X019036Y001500D01*
X019036Y001747D01*
X019649Y001809D02*
X019649Y001439D01*
X018299Y001562D02*
X018299Y001809D01*
X018052Y001809D02*
X018052Y001562D01*
X018176Y001439D01*
X018299Y001562D01*
X017931Y001624D02*
X017931Y001500D01*
X017869Y001439D01*
X017746Y001439D01*
X017684Y001500D01*
X017684Y001624D02*
X017807Y001685D01*
X017869Y001685D01*
X017931Y001624D01*
X017931Y001809D02*
X017684Y001809D01*
X017684Y001624D01*
X017193Y001809D02*
X017070Y001809D01*
X017132Y001809D02*
X017132Y001439D01*
X017193Y001439D02*
X017070Y001439D01*
X016887Y001562D02*
X016702Y001562D01*
X016702Y001439D02*
X016702Y001809D01*
X016887Y001809D01*
X016949Y001747D01*
X016949Y001624D01*
X016887Y001562D01*
X016580Y001624D02*
X016519Y001562D01*
X016333Y001562D01*
X016333Y001439D02*
X016333Y001809D01*
X016519Y001809D01*
X016580Y001747D01*
X016580Y001624D01*
X016457Y001562D02*
X016580Y001439D01*
X013478Y005480D02*
X013540Y005542D01*
X013540Y005789D01*
X013478Y005851D01*
X013293Y005851D01*
X013293Y005480D01*
X013478Y005480D01*
X013172Y005480D02*
X012925Y005480D01*
X012925Y005851D01*
X013172Y005851D01*
X013048Y005665D02*
X012925Y005665D01*
X012803Y005604D02*
X012803Y005851D01*
X012556Y005851D02*
X012556Y005604D01*
X012680Y005480D01*
X012803Y005604D01*
X012435Y005665D02*
X012373Y005604D01*
X012188Y005604D01*
X012312Y005604D02*
X012435Y005480D01*
X012435Y005665D02*
X012435Y005789D01*
X012373Y005851D01*
X012188Y005851D01*
X012188Y005480D01*
X012067Y005480D02*
X011820Y005480D01*
X011820Y005851D01*
X012067Y005851D01*
X011943Y005665D02*
X011820Y005665D01*
X011698Y005604D02*
X011698Y005542D01*
X011637Y005480D01*
X011513Y005480D01*
X011451Y005542D01*
X011330Y005480D02*
X011083Y005480D01*
X011083Y005851D01*
X011330Y005851D01*
X011451Y005789D02*
X011451Y005727D01*
X011513Y005665D01*
X011637Y005665D01*
X011698Y005604D01*
X011698Y005789D02*
X011637Y005851D01*
X011513Y005851D01*
X011451Y005789D01*
X011207Y005665D02*
X011083Y005665D01*
X010962Y005665D02*
X010900Y005604D01*
X010715Y005604D01*
X010593Y005604D02*
X010346Y005604D01*
X010346Y005727D02*
X010593Y005727D01*
X010715Y005851D02*
X010900Y005851D01*
X010962Y005789D01*
X010962Y005665D01*
X010838Y005604D02*
X010962Y005480D01*
X010715Y005480D02*
X010715Y005851D01*
X010715Y006169D02*
X010715Y006540D01*
X010962Y006169D01*
X010962Y006540D01*
X011083Y006478D02*
X011083Y006231D01*
X011145Y006169D01*
X011268Y006169D01*
X011330Y006231D01*
X011330Y006478D01*
X011268Y006540D01*
X011145Y006540D01*
X011083Y006478D01*
X011022Y006957D02*
X010898Y006957D01*
X010837Y007018D01*
X010837Y007265D01*
X010898Y007327D01*
X011022Y007327D01*
X011083Y007265D01*
X011083Y007018D01*
X011022Y006957D01*
X010714Y006957D02*
X010591Y006957D01*
X010653Y006957D02*
X010653Y007327D01*
X010714Y007327D02*
X010591Y007327D01*
X010470Y007265D02*
X010470Y007142D01*
X010408Y007080D01*
X010223Y007080D01*
X010223Y006957D02*
X010223Y007327D01*
X010408Y007327D01*
X010470Y007265D01*
X010101Y007265D02*
X010040Y007327D01*
X009916Y007327D01*
X009854Y007265D01*
X009854Y007018D01*
X009916Y006957D01*
X010040Y006957D01*
X010101Y007018D01*
X010101Y007142D01*
X009978Y007142D01*
X010346Y006416D02*
X010593Y006416D01*
X010593Y006293D02*
X010346Y006293D01*
X011573Y006957D02*
X011573Y007327D01*
X011758Y007327D01*
X011820Y007265D01*
X011820Y007142D01*
X011758Y007080D01*
X011573Y007080D01*
X011941Y006957D02*
X012065Y006957D01*
X012003Y006957D02*
X012003Y007327D01*
X011941Y007327D02*
X012065Y007327D01*
X012187Y007327D02*
X012434Y006957D01*
X012434Y007327D01*
X012555Y007265D02*
X012555Y007204D01*
X012617Y007142D01*
X012740Y007142D01*
X012802Y007080D01*
X012802Y007018D01*
X012740Y006957D01*
X012617Y006957D01*
X012555Y007018D01*
X012555Y007265D02*
X012617Y007327D01*
X012740Y007327D01*
X012802Y007265D01*
X012803Y006540D02*
X012803Y006169D01*
X012556Y006540D01*
X012556Y006169D01*
X012435Y006231D02*
X012435Y006478D01*
X012373Y006540D01*
X012250Y006540D01*
X012188Y006478D01*
X012188Y006231D01*
X012250Y006169D01*
X012373Y006169D01*
X012435Y006231D01*
X012067Y006231D02*
X012005Y006169D01*
X011881Y006169D01*
X011820Y006231D01*
X011820Y006478D01*
X011881Y006540D01*
X012005Y006540D01*
X012067Y006478D01*
X012187Y006957D02*
X012187Y007327D01*
X012925Y006540D02*
X012925Y006169D01*
X013172Y006169D02*
X012925Y006540D01*
X013172Y006540D02*
X013172Y006169D01*
X013293Y006169D02*
X013540Y006169D01*
X013661Y006231D02*
X013661Y006478D01*
X013723Y006540D01*
X013846Y006540D01*
X013908Y006478D01*
X014030Y006540D02*
X014277Y006540D01*
X014398Y006540D02*
X014521Y006540D01*
X014460Y006540D02*
X014460Y006169D01*
X014521Y006169D02*
X014398Y006169D01*
X014153Y006169D02*
X014153Y006540D01*
X013908Y006231D02*
X013846Y006169D01*
X013723Y006169D01*
X013661Y006231D01*
X013416Y006354D02*
X013293Y006354D01*
X013293Y006169D02*
X013293Y006540D01*
X013540Y006540D01*
X014643Y006478D02*
X014643Y006231D01*
X014705Y006169D01*
X014829Y006169D01*
X014890Y006231D01*
X014890Y006478D01*
X014829Y006540D01*
X014705Y006540D01*
X014643Y006478D01*
X015012Y006540D02*
X015012Y006169D01*
X015259Y006169D02*
X015012Y006540D01*
X015259Y006540D02*
X015259Y006169D01*
X015526Y008236D02*
X015465Y008298D01*
X015526Y008236D02*
X015650Y008236D01*
X015711Y008298D01*
X015711Y008360D01*
X015650Y008421D01*
X015588Y008421D01*
X015650Y008421D02*
X015711Y008483D01*
X015711Y008545D01*
X015650Y008606D01*
X015526Y008606D01*
X015465Y008545D01*
X015833Y008298D02*
X015895Y008298D01*
X015895Y008236D01*
X015833Y008236D01*
X015833Y008298D01*
X016017Y008298D02*
X016079Y008236D01*
X016202Y008236D01*
X016264Y008298D01*
X016264Y008360D01*
X016202Y008421D01*
X016141Y008421D01*
X016202Y008421D02*
X016264Y008483D01*
X016264Y008545D01*
X016202Y008606D01*
X016079Y008606D01*
X016017Y008545D01*
X016385Y008606D02*
X016385Y008360D01*
X016509Y008236D01*
X016632Y008360D01*
X016632Y008606D01*
X018221Y009417D02*
X018221Y009788D01*
X018406Y009788D01*
X018467Y009726D01*
X018467Y009602D01*
X018406Y009541D01*
X018221Y009541D01*
X018344Y009541D02*
X018467Y009417D01*
X018589Y009417D02*
X018589Y009788D01*
X018774Y009788D01*
X018836Y009726D01*
X018836Y009602D01*
X018774Y009541D01*
X018589Y009541D01*
X018957Y009417D02*
X019081Y009417D01*
X019019Y009417D02*
X019019Y009788D01*
X018957Y009788D02*
X019081Y009788D01*
X019571Y009726D02*
X019571Y009479D01*
X019633Y009417D01*
X019756Y009417D01*
X019818Y009479D01*
X019818Y009602D01*
X019694Y009602D01*
X019571Y009726D02*
X019633Y009788D01*
X019756Y009788D01*
X019818Y009726D01*
X019939Y009788D02*
X020124Y009788D01*
X020186Y009726D01*
X020186Y009602D01*
X020124Y009541D01*
X019939Y009541D01*
X019939Y009417D02*
X019939Y009788D01*
X020308Y009788D02*
X020431Y009788D01*
X020369Y009788D02*
X020369Y009417D01*
X020308Y009417D02*
X020431Y009417D01*
X020553Y009479D02*
X020553Y009726D01*
X020615Y009788D01*
X020738Y009788D01*
X020800Y009726D01*
X020800Y009479D01*
X020738Y009417D01*
X020615Y009417D01*
X020553Y009479D01*
X020878Y010205D02*
X021125Y010205D01*
X021001Y010205D02*
X021001Y010575D01*
X020878Y010452D01*
X018664Y010205D02*
X018417Y010205D01*
X018541Y010205D02*
X018541Y010575D01*
X018417Y010452D01*
X012868Y004669D02*
X012868Y004299D01*
X012930Y004484D02*
X012683Y004484D01*
X012868Y004669D01*
X012562Y004608D02*
X012500Y004669D01*
X012377Y004669D01*
X012315Y004608D01*
X012315Y004361D01*
X012377Y004299D01*
X012500Y004299D01*
X012562Y004361D01*
X011237Y001877D02*
X011237Y001815D01*
X011237Y001692D02*
X011237Y001445D01*
X011175Y001445D02*
X011299Y001445D01*
X011421Y001445D02*
X011544Y001445D01*
X011483Y001445D02*
X011483Y001815D01*
X011421Y001815D01*
X011237Y001692D02*
X011175Y001692D01*
X011054Y001630D02*
X011054Y001445D01*
X010869Y001445D01*
X010807Y001507D01*
X010869Y001568D01*
X011054Y001568D01*
X011054Y001630D02*
X010992Y001692D01*
X010869Y001692D01*
X010686Y001630D02*
X010686Y001445D01*
X010562Y001445D02*
X010562Y001630D01*
X010624Y001692D01*
X010686Y001630D01*
X010562Y001630D02*
X010500Y001692D01*
X010439Y001692D01*
X010439Y001445D01*
X010317Y001445D02*
X010132Y001445D01*
X010070Y001507D01*
X010070Y001630D01*
X010132Y001692D01*
X010317Y001692D01*
X010317Y001383D01*
X010256Y001321D01*
X010194Y001321D01*
X009949Y001507D02*
X009887Y001445D01*
X009764Y001445D01*
X009702Y001507D01*
X009702Y001753D01*
X009764Y001815D01*
X009887Y001815D01*
X009949Y001753D01*
X009949Y001630D01*
X009887Y001568D01*
X009887Y001692D01*
X009764Y001692D01*
X009764Y001568D01*
X009887Y001568D01*
X009581Y001815D02*
X009334Y001815D01*
X009334Y001445D01*
X009212Y001507D02*
X009151Y001445D01*
X009027Y001445D01*
X008965Y001507D01*
X008844Y001507D02*
X008782Y001445D01*
X008659Y001445D01*
X008597Y001507D01*
X008476Y001507D02*
X008414Y001445D01*
X008291Y001445D01*
X008229Y001507D01*
X008229Y001568D01*
X008291Y001630D01*
X008414Y001630D01*
X008476Y001568D01*
X008476Y001507D01*
X008414Y001630D02*
X008476Y001692D01*
X008476Y001753D01*
X008414Y001815D01*
X008291Y001815D01*
X008229Y001753D01*
X008229Y001692D01*
X008291Y001630D01*
X008107Y001753D02*
X008046Y001815D01*
X007860Y001815D01*
X007860Y001445D01*
X008046Y001445D01*
X008107Y001507D01*
X008107Y001753D01*
X008107Y002035D02*
X007860Y002035D01*
X007860Y002406D01*
X008107Y002406D01*
X008229Y002406D02*
X008229Y002159D01*
X008352Y002035D01*
X008476Y002159D01*
X008476Y002406D01*
X008965Y002344D02*
X009027Y002406D01*
X009151Y002406D01*
X009212Y002344D01*
X009212Y002282D01*
X008965Y002035D01*
X009212Y002035D01*
X009334Y002035D02*
X009395Y002035D01*
X009395Y002097D01*
X009334Y002097D01*
X009334Y002035D01*
X009518Y002097D02*
X009518Y002344D01*
X009580Y002406D01*
X009703Y002406D01*
X009765Y002344D01*
X009518Y002097D01*
X009580Y002035D01*
X009703Y002035D01*
X009765Y002097D01*
X009765Y002344D01*
X009457Y001630D02*
X009334Y001630D01*
X009212Y001568D02*
X009212Y001507D01*
X009212Y001568D02*
X009151Y001630D01*
X009027Y001630D01*
X008965Y001692D01*
X008965Y001753D01*
X009027Y001815D01*
X009151Y001815D01*
X009212Y001753D01*
X008844Y001753D02*
X008782Y001815D01*
X008659Y001815D01*
X008597Y001753D01*
X008597Y001692D01*
X008659Y001630D01*
X008782Y001630D01*
X008844Y001568D01*
X008844Y001507D01*
X007984Y002221D02*
X007860Y002221D01*
X007739Y002221D02*
X007677Y002159D01*
X007492Y002159D01*
X007616Y002159D02*
X007739Y002035D01*
X007739Y002221D02*
X007739Y002344D01*
X007677Y002406D01*
X007492Y002406D01*
X007492Y002035D01*
X007492Y001815D02*
X007492Y001445D01*
X007492Y001568D02*
X007739Y001815D01*
X007554Y001630D02*
X007739Y001445D01*
X006796Y001445D02*
X006796Y001692D01*
X006673Y001815D01*
X006549Y001692D01*
X006549Y001445D01*
X006428Y001507D02*
X006366Y001445D01*
X006243Y001445D01*
X006181Y001507D01*
X006243Y001630D02*
X006366Y001630D01*
X006428Y001568D01*
X006428Y001507D01*
X006549Y001630D02*
X006796Y001630D01*
X006428Y001753D02*
X006366Y001815D01*
X006243Y001815D01*
X006181Y001753D01*
X006181Y001692D01*
X006243Y001630D01*
X006060Y001630D02*
X005813Y001630D01*
X005691Y001753D02*
X005630Y001815D01*
X005506Y001815D01*
X005444Y001753D01*
X005444Y001507D01*
X005506Y001445D01*
X005630Y001445D01*
X005691Y001507D01*
X005323Y001445D02*
X005323Y001815D01*
X005076Y001815D02*
X005076Y001445D01*
X004955Y001630D02*
X004708Y001630D01*
X004586Y001753D02*
X004586Y001815D01*
X004586Y001753D02*
X004463Y001630D01*
X004463Y001445D01*
X004463Y001630D02*
X004339Y001753D01*
X004339Y001815D01*
X004218Y001753D02*
X004218Y001692D01*
X004156Y001630D01*
X003971Y001630D01*
X003971Y001815D02*
X004156Y001815D01*
X004218Y001753D01*
X004156Y001630D02*
X004218Y001568D01*
X004218Y001507D01*
X004156Y001445D01*
X003971Y001445D01*
X003971Y001815D01*
X003850Y002035D02*
X003603Y002406D01*
X003481Y002406D02*
X003234Y002406D01*
X003358Y002406D02*
X003358Y002035D01*
X003420Y001815D02*
X003296Y001815D01*
X003234Y001753D01*
X003234Y001507D01*
X003296Y001445D01*
X003420Y001445D01*
X003481Y001507D01*
X003481Y001753D02*
X003420Y001815D01*
X003603Y002035D02*
X003850Y002406D01*
X003971Y002221D02*
X004218Y002221D01*
X004339Y002159D02*
X004525Y002159D01*
X004586Y002221D01*
X004586Y002344D01*
X004525Y002406D01*
X004339Y002406D01*
X004339Y002035D01*
X004708Y002035D02*
X004831Y002035D01*
X004769Y002035D02*
X004769Y002282D01*
X004708Y002282D01*
X004769Y002406D02*
X004769Y002467D01*
X005076Y001815D02*
X005323Y001445D01*
X003113Y001507D02*
X003051Y001445D01*
X002928Y001445D01*
X002866Y001507D01*
X002866Y001753D01*
X002928Y001815D01*
X003051Y001815D01*
X003113Y001753D01*
X003113Y002035D02*
X003113Y002282D01*
X002990Y002406D01*
X002866Y002282D01*
X002866Y002035D01*
X002866Y002221D02*
X003113Y002221D01*
X010150Y008298D02*
X010211Y008236D01*
X010335Y008236D01*
X010397Y008298D01*
X010397Y008421D01*
X010335Y008483D01*
X010273Y008483D01*
X010150Y008421D01*
X010150Y008606D01*
X010397Y008606D01*
X010518Y008606D02*
X010518Y008360D01*
X010641Y008236D01*
X010765Y008360D01*
X010765Y008606D01*
X011912Y001692D02*
X011851Y001630D01*
X011851Y001507D01*
X011912Y001445D01*
X012097Y001445D01*
X012219Y001507D02*
X012281Y001445D01*
X012404Y001445D01*
X012466Y001507D01*
X012466Y001630D01*
X012404Y001692D01*
X012281Y001692D01*
X012219Y001630D01*
X012219Y001507D01*
X012097Y001692D02*
X011912Y001692D01*
X011728Y001507D02*
X011728Y001445D01*
X011666Y001445D01*
X011666Y001507D01*
X011728Y001507D01*
X012587Y001445D02*
X012587Y001692D01*
X012649Y001692D01*
X012711Y001630D01*
X012772Y001692D01*
X012834Y001630D01*
X012834Y001445D01*
X012711Y001445D02*
X012711Y001630D01*
X010316Y016504D02*
X009946Y016504D01*
X009946Y016689D01*
X010008Y016751D01*
X010131Y016751D01*
X010193Y016689D01*
X010193Y016504D01*
X010193Y016627D02*
X010316Y016751D01*
X010255Y016872D02*
X010131Y016872D01*
X010131Y017057D01*
X010193Y017119D01*
X010255Y017119D01*
X010316Y017057D01*
X010316Y016934D01*
X010255Y016872D01*
X010131Y016872D02*
X010008Y016996D01*
X009946Y017119D01*
X010703Y019260D02*
X010827Y019260D01*
X010889Y019321D01*
X010889Y019445D01*
X010765Y019445D01*
X010642Y019568D02*
X010642Y019321D01*
X010703Y019260D01*
X010642Y019568D02*
X010703Y019630D01*
X010827Y019630D01*
X010889Y019568D01*
X011010Y019630D02*
X011257Y019260D01*
X011257Y019630D01*
X011378Y019630D02*
X011378Y019260D01*
X011564Y019260D01*
X011625Y019321D01*
X011625Y019568D01*
X011564Y019630D01*
X011378Y019630D01*
X011010Y019630D02*
X011010Y019260D01*
X012118Y019335D02*
X012242Y019335D01*
X012180Y019335D02*
X012180Y018964D01*
X012118Y018964D02*
X012242Y018964D01*
X012364Y019026D02*
X012364Y019273D01*
X012425Y019335D01*
X012549Y019335D01*
X012611Y019273D01*
X012732Y019273D02*
X012794Y019335D01*
X012917Y019335D01*
X012979Y019273D01*
X012979Y019211D01*
X012732Y018964D01*
X012979Y018964D01*
X012611Y019026D02*
X012549Y018964D01*
X012425Y018964D01*
X012364Y019026D01*
X014778Y022797D02*
X014901Y022797D01*
X014839Y022797D02*
X014839Y023167D01*
X014778Y023167D02*
X014901Y023167D01*
X015023Y023105D02*
X015023Y023044D01*
X015085Y022982D01*
X015208Y022982D01*
X015270Y022920D01*
X015270Y022859D01*
X015208Y022797D01*
X015085Y022797D01*
X015023Y022859D01*
X015023Y023105D02*
X015085Y023167D01*
X015208Y023167D01*
X015270Y023105D01*
X015392Y023167D02*
X015392Y022797D01*
X015392Y022920D02*
X015577Y022920D01*
X015638Y022982D01*
X015638Y023105D01*
X015577Y023167D01*
X015392Y023167D01*
X016651Y023289D02*
X016774Y023413D01*
X016774Y023042D01*
X016651Y023042D02*
X016898Y023042D01*
X017722Y026740D02*
X017722Y026925D01*
X017783Y026987D01*
X017907Y026987D01*
X017969Y026925D01*
X017969Y026740D01*
X018092Y026740D02*
X017722Y026740D01*
X017969Y026864D02*
X018092Y026987D01*
X018030Y027108D02*
X018092Y027170D01*
X018092Y027294D01*
X018030Y027355D01*
X017969Y027355D01*
X017907Y027294D01*
X017907Y027232D01*
X017907Y027294D02*
X017845Y027355D01*
X017783Y027355D01*
X017722Y027294D01*
X017722Y027170D01*
X017783Y027108D01*
X017174Y029004D02*
X017050Y029004D01*
X016989Y029066D01*
X017236Y029312D01*
X017236Y029066D01*
X017174Y029004D01*
X016989Y029066D02*
X016989Y029312D01*
X017050Y029374D01*
X017174Y029374D01*
X017236Y029312D01*
X016867Y029312D02*
X016867Y029066D01*
X016805Y029004D01*
X016620Y029004D01*
X016620Y029374D01*
X016805Y029374D01*
X016867Y029312D01*
X016499Y029251D02*
X016499Y029004D01*
X016499Y029189D02*
X016252Y029189D01*
X016252Y029251D02*
X016375Y029374D01*
X016499Y029251D01*
X016252Y029251D02*
X016252Y029004D01*
X016252Y029988D02*
X016252Y030235D01*
X016375Y030358D01*
X016499Y030235D01*
X016499Y029988D01*
X016620Y029988D02*
X016805Y029988D01*
X016867Y030050D01*
X016867Y030297D01*
X016805Y030358D01*
X016620Y030358D01*
X016620Y029988D01*
X016499Y030173D02*
X016252Y030173D01*
X016252Y030972D02*
X016252Y031219D01*
X016375Y031343D01*
X016499Y031219D01*
X016499Y030972D01*
X016620Y030972D02*
X016805Y030972D01*
X016867Y031034D01*
X016867Y031281D01*
X016805Y031343D01*
X016620Y031343D01*
X016620Y030972D01*
X016499Y031158D02*
X016252Y031158D01*
X016252Y031957D02*
X016252Y032204D01*
X016375Y032327D01*
X016499Y032204D01*
X016499Y031957D01*
X016620Y031957D02*
X016805Y031957D01*
X016867Y032018D01*
X016867Y032265D01*
X016805Y032327D01*
X016620Y032327D01*
X016620Y031957D01*
X016499Y032142D02*
X016252Y032142D01*
X016989Y032265D02*
X017050Y032327D01*
X017174Y032327D01*
X017236Y032265D01*
X017236Y032204D01*
X017174Y032142D01*
X017236Y032080D01*
X017236Y032018D01*
X017174Y031957D01*
X017050Y031957D01*
X016989Y032018D01*
X017112Y032142D02*
X017174Y032142D01*
X017722Y032190D02*
X017783Y032128D01*
X017722Y032190D02*
X017722Y032313D01*
X017783Y032375D01*
X017845Y032375D01*
X018092Y032128D01*
X018092Y032375D01*
X018092Y032007D02*
X017969Y031883D01*
X017969Y031945D02*
X017969Y031760D01*
X018092Y031760D02*
X017722Y031760D01*
X017722Y031945D01*
X017783Y032007D01*
X017907Y032007D01*
X017969Y031945D01*
X017236Y031281D02*
X017174Y031343D01*
X017050Y031343D01*
X016989Y031281D01*
X017236Y031281D02*
X017236Y031219D01*
X016989Y030972D01*
X017236Y030972D01*
X017112Y030358D02*
X017112Y029988D01*
X016989Y029988D02*
X017236Y029988D01*
X016989Y030235D02*
X017112Y030358D01*
X017174Y032941D02*
X017174Y033311D01*
X016989Y033126D01*
X017236Y033126D01*
X016867Y033003D02*
X016867Y033249D01*
X016805Y033311D01*
X016620Y033311D01*
X016620Y032941D01*
X016805Y032941D01*
X016867Y033003D01*
X016499Y032941D02*
X016499Y033188D01*
X016375Y033311D01*
X016252Y033188D01*
X016252Y032941D01*
X016252Y033126D02*
X016499Y033126D01*
X016499Y033925D02*
X016499Y034172D01*
X016375Y034295D01*
X016252Y034172D01*
X016252Y033925D01*
X016252Y034110D02*
X016499Y034110D01*
X016620Y034295D02*
X016620Y033925D01*
X016805Y033925D01*
X016867Y033987D01*
X016867Y034234D01*
X016805Y034295D01*
X016620Y034295D01*
X016989Y034295D02*
X016989Y034110D01*
X017112Y034172D01*
X017174Y034172D01*
X017236Y034110D01*
X017236Y033987D01*
X017174Y033925D01*
X017050Y033925D01*
X016989Y033987D01*
X016989Y034295D02*
X017236Y034295D01*
X017064Y035795D02*
X016817Y035795D01*
X016696Y035795D02*
X016572Y035919D01*
X016634Y035919D02*
X016449Y035919D01*
X016449Y035795D02*
X016449Y036166D01*
X016634Y036166D01*
X016696Y036104D01*
X016696Y035980D01*
X016634Y035919D01*
X016817Y036042D02*
X016941Y036166D01*
X016941Y035795D01*
X014407Y035795D02*
X014407Y036166D01*
X014407Y035980D02*
X014160Y035980D01*
X014038Y035857D02*
X013977Y035795D01*
X013853Y035795D01*
X013791Y035857D01*
X013791Y036104D01*
X013853Y036166D01*
X013977Y036166D01*
X014038Y036104D01*
X014160Y036166D02*
X014160Y035795D01*
X012930Y035980D02*
X012868Y035919D01*
X012683Y035919D01*
X012683Y035795D02*
X012683Y036166D01*
X012868Y036166D01*
X012930Y036104D01*
X012930Y035980D01*
X012562Y035857D02*
X012500Y035795D01*
X012377Y035795D01*
X012315Y035857D01*
X012315Y036104D01*
X012377Y036166D01*
X012500Y036166D01*
X012562Y036104D01*
X012265Y035181D02*
X012265Y034811D01*
X012388Y034811D02*
X012141Y034811D01*
X012020Y034873D02*
X011958Y034811D01*
X011835Y034811D01*
X011773Y034873D01*
X011773Y035120D01*
X011835Y035181D01*
X011958Y035181D01*
X012020Y035120D01*
X012141Y035058D02*
X012265Y035181D01*
X011651Y035181D02*
X011528Y035181D01*
X011589Y035181D02*
X011589Y034811D01*
X011528Y034811D02*
X011651Y034811D01*
X011392Y035795D02*
X011269Y035795D01*
X011207Y035857D01*
X011085Y035857D02*
X011024Y035795D01*
X010900Y035795D01*
X010839Y035857D01*
X010839Y036104D01*
X010900Y036166D01*
X011024Y036166D01*
X011085Y036104D01*
X011207Y036104D02*
X011207Y036042D01*
X011269Y035980D01*
X011392Y035980D01*
X011454Y035919D01*
X011454Y035857D01*
X011392Y035795D01*
X011454Y036104D02*
X011392Y036166D01*
X011269Y036166D01*
X011207Y036104D01*
X010415Y034245D02*
X010045Y033998D01*
X010106Y033877D02*
X010230Y033877D01*
X010291Y033815D01*
X010291Y033630D01*
X010291Y033753D02*
X010415Y033877D01*
X010415Y033998D02*
X010045Y034245D01*
X010106Y033877D02*
X010045Y033815D01*
X010045Y033630D01*
X010415Y033630D01*
X010149Y031933D02*
X010149Y031563D01*
X010026Y031563D02*
X010273Y031563D01*
X010026Y031810D02*
X010149Y031933D01*
X009904Y031872D02*
X009843Y031933D01*
X009719Y031933D01*
X009658Y031872D01*
X009658Y031625D01*
X009719Y031563D01*
X009843Y031563D01*
X009904Y031625D01*
X008840Y032769D02*
X008470Y032769D01*
X008470Y032646D02*
X008470Y032892D01*
X008470Y033014D02*
X008840Y033261D01*
X008840Y033014D02*
X008470Y033261D01*
X008305Y035070D02*
X008305Y035316D01*
X008428Y035193D02*
X008181Y035193D01*
X009165Y035193D02*
X009412Y035193D01*
X007148Y035193D02*
X006902Y035193D01*
X006066Y035193D02*
X005819Y035193D01*
X005942Y035316D02*
X005942Y035070D01*
X006077Y034394D02*
X005892Y034209D01*
X006139Y034209D01*
X006077Y034024D02*
X006077Y034394D01*
X005771Y034332D02*
X005771Y034209D01*
X005709Y034147D01*
X005524Y034147D01*
X005647Y034147D02*
X005771Y034024D01*
X005524Y034024D02*
X005524Y034394D01*
X005709Y034394D01*
X005771Y034332D01*
X004786Y035193D02*
X004539Y035193D01*
X004663Y035316D02*
X004663Y035070D01*
X004466Y033742D02*
X004466Y033495D01*
X004343Y033618D02*
X004589Y033618D01*
X004484Y033039D02*
X004238Y033039D01*
X004484Y033039D02*
X004608Y032915D01*
X004484Y032792D01*
X004238Y032792D01*
X004299Y032670D02*
X004238Y032609D01*
X004238Y032485D01*
X004299Y032423D01*
X004299Y032670D02*
X004361Y032670D01*
X004608Y032423D01*
X004608Y032670D01*
X004608Y032302D02*
X004608Y032055D01*
X004608Y032178D02*
X004238Y032178D01*
X004361Y032055D01*
X004343Y031650D02*
X004589Y031650D01*
X004466Y030592D02*
X004466Y030345D01*
X004343Y030469D02*
X004589Y030469D01*
X004484Y029717D02*
X004238Y029717D01*
X004238Y029471D02*
X004484Y029471D01*
X004608Y029594D01*
X004484Y029717D01*
X004423Y029349D02*
X004546Y029349D01*
X004608Y029287D01*
X004608Y029164D01*
X004546Y029102D01*
X004423Y029102D02*
X004361Y029226D01*
X004361Y029287D01*
X004423Y029349D01*
X004238Y029349D02*
X004238Y029102D01*
X004423Y029102D01*
X004343Y028500D02*
X004589Y028500D01*
X004466Y027541D02*
X004466Y027294D01*
X004343Y027417D02*
X004589Y027417D01*
X004484Y027022D02*
X004238Y027022D01*
X004484Y027022D02*
X004608Y026898D01*
X004484Y026775D01*
X004238Y026775D01*
X004299Y026654D02*
X004361Y026654D01*
X004423Y026592D01*
X004484Y026654D01*
X004546Y026654D01*
X004608Y026592D01*
X004608Y026468D01*
X004546Y026407D01*
X004546Y026284D02*
X004608Y026284D01*
X004608Y026223D01*
X004546Y026223D01*
X004546Y026284D01*
X004546Y026101D02*
X004608Y026039D01*
X004608Y025916D01*
X004546Y025854D01*
X004423Y025978D02*
X004423Y026039D01*
X004484Y026101D01*
X004546Y026101D01*
X004423Y026039D02*
X004361Y026101D01*
X004299Y026101D01*
X004238Y026039D01*
X004238Y025916D01*
X004299Y025854D01*
X004343Y025449D02*
X004589Y025449D01*
X004299Y026407D02*
X004238Y026468D01*
X004238Y026592D01*
X004299Y026654D01*
X004423Y026592D02*
X004423Y026530D01*
X005524Y025868D02*
X005524Y025621D01*
X005585Y025559D01*
X005709Y025559D01*
X005771Y025621D01*
X005892Y025621D02*
X005954Y025559D01*
X006077Y025559D01*
X006139Y025621D01*
X006139Y025682D01*
X006077Y025744D01*
X006015Y025744D01*
X006077Y025744D02*
X006139Y025806D01*
X006139Y025868D01*
X006077Y025929D01*
X005954Y025929D01*
X005892Y025868D01*
X005771Y025868D02*
X005709Y025929D01*
X005585Y025929D01*
X005524Y025868D01*
X003872Y024650D02*
X003625Y024279D01*
X003504Y024279D02*
X003504Y024526D01*
X003380Y024650D01*
X003257Y024526D01*
X003257Y024279D01*
X003135Y024279D02*
X003135Y024650D01*
X003012Y024526D01*
X002888Y024650D01*
X002888Y024279D01*
X003257Y024465D02*
X003504Y024465D01*
X003625Y024650D02*
X003872Y024279D01*
X002399Y024279D02*
X002399Y024526D01*
X002275Y024650D01*
X002152Y024526D01*
X002152Y024279D01*
X002030Y024341D02*
X001969Y024279D01*
X001845Y024279D01*
X001784Y024341D01*
X001907Y024465D02*
X001969Y024465D01*
X002030Y024403D01*
X002030Y024341D01*
X001969Y024465D02*
X002030Y024526D01*
X002030Y024588D01*
X001969Y024650D01*
X001845Y024650D01*
X001784Y024588D01*
X002152Y024465D02*
X002399Y024465D01*
X005419Y029496D02*
X005419Y029681D01*
X005480Y029743D01*
X005604Y029743D01*
X005665Y029681D01*
X005665Y029496D01*
X005665Y029619D02*
X005789Y029743D01*
X005789Y029864D02*
X005727Y029864D01*
X005480Y030111D01*
X005419Y030111D01*
X005419Y029864D01*
X005419Y029496D02*
X005789Y029496D01*
X006698Y029496D02*
X006698Y029681D01*
X006760Y029743D01*
X006883Y029743D01*
X006945Y029681D01*
X006945Y029496D01*
X006945Y029619D02*
X007068Y029743D01*
X007007Y029864D02*
X007068Y029926D01*
X007068Y030049D01*
X007007Y030111D01*
X006883Y030111D01*
X006822Y030049D01*
X006822Y029988D01*
X006883Y029864D01*
X006698Y029864D01*
X006698Y030111D01*
X006698Y029496D02*
X007068Y029496D01*
X007879Y029448D02*
X008250Y029201D01*
X008250Y029448D02*
X007879Y029201D01*
X007879Y029569D02*
X007879Y029816D01*
X007879Y029692D02*
X008250Y029692D01*
X008250Y029937D02*
X008003Y029937D01*
X007879Y030061D01*
X008003Y030184D01*
X008250Y030184D01*
X008250Y030306D02*
X008250Y030553D01*
X008250Y030306D02*
X007879Y030306D01*
X008064Y030184D02*
X008064Y029937D01*
X009658Y029312D02*
X009658Y029066D01*
X009719Y029004D01*
X009843Y029004D01*
X009904Y029066D01*
X010026Y029004D02*
X010273Y029251D01*
X010273Y029312D01*
X010211Y029374D01*
X010088Y029374D01*
X010026Y029312D01*
X009904Y029312D02*
X009843Y029374D01*
X009719Y029374D01*
X009658Y029312D01*
X010026Y029004D02*
X010273Y029004D01*
X008304Y026815D02*
X008057Y026815D01*
X008057Y026630D01*
X008181Y026692D01*
X008242Y026692D01*
X008304Y026630D01*
X008304Y026507D01*
X008242Y026445D01*
X008119Y026445D01*
X008057Y026507D01*
X007936Y026507D02*
X007936Y026753D01*
X007874Y026815D01*
X007689Y026815D01*
X007689Y026445D01*
X007874Y026445D01*
X007936Y026507D01*
X007874Y025831D02*
X007689Y025831D01*
X007689Y025461D01*
X007874Y025461D01*
X007936Y025522D01*
X007936Y025769D01*
X007874Y025831D01*
X008057Y025646D02*
X008242Y025646D01*
X008304Y025584D01*
X008304Y025522D01*
X008242Y025461D01*
X008119Y025461D01*
X008057Y025522D01*
X008057Y025646D01*
X008181Y025769D01*
X008304Y025831D01*
X008304Y024847D02*
X008057Y024847D01*
X007936Y024785D02*
X007936Y024538D01*
X007874Y024476D01*
X007689Y024476D01*
X007689Y024847D01*
X007874Y024847D01*
X007936Y024785D01*
X008057Y024538D02*
X008057Y024476D01*
X008057Y024538D02*
X008304Y024785D01*
X008304Y024847D01*
X003802Y035193D02*
X003555Y035193D01*
X020976Y034886D02*
X021038Y034886D01*
X021161Y034763D01*
X021346Y034763D01*
X021161Y034763D02*
X021038Y034639D01*
X020976Y034639D01*
X021038Y034518D02*
X020976Y034456D01*
X020976Y034271D01*
X021346Y034271D01*
X021346Y034456D01*
X021285Y034518D01*
X021223Y034518D01*
X021161Y034456D01*
X021161Y034271D01*
X021038Y034150D02*
X020976Y034088D01*
X020976Y033903D01*
X021346Y033903D01*
X021346Y034088D01*
X021285Y034150D01*
X021038Y034150D01*
X021161Y034456D02*
X021100Y034518D01*
X021038Y034518D01*
X020976Y033781D02*
X020976Y033535D01*
X020976Y033658D02*
X021346Y033658D01*
X021285Y033413D02*
X021346Y033351D01*
X021346Y033228D01*
X021285Y033166D01*
X021161Y033228D02*
X021161Y033351D01*
X021223Y033413D01*
X021285Y033413D01*
X021161Y033228D02*
X021100Y033166D01*
X021038Y033166D01*
X020976Y033228D01*
X020976Y033351D01*
X021038Y033413D01*
X020970Y031413D02*
X021340Y031413D01*
X020970Y031166D01*
X021340Y031166D01*
X021278Y031045D02*
X021032Y031045D01*
X020970Y030983D01*
X020970Y030860D01*
X021032Y030798D01*
X021278Y030798D01*
X021340Y030860D01*
X021340Y030983D01*
X021278Y031045D01*
X021340Y030676D02*
X021217Y030553D01*
X021217Y030615D02*
X021217Y030429D01*
X021340Y030429D02*
X020970Y030429D01*
X020970Y030615D01*
X021032Y030676D01*
X021155Y030676D01*
X021217Y030615D01*
X021340Y030308D02*
X021217Y030185D01*
X021340Y030061D01*
X020970Y030061D01*
X021032Y029940D02*
X020970Y029878D01*
X020970Y029693D01*
X021340Y029693D01*
X021217Y029693D02*
X021217Y029878D01*
X021155Y029940D01*
X021032Y029940D01*
X020970Y030308D02*
X021340Y030308D01*
X020970Y028336D02*
X020970Y028090D01*
X021340Y028090D01*
X021155Y028090D02*
X021155Y028213D01*
X020970Y027968D02*
X020970Y027721D01*
X021340Y027721D01*
X021278Y027600D02*
X021032Y027600D01*
X020970Y027538D01*
X020970Y027415D01*
X021032Y027353D01*
X021278Y027353D01*
X021340Y027415D01*
X021340Y027538D01*
X021278Y027600D01*
X021155Y027721D02*
X021155Y027845D01*
X021155Y027231D02*
X021217Y027170D01*
X021217Y026985D01*
X021217Y027108D02*
X021340Y027231D01*
X021155Y027231D02*
X021032Y027231D01*
X020970Y027170D01*
X020970Y026985D01*
X021340Y026985D01*
X021340Y026863D02*
X021217Y026740D01*
X021340Y026616D01*
X020970Y026616D01*
X021032Y026495D02*
X020970Y026433D01*
X020970Y026248D01*
X021340Y026248D01*
X021217Y026248D02*
X021217Y026433D01*
X021155Y026495D01*
X021032Y026495D01*
X020970Y026863D02*
X021340Y026863D01*
D12*
X018993Y024461D02*
X018993Y024068D01*
X018698Y023772D01*
X018107Y023772D01*
X017320Y023772D01*
X017024Y024068D01*
X017024Y024461D01*
X017123Y024560D01*
X017320Y024560D01*
X017713Y024560D01*
X017910Y024363D01*
X017910Y024166D01*
X018009Y024068D01*
X017910Y024068D01*
X017812Y023969D01*
X017910Y023969D01*
X018107Y024166D01*
X018107Y024363D01*
X018206Y024461D01*
X018107Y024461D01*
X018009Y024363D01*
X018009Y024068D01*
X018304Y024068D01*
X018206Y024166D01*
X018206Y024264D01*
X018107Y024363D01*
X018107Y024461D02*
X018009Y024461D01*
X017910Y024363D01*
X017910Y024461D02*
X018009Y024461D01*
X017910Y024461D02*
X017910Y024560D01*
X017812Y024461D01*
X017812Y024068D01*
X017713Y024068D01*
X017812Y023969D01*
X017320Y023969D01*
X017221Y024068D01*
X017221Y024461D01*
X017320Y024560D01*
X017221Y024658D02*
X017221Y024461D01*
X017123Y024560D01*
X017221Y024658D01*
X017320Y024757D01*
X018599Y024757D01*
X018698Y024658D01*
X018698Y024560D01*
X018894Y024363D01*
X018796Y024363D01*
X018796Y024068D01*
X018698Y023969D01*
X017910Y023969D01*
X017910Y024166D01*
X018107Y024166D02*
X018206Y024166D01*
X018206Y024264D02*
X018206Y024461D01*
X018304Y024461D01*
X018599Y024560D02*
X018698Y024658D01*
X018894Y024461D01*
X018894Y024363D01*
X018894Y024068D01*
X018698Y023871D01*
X017320Y023871D01*
X017123Y024068D01*
X017123Y024461D01*
X017024Y024461D01*
X017221Y024658D02*
X018599Y024658D01*
X018698Y024757D01*
X018993Y024461D01*
X018599Y024560D02*
X017910Y024560D01*
X017713Y024560D01*
X018009Y023772D02*
X018009Y023674D01*
X018107Y023772D01*
X018009Y023674D02*
X018698Y023674D01*
X018599Y023575D01*
X018402Y023575D01*
X018107Y023477D01*
X018304Y022985D01*
X018206Y023083D01*
X018894Y023083D01*
X018698Y022887D01*
X018599Y022985D01*
X018304Y022985D01*
X018107Y022985D01*
X018206Y023575D01*
X018304Y023575D01*
X018206Y023379D01*
X018402Y023575D01*
X018304Y023575D01*
X018206Y023575D02*
X018009Y023575D01*
X018107Y023477D01*
X018107Y022985D01*
X018107Y022887D01*
X018009Y022887D01*
X018009Y022788D01*
X018698Y022788D01*
X018993Y023083D01*
X018993Y023477D01*
X018698Y023772D01*
X018698Y023674D01*
X018894Y023477D01*
X018894Y023379D01*
X018796Y023379D01*
X018894Y023182D01*
X018796Y023182D01*
X018894Y023182D02*
X018894Y023379D01*
X018698Y023575D01*
X018698Y023674D01*
X018894Y023182D02*
X018894Y023083D01*
X018894Y023182D02*
X018698Y022985D01*
X018698Y022887D01*
X018206Y022887D01*
X018206Y023280D01*
X018009Y023575D02*
X018009Y022887D01*
X018107Y022887D02*
X018206Y022887D01*
X018009Y023575D02*
X018009Y023674D01*
X018009Y020721D02*
X018009Y019835D01*
X017910Y019835D02*
X017517Y019835D01*
X017123Y020229D01*
X017517Y020229D01*
X017713Y020032D01*
X017615Y019934D01*
X017713Y019934D01*
X017812Y020032D01*
X017812Y019934D01*
X017910Y019835D01*
X017910Y019934D01*
X017812Y020032D01*
X017910Y020131D01*
X017910Y019934D01*
X017713Y019934D01*
X017615Y019934D02*
X017320Y019934D01*
X017221Y019934D01*
X017123Y020032D01*
X017123Y020131D01*
X017123Y020229D01*
X017418Y020524D01*
X017418Y020623D01*
X017123Y020327D01*
X017123Y020229D01*
X017123Y020131D02*
X017320Y019934D01*
X017221Y019934D02*
X017123Y019934D01*
X017221Y019835D02*
X017024Y020032D01*
X017024Y020327D01*
X017320Y020623D01*
X017418Y020623D01*
X017615Y020623D01*
X017713Y020623D01*
X017910Y020426D01*
X017910Y020524D01*
X017910Y020623D01*
X017910Y020721D01*
X017221Y020721D01*
X017221Y020623D02*
X017024Y020426D01*
X017123Y020524D02*
X017123Y020327D01*
X017123Y020623D02*
X017221Y020623D01*
X017320Y020623D01*
X017615Y020623D02*
X017910Y020327D01*
X017910Y020131D01*
X017812Y020131D02*
X017812Y020327D01*
X017910Y020327D02*
X017910Y020426D01*
X017910Y020524D02*
X017812Y020623D01*
X017910Y020623D01*
X017812Y020623D02*
X017713Y020623D01*
X017812Y020131D02*
X017713Y020032D01*
X017517Y019835D02*
X017221Y019835D01*
X018107Y019737D02*
X018107Y018949D01*
X018206Y018949D01*
X018304Y019048D01*
X018206Y019146D01*
X018206Y019442D01*
X018402Y019638D01*
X018501Y019540D01*
X018206Y019540D01*
X018304Y019638D01*
X018206Y019638D01*
X018206Y019540D01*
X018206Y019442D01*
X018206Y019638D02*
X018206Y019737D01*
X018402Y019737D01*
X018304Y019638D01*
X018402Y019638D01*
X018599Y019638D01*
X018894Y019343D01*
X018796Y019343D01*
X018796Y019146D01*
X018698Y019048D01*
X018796Y019048D01*
X018698Y018949D01*
X018796Y018851D01*
X018796Y018949D01*
X018894Y019048D01*
X018894Y019146D01*
X018796Y019048D01*
X018894Y019146D02*
X018894Y019343D01*
X018894Y019442D01*
X018599Y019737D01*
X018402Y019737D01*
X018599Y019737D02*
X018698Y019737D01*
X018993Y019442D01*
X018993Y019048D01*
X018796Y018851D01*
X018107Y018851D01*
X018107Y018949D01*
X018206Y018949D02*
X018206Y019146D01*
X018206Y018949D02*
X018698Y018949D01*
X018599Y019540D02*
X018501Y019540D01*
X018009Y017768D02*
X018009Y017276D01*
X017910Y017375D01*
X017910Y017473D01*
X017910Y017572D01*
X017713Y017768D01*
X017812Y017768D01*
X017910Y017670D01*
X017615Y017670D01*
X017418Y017670D01*
X017320Y017572D01*
X017320Y017473D01*
X017123Y017276D01*
X017123Y017178D01*
X017221Y017276D01*
X017221Y017178D01*
X017418Y016981D01*
X017713Y016981D01*
X017812Y017079D01*
X017910Y017079D01*
X017910Y016981D01*
X017910Y016883D01*
X017418Y016883D01*
X017123Y017178D01*
X017024Y017276D01*
X017320Y017572D01*
X017615Y017572D01*
X017910Y017276D01*
X017910Y017178D01*
X017812Y017276D01*
X017812Y017079D01*
X017910Y017178D01*
X017910Y017079D01*
X017910Y016981D02*
X017713Y016981D01*
X017910Y016883D02*
X018009Y016883D01*
X018009Y017276D01*
X017910Y017375D02*
X017615Y017670D01*
X017517Y017768D01*
X017615Y017768D01*
X017910Y017473D01*
X017910Y017572D02*
X017910Y017670D01*
X017910Y017768D01*
X017812Y017768D01*
X017713Y017768D02*
X017615Y017768D01*
X017517Y017768D02*
X017320Y017768D01*
X017024Y017473D01*
X017024Y017375D01*
X017024Y017276D01*
X017024Y017178D01*
X017320Y016883D01*
X017418Y016883D01*
X017320Y016784D02*
X017024Y017079D01*
X017024Y017178D01*
X017024Y017375D02*
X017320Y017670D01*
X017418Y017670D01*
X018009Y016883D02*
X018009Y016784D01*
X017320Y016784D01*
X018009Y015701D02*
X018009Y014914D01*
X018107Y015012D01*
X018107Y015111D01*
X018206Y015209D01*
X018206Y015406D01*
X018304Y015505D01*
X018304Y015603D01*
X018402Y015505D01*
X018698Y015505D01*
X018599Y015603D01*
X018304Y015603D01*
X018206Y015701D01*
X018206Y015406D01*
X018107Y015209D02*
X018206Y015111D01*
X018107Y015012D01*
X018304Y015012D01*
X018206Y015111D01*
X018107Y015111D02*
X018107Y015209D01*
X018107Y015701D01*
X018206Y015701D01*
X018599Y015701D01*
X018698Y015701D01*
X018796Y015603D01*
X018894Y015505D01*
X018894Y015406D01*
X018993Y015505D01*
X018796Y015505D01*
X018599Y015701D01*
X018698Y015701D02*
X018796Y015701D01*
X018993Y015505D01*
X018993Y015111D01*
X018698Y014816D01*
X018698Y014914D01*
X018599Y014914D01*
X018206Y014914D01*
X018107Y015012D01*
X018009Y014914D02*
X018206Y014914D01*
X018304Y015012D02*
X018402Y015012D01*
X018599Y014914D02*
X018796Y015111D01*
X018796Y015308D01*
X018894Y015209D01*
X018894Y015111D01*
X018698Y014914D01*
X018698Y015012D01*
X018894Y015209D01*
X018894Y015406D01*
X018796Y015308D02*
X018796Y015603D01*
X018894Y015111D02*
X018993Y015012D01*
X018796Y014816D01*
X018698Y014816D01*
X018009Y014816D01*
X018009Y014914D01*
X018009Y012749D02*
X018009Y012650D01*
X017910Y012749D01*
X017320Y012749D01*
X017024Y012453D01*
X017024Y012060D01*
X017221Y011863D01*
X017221Y011961D01*
X017320Y011961D01*
X017615Y011961D01*
X017812Y012158D01*
X017812Y012650D01*
X017713Y012650D01*
X017615Y012552D01*
X017320Y012552D01*
X017221Y012453D01*
X017221Y012158D01*
X017123Y012060D01*
X017221Y012060D01*
X017320Y011961D01*
X017221Y011961D02*
X017123Y012060D01*
X017123Y012453D01*
X017320Y012650D01*
X017615Y012650D01*
X017713Y012650D01*
X017910Y012453D01*
X017910Y012650D01*
X017812Y012650D01*
X018009Y012650D02*
X018009Y011961D01*
X017812Y011764D01*
X017320Y011764D01*
X017221Y011863D01*
X017910Y011863D01*
X018009Y011764D01*
X018009Y011961D01*
X017910Y011961D02*
X017910Y012060D01*
X017812Y011961D01*
X017812Y012158D01*
X017910Y012158D02*
X017910Y012060D01*
X017910Y012158D02*
X017910Y012355D01*
X017615Y012650D01*
X017910Y012453D02*
X017910Y012355D01*
X017910Y012158D02*
X017713Y011961D01*
X017615Y011961D01*
X017713Y011961D02*
X017812Y011961D01*
X017910Y011961D01*
X013481Y008320D02*
X013284Y008123D01*
X013481Y008320D02*
X012891Y008320D01*
X013284Y008516D02*
X013481Y008320D01*
X012792Y006843D02*
X009839Y006843D01*
X009741Y005662D02*
X009743Y005689D01*
X009749Y005716D01*
X009758Y005742D01*
X009771Y005766D01*
X009787Y005789D01*
X009806Y005808D01*
X009828Y005825D01*
X009852Y005839D01*
X009877Y005849D01*
X009904Y005856D01*
X009931Y005859D01*
X009959Y005858D01*
X009986Y005853D01*
X010012Y005845D01*
X010036Y005833D01*
X010059Y005817D01*
X010080Y005799D01*
X010097Y005778D01*
X010112Y005754D01*
X010123Y005729D01*
X010131Y005703D01*
X010135Y005676D01*
X010135Y005648D01*
X010131Y005621D01*
X010123Y005595D01*
X010112Y005570D01*
X010097Y005546D01*
X010080Y005525D01*
X010059Y005507D01*
X010037Y005491D01*
X010012Y005479D01*
X009986Y005471D01*
X009959Y005466D01*
X009931Y005465D01*
X009904Y005468D01*
X009877Y005475D01*
X009852Y005485D01*
X009828Y005499D01*
X009806Y005516D01*
X009787Y005535D01*
X009771Y005558D01*
X009758Y005582D01*
X009749Y005608D01*
X009743Y005635D01*
X009741Y005662D01*
X006139Y005902D02*
X006139Y006690D01*
X006139Y007556D02*
X006139Y008343D01*
X006139Y009209D02*
X006139Y009997D01*
X006139Y010863D02*
X006139Y011650D01*
X006139Y012516D02*
X006139Y013304D01*
X006139Y014170D02*
X006139Y014957D01*
X006139Y015824D02*
X006139Y016611D01*
X006139Y017438D02*
X006139Y018225D01*
X006139Y019131D02*
X006139Y019918D01*
X006139Y020784D02*
X006139Y021572D01*
X006139Y022359D02*
X006139Y023107D01*
X001202Y023107D01*
X001202Y002713D01*
X006139Y002713D01*
X006139Y003461D01*
X006139Y004249D02*
X006139Y005036D01*
X002438Y012241D02*
X001257Y012241D01*
X002044Y012241D02*
X002438Y012241D01*
X002438Y013579D01*
X002044Y013579D01*
X002044Y012241D01*
X002044Y012265D02*
X002438Y012265D01*
X002438Y012241D02*
X002438Y013579D01*
X001257Y013579D01*
X002044Y013546D02*
X002438Y013546D01*
X002438Y013447D02*
X002044Y013447D01*
X002044Y013349D02*
X002438Y013349D01*
X002438Y013250D02*
X002044Y013250D01*
X002044Y013152D02*
X002438Y013152D01*
X002438Y013053D02*
X002044Y013053D01*
X002044Y012955D02*
X002438Y012955D01*
X002438Y012856D02*
X002044Y012856D01*
X002044Y012758D02*
X002438Y012758D01*
X002438Y012659D02*
X002044Y012659D01*
X002044Y012561D02*
X002438Y012561D01*
X002438Y012462D02*
X002044Y012462D01*
X002044Y012364D02*
X002438Y012364D01*
D13*
X019485Y024068D02*
X019583Y023969D01*
X021158Y023969D01*
X021158Y024068D01*
X021257Y024166D01*
X021257Y024461D01*
X021158Y024461D01*
X021060Y024560D01*
X019682Y024560D01*
X019583Y024461D01*
X019583Y024166D01*
X019682Y024068D01*
X020272Y024068D01*
X020371Y024068D01*
X020568Y024264D01*
X020568Y024363D01*
X020371Y024363D01*
X020371Y024264D01*
X020469Y024264D01*
X020568Y024166D01*
X020371Y024166D01*
X020371Y024068D02*
X020666Y024068D01*
X020666Y024461D01*
X020272Y024461D01*
X020272Y024068D01*
X019682Y023871D02*
X021158Y023871D01*
X021355Y024068D01*
X021355Y024461D01*
X021158Y024658D01*
X019682Y024658D01*
X019485Y024461D01*
X019485Y024068D01*
D14*
X014761Y035583D02*
X010528Y035583D01*
X010528Y036371D01*
X014761Y036371D01*
X014761Y035583D01*
X013284Y035682D02*
X013284Y036272D01*
X011906Y036272D02*
X011906Y035682D01*
D15*
X016220Y028192D02*
X016126Y028098D01*
X016126Y027911D01*
X016126Y028052D02*
X016313Y028052D01*
X016313Y028098D02*
X016313Y027911D01*
X016403Y028005D02*
X016403Y028192D01*
X016313Y028098D02*
X016220Y028192D01*
X016403Y028005D02*
X016496Y027911D01*
X016589Y028005D01*
X016589Y028192D01*
X016679Y028145D02*
X016679Y027958D01*
X016725Y027911D01*
X016819Y027911D01*
X016866Y027958D01*
X016955Y027958D02*
X016955Y028145D01*
X017002Y028192D01*
X017095Y028192D01*
X017142Y028145D01*
X017142Y027958D02*
X017095Y027911D01*
X017002Y027911D01*
X016955Y027958D01*
X016866Y028145D02*
X016819Y028192D01*
X016725Y028192D01*
X016679Y028145D01*
X016679Y027207D02*
X016679Y026927D01*
X016866Y026927D01*
X016955Y026927D02*
X016955Y027207D01*
X017142Y027207D01*
X017048Y027067D02*
X016955Y027067D01*
X016866Y027207D02*
X016679Y027207D01*
X016589Y027161D02*
X016589Y027067D01*
X016543Y027021D01*
X016403Y027021D01*
X016496Y027021D02*
X016589Y026927D01*
X016679Y027067D02*
X016772Y027067D01*
X016589Y027161D02*
X016543Y027207D01*
X016403Y027207D01*
X016403Y026927D01*
X016313Y026927D02*
X016313Y027114D01*
X016220Y027207D01*
X016126Y027114D01*
X016126Y026927D01*
X016126Y027067D02*
X016313Y027067D01*
D16*
X009938Y006351D03*
D17*
X017517Y023280D03*
D18*
X017517Y022296D03*
D19*
X017259Y022768D02*
X018759Y022768D01*
X019009Y022518D01*
X019009Y022018D01*
X018759Y021768D01*
X017259Y021768D01*
X017009Y022018D01*
X017009Y022518D01*
X017259Y022768D01*
X017009Y023018D01*
X017009Y023518D01*
X017259Y023768D01*
X017009Y024018D01*
X017009Y024518D01*
X017259Y024768D01*
X018759Y024768D01*
X019009Y024518D01*
X019009Y024018D01*
X018759Y023768D01*
X017259Y023768D01*
X017259Y021768D02*
X017009Y021518D01*
X017009Y021018D01*
X017259Y020768D01*
X018759Y020768D01*
X019009Y020518D01*
X019009Y020018D01*
X018759Y019768D01*
X017259Y019768D01*
X017009Y020018D01*
X017009Y020518D01*
X017259Y020768D01*
X017259Y019768D02*
X017009Y019518D01*
X017009Y019018D01*
X017259Y018768D01*
X018759Y018768D01*
X019009Y018518D01*
X019009Y018018D01*
X018759Y017768D01*
X017259Y017768D01*
X017009Y018018D01*
X017009Y018518D01*
X017259Y018768D01*
X017259Y017768D02*
X017009Y017518D01*
X017009Y017018D01*
X017259Y016768D01*
X018759Y016768D01*
X019009Y017018D01*
X019009Y017518D01*
X018759Y017768D01*
X019422Y017518D02*
X019422Y017018D01*
X019672Y016768D01*
X021172Y016768D01*
X021422Y017018D01*
X021422Y017518D01*
X021172Y017768D01*
X019672Y017768D01*
X019422Y018018D01*
X019422Y018518D01*
X019672Y018768D01*
X021172Y018768D01*
X021422Y018518D01*
X021422Y018018D01*
X021172Y017768D01*
X021172Y016768D02*
X021422Y016518D01*
X021422Y016018D01*
X021172Y015768D01*
X019672Y015768D01*
X019422Y016018D01*
X019422Y016518D01*
X019672Y016768D01*
X019009Y016518D02*
X019009Y016018D01*
X018759Y015768D01*
X017259Y015768D01*
X017009Y016018D01*
X017009Y016518D01*
X017259Y016768D01*
X017259Y015768D02*
X017009Y015518D01*
X017009Y015018D01*
X017259Y014768D01*
X018759Y014768D01*
X019009Y015018D01*
X019009Y015518D01*
X018759Y015768D01*
X019422Y015518D02*
X019422Y015018D01*
X019672Y014768D01*
X021172Y014768D01*
X021422Y015018D01*
X021422Y015518D01*
X021172Y015768D01*
X021172Y014768D02*
X021422Y014518D01*
X021422Y014018D01*
X021172Y013768D01*
X019672Y013768D01*
X019422Y014018D01*
X019422Y014518D01*
X019672Y014768D01*
X019009Y014518D02*
X019009Y014018D01*
X018759Y013768D01*
X017259Y013768D01*
X017009Y014018D01*
X017009Y014518D01*
X017259Y014768D01*
X016509Y014648D02*
X016509Y014148D01*
X016259Y013898D01*
X016509Y013648D01*
X016509Y013148D01*
X016259Y012898D01*
X015759Y012898D01*
X015509Y013148D01*
X015509Y013648D01*
X015759Y013898D01*
X015509Y014148D01*
X015509Y014648D01*
X015759Y014898D01*
X016259Y014898D01*
X016509Y014648D01*
X016259Y013898D02*
X015759Y013898D01*
X015759Y012898D02*
X015509Y012648D01*
X015509Y012148D01*
X015759Y011898D01*
X015509Y011648D01*
X015509Y011148D01*
X015759Y010898D01*
X015509Y010648D01*
X015509Y010148D01*
X015759Y009898D01*
X015509Y009648D01*
X015509Y009148D01*
X015759Y008898D01*
X016259Y008898D01*
X016509Y009148D01*
X016509Y009648D01*
X016259Y009898D01*
X015759Y009898D01*
X016259Y009898D02*
X016509Y010148D01*
X016509Y010648D01*
X016259Y010898D01*
X015759Y010898D01*
X016259Y010898D02*
X016509Y011148D01*
X016509Y011648D01*
X016259Y011898D01*
X015759Y011898D01*
X016259Y011898D02*
X016509Y012148D01*
X016509Y012648D01*
X016259Y012898D01*
X017009Y013018D02*
X017009Y013518D01*
X017259Y013768D01*
X017009Y013018D02*
X017259Y012768D01*
X018759Y012768D01*
X019009Y013018D01*
X019009Y013518D01*
X018759Y013768D01*
X019422Y013518D02*
X019422Y013018D01*
X019672Y012768D01*
X021172Y012768D01*
X021422Y013018D01*
X021422Y013518D01*
X021172Y013768D01*
X021172Y012768D02*
X021422Y012518D01*
X021422Y012018D01*
X021172Y011768D01*
X019672Y011768D01*
X019422Y012018D01*
X019422Y012518D01*
X019672Y012768D01*
X019009Y012518D02*
X019009Y012018D01*
X018759Y011768D01*
X017259Y011768D01*
X017009Y012018D01*
X017009Y012518D01*
X017259Y012768D01*
X017259Y011768D02*
X017009Y011518D01*
X017009Y011018D01*
X017259Y010768D01*
X018759Y010768D01*
X019009Y011018D01*
X019009Y011518D01*
X018759Y011768D01*
X019422Y011518D02*
X019422Y011018D01*
X019672Y010768D01*
X021172Y010768D01*
X021422Y011018D01*
X021422Y011518D01*
X021172Y011768D01*
X019672Y011768D02*
X019422Y011518D01*
X019009Y012518D02*
X018759Y012768D01*
X019422Y013518D02*
X019672Y013768D01*
X019009Y014518D02*
X018759Y014768D01*
X019422Y015518D02*
X019672Y015768D01*
X019009Y016518D02*
X018759Y016768D01*
X019422Y017518D02*
X019672Y017768D01*
X019672Y018768D02*
X019422Y019018D01*
X019422Y019518D01*
X019672Y019768D01*
X021172Y019768D01*
X021422Y019518D01*
X021422Y019018D01*
X021172Y018768D01*
X021172Y019768D02*
X021422Y020018D01*
X021422Y020518D01*
X021172Y020768D01*
X019672Y020768D01*
X019422Y021018D01*
X019422Y021518D01*
X019672Y021768D01*
X021172Y021768D01*
X021422Y021518D01*
X021422Y021018D01*
X021172Y020768D01*
X021172Y021768D02*
X021422Y022018D01*
X021422Y022518D01*
X021172Y022768D01*
X019672Y022768D01*
X019422Y023018D01*
X019422Y023518D01*
X019672Y023768D01*
X019422Y024018D01*
X019422Y024518D01*
X019672Y024768D01*
X021172Y024768D01*
X021422Y024518D01*
X021422Y024018D01*
X021172Y023768D01*
X019672Y023768D01*
X019009Y023518D02*
X019009Y023018D01*
X018759Y022768D01*
X019422Y022518D02*
X019422Y022018D01*
X019672Y021768D01*
X019009Y021518D02*
X019009Y021018D01*
X018759Y020768D01*
X019422Y020518D02*
X019422Y020018D01*
X019672Y019768D01*
X019009Y019518D02*
X019009Y019018D01*
X018759Y018768D01*
X019009Y019518D02*
X018759Y019768D01*
X019422Y020518D02*
X019672Y020768D01*
X019009Y021518D02*
X018759Y021768D01*
X019422Y022518D02*
X019672Y022768D01*
X019009Y023518D02*
X018759Y023768D01*
X021172Y023768D02*
X021422Y023518D01*
X021422Y023018D01*
X021172Y022768D01*
X018863Y027320D02*
X018865Y027383D01*
X018871Y027445D01*
X018881Y027507D01*
X018894Y027569D01*
X018912Y027629D01*
X018933Y027688D01*
X018958Y027746D01*
X018987Y027802D01*
X019019Y027856D01*
X019054Y027908D01*
X019092Y027957D01*
X019134Y028005D01*
X019178Y028049D01*
X019226Y028091D01*
X019275Y028129D01*
X019327Y028164D01*
X019381Y028196D01*
X019437Y028225D01*
X019495Y028250D01*
X019554Y028271D01*
X019614Y028289D01*
X019676Y028302D01*
X019738Y028312D01*
X019800Y028318D01*
X019863Y028320D01*
X019926Y028318D01*
X019988Y028312D01*
X020050Y028302D01*
X020112Y028289D01*
X020172Y028271D01*
X020231Y028250D01*
X020289Y028225D01*
X020345Y028196D01*
X020399Y028164D01*
X020451Y028129D01*
X020500Y028091D01*
X020548Y028049D01*
X020592Y028005D01*
X020634Y027957D01*
X020672Y027908D01*
X020707Y027856D01*
X020739Y027802D01*
X020768Y027746D01*
X020793Y027688D01*
X020814Y027629D01*
X020832Y027569D01*
X020845Y027507D01*
X020855Y027445D01*
X020861Y027383D01*
X020863Y027320D01*
X020861Y027257D01*
X020855Y027195D01*
X020845Y027133D01*
X020832Y027071D01*
X020814Y027011D01*
X020793Y026952D01*
X020768Y026894D01*
X020739Y026838D01*
X020707Y026784D01*
X020672Y026732D01*
X020634Y026683D01*
X020592Y026635D01*
X020548Y026591D01*
X020500Y026549D01*
X020451Y026511D01*
X020399Y026476D01*
X020345Y026444D01*
X020289Y026415D01*
X020231Y026390D01*
X020172Y026369D01*
X020112Y026351D01*
X020050Y026338D01*
X019988Y026328D01*
X019926Y026322D01*
X019863Y026320D01*
X019800Y026322D01*
X019738Y026328D01*
X019676Y026338D01*
X019614Y026351D01*
X019554Y026369D01*
X019495Y026390D01*
X019437Y026415D01*
X019381Y026444D01*
X019327Y026476D01*
X019275Y026511D01*
X019226Y026549D01*
X019178Y026591D01*
X019134Y026635D01*
X019092Y026683D01*
X019054Y026732D01*
X019019Y026784D01*
X018987Y026838D01*
X018958Y026894D01*
X018933Y026952D01*
X018912Y027011D01*
X018894Y027071D01*
X018881Y027133D01*
X018871Y027195D01*
X018865Y027257D01*
X018863Y027320D01*
X018851Y030568D02*
X018853Y030631D01*
X018859Y030693D01*
X018869Y030755D01*
X018882Y030817D01*
X018900Y030877D01*
X018921Y030936D01*
X018946Y030994D01*
X018975Y031050D01*
X019007Y031104D01*
X019042Y031156D01*
X019080Y031205D01*
X019122Y031253D01*
X019166Y031297D01*
X019214Y031339D01*
X019263Y031377D01*
X019315Y031412D01*
X019369Y031444D01*
X019425Y031473D01*
X019483Y031498D01*
X019542Y031519D01*
X019602Y031537D01*
X019664Y031550D01*
X019726Y031560D01*
X019788Y031566D01*
X019851Y031568D01*
X019914Y031566D01*
X019976Y031560D01*
X020038Y031550D01*
X020100Y031537D01*
X020160Y031519D01*
X020219Y031498D01*
X020277Y031473D01*
X020333Y031444D01*
X020387Y031412D01*
X020439Y031377D01*
X020488Y031339D01*
X020536Y031297D01*
X020580Y031253D01*
X020622Y031205D01*
X020660Y031156D01*
X020695Y031104D01*
X020727Y031050D01*
X020756Y030994D01*
X020781Y030936D01*
X020802Y030877D01*
X020820Y030817D01*
X020833Y030755D01*
X020843Y030693D01*
X020849Y030631D01*
X020851Y030568D01*
X020849Y030505D01*
X020843Y030443D01*
X020833Y030381D01*
X020820Y030319D01*
X020802Y030259D01*
X020781Y030200D01*
X020756Y030142D01*
X020727Y030086D01*
X020695Y030032D01*
X020660Y029980D01*
X020622Y029931D01*
X020580Y029883D01*
X020536Y029839D01*
X020488Y029797D01*
X020439Y029759D01*
X020387Y029724D01*
X020333Y029692D01*
X020277Y029663D01*
X020219Y029638D01*
X020160Y029617D01*
X020100Y029599D01*
X020038Y029586D01*
X019976Y029576D01*
X019914Y029570D01*
X019851Y029568D01*
X019788Y029570D01*
X019726Y029576D01*
X019664Y029586D01*
X019602Y029599D01*
X019542Y029617D01*
X019483Y029638D01*
X019425Y029663D01*
X019369Y029692D01*
X019315Y029724D01*
X019263Y029759D01*
X019214Y029797D01*
X019166Y029839D01*
X019122Y029883D01*
X019080Y029931D01*
X019042Y029980D01*
X019007Y030032D01*
X018975Y030086D01*
X018946Y030142D01*
X018921Y030200D01*
X018900Y030259D01*
X018882Y030319D01*
X018869Y030381D01*
X018859Y030443D01*
X018853Y030505D01*
X018851Y030568D01*
X018847Y034012D02*
X018849Y034075D01*
X018855Y034137D01*
X018865Y034199D01*
X018878Y034261D01*
X018896Y034321D01*
X018917Y034380D01*
X018942Y034438D01*
X018971Y034494D01*
X019003Y034548D01*
X019038Y034600D01*
X019076Y034649D01*
X019118Y034697D01*
X019162Y034741D01*
X019210Y034783D01*
X019259Y034821D01*
X019311Y034856D01*
X019365Y034888D01*
X019421Y034917D01*
X019479Y034942D01*
X019538Y034963D01*
X019598Y034981D01*
X019660Y034994D01*
X019722Y035004D01*
X019784Y035010D01*
X019847Y035012D01*
X019910Y035010D01*
X019972Y035004D01*
X020034Y034994D01*
X020096Y034981D01*
X020156Y034963D01*
X020215Y034942D01*
X020273Y034917D01*
X020329Y034888D01*
X020383Y034856D01*
X020435Y034821D01*
X020484Y034783D01*
X020532Y034741D01*
X020576Y034697D01*
X020618Y034649D01*
X020656Y034600D01*
X020691Y034548D01*
X020723Y034494D01*
X020752Y034438D01*
X020777Y034380D01*
X020798Y034321D01*
X020816Y034261D01*
X020829Y034199D01*
X020839Y034137D01*
X020845Y034075D01*
X020847Y034012D01*
X020845Y033949D01*
X020839Y033887D01*
X020829Y033825D01*
X020816Y033763D01*
X020798Y033703D01*
X020777Y033644D01*
X020752Y033586D01*
X020723Y033530D01*
X020691Y033476D01*
X020656Y033424D01*
X020618Y033375D01*
X020576Y033327D01*
X020532Y033283D01*
X020484Y033241D01*
X020435Y033203D01*
X020383Y033168D01*
X020329Y033136D01*
X020273Y033107D01*
X020215Y033082D01*
X020156Y033061D01*
X020096Y033043D01*
X020034Y033030D01*
X019972Y033020D01*
X019910Y033014D01*
X019847Y033012D01*
X019784Y033014D01*
X019722Y033020D01*
X019660Y033030D01*
X019598Y033043D01*
X019538Y033061D01*
X019479Y033082D01*
X019421Y033107D01*
X019365Y033136D01*
X019311Y033168D01*
X019259Y033203D01*
X019210Y033241D01*
X019162Y033283D01*
X019118Y033327D01*
X019076Y033375D01*
X019038Y033424D01*
X019003Y033476D01*
X018971Y033530D01*
X018942Y033586D01*
X018917Y033644D01*
X018896Y033703D01*
X018878Y033763D01*
X018865Y033825D01*
X018855Y033887D01*
X018849Y033949D01*
X018847Y034012D01*
X013497Y034615D02*
X013497Y020615D01*
X011497Y020615D01*
X011497Y034565D01*
X011497Y034615D02*
X011997Y034615D01*
X011999Y034571D01*
X012005Y034528D01*
X012014Y034486D01*
X012027Y034444D01*
X012044Y034404D01*
X012064Y034365D01*
X012087Y034328D01*
X012114Y034294D01*
X012143Y034261D01*
X012176Y034232D01*
X012210Y034205D01*
X012247Y034182D01*
X012286Y034162D01*
X012326Y034145D01*
X012368Y034132D01*
X012410Y034123D01*
X012453Y034117D01*
X012497Y034115D01*
X012541Y034117D01*
X012584Y034123D01*
X012626Y034132D01*
X012668Y034145D01*
X012708Y034162D01*
X012747Y034182D01*
X012784Y034205D01*
X012818Y034232D01*
X012851Y034261D01*
X012880Y034294D01*
X012907Y034328D01*
X012930Y034365D01*
X012950Y034404D01*
X012967Y034444D01*
X012980Y034486D01*
X012989Y034528D01*
X012995Y034571D01*
X012997Y034615D01*
X013497Y034615D01*
X009172Y027158D02*
X008672Y027158D01*
X008422Y026908D01*
X008422Y026408D01*
X008672Y026158D01*
X008422Y025908D01*
X008422Y025408D01*
X008672Y025158D01*
X008422Y024908D01*
X008422Y024408D01*
X008672Y024158D01*
X009172Y024158D01*
X009422Y024408D01*
X009422Y024908D01*
X009172Y025158D01*
X008672Y025158D01*
X009172Y025158D02*
X009422Y025408D01*
X009422Y025908D01*
X009172Y026158D01*
X008672Y026158D01*
X009172Y026158D02*
X009422Y026408D01*
X009422Y026908D01*
X009172Y027158D01*
X012079Y018701D02*
X012829Y018701D01*
X012831Y018662D01*
X012837Y018623D01*
X012846Y018585D01*
X012859Y018548D01*
X012876Y018512D01*
X012896Y018479D01*
X012920Y018447D01*
X012946Y018418D01*
X012975Y018392D01*
X013007Y018368D01*
X013040Y018348D01*
X013076Y018331D01*
X013113Y018318D01*
X013151Y018309D01*
X013190Y018303D01*
X013229Y018301D01*
X013268Y018303D01*
X013307Y018309D01*
X013345Y018318D01*
X013382Y018331D01*
X013418Y018348D01*
X013451Y018368D01*
X013483Y018392D01*
X013512Y018418D01*
X013538Y018447D01*
X013562Y018479D01*
X013582Y018512D01*
X013599Y018548D01*
X013612Y018585D01*
X013621Y018623D01*
X013627Y018662D01*
X013629Y018701D01*
X014379Y018701D01*
X014379Y008701D01*
X012079Y008701D01*
X012079Y018701D01*
X010617Y014930D02*
X010117Y014930D01*
X009867Y014680D01*
X009867Y014180D01*
X010117Y013930D01*
X009867Y013680D01*
X009867Y013180D01*
X010117Y012930D01*
X010617Y012930D01*
X010867Y013180D01*
X010867Y013680D01*
X010617Y013930D01*
X010117Y013930D01*
X010617Y013930D02*
X010867Y014180D01*
X010867Y014680D01*
X010617Y014930D01*
X010617Y012930D02*
X010867Y012680D01*
X010867Y012180D01*
X010617Y011930D01*
X010867Y011680D01*
X010867Y011180D01*
X010617Y010930D01*
X010867Y010680D01*
X010867Y010180D01*
X010617Y009930D01*
X010867Y009680D01*
X010867Y009180D01*
X010617Y008930D01*
X010117Y008930D01*
X009867Y009180D01*
X009867Y009680D01*
X010117Y009930D01*
X009867Y010180D01*
X009867Y010680D01*
X010117Y010930D01*
X009867Y011180D01*
X009867Y011680D01*
X010117Y011930D01*
X009867Y012180D01*
X009867Y012680D01*
X010117Y012930D01*
X010117Y011930D02*
X010617Y011930D01*
X010617Y010930D02*
X010117Y010930D01*
X010117Y009930D02*
X010617Y009930D01*
D20*
X015983Y007936D02*
X021488Y007936D01*
X021488Y007901D02*
X021488Y002801D01*
X021488Y002766D02*
X015983Y002766D01*
X015978Y002791D02*
X015978Y007911D01*
X018438Y007351D02*
X020938Y007101D01*
X020938Y005851D01*
X018438Y005601D01*
X018438Y005101D02*
X020938Y004851D01*
X020938Y003601D01*
X018438Y003351D01*
X016504Y023327D02*
X015104Y023327D01*
X014804Y023627D01*
X014804Y024127D01*
X015004Y024327D01*
X014804Y024527D01*
X014804Y025127D01*
X015004Y025327D01*
X014804Y025527D01*
X014804Y026027D01*
X015104Y026327D01*
X016504Y026327D01*
X016804Y026027D01*
X016804Y025527D01*
X016604Y025327D01*
X016804Y025127D01*
X016804Y024527D01*
X016604Y024327D01*
X016804Y024127D01*
X016804Y023627D01*
X016504Y023327D01*
X016080Y026552D02*
X015080Y026552D01*
X015080Y034552D01*
X016080Y034552D01*
X016080Y026552D01*
D21*
X017438Y026469D02*
X017438Y028949D01*
X018383Y028949D01*
X018383Y026469D01*
X017438Y026469D01*
X020863Y026570D02*
X020863Y028070D01*
X020851Y029818D02*
X020851Y031318D01*
X020847Y033262D02*
X020847Y034762D01*
X018658Y035505D02*
X016178Y035505D01*
X016178Y036449D01*
X018658Y036449D01*
X018658Y035505D01*
X018383Y033969D02*
X017438Y033969D01*
X017438Y031489D01*
X018383Y031489D01*
X018383Y033969D01*
X010263Y028005D02*
X009763Y028005D01*
X009424Y028324D02*
X009424Y031024D01*
X009711Y030631D02*
X010211Y030631D01*
X009731Y032414D02*
X009231Y032414D01*
X008981Y032664D01*
X008981Y033164D01*
X009231Y033414D01*
X008981Y033664D01*
X008981Y034164D01*
X009231Y034414D01*
X009731Y034414D01*
X009981Y034164D01*
X009981Y033664D01*
X009731Y033414D01*
X009981Y033164D01*
X009981Y032664D01*
X009731Y032414D01*
X009424Y031024D02*
X009422Y031083D01*
X009416Y031141D01*
X009407Y031200D01*
X009393Y031257D01*
X009376Y031313D01*
X009355Y031368D01*
X009331Y031422D01*
X009303Y031474D01*
X009272Y031524D01*
X009238Y031572D01*
X009201Y031617D01*
X009160Y031660D01*
X009117Y031701D01*
X009072Y031738D01*
X009024Y031772D01*
X008974Y031803D01*
X008922Y031831D01*
X008868Y031855D01*
X008813Y031876D01*
X008757Y031893D01*
X008700Y031907D01*
X008641Y031916D01*
X008583Y031922D01*
X008524Y031924D01*
X008465Y031922D01*
X008407Y031916D01*
X008348Y031907D01*
X008291Y031893D01*
X008235Y031876D01*
X008180Y031855D01*
X008126Y031831D01*
X008074Y031803D01*
X008024Y031772D01*
X007976Y031738D01*
X007931Y031701D01*
X007888Y031660D01*
X007847Y031617D01*
X007810Y031572D01*
X007776Y031524D01*
X007745Y031474D01*
X007717Y031422D01*
X007693Y031368D01*
X007672Y031313D01*
X007655Y031257D01*
X007641Y031200D01*
X007632Y031141D01*
X007626Y031083D01*
X007624Y031024D01*
X007624Y028324D01*
X007359Y029225D02*
X006414Y029225D01*
X006414Y031705D01*
X007359Y031705D01*
X007359Y029225D01*
X006080Y029225D02*
X005135Y029225D01*
X005135Y031705D01*
X006080Y031705D01*
X006080Y029225D01*
X004048Y028111D02*
X001607Y028111D01*
X001607Y030867D01*
X004048Y030867D01*
X004048Y028111D01*
X004048Y027761D02*
X001607Y027761D01*
X001607Y025005D01*
X001292Y025005D01*
X001292Y027761D01*
X001607Y027761D01*
X001607Y028111D02*
X001292Y028111D01*
X001292Y030867D01*
X001607Y030867D01*
X001607Y031217D02*
X001292Y031217D01*
X001292Y033973D01*
X001607Y033973D01*
X001607Y031217D01*
X004048Y031217D01*
X004048Y033973D01*
X001607Y033973D01*
X003186Y035664D02*
X003186Y036164D01*
X003436Y036414D01*
X003936Y036414D01*
X004186Y036164D01*
X004436Y036414D01*
X004936Y036414D01*
X005186Y036164D01*
X005186Y035664D01*
X004936Y035414D01*
X004436Y035414D01*
X004186Y035664D01*
X003936Y035414D01*
X003436Y035414D01*
X003186Y035664D01*
X005253Y034678D02*
X005253Y033733D01*
X007733Y033733D01*
X007733Y034678D01*
X005253Y034678D01*
X005743Y035442D02*
X005493Y035692D01*
X005493Y036192D01*
X005743Y036442D01*
X006243Y036442D01*
X006493Y036192D01*
X006743Y036442D01*
X007243Y036442D01*
X007493Y036192D01*
X007493Y035692D01*
X007243Y035442D01*
X006743Y035442D01*
X006493Y035692D01*
X006243Y035442D01*
X005743Y035442D01*
X007812Y035692D02*
X007812Y036192D01*
X008062Y036442D01*
X008562Y036442D01*
X008812Y036192D01*
X009062Y036442D01*
X009562Y036442D01*
X009812Y036192D01*
X009812Y035692D01*
X009562Y035442D01*
X009062Y035442D01*
X008812Y035692D01*
X008562Y035442D01*
X008062Y035442D01*
X007812Y035692D01*
X007624Y028324D02*
X007626Y028265D01*
X007632Y028207D01*
X007641Y028148D01*
X007655Y028091D01*
X007672Y028035D01*
X007693Y027980D01*
X007717Y027926D01*
X007745Y027874D01*
X007776Y027824D01*
X007810Y027776D01*
X007847Y027731D01*
X007888Y027688D01*
X007931Y027647D01*
X007976Y027610D01*
X008024Y027576D01*
X008074Y027545D01*
X008126Y027517D01*
X008180Y027493D01*
X008235Y027472D01*
X008291Y027455D01*
X008348Y027441D01*
X008407Y027432D01*
X008465Y027426D01*
X008524Y027424D01*
X008583Y027426D01*
X008641Y027432D01*
X008700Y027441D01*
X008757Y027455D01*
X008813Y027472D01*
X008868Y027493D01*
X008922Y027517D01*
X008974Y027545D01*
X009024Y027576D01*
X009072Y027610D01*
X009117Y027647D01*
X009160Y027688D01*
X009201Y027731D01*
X009238Y027776D01*
X009272Y027824D01*
X009303Y027874D01*
X009331Y027926D01*
X009355Y027980D01*
X009376Y028035D01*
X009393Y028091D01*
X009407Y028148D01*
X009416Y028207D01*
X009422Y028265D01*
X009424Y028324D01*
X005438Y024359D02*
X005440Y024421D01*
X005446Y024484D01*
X005456Y024545D01*
X005470Y024606D01*
X005487Y024666D01*
X005508Y024725D01*
X005534Y024782D01*
X005562Y024837D01*
X005594Y024891D01*
X005630Y024942D01*
X005668Y024992D01*
X005710Y025038D01*
X005754Y025082D01*
X005802Y025123D01*
X005851Y025161D01*
X005903Y025195D01*
X005957Y025226D01*
X006013Y025254D01*
X006071Y025278D01*
X006130Y025299D01*
X006190Y025315D01*
X006251Y025328D01*
X006313Y025337D01*
X006375Y025342D01*
X006438Y025343D01*
X006500Y025340D01*
X006562Y025333D01*
X006624Y025322D01*
X006684Y025307D01*
X006744Y025289D01*
X006802Y025267D01*
X006859Y025241D01*
X006914Y025211D01*
X006967Y025178D01*
X007018Y025142D01*
X007066Y025103D01*
X007112Y025060D01*
X007155Y025015D01*
X007195Y024967D01*
X007232Y024917D01*
X007266Y024864D01*
X007297Y024810D01*
X007323Y024754D01*
X007347Y024696D01*
X007366Y024636D01*
X007382Y024576D01*
X007394Y024514D01*
X007402Y024453D01*
X007406Y024390D01*
X007406Y024328D01*
X007402Y024265D01*
X007394Y024204D01*
X007382Y024142D01*
X007366Y024082D01*
X007347Y024022D01*
X007323Y023964D01*
X007297Y023908D01*
X007266Y023854D01*
X007232Y023801D01*
X007195Y023751D01*
X007155Y023703D01*
X007112Y023658D01*
X007066Y023615D01*
X007018Y023576D01*
X006967Y023540D01*
X006914Y023507D01*
X006859Y023477D01*
X006802Y023451D01*
X006744Y023429D01*
X006684Y023411D01*
X006624Y023396D01*
X006562Y023385D01*
X006500Y023378D01*
X006438Y023375D01*
X006375Y023376D01*
X006313Y023381D01*
X006251Y023390D01*
X006190Y023403D01*
X006130Y023419D01*
X006071Y023440D01*
X006013Y023464D01*
X005957Y023492D01*
X005903Y023523D01*
X005851Y023557D01*
X005802Y023595D01*
X005754Y023636D01*
X005710Y023680D01*
X005668Y023726D01*
X005630Y023776D01*
X005594Y023827D01*
X005562Y023881D01*
X005534Y023936D01*
X005508Y023993D01*
X005487Y024052D01*
X005470Y024112D01*
X005456Y024173D01*
X005446Y024234D01*
X005440Y024297D01*
X005438Y024359D01*
X005722Y024909D02*
X006122Y024909D01*
X004048Y025005D02*
X004048Y027761D01*
X004048Y025005D02*
X001607Y025005D01*
X009662Y018713D02*
X009662Y016233D01*
X010607Y016233D01*
X010607Y018713D01*
X009662Y018713D01*
X012924Y003410D02*
X013424Y003410D01*
X012394Y002910D02*
X012396Y002981D01*
X012402Y003052D01*
X012412Y003123D01*
X012426Y003192D01*
X012443Y003261D01*
X012465Y003329D01*
X012490Y003396D01*
X012519Y003461D01*
X012551Y003524D01*
X012587Y003586D01*
X012626Y003645D01*
X012669Y003702D01*
X012714Y003757D01*
X012763Y003809D01*
X012814Y003858D01*
X012868Y003904D01*
X012925Y003948D01*
X012983Y003988D01*
X013044Y004024D01*
X013107Y004058D01*
X013172Y004087D01*
X013238Y004113D01*
X013306Y004136D01*
X013374Y004154D01*
X013444Y004169D01*
X013514Y004180D01*
X013585Y004187D01*
X013656Y004190D01*
X013727Y004189D01*
X013798Y004184D01*
X013869Y004175D01*
X013939Y004162D01*
X014008Y004146D01*
X014076Y004125D01*
X014143Y004101D01*
X014209Y004073D01*
X014272Y004041D01*
X014334Y004006D01*
X014394Y003968D01*
X014452Y003926D01*
X014507Y003882D01*
X014560Y003834D01*
X014610Y003783D01*
X014657Y003730D01*
X014701Y003674D01*
X014742Y003616D01*
X014780Y003555D01*
X014814Y003493D01*
X014844Y003428D01*
X014871Y003363D01*
X014895Y003295D01*
X014914Y003227D01*
X014930Y003158D01*
X014942Y003087D01*
X014950Y003017D01*
X014954Y002946D01*
X014954Y002874D01*
X014950Y002803D01*
X014942Y002733D01*
X014930Y002662D01*
X014914Y002593D01*
X014895Y002525D01*
X014871Y002457D01*
X014844Y002392D01*
X014814Y002327D01*
X014780Y002265D01*
X014742Y002204D01*
X014701Y002146D01*
X014657Y002090D01*
X014610Y002037D01*
X014560Y001986D01*
X014507Y001938D01*
X014452Y001894D01*
X014394Y001852D01*
X014334Y001814D01*
X014272Y001779D01*
X014209Y001747D01*
X014143Y001719D01*
X014076Y001695D01*
X014008Y001674D01*
X013939Y001658D01*
X013869Y001645D01*
X013798Y001636D01*
X013727Y001631D01*
X013656Y001630D01*
X013585Y001633D01*
X013514Y001640D01*
X013444Y001651D01*
X013374Y001666D01*
X013306Y001684D01*
X013238Y001707D01*
X013172Y001733D01*
X013107Y001762D01*
X013044Y001796D01*
X012983Y001832D01*
X012925Y001872D01*
X012868Y001916D01*
X012814Y001962D01*
X012763Y002011D01*
X012714Y002063D01*
X012669Y002118D01*
X012626Y002175D01*
X012587Y002234D01*
X012551Y002296D01*
X012519Y002359D01*
X012490Y002424D01*
X012465Y002491D01*
X012443Y002559D01*
X012426Y002628D01*
X012412Y002697D01*
X012402Y002768D01*
X012396Y002839D01*
X012394Y002910D01*
D22*
X020895Y028100D02*
X020823Y028046D01*
X020824Y028047D02*
X020781Y028100D01*
X020736Y028151D01*
X020687Y028199D01*
X020636Y028244D01*
X020582Y028287D01*
X020526Y028326D01*
X020468Y028362D01*
X020408Y028395D01*
X020347Y028424D01*
X020283Y028449D01*
X020219Y028471D01*
X020153Y028490D01*
X020086Y028504D01*
X020019Y028515D01*
X019951Y028522D01*
X019883Y028525D01*
X019814Y028524D01*
X019746Y028519D01*
X019678Y028511D01*
X019611Y028498D01*
X019545Y028482D01*
X019480Y028462D01*
X019415Y028439D01*
X019353Y028412D01*
X019292Y028381D01*
X019233Y028347D01*
X019175Y028310D01*
X019120Y028269D01*
X019068Y028225D01*
X019018Y028179D01*
X018971Y028130D01*
X018926Y028078D01*
X018885Y028024D01*
X018846Y027967D01*
X018811Y027908D01*
X018780Y027848D01*
X018752Y027786D01*
X018727Y027722D01*
X018706Y027657D01*
X018689Y027591D01*
X018675Y027524D01*
X018666Y027456D01*
X018660Y027388D01*
X018658Y027320D01*
X018660Y027252D01*
X018666Y027184D01*
X018675Y027116D01*
X018689Y027049D01*
X018706Y026983D01*
X018727Y026918D01*
X018752Y026854D01*
X018780Y026792D01*
X018811Y026732D01*
X018846Y026673D01*
X018885Y026616D01*
X018926Y026562D01*
X018971Y026510D01*
X019018Y026461D01*
X019068Y026415D01*
X019120Y026371D01*
X019175Y026330D01*
X019233Y026293D01*
X019292Y026259D01*
X019353Y026228D01*
X019415Y026201D01*
X019480Y026178D01*
X019545Y026158D01*
X019611Y026142D01*
X019678Y026129D01*
X019746Y026121D01*
X019814Y026116D01*
X019883Y026115D01*
X019951Y026118D01*
X020019Y026125D01*
X020086Y026136D01*
X020153Y026150D01*
X020219Y026169D01*
X020283Y026191D01*
X020347Y026216D01*
X020408Y026245D01*
X020468Y026278D01*
X020526Y026314D01*
X020582Y026353D01*
X020636Y026396D01*
X020687Y026441D01*
X020736Y026489D01*
X020781Y026540D01*
X020824Y026593D01*
X020895Y026540D01*
X020896Y026539D01*
X020852Y026484D01*
X020804Y026431D01*
X020754Y026380D01*
X020701Y026333D01*
X020646Y026289D01*
X020588Y026247D01*
X020528Y026209D01*
X020467Y026174D01*
X020403Y026143D01*
X020338Y026115D01*
X020271Y026091D01*
X020203Y026070D01*
X020134Y026054D01*
X020064Y026041D01*
X019994Y026032D01*
X019923Y026026D01*
X019852Y026025D01*
X019781Y026028D01*
X019710Y026034D01*
X019640Y026044D01*
X019571Y026058D01*
X019502Y026076D01*
X019434Y026098D01*
X019368Y026123D01*
X019303Y026152D01*
X019240Y026185D01*
X019179Y026221D01*
X019120Y026260D01*
X019063Y026302D01*
X019008Y026347D01*
X018956Y026396D01*
X018907Y026447D01*
X018860Y026500D01*
X018817Y026557D01*
X018777Y026615D01*
X018740Y026676D01*
X018706Y026738D01*
X018676Y026802D01*
X018649Y026868D01*
X018626Y026935D01*
X018607Y027004D01*
X018592Y027073D01*
X018580Y027143D01*
X018572Y027214D01*
X018568Y027285D01*
X018568Y027355D01*
X018572Y027426D01*
X018580Y027497D01*
X018592Y027567D01*
X018607Y027636D01*
X018626Y027705D01*
X018649Y027772D01*
X018676Y027838D01*
X018706Y027902D01*
X018740Y027964D01*
X018777Y028025D01*
X018817Y028083D01*
X018860Y028140D01*
X018907Y028193D01*
X018956Y028244D01*
X019008Y028293D01*
X019063Y028338D01*
X019120Y028380D01*
X019179Y028419D01*
X019240Y028455D01*
X019303Y028488D01*
X019368Y028517D01*
X019434Y028542D01*
X019502Y028564D01*
X019571Y028582D01*
X019640Y028596D01*
X019710Y028606D01*
X019781Y028612D01*
X019852Y028615D01*
X019923Y028614D01*
X019994Y028608D01*
X020064Y028599D01*
X020134Y028586D01*
X020203Y028570D01*
X020271Y028549D01*
X020338Y028525D01*
X020403Y028497D01*
X020467Y028466D01*
X020528Y028431D01*
X020588Y028393D01*
X020646Y028351D01*
X020701Y028307D01*
X020754Y028260D01*
X020804Y028209D01*
X020852Y028156D01*
X020896Y028101D01*
X020889Y028096D01*
X020844Y028151D01*
X020797Y028204D01*
X020746Y028255D01*
X020693Y028302D01*
X020637Y028347D01*
X020579Y028388D01*
X020519Y028426D01*
X020457Y028461D01*
X020393Y028492D01*
X020327Y028519D01*
X020260Y028543D01*
X020191Y028563D01*
X020122Y028580D01*
X020052Y028592D01*
X019981Y028601D01*
X019910Y028605D01*
X019839Y028606D01*
X019768Y028602D01*
X019697Y028595D01*
X019626Y028584D01*
X019557Y028569D01*
X019488Y028550D01*
X019420Y028527D01*
X019354Y028501D01*
X019289Y028471D01*
X019227Y028437D01*
X019166Y028401D01*
X019107Y028360D01*
X019050Y028317D01*
X018996Y028270D01*
X018945Y028221D01*
X018897Y028168D01*
X018851Y028114D01*
X018809Y028056D01*
X018770Y027997D01*
X018734Y027935D01*
X018701Y027872D01*
X018673Y027807D01*
X018647Y027740D01*
X018626Y027672D01*
X018608Y027603D01*
X018595Y027533D01*
X018585Y027462D01*
X018579Y027391D01*
X018577Y027320D01*
X018579Y027249D01*
X018585Y027178D01*
X018595Y027107D01*
X018608Y027037D01*
X018626Y026968D01*
X018647Y026900D01*
X018673Y026833D01*
X018701Y026768D01*
X018734Y026705D01*
X018770Y026643D01*
X018809Y026584D01*
X018851Y026526D01*
X018897Y026472D01*
X018945Y026419D01*
X018996Y026370D01*
X019050Y026323D01*
X019107Y026280D01*
X019166Y026239D01*
X019227Y026203D01*
X019289Y026169D01*
X019354Y026139D01*
X019420Y026113D01*
X019488Y026090D01*
X019557Y026071D01*
X019626Y026056D01*
X019697Y026045D01*
X019768Y026038D01*
X019839Y026034D01*
X019910Y026035D01*
X019981Y026039D01*
X020052Y026048D01*
X020122Y026060D01*
X020191Y026077D01*
X020260Y026097D01*
X020327Y026121D01*
X020393Y026148D01*
X020457Y026179D01*
X020519Y026214D01*
X020579Y026252D01*
X020637Y026293D01*
X020693Y026338D01*
X020746Y026385D01*
X020797Y026436D01*
X020844Y026489D01*
X020889Y026544D01*
X020882Y026550D01*
X020837Y026495D01*
X020790Y026442D01*
X020740Y026392D01*
X020687Y026345D01*
X020632Y026301D01*
X020574Y026259D01*
X020515Y026222D01*
X020453Y026187D01*
X020389Y026156D01*
X020324Y026129D01*
X020257Y026105D01*
X020189Y026085D01*
X020120Y026069D01*
X020051Y026057D01*
X019980Y026048D01*
X019910Y026044D01*
X019839Y026043D01*
X019768Y026047D01*
X019698Y026054D01*
X019628Y026065D01*
X019559Y026080D01*
X019491Y026099D01*
X019423Y026121D01*
X019358Y026147D01*
X019293Y026177D01*
X019231Y026210D01*
X019171Y026247D01*
X019112Y026287D01*
X019056Y026330D01*
X019002Y026376D01*
X018952Y026426D01*
X018903Y026477D01*
X018858Y026532D01*
X018816Y026589D01*
X018777Y026648D01*
X018742Y026709D01*
X018709Y026772D01*
X018681Y026837D01*
X018656Y026903D01*
X018635Y026971D01*
X018617Y027039D01*
X018604Y027109D01*
X018594Y027179D01*
X018588Y027249D01*
X018586Y027320D01*
X018588Y027391D01*
X018594Y027461D01*
X018604Y027531D01*
X018617Y027601D01*
X018635Y027669D01*
X018656Y027737D01*
X018681Y027803D01*
X018709Y027868D01*
X018742Y027931D01*
X018777Y027992D01*
X018816Y028051D01*
X018858Y028108D01*
X018903Y028163D01*
X018952Y028214D01*
X019002Y028264D01*
X019056Y028310D01*
X019112Y028353D01*
X019171Y028393D01*
X019231Y028430D01*
X019293Y028463D01*
X019358Y028493D01*
X019423Y028519D01*
X019491Y028541D01*
X019559Y028560D01*
X019628Y028575D01*
X019698Y028586D01*
X019768Y028593D01*
X019839Y028597D01*
X019910Y028596D01*
X019980Y028592D01*
X020051Y028583D01*
X020120Y028571D01*
X020189Y028555D01*
X020257Y028535D01*
X020324Y028511D01*
X020389Y028484D01*
X020453Y028453D01*
X020515Y028418D01*
X020574Y028381D01*
X020632Y028339D01*
X020687Y028295D01*
X020740Y028248D01*
X020790Y028198D01*
X020837Y028145D01*
X020882Y028090D01*
X020874Y028085D01*
X020830Y028140D01*
X020782Y028193D01*
X020732Y028243D01*
X020679Y028291D01*
X020623Y028335D01*
X020565Y028376D01*
X020505Y028413D01*
X020443Y028448D01*
X020379Y028478D01*
X020313Y028505D01*
X020246Y028529D01*
X020178Y028548D01*
X020108Y028564D01*
X020038Y028576D01*
X019968Y028584D01*
X019897Y028588D01*
X019826Y028587D01*
X019755Y028583D01*
X019684Y028575D01*
X019614Y028563D01*
X019545Y028547D01*
X019477Y028528D01*
X019409Y028504D01*
X019344Y028477D01*
X019280Y028446D01*
X019218Y028412D01*
X019158Y028374D01*
X019100Y028332D01*
X019044Y028288D01*
X018991Y028241D01*
X018941Y028190D01*
X018894Y028137D01*
X018849Y028082D01*
X018808Y028024D01*
X018771Y027964D01*
X018736Y027901D01*
X018705Y027837D01*
X018678Y027772D01*
X018655Y027705D01*
X018635Y027636D01*
X018619Y027567D01*
X018607Y027497D01*
X018599Y027426D01*
X018595Y027356D01*
X018595Y027284D01*
X018599Y027214D01*
X018607Y027143D01*
X018619Y027073D01*
X018635Y027004D01*
X018655Y026935D01*
X018678Y026868D01*
X018705Y026803D01*
X018736Y026739D01*
X018771Y026676D01*
X018808Y026616D01*
X018849Y026558D01*
X018894Y026503D01*
X018941Y026450D01*
X018991Y026399D01*
X019044Y026352D01*
X019100Y026308D01*
X019158Y026266D01*
X019218Y026228D01*
X019280Y026194D01*
X019344Y026163D01*
X019409Y026136D01*
X019477Y026112D01*
X019545Y026093D01*
X019614Y026077D01*
X019684Y026065D01*
X019755Y026057D01*
X019826Y026053D01*
X019897Y026052D01*
X019968Y026056D01*
X020038Y026064D01*
X020108Y026076D01*
X020178Y026092D01*
X020246Y026111D01*
X020313Y026135D01*
X020379Y026162D01*
X020443Y026192D01*
X020505Y026227D01*
X020565Y026264D01*
X020623Y026305D01*
X020679Y026349D01*
X020732Y026397D01*
X020782Y026447D01*
X020830Y026500D01*
X020874Y026555D01*
X020867Y026561D01*
X020823Y026506D01*
X020776Y026453D01*
X020726Y026403D01*
X020673Y026356D01*
X020618Y026312D01*
X020560Y026272D01*
X020501Y026234D01*
X020439Y026200D01*
X020375Y026170D01*
X020310Y026143D01*
X020243Y026120D01*
X020175Y026100D01*
X020107Y026085D01*
X020037Y026073D01*
X019967Y026065D01*
X019896Y026061D01*
X019826Y026062D01*
X019755Y026066D01*
X019685Y026074D01*
X019616Y026086D01*
X019547Y026101D01*
X019479Y026121D01*
X019413Y026144D01*
X019348Y026171D01*
X019284Y026202D01*
X019222Y026236D01*
X019163Y026274D01*
X019105Y026315D01*
X019050Y026359D01*
X018997Y026406D01*
X018948Y026456D01*
X018901Y026508D01*
X018857Y026564D01*
X018816Y026621D01*
X018778Y026681D01*
X018744Y026743D01*
X018714Y026806D01*
X018687Y026871D01*
X018663Y026938D01*
X018644Y027006D01*
X018628Y027075D01*
X018616Y027144D01*
X018608Y027214D01*
X018604Y027285D01*
X018604Y027355D01*
X018608Y027426D01*
X018616Y027496D01*
X018628Y027565D01*
X018644Y027634D01*
X018663Y027702D01*
X018687Y027769D01*
X018714Y027834D01*
X018744Y027897D01*
X018778Y027959D01*
X018816Y028019D01*
X018857Y028076D01*
X018901Y028132D01*
X018948Y028184D01*
X018997Y028234D01*
X019050Y028281D01*
X019105Y028325D01*
X019163Y028366D01*
X019222Y028404D01*
X019284Y028438D01*
X019348Y028469D01*
X019413Y028496D01*
X019479Y028519D01*
X019547Y028539D01*
X019616Y028554D01*
X019685Y028566D01*
X019755Y028574D01*
X019826Y028578D01*
X019896Y028579D01*
X019967Y028575D01*
X020037Y028567D01*
X020107Y028555D01*
X020175Y028540D01*
X020243Y028520D01*
X020310Y028497D01*
X020375Y028470D01*
X020439Y028440D01*
X020501Y028406D01*
X020560Y028368D01*
X020618Y028328D01*
X020673Y028284D01*
X020726Y028237D01*
X020776Y028187D01*
X020823Y028134D01*
X020867Y028079D01*
X020860Y028074D01*
X020816Y028129D01*
X020769Y028181D01*
X020720Y028230D01*
X020667Y028277D01*
X020613Y028320D01*
X020555Y028361D01*
X020496Y028398D01*
X020435Y028432D01*
X020371Y028462D01*
X020307Y028489D01*
X020240Y028512D01*
X020173Y028531D01*
X020105Y028546D01*
X020036Y028558D01*
X019966Y028566D01*
X019896Y028570D01*
X019826Y028569D01*
X019756Y028565D01*
X019687Y028557D01*
X019618Y028546D01*
X019549Y028530D01*
X019482Y028511D01*
X019416Y028487D01*
X019351Y028460D01*
X019288Y028430D01*
X019227Y028396D01*
X019168Y028359D01*
X019110Y028318D01*
X019056Y028274D01*
X019004Y028228D01*
X018954Y028178D01*
X018907Y028126D01*
X018864Y028071D01*
X018823Y028014D01*
X018786Y027955D01*
X018752Y027893D01*
X018722Y027830D01*
X018695Y027765D01*
X018672Y027699D01*
X018653Y027632D01*
X018637Y027564D01*
X018625Y027495D01*
X018617Y027425D01*
X018613Y027355D01*
X018613Y027285D01*
X018617Y027215D01*
X018625Y027145D01*
X018637Y027076D01*
X018653Y027008D01*
X018672Y026941D01*
X018695Y026875D01*
X018722Y026810D01*
X018752Y026747D01*
X018786Y026685D01*
X018823Y026626D01*
X018864Y026569D01*
X018907Y026514D01*
X018954Y026462D01*
X019004Y026412D01*
X019056Y026366D01*
X019110Y026322D01*
X019168Y026281D01*
X019227Y026244D01*
X019288Y026210D01*
X019351Y026180D01*
X019416Y026153D01*
X019482Y026129D01*
X019549Y026110D01*
X019618Y026094D01*
X019687Y026083D01*
X019756Y026075D01*
X019826Y026071D01*
X019896Y026070D01*
X019966Y026074D01*
X020036Y026082D01*
X020105Y026094D01*
X020173Y026109D01*
X020240Y026128D01*
X020307Y026151D01*
X020371Y026178D01*
X020435Y026208D01*
X020496Y026242D01*
X020555Y026279D01*
X020613Y026320D01*
X020667Y026363D01*
X020720Y026410D01*
X020769Y026459D01*
X020816Y026511D01*
X020860Y026566D01*
X020853Y026571D01*
X020809Y026517D01*
X020763Y026465D01*
X020714Y026416D01*
X020662Y026370D01*
X020607Y026327D01*
X020550Y026287D01*
X020491Y026250D01*
X020430Y026216D01*
X020368Y026186D01*
X020303Y026160D01*
X020238Y026137D01*
X020171Y026118D01*
X020103Y026102D01*
X020034Y026091D01*
X019965Y026083D01*
X019896Y026079D01*
X019826Y026080D01*
X019757Y026084D01*
X019688Y026091D01*
X019619Y026103D01*
X019552Y026119D01*
X019485Y026138D01*
X019419Y026161D01*
X019355Y026188D01*
X019292Y026218D01*
X019231Y026252D01*
X019173Y026289D01*
X019116Y026329D01*
X019062Y026372D01*
X019010Y026419D01*
X018961Y026468D01*
X018914Y026520D01*
X018871Y026574D01*
X018831Y026631D01*
X018794Y026690D01*
X018760Y026751D01*
X018730Y026814D01*
X018703Y026878D01*
X018680Y026943D01*
X018661Y027010D01*
X018646Y027078D01*
X018634Y027147D01*
X018626Y027216D01*
X018622Y027285D01*
X018622Y027355D01*
X018626Y027424D01*
X018634Y027493D01*
X018646Y027562D01*
X018661Y027630D01*
X018680Y027697D01*
X018703Y027762D01*
X018730Y027826D01*
X018760Y027889D01*
X018794Y027950D01*
X018831Y028009D01*
X018871Y028066D01*
X018914Y028120D01*
X018961Y028172D01*
X019010Y028221D01*
X019062Y028268D01*
X019116Y028311D01*
X019173Y028351D01*
X019231Y028388D01*
X019292Y028422D01*
X019355Y028452D01*
X019419Y028479D01*
X019485Y028502D01*
X019552Y028521D01*
X019619Y028537D01*
X019688Y028549D01*
X019757Y028556D01*
X019826Y028560D01*
X019896Y028561D01*
X019965Y028557D01*
X020034Y028549D01*
X020103Y028538D01*
X020171Y028522D01*
X020238Y028503D01*
X020303Y028480D01*
X020368Y028454D01*
X020430Y028424D01*
X020491Y028390D01*
X020550Y028353D01*
X020607Y028313D01*
X020662Y028270D01*
X020714Y028224D01*
X020763Y028175D01*
X020809Y028123D01*
X020853Y028069D01*
X020846Y028063D01*
X020802Y028117D01*
X020756Y028168D01*
X020707Y028217D01*
X020656Y028263D01*
X020602Y028306D01*
X020545Y028346D01*
X020487Y028382D01*
X020426Y028416D01*
X020364Y028446D01*
X020300Y028472D01*
X020235Y028494D01*
X020169Y028513D01*
X020101Y028529D01*
X020033Y028540D01*
X019965Y028548D01*
X019896Y028552D01*
X019827Y028551D01*
X019758Y028547D01*
X019689Y028540D01*
X019621Y028528D01*
X019554Y028513D01*
X019487Y028493D01*
X019422Y028470D01*
X019359Y028444D01*
X019296Y028414D01*
X019236Y028381D01*
X019178Y028344D01*
X019121Y028304D01*
X019067Y028261D01*
X019016Y028215D01*
X018967Y028166D01*
X018921Y028114D01*
X018878Y028060D01*
X018838Y028004D01*
X018802Y027945D01*
X018768Y027885D01*
X018738Y027823D01*
X018712Y027759D01*
X018689Y027694D01*
X018670Y027627D01*
X018655Y027560D01*
X018643Y027492D01*
X018635Y027423D01*
X018631Y027355D01*
X018631Y027285D01*
X018635Y027217D01*
X018643Y027148D01*
X018655Y027080D01*
X018670Y027013D01*
X018689Y026946D01*
X018712Y026881D01*
X018738Y026817D01*
X018768Y026755D01*
X018802Y026695D01*
X018838Y026636D01*
X018878Y026580D01*
X018921Y026526D01*
X018967Y026474D01*
X019016Y026425D01*
X019067Y026379D01*
X019121Y026336D01*
X019178Y026296D01*
X019236Y026259D01*
X019296Y026226D01*
X019359Y026196D01*
X019422Y026170D01*
X019487Y026147D01*
X019554Y026127D01*
X019621Y026112D01*
X019689Y026100D01*
X019758Y026093D01*
X019827Y026089D01*
X019896Y026088D01*
X019965Y026092D01*
X020033Y026100D01*
X020101Y026111D01*
X020169Y026127D01*
X020235Y026146D01*
X020300Y026168D01*
X020364Y026194D01*
X020426Y026224D01*
X020487Y026258D01*
X020545Y026294D01*
X020602Y026334D01*
X020656Y026377D01*
X020707Y026423D01*
X020756Y026472D01*
X020802Y026523D01*
X020846Y026577D01*
X020838Y026582D01*
X020795Y026528D01*
X020749Y026477D01*
X020699Y026428D01*
X020648Y026382D01*
X020593Y026339D01*
X020536Y026299D01*
X020478Y026263D01*
X020417Y026229D01*
X020354Y026200D01*
X020290Y026174D01*
X020224Y026152D01*
X020157Y026133D01*
X020090Y026118D01*
X020021Y026107D01*
X019952Y026100D01*
X019883Y026097D01*
X019814Y026098D01*
X019744Y026103D01*
X019676Y026111D01*
X019608Y026124D01*
X019540Y026140D01*
X019474Y026161D01*
X019409Y026184D01*
X019345Y026212D01*
X019283Y026243D01*
X019223Y026278D01*
X019165Y026316D01*
X019109Y026357D01*
X019056Y026401D01*
X019005Y026448D01*
X018957Y026498D01*
X018912Y026551D01*
X018870Y026606D01*
X018831Y026663D01*
X018796Y026723D01*
X018764Y026784D01*
X018735Y026847D01*
X018710Y026912D01*
X018689Y026978D01*
X018671Y027045D01*
X018658Y027113D01*
X018648Y027182D01*
X018642Y027251D01*
X018640Y027320D01*
X018642Y027389D01*
X018648Y027458D01*
X018658Y027527D01*
X018671Y027595D01*
X018689Y027662D01*
X018710Y027728D01*
X018735Y027793D01*
X018764Y027856D01*
X018796Y027917D01*
X018831Y027977D01*
X018870Y028034D01*
X018912Y028089D01*
X018957Y028142D01*
X019005Y028192D01*
X019056Y028239D01*
X019109Y028283D01*
X019165Y028324D01*
X019223Y028362D01*
X019283Y028397D01*
X019345Y028428D01*
X019409Y028456D01*
X019474Y028479D01*
X019540Y028500D01*
X019608Y028516D01*
X019676Y028529D01*
X019744Y028537D01*
X019814Y028542D01*
X019883Y028543D01*
X019952Y028540D01*
X020021Y028533D01*
X020090Y028522D01*
X020157Y028507D01*
X020224Y028488D01*
X020290Y028466D01*
X020354Y028440D01*
X020417Y028411D01*
X020478Y028377D01*
X020536Y028341D01*
X020593Y028301D01*
X020648Y028258D01*
X020699Y028212D01*
X020749Y028163D01*
X020795Y028112D01*
X020838Y028058D01*
X020831Y028052D01*
X020788Y028106D01*
X020742Y028157D01*
X020693Y028206D01*
X020642Y028251D01*
X020588Y028294D01*
X020531Y028333D01*
X020473Y028370D01*
X020413Y028403D01*
X020350Y028432D01*
X020287Y028458D01*
X020221Y028480D01*
X020155Y028498D01*
X020088Y028513D01*
X020020Y028524D01*
X019951Y028531D01*
X019883Y028534D01*
X019814Y028533D01*
X019745Y028528D01*
X019677Y028520D01*
X019609Y028507D01*
X019543Y028491D01*
X019477Y028471D01*
X019412Y028447D01*
X019349Y028420D01*
X019288Y028389D01*
X019228Y028355D01*
X019170Y028317D01*
X019115Y028276D01*
X019062Y028232D01*
X019012Y028185D01*
X018964Y028136D01*
X018919Y028084D01*
X018877Y028029D01*
X018839Y027972D01*
X018804Y027913D01*
X018772Y027852D01*
X018743Y027789D01*
X018719Y027725D01*
X018697Y027659D01*
X018680Y027593D01*
X018667Y027525D01*
X018657Y027457D01*
X018651Y027389D01*
X018649Y027320D01*
X018651Y027251D01*
X018657Y027183D01*
X018667Y027115D01*
X018680Y027047D01*
X018697Y026981D01*
X018719Y026915D01*
X018743Y026851D01*
X018772Y026788D01*
X018804Y026727D01*
X018839Y026668D01*
X018877Y026611D01*
X018919Y026556D01*
X018964Y026504D01*
X019012Y026455D01*
X019062Y026408D01*
X019115Y026364D01*
X019170Y026323D01*
X019228Y026285D01*
X019288Y026251D01*
X019349Y026220D01*
X019412Y026193D01*
X019477Y026169D01*
X019543Y026149D01*
X019609Y026133D01*
X019677Y026120D01*
X019745Y026112D01*
X019814Y026107D01*
X019883Y026106D01*
X019951Y026109D01*
X020020Y026116D01*
X020088Y026127D01*
X020155Y026142D01*
X020221Y026160D01*
X020287Y026182D01*
X020350Y026208D01*
X020413Y026237D01*
X020473Y026270D01*
X020531Y026307D01*
X020588Y026346D01*
X020642Y026389D01*
X020693Y026434D01*
X020742Y026483D01*
X020788Y026534D01*
X020831Y026588D01*
X020883Y031348D02*
X020811Y031294D01*
X020812Y031295D02*
X020769Y031348D01*
X020724Y031399D01*
X020675Y031447D01*
X020624Y031492D01*
X020570Y031535D01*
X020514Y031574D01*
X020456Y031610D01*
X020396Y031643D01*
X020335Y031672D01*
X020271Y031697D01*
X020207Y031719D01*
X020141Y031738D01*
X020074Y031752D01*
X020007Y031763D01*
X019939Y031770D01*
X019871Y031773D01*
X019802Y031772D01*
X019734Y031767D01*
X019666Y031759D01*
X019599Y031746D01*
X019533Y031730D01*
X019468Y031710D01*
X019403Y031687D01*
X019341Y031660D01*
X019280Y031629D01*
X019221Y031595D01*
X019163Y031558D01*
X019108Y031517D01*
X019056Y031473D01*
X019006Y031427D01*
X018959Y031378D01*
X018914Y031326D01*
X018873Y031272D01*
X018834Y031215D01*
X018799Y031156D01*
X018768Y031096D01*
X018740Y031034D01*
X018715Y030970D01*
X018694Y030905D01*
X018677Y030839D01*
X018663Y030772D01*
X018654Y030704D01*
X018648Y030636D01*
X018646Y030568D01*
X018648Y030500D01*
X018654Y030432D01*
X018663Y030364D01*
X018677Y030297D01*
X018694Y030231D01*
X018715Y030166D01*
X018740Y030102D01*
X018768Y030040D01*
X018799Y029980D01*
X018834Y029921D01*
X018873Y029864D01*
X018914Y029810D01*
X018959Y029758D01*
X019006Y029709D01*
X019056Y029663D01*
X019108Y029619D01*
X019163Y029578D01*
X019221Y029541D01*
X019280Y029507D01*
X019341Y029476D01*
X019403Y029449D01*
X019468Y029426D01*
X019533Y029406D01*
X019599Y029390D01*
X019666Y029377D01*
X019734Y029369D01*
X019802Y029364D01*
X019871Y029363D01*
X019939Y029366D01*
X020007Y029373D01*
X020074Y029384D01*
X020141Y029398D01*
X020207Y029417D01*
X020271Y029439D01*
X020335Y029464D01*
X020396Y029493D01*
X020456Y029526D01*
X020514Y029562D01*
X020570Y029601D01*
X020624Y029644D01*
X020675Y029689D01*
X020724Y029737D01*
X020769Y029788D01*
X020812Y029841D01*
X020883Y029788D01*
X020884Y029787D01*
X020840Y029732D01*
X020792Y029679D01*
X020742Y029628D01*
X020689Y029581D01*
X020634Y029537D01*
X020576Y029495D01*
X020516Y029457D01*
X020455Y029422D01*
X020391Y029391D01*
X020326Y029363D01*
X020259Y029339D01*
X020191Y029318D01*
X020122Y029302D01*
X020052Y029289D01*
X019982Y029280D01*
X019911Y029274D01*
X019840Y029273D01*
X019769Y029276D01*
X019698Y029282D01*
X019628Y029292D01*
X019559Y029306D01*
X019490Y029324D01*
X019422Y029346D01*
X019356Y029371D01*
X019291Y029400D01*
X019228Y029433D01*
X019167Y029469D01*
X019108Y029508D01*
X019051Y029550D01*
X018996Y029595D01*
X018944Y029644D01*
X018895Y029695D01*
X018848Y029748D01*
X018805Y029805D01*
X018765Y029863D01*
X018728Y029924D01*
X018694Y029986D01*
X018664Y030050D01*
X018637Y030116D01*
X018614Y030183D01*
X018595Y030252D01*
X018580Y030321D01*
X018568Y030391D01*
X018560Y030462D01*
X018556Y030533D01*
X018556Y030603D01*
X018560Y030674D01*
X018568Y030745D01*
X018580Y030815D01*
X018595Y030884D01*
X018614Y030953D01*
X018637Y031020D01*
X018664Y031086D01*
X018694Y031150D01*
X018728Y031212D01*
X018765Y031273D01*
X018805Y031331D01*
X018848Y031388D01*
X018895Y031441D01*
X018944Y031492D01*
X018996Y031541D01*
X019051Y031586D01*
X019108Y031628D01*
X019167Y031667D01*
X019228Y031703D01*
X019291Y031736D01*
X019356Y031765D01*
X019422Y031790D01*
X019490Y031812D01*
X019559Y031830D01*
X019628Y031844D01*
X019698Y031854D01*
X019769Y031860D01*
X019840Y031863D01*
X019911Y031862D01*
X019982Y031856D01*
X020052Y031847D01*
X020122Y031834D01*
X020191Y031818D01*
X020259Y031797D01*
X020326Y031773D01*
X020391Y031745D01*
X020455Y031714D01*
X020516Y031679D01*
X020576Y031641D01*
X020634Y031599D01*
X020689Y031555D01*
X020742Y031508D01*
X020792Y031457D01*
X020840Y031404D01*
X020884Y031349D01*
X020877Y031344D01*
X020832Y031399D01*
X020785Y031452D01*
X020734Y031503D01*
X020681Y031550D01*
X020625Y031595D01*
X020567Y031636D01*
X020507Y031674D01*
X020445Y031709D01*
X020381Y031740D01*
X020315Y031767D01*
X020248Y031791D01*
X020179Y031811D01*
X020110Y031828D01*
X020040Y031840D01*
X019969Y031849D01*
X019898Y031853D01*
X019827Y031854D01*
X019756Y031850D01*
X019685Y031843D01*
X019614Y031832D01*
X019545Y031817D01*
X019476Y031798D01*
X019408Y031775D01*
X019342Y031749D01*
X019277Y031719D01*
X019215Y031685D01*
X019154Y031649D01*
X019095Y031608D01*
X019038Y031565D01*
X018984Y031518D01*
X018933Y031469D01*
X018885Y031416D01*
X018839Y031362D01*
X018797Y031304D01*
X018758Y031245D01*
X018722Y031183D01*
X018689Y031120D01*
X018661Y031055D01*
X018635Y030988D01*
X018614Y030920D01*
X018596Y030851D01*
X018583Y030781D01*
X018573Y030710D01*
X018567Y030639D01*
X018565Y030568D01*
X018567Y030497D01*
X018573Y030426D01*
X018583Y030355D01*
X018596Y030285D01*
X018614Y030216D01*
X018635Y030148D01*
X018661Y030081D01*
X018689Y030016D01*
X018722Y029953D01*
X018758Y029891D01*
X018797Y029832D01*
X018839Y029774D01*
X018885Y029720D01*
X018933Y029667D01*
X018984Y029618D01*
X019038Y029571D01*
X019095Y029528D01*
X019154Y029487D01*
X019215Y029451D01*
X019277Y029417D01*
X019342Y029387D01*
X019408Y029361D01*
X019476Y029338D01*
X019545Y029319D01*
X019614Y029304D01*
X019685Y029293D01*
X019756Y029286D01*
X019827Y029282D01*
X019898Y029283D01*
X019969Y029287D01*
X020040Y029296D01*
X020110Y029308D01*
X020179Y029325D01*
X020248Y029345D01*
X020315Y029369D01*
X020381Y029396D01*
X020445Y029427D01*
X020507Y029462D01*
X020567Y029500D01*
X020625Y029541D01*
X020681Y029586D01*
X020734Y029633D01*
X020785Y029684D01*
X020832Y029737D01*
X020877Y029792D01*
X020870Y029798D01*
X020825Y029743D01*
X020778Y029690D01*
X020728Y029640D01*
X020675Y029593D01*
X020620Y029549D01*
X020562Y029507D01*
X020503Y029470D01*
X020441Y029435D01*
X020377Y029404D01*
X020312Y029377D01*
X020245Y029353D01*
X020177Y029333D01*
X020108Y029317D01*
X020039Y029305D01*
X019968Y029296D01*
X019898Y029292D01*
X019827Y029291D01*
X019756Y029295D01*
X019686Y029302D01*
X019616Y029313D01*
X019547Y029328D01*
X019479Y029347D01*
X019411Y029369D01*
X019346Y029395D01*
X019281Y029425D01*
X019219Y029458D01*
X019159Y029495D01*
X019100Y029535D01*
X019044Y029578D01*
X018990Y029624D01*
X018940Y029674D01*
X018891Y029725D01*
X018846Y029780D01*
X018804Y029837D01*
X018765Y029896D01*
X018730Y029957D01*
X018697Y030020D01*
X018669Y030085D01*
X018644Y030151D01*
X018623Y030219D01*
X018605Y030287D01*
X018592Y030357D01*
X018582Y030427D01*
X018576Y030497D01*
X018574Y030568D01*
X018576Y030639D01*
X018582Y030709D01*
X018592Y030779D01*
X018605Y030849D01*
X018623Y030917D01*
X018644Y030985D01*
X018669Y031051D01*
X018697Y031116D01*
X018730Y031179D01*
X018765Y031240D01*
X018804Y031299D01*
X018846Y031356D01*
X018891Y031411D01*
X018940Y031462D01*
X018990Y031512D01*
X019044Y031558D01*
X019100Y031601D01*
X019159Y031641D01*
X019219Y031678D01*
X019281Y031711D01*
X019346Y031741D01*
X019411Y031767D01*
X019479Y031789D01*
X019547Y031808D01*
X019616Y031823D01*
X019686Y031834D01*
X019756Y031841D01*
X019827Y031845D01*
X019898Y031844D01*
X019968Y031840D01*
X020039Y031831D01*
X020108Y031819D01*
X020177Y031803D01*
X020245Y031783D01*
X020312Y031759D01*
X020377Y031732D01*
X020441Y031701D01*
X020503Y031666D01*
X020562Y031629D01*
X020620Y031587D01*
X020675Y031543D01*
X020728Y031496D01*
X020778Y031446D01*
X020825Y031393D01*
X020870Y031338D01*
X020862Y031333D01*
X020818Y031388D01*
X020770Y031441D01*
X020720Y031491D01*
X020667Y031539D01*
X020611Y031583D01*
X020553Y031624D01*
X020493Y031661D01*
X020431Y031696D01*
X020367Y031726D01*
X020301Y031753D01*
X020234Y031777D01*
X020166Y031796D01*
X020096Y031812D01*
X020026Y031824D01*
X019956Y031832D01*
X019885Y031836D01*
X019814Y031835D01*
X019743Y031831D01*
X019672Y031823D01*
X019602Y031811D01*
X019533Y031795D01*
X019465Y031776D01*
X019397Y031752D01*
X019332Y031725D01*
X019268Y031694D01*
X019206Y031660D01*
X019146Y031622D01*
X019088Y031580D01*
X019032Y031536D01*
X018979Y031489D01*
X018929Y031438D01*
X018882Y031385D01*
X018837Y031330D01*
X018796Y031272D01*
X018759Y031212D01*
X018724Y031149D01*
X018693Y031085D01*
X018666Y031020D01*
X018643Y030953D01*
X018623Y030884D01*
X018607Y030815D01*
X018595Y030745D01*
X018587Y030674D01*
X018583Y030604D01*
X018583Y030532D01*
X018587Y030462D01*
X018595Y030391D01*
X018607Y030321D01*
X018623Y030252D01*
X018643Y030183D01*
X018666Y030116D01*
X018693Y030051D01*
X018724Y029987D01*
X018759Y029924D01*
X018796Y029864D01*
X018837Y029806D01*
X018882Y029751D01*
X018929Y029698D01*
X018979Y029647D01*
X019032Y029600D01*
X019088Y029556D01*
X019146Y029514D01*
X019206Y029476D01*
X019268Y029442D01*
X019332Y029411D01*
X019397Y029384D01*
X019465Y029360D01*
X019533Y029341D01*
X019602Y029325D01*
X019672Y029313D01*
X019743Y029305D01*
X019814Y029301D01*
X019885Y029300D01*
X019956Y029304D01*
X020026Y029312D01*
X020096Y029324D01*
X020166Y029340D01*
X020234Y029359D01*
X020301Y029383D01*
X020367Y029410D01*
X020431Y029440D01*
X020493Y029475D01*
X020553Y029512D01*
X020611Y029553D01*
X020667Y029597D01*
X020720Y029645D01*
X020770Y029695D01*
X020818Y029748D01*
X020862Y029803D01*
X020855Y029809D01*
X020811Y029754D01*
X020764Y029701D01*
X020714Y029651D01*
X020661Y029604D01*
X020606Y029560D01*
X020548Y029520D01*
X020489Y029482D01*
X020427Y029448D01*
X020363Y029418D01*
X020298Y029391D01*
X020231Y029368D01*
X020163Y029348D01*
X020095Y029333D01*
X020025Y029321D01*
X019955Y029313D01*
X019884Y029309D01*
X019814Y029310D01*
X019743Y029314D01*
X019673Y029322D01*
X019604Y029334D01*
X019535Y029349D01*
X019467Y029369D01*
X019401Y029392D01*
X019336Y029419D01*
X019272Y029450D01*
X019210Y029484D01*
X019151Y029522D01*
X019093Y029563D01*
X019038Y029607D01*
X018985Y029654D01*
X018936Y029704D01*
X018889Y029756D01*
X018845Y029812D01*
X018804Y029869D01*
X018766Y029929D01*
X018732Y029991D01*
X018702Y030054D01*
X018675Y030119D01*
X018651Y030186D01*
X018632Y030254D01*
X018616Y030323D01*
X018604Y030392D01*
X018596Y030462D01*
X018592Y030533D01*
X018592Y030603D01*
X018596Y030674D01*
X018604Y030744D01*
X018616Y030813D01*
X018632Y030882D01*
X018651Y030950D01*
X018675Y031017D01*
X018702Y031082D01*
X018732Y031145D01*
X018766Y031207D01*
X018804Y031267D01*
X018845Y031324D01*
X018889Y031380D01*
X018936Y031432D01*
X018985Y031482D01*
X019038Y031529D01*
X019093Y031573D01*
X019151Y031614D01*
X019210Y031652D01*
X019272Y031686D01*
X019336Y031717D01*
X019401Y031744D01*
X019467Y031767D01*
X019535Y031787D01*
X019604Y031802D01*
X019673Y031814D01*
X019743Y031822D01*
X019814Y031826D01*
X019884Y031827D01*
X019955Y031823D01*
X020025Y031815D01*
X020095Y031803D01*
X020163Y031788D01*
X020231Y031768D01*
X020298Y031745D01*
X020363Y031718D01*
X020427Y031688D01*
X020489Y031654D01*
X020548Y031616D01*
X020606Y031576D01*
X020661Y031532D01*
X020714Y031485D01*
X020764Y031435D01*
X020811Y031382D01*
X020855Y031327D01*
X020848Y031322D01*
X020804Y031377D01*
X020757Y031429D01*
X020708Y031478D01*
X020655Y031525D01*
X020601Y031568D01*
X020543Y031609D01*
X020484Y031646D01*
X020423Y031680D01*
X020359Y031710D01*
X020295Y031737D01*
X020228Y031760D01*
X020161Y031779D01*
X020093Y031794D01*
X020024Y031806D01*
X019954Y031814D01*
X019884Y031818D01*
X019814Y031817D01*
X019744Y031813D01*
X019675Y031805D01*
X019606Y031794D01*
X019537Y031778D01*
X019470Y031759D01*
X019404Y031735D01*
X019339Y031708D01*
X019276Y031678D01*
X019215Y031644D01*
X019156Y031607D01*
X019098Y031566D01*
X019044Y031522D01*
X018992Y031476D01*
X018942Y031426D01*
X018895Y031374D01*
X018852Y031319D01*
X018811Y031262D01*
X018774Y031203D01*
X018740Y031141D01*
X018710Y031078D01*
X018683Y031013D01*
X018660Y030947D01*
X018641Y030880D01*
X018625Y030812D01*
X018613Y030743D01*
X018605Y030673D01*
X018601Y030603D01*
X018601Y030533D01*
X018605Y030463D01*
X018613Y030393D01*
X018625Y030324D01*
X018641Y030256D01*
X018660Y030189D01*
X018683Y030123D01*
X018710Y030058D01*
X018740Y029995D01*
X018774Y029933D01*
X018811Y029874D01*
X018852Y029817D01*
X018895Y029762D01*
X018942Y029710D01*
X018992Y029660D01*
X019044Y029614D01*
X019098Y029570D01*
X019156Y029529D01*
X019215Y029492D01*
X019276Y029458D01*
X019339Y029428D01*
X019404Y029401D01*
X019470Y029377D01*
X019537Y029358D01*
X019606Y029342D01*
X019675Y029331D01*
X019744Y029323D01*
X019814Y029319D01*
X019884Y029318D01*
X019954Y029322D01*
X020024Y029330D01*
X020093Y029342D01*
X020161Y029357D01*
X020228Y029376D01*
X020295Y029399D01*
X020359Y029426D01*
X020423Y029456D01*
X020484Y029490D01*
X020543Y029527D01*
X020601Y029568D01*
X020655Y029611D01*
X020708Y029658D01*
X020757Y029707D01*
X020804Y029759D01*
X020848Y029814D01*
X020841Y029819D01*
X020797Y029765D01*
X020751Y029713D01*
X020702Y029664D01*
X020650Y029618D01*
X020595Y029575D01*
X020538Y029535D01*
X020479Y029498D01*
X020418Y029464D01*
X020356Y029434D01*
X020291Y029408D01*
X020226Y029385D01*
X020159Y029366D01*
X020091Y029350D01*
X020022Y029339D01*
X019953Y029331D01*
X019884Y029327D01*
X019814Y029328D01*
X019745Y029332D01*
X019676Y029339D01*
X019607Y029351D01*
X019540Y029367D01*
X019473Y029386D01*
X019407Y029409D01*
X019343Y029436D01*
X019280Y029466D01*
X019219Y029500D01*
X019161Y029537D01*
X019104Y029577D01*
X019050Y029620D01*
X018998Y029667D01*
X018949Y029716D01*
X018902Y029768D01*
X018859Y029822D01*
X018819Y029879D01*
X018782Y029938D01*
X018748Y029999D01*
X018718Y030062D01*
X018691Y030126D01*
X018668Y030191D01*
X018649Y030258D01*
X018634Y030326D01*
X018622Y030395D01*
X018614Y030464D01*
X018610Y030533D01*
X018610Y030603D01*
X018614Y030672D01*
X018622Y030741D01*
X018634Y030810D01*
X018649Y030878D01*
X018668Y030945D01*
X018691Y031010D01*
X018718Y031074D01*
X018748Y031137D01*
X018782Y031198D01*
X018819Y031257D01*
X018859Y031314D01*
X018902Y031368D01*
X018949Y031420D01*
X018998Y031469D01*
X019050Y031516D01*
X019104Y031559D01*
X019161Y031599D01*
X019219Y031636D01*
X019280Y031670D01*
X019343Y031700D01*
X019407Y031727D01*
X019473Y031750D01*
X019540Y031769D01*
X019607Y031785D01*
X019676Y031797D01*
X019745Y031804D01*
X019814Y031808D01*
X019884Y031809D01*
X019953Y031805D01*
X020022Y031797D01*
X020091Y031786D01*
X020159Y031770D01*
X020226Y031751D01*
X020291Y031728D01*
X020356Y031702D01*
X020418Y031672D01*
X020479Y031638D01*
X020538Y031601D01*
X020595Y031561D01*
X020650Y031518D01*
X020702Y031472D01*
X020751Y031423D01*
X020797Y031371D01*
X020841Y031317D01*
X020834Y031311D01*
X020790Y031365D01*
X020744Y031416D01*
X020695Y031465D01*
X020644Y031511D01*
X020590Y031554D01*
X020533Y031594D01*
X020475Y031630D01*
X020414Y031664D01*
X020352Y031694D01*
X020288Y031720D01*
X020223Y031742D01*
X020157Y031761D01*
X020089Y031777D01*
X020021Y031788D01*
X019953Y031796D01*
X019884Y031800D01*
X019815Y031799D01*
X019746Y031795D01*
X019677Y031788D01*
X019609Y031776D01*
X019542Y031761D01*
X019475Y031741D01*
X019410Y031718D01*
X019347Y031692D01*
X019284Y031662D01*
X019224Y031629D01*
X019166Y031592D01*
X019109Y031552D01*
X019055Y031509D01*
X019004Y031463D01*
X018955Y031414D01*
X018909Y031362D01*
X018866Y031308D01*
X018826Y031252D01*
X018790Y031193D01*
X018756Y031133D01*
X018726Y031071D01*
X018700Y031007D01*
X018677Y030942D01*
X018658Y030875D01*
X018643Y030808D01*
X018631Y030740D01*
X018623Y030671D01*
X018619Y030603D01*
X018619Y030533D01*
X018623Y030465D01*
X018631Y030396D01*
X018643Y030328D01*
X018658Y030261D01*
X018677Y030194D01*
X018700Y030129D01*
X018726Y030065D01*
X018756Y030003D01*
X018790Y029943D01*
X018826Y029884D01*
X018866Y029828D01*
X018909Y029774D01*
X018955Y029722D01*
X019004Y029673D01*
X019055Y029627D01*
X019109Y029584D01*
X019166Y029544D01*
X019224Y029507D01*
X019284Y029474D01*
X019347Y029444D01*
X019410Y029418D01*
X019475Y029395D01*
X019542Y029375D01*
X019609Y029360D01*
X019677Y029348D01*
X019746Y029341D01*
X019815Y029337D01*
X019884Y029336D01*
X019953Y029340D01*
X020021Y029348D01*
X020089Y029359D01*
X020157Y029375D01*
X020223Y029394D01*
X020288Y029416D01*
X020352Y029442D01*
X020414Y029472D01*
X020475Y029506D01*
X020533Y029542D01*
X020590Y029582D01*
X020644Y029625D01*
X020695Y029671D01*
X020744Y029720D01*
X020790Y029771D01*
X020834Y029825D01*
X020826Y029830D01*
X020783Y029776D01*
X020737Y029725D01*
X020687Y029676D01*
X020636Y029630D01*
X020581Y029587D01*
X020524Y029547D01*
X020466Y029511D01*
X020405Y029477D01*
X020342Y029448D01*
X020278Y029422D01*
X020212Y029400D01*
X020145Y029381D01*
X020078Y029366D01*
X020009Y029355D01*
X019940Y029348D01*
X019871Y029345D01*
X019802Y029346D01*
X019732Y029351D01*
X019664Y029359D01*
X019596Y029372D01*
X019528Y029388D01*
X019462Y029409D01*
X019397Y029432D01*
X019333Y029460D01*
X019271Y029491D01*
X019211Y029526D01*
X019153Y029564D01*
X019097Y029605D01*
X019044Y029649D01*
X018993Y029696D01*
X018945Y029746D01*
X018900Y029799D01*
X018858Y029854D01*
X018819Y029911D01*
X018784Y029971D01*
X018752Y030032D01*
X018723Y030095D01*
X018698Y030160D01*
X018677Y030226D01*
X018659Y030293D01*
X018646Y030361D01*
X018636Y030430D01*
X018630Y030499D01*
X018628Y030568D01*
X018630Y030637D01*
X018636Y030706D01*
X018646Y030775D01*
X018659Y030843D01*
X018677Y030910D01*
X018698Y030976D01*
X018723Y031041D01*
X018752Y031104D01*
X018784Y031165D01*
X018819Y031225D01*
X018858Y031282D01*
X018900Y031337D01*
X018945Y031390D01*
X018993Y031440D01*
X019044Y031487D01*
X019097Y031531D01*
X019153Y031572D01*
X019211Y031610D01*
X019271Y031645D01*
X019333Y031676D01*
X019397Y031704D01*
X019462Y031727D01*
X019528Y031748D01*
X019596Y031764D01*
X019664Y031777D01*
X019732Y031785D01*
X019802Y031790D01*
X019871Y031791D01*
X019940Y031788D01*
X020009Y031781D01*
X020078Y031770D01*
X020145Y031755D01*
X020212Y031736D01*
X020278Y031714D01*
X020342Y031688D01*
X020405Y031659D01*
X020466Y031625D01*
X020524Y031589D01*
X020581Y031549D01*
X020636Y031506D01*
X020687Y031460D01*
X020737Y031411D01*
X020783Y031360D01*
X020826Y031306D01*
X020819Y031300D01*
X020776Y031354D01*
X020730Y031405D01*
X020681Y031454D01*
X020630Y031499D01*
X020576Y031542D01*
X020519Y031581D01*
X020461Y031618D01*
X020401Y031651D01*
X020338Y031680D01*
X020275Y031706D01*
X020209Y031728D01*
X020143Y031746D01*
X020076Y031761D01*
X020008Y031772D01*
X019939Y031779D01*
X019871Y031782D01*
X019802Y031781D01*
X019733Y031776D01*
X019665Y031768D01*
X019597Y031755D01*
X019531Y031739D01*
X019465Y031719D01*
X019400Y031695D01*
X019337Y031668D01*
X019276Y031637D01*
X019216Y031603D01*
X019158Y031565D01*
X019103Y031524D01*
X019050Y031480D01*
X019000Y031433D01*
X018952Y031384D01*
X018907Y031332D01*
X018865Y031277D01*
X018827Y031220D01*
X018792Y031161D01*
X018760Y031100D01*
X018731Y031037D01*
X018707Y030973D01*
X018685Y030907D01*
X018668Y030841D01*
X018655Y030773D01*
X018645Y030705D01*
X018639Y030637D01*
X018637Y030568D01*
X018639Y030499D01*
X018645Y030431D01*
X018655Y030363D01*
X018668Y030295D01*
X018685Y030229D01*
X018707Y030163D01*
X018731Y030099D01*
X018760Y030036D01*
X018792Y029975D01*
X018827Y029916D01*
X018865Y029859D01*
X018907Y029804D01*
X018952Y029752D01*
X019000Y029703D01*
X019050Y029656D01*
X019103Y029612D01*
X019158Y029571D01*
X019216Y029533D01*
X019276Y029499D01*
X019337Y029468D01*
X019400Y029441D01*
X019465Y029417D01*
X019531Y029397D01*
X019597Y029381D01*
X019665Y029368D01*
X019733Y029360D01*
X019802Y029355D01*
X019871Y029354D01*
X019939Y029357D01*
X020008Y029364D01*
X020076Y029375D01*
X020143Y029390D01*
X020209Y029408D01*
X020275Y029430D01*
X020338Y029456D01*
X020401Y029485D01*
X020461Y029518D01*
X020519Y029555D01*
X020576Y029594D01*
X020630Y029637D01*
X020681Y029682D01*
X020730Y029731D01*
X020776Y029782D01*
X020819Y029836D01*
X020879Y034792D02*
X020807Y034738D01*
X020808Y034739D02*
X020765Y034792D01*
X020720Y034843D01*
X020671Y034891D01*
X020620Y034936D01*
X020566Y034979D01*
X020510Y035018D01*
X020452Y035054D01*
X020392Y035087D01*
X020331Y035116D01*
X020267Y035141D01*
X020203Y035163D01*
X020137Y035182D01*
X020070Y035196D01*
X020003Y035207D01*
X019935Y035214D01*
X019867Y035217D01*
X019798Y035216D01*
X019730Y035211D01*
X019662Y035203D01*
X019595Y035190D01*
X019529Y035174D01*
X019464Y035154D01*
X019399Y035131D01*
X019337Y035104D01*
X019276Y035073D01*
X019217Y035039D01*
X019159Y035002D01*
X019104Y034961D01*
X019052Y034917D01*
X019002Y034871D01*
X018955Y034822D01*
X018910Y034770D01*
X018869Y034716D01*
X018830Y034659D01*
X018795Y034600D01*
X018764Y034540D01*
X018736Y034478D01*
X018711Y034414D01*
X018690Y034349D01*
X018673Y034283D01*
X018659Y034216D01*
X018650Y034148D01*
X018644Y034080D01*
X018642Y034012D01*
X018644Y033944D01*
X018650Y033876D01*
X018659Y033808D01*
X018673Y033741D01*
X018690Y033675D01*
X018711Y033610D01*
X018736Y033546D01*
X018764Y033484D01*
X018795Y033424D01*
X018830Y033365D01*
X018869Y033308D01*
X018910Y033254D01*
X018955Y033202D01*
X019002Y033153D01*
X019052Y033107D01*
X019104Y033063D01*
X019159Y033022D01*
X019217Y032985D01*
X019276Y032951D01*
X019337Y032920D01*
X019399Y032893D01*
X019464Y032870D01*
X019529Y032850D01*
X019595Y032834D01*
X019662Y032821D01*
X019730Y032813D01*
X019798Y032808D01*
X019867Y032807D01*
X019935Y032810D01*
X020003Y032817D01*
X020070Y032828D01*
X020137Y032842D01*
X020203Y032861D01*
X020267Y032883D01*
X020331Y032908D01*
X020392Y032937D01*
X020452Y032970D01*
X020510Y033006D01*
X020566Y033045D01*
X020620Y033088D01*
X020671Y033133D01*
X020720Y033181D01*
X020765Y033232D01*
X020808Y033285D01*
X020879Y033232D01*
X020880Y033231D01*
X020836Y033176D01*
X020788Y033123D01*
X020738Y033072D01*
X020685Y033025D01*
X020630Y032981D01*
X020572Y032939D01*
X020512Y032901D01*
X020451Y032866D01*
X020387Y032835D01*
X020322Y032807D01*
X020255Y032783D01*
X020187Y032762D01*
X020118Y032746D01*
X020048Y032733D01*
X019978Y032724D01*
X019907Y032718D01*
X019836Y032717D01*
X019765Y032720D01*
X019694Y032726D01*
X019624Y032736D01*
X019555Y032750D01*
X019486Y032768D01*
X019418Y032790D01*
X019352Y032815D01*
X019287Y032844D01*
X019224Y032877D01*
X019163Y032913D01*
X019104Y032952D01*
X019047Y032994D01*
X018992Y033039D01*
X018940Y033088D01*
X018891Y033139D01*
X018844Y033192D01*
X018801Y033249D01*
X018761Y033307D01*
X018724Y033368D01*
X018690Y033430D01*
X018660Y033494D01*
X018633Y033560D01*
X018610Y033627D01*
X018591Y033696D01*
X018576Y033765D01*
X018564Y033835D01*
X018556Y033906D01*
X018552Y033977D01*
X018552Y034047D01*
X018556Y034118D01*
X018564Y034189D01*
X018576Y034259D01*
X018591Y034328D01*
X018610Y034397D01*
X018633Y034464D01*
X018660Y034530D01*
X018690Y034594D01*
X018724Y034656D01*
X018761Y034717D01*
X018801Y034775D01*
X018844Y034832D01*
X018891Y034885D01*
X018940Y034936D01*
X018992Y034985D01*
X019047Y035030D01*
X019104Y035072D01*
X019163Y035111D01*
X019224Y035147D01*
X019287Y035180D01*
X019352Y035209D01*
X019418Y035234D01*
X019486Y035256D01*
X019555Y035274D01*
X019624Y035288D01*
X019694Y035298D01*
X019765Y035304D01*
X019836Y035307D01*
X019907Y035306D01*
X019978Y035300D01*
X020048Y035291D01*
X020118Y035278D01*
X020187Y035262D01*
X020255Y035241D01*
X020322Y035217D01*
X020387Y035189D01*
X020451Y035158D01*
X020512Y035123D01*
X020572Y035085D01*
X020630Y035043D01*
X020685Y034999D01*
X020738Y034952D01*
X020788Y034901D01*
X020836Y034848D01*
X020880Y034793D01*
X020873Y034788D01*
X020828Y034843D01*
X020781Y034896D01*
X020730Y034947D01*
X020677Y034994D01*
X020621Y035039D01*
X020563Y035080D01*
X020503Y035118D01*
X020441Y035153D01*
X020377Y035184D01*
X020311Y035211D01*
X020244Y035235D01*
X020175Y035255D01*
X020106Y035272D01*
X020036Y035284D01*
X019965Y035293D01*
X019894Y035297D01*
X019823Y035298D01*
X019752Y035294D01*
X019681Y035287D01*
X019610Y035276D01*
X019541Y035261D01*
X019472Y035242D01*
X019404Y035219D01*
X019338Y035193D01*
X019273Y035163D01*
X019211Y035129D01*
X019150Y035093D01*
X019091Y035052D01*
X019034Y035009D01*
X018980Y034962D01*
X018929Y034913D01*
X018881Y034860D01*
X018835Y034806D01*
X018793Y034748D01*
X018754Y034689D01*
X018718Y034627D01*
X018685Y034564D01*
X018657Y034499D01*
X018631Y034432D01*
X018610Y034364D01*
X018592Y034295D01*
X018579Y034225D01*
X018569Y034154D01*
X018563Y034083D01*
X018561Y034012D01*
X018563Y033941D01*
X018569Y033870D01*
X018579Y033799D01*
X018592Y033729D01*
X018610Y033660D01*
X018631Y033592D01*
X018657Y033525D01*
X018685Y033460D01*
X018718Y033397D01*
X018754Y033335D01*
X018793Y033276D01*
X018835Y033218D01*
X018881Y033164D01*
X018929Y033111D01*
X018980Y033062D01*
X019034Y033015D01*
X019091Y032972D01*
X019150Y032931D01*
X019211Y032895D01*
X019273Y032861D01*
X019338Y032831D01*
X019404Y032805D01*
X019472Y032782D01*
X019541Y032763D01*
X019610Y032748D01*
X019681Y032737D01*
X019752Y032730D01*
X019823Y032726D01*
X019894Y032727D01*
X019965Y032731D01*
X020036Y032740D01*
X020106Y032752D01*
X020175Y032769D01*
X020244Y032789D01*
X020311Y032813D01*
X020377Y032840D01*
X020441Y032871D01*
X020503Y032906D01*
X020563Y032944D01*
X020621Y032985D01*
X020677Y033030D01*
X020730Y033077D01*
X020781Y033128D01*
X020828Y033181D01*
X020873Y033236D01*
X020866Y033242D01*
X020821Y033187D01*
X020774Y033134D01*
X020724Y033084D01*
X020671Y033037D01*
X020616Y032993D01*
X020558Y032951D01*
X020499Y032914D01*
X020437Y032879D01*
X020373Y032848D01*
X020308Y032821D01*
X020241Y032797D01*
X020173Y032777D01*
X020104Y032761D01*
X020035Y032749D01*
X019964Y032740D01*
X019894Y032736D01*
X019823Y032735D01*
X019752Y032739D01*
X019682Y032746D01*
X019612Y032757D01*
X019543Y032772D01*
X019475Y032791D01*
X019407Y032813D01*
X019342Y032839D01*
X019277Y032869D01*
X019215Y032902D01*
X019155Y032939D01*
X019096Y032979D01*
X019040Y033022D01*
X018986Y033068D01*
X018936Y033118D01*
X018887Y033169D01*
X018842Y033224D01*
X018800Y033281D01*
X018761Y033340D01*
X018726Y033401D01*
X018693Y033464D01*
X018665Y033529D01*
X018640Y033595D01*
X018619Y033663D01*
X018601Y033731D01*
X018588Y033801D01*
X018578Y033871D01*
X018572Y033941D01*
X018570Y034012D01*
X018572Y034083D01*
X018578Y034153D01*
X018588Y034223D01*
X018601Y034293D01*
X018619Y034361D01*
X018640Y034429D01*
X018665Y034495D01*
X018693Y034560D01*
X018726Y034623D01*
X018761Y034684D01*
X018800Y034743D01*
X018842Y034800D01*
X018887Y034855D01*
X018936Y034906D01*
X018986Y034956D01*
X019040Y035002D01*
X019096Y035045D01*
X019155Y035085D01*
X019215Y035122D01*
X019277Y035155D01*
X019342Y035185D01*
X019407Y035211D01*
X019475Y035233D01*
X019543Y035252D01*
X019612Y035267D01*
X019682Y035278D01*
X019752Y035285D01*
X019823Y035289D01*
X019894Y035288D01*
X019964Y035284D01*
X020035Y035275D01*
X020104Y035263D01*
X020173Y035247D01*
X020241Y035227D01*
X020308Y035203D01*
X020373Y035176D01*
X020437Y035145D01*
X020499Y035110D01*
X020558Y035073D01*
X020616Y035031D01*
X020671Y034987D01*
X020724Y034940D01*
X020774Y034890D01*
X020821Y034837D01*
X020866Y034782D01*
X020858Y034777D01*
X020814Y034832D01*
X020766Y034885D01*
X020716Y034935D01*
X020663Y034983D01*
X020607Y035027D01*
X020549Y035068D01*
X020489Y035105D01*
X020427Y035140D01*
X020363Y035170D01*
X020297Y035197D01*
X020230Y035221D01*
X020162Y035240D01*
X020092Y035256D01*
X020022Y035268D01*
X019952Y035276D01*
X019881Y035280D01*
X019810Y035279D01*
X019739Y035275D01*
X019668Y035267D01*
X019598Y035255D01*
X019529Y035239D01*
X019461Y035220D01*
X019393Y035196D01*
X019328Y035169D01*
X019264Y035138D01*
X019202Y035104D01*
X019142Y035066D01*
X019084Y035024D01*
X019028Y034980D01*
X018975Y034933D01*
X018925Y034882D01*
X018878Y034829D01*
X018833Y034774D01*
X018792Y034716D01*
X018755Y034656D01*
X018720Y034593D01*
X018689Y034529D01*
X018662Y034464D01*
X018639Y034397D01*
X018619Y034328D01*
X018603Y034259D01*
X018591Y034189D01*
X018583Y034118D01*
X018579Y034048D01*
X018579Y033976D01*
X018583Y033906D01*
X018591Y033835D01*
X018603Y033765D01*
X018619Y033696D01*
X018639Y033627D01*
X018662Y033560D01*
X018689Y033495D01*
X018720Y033431D01*
X018755Y033368D01*
X018792Y033308D01*
X018833Y033250D01*
X018878Y033195D01*
X018925Y033142D01*
X018975Y033091D01*
X019028Y033044D01*
X019084Y033000D01*
X019142Y032958D01*
X019202Y032920D01*
X019264Y032886D01*
X019328Y032855D01*
X019393Y032828D01*
X019461Y032804D01*
X019529Y032785D01*
X019598Y032769D01*
X019668Y032757D01*
X019739Y032749D01*
X019810Y032745D01*
X019881Y032744D01*
X019952Y032748D01*
X020022Y032756D01*
X020092Y032768D01*
X020162Y032784D01*
X020230Y032803D01*
X020297Y032827D01*
X020363Y032854D01*
X020427Y032884D01*
X020489Y032919D01*
X020549Y032956D01*
X020607Y032997D01*
X020663Y033041D01*
X020716Y033089D01*
X020766Y033139D01*
X020814Y033192D01*
X020858Y033247D01*
X020851Y033253D01*
X020807Y033198D01*
X020760Y033145D01*
X020710Y033095D01*
X020657Y033048D01*
X020602Y033004D01*
X020544Y032964D01*
X020485Y032926D01*
X020423Y032892D01*
X020359Y032862D01*
X020294Y032835D01*
X020227Y032812D01*
X020159Y032792D01*
X020091Y032777D01*
X020021Y032765D01*
X019951Y032757D01*
X019880Y032753D01*
X019810Y032754D01*
X019739Y032758D01*
X019669Y032766D01*
X019600Y032778D01*
X019531Y032793D01*
X019463Y032813D01*
X019397Y032836D01*
X019332Y032863D01*
X019268Y032894D01*
X019206Y032928D01*
X019147Y032966D01*
X019089Y033007D01*
X019034Y033051D01*
X018981Y033098D01*
X018932Y033148D01*
X018885Y033200D01*
X018841Y033256D01*
X018800Y033313D01*
X018762Y033373D01*
X018728Y033435D01*
X018698Y033498D01*
X018671Y033563D01*
X018647Y033630D01*
X018628Y033698D01*
X018612Y033767D01*
X018600Y033836D01*
X018592Y033906D01*
X018588Y033977D01*
X018588Y034047D01*
X018592Y034118D01*
X018600Y034188D01*
X018612Y034257D01*
X018628Y034326D01*
X018647Y034394D01*
X018671Y034461D01*
X018698Y034526D01*
X018728Y034589D01*
X018762Y034651D01*
X018800Y034711D01*
X018841Y034768D01*
X018885Y034824D01*
X018932Y034876D01*
X018981Y034926D01*
X019034Y034973D01*
X019089Y035017D01*
X019147Y035058D01*
X019206Y035096D01*
X019268Y035130D01*
X019332Y035161D01*
X019397Y035188D01*
X019463Y035211D01*
X019531Y035231D01*
X019600Y035246D01*
X019669Y035258D01*
X019739Y035266D01*
X019810Y035270D01*
X019880Y035271D01*
X019951Y035267D01*
X020021Y035259D01*
X020091Y035247D01*
X020159Y035232D01*
X020227Y035212D01*
X020294Y035189D01*
X020359Y035162D01*
X020423Y035132D01*
X020485Y035098D01*
X020544Y035060D01*
X020602Y035020D01*
X020657Y034976D01*
X020710Y034929D01*
X020760Y034879D01*
X020807Y034826D01*
X020851Y034771D01*
X020844Y034766D01*
X020800Y034821D01*
X020753Y034873D01*
X020704Y034922D01*
X020651Y034969D01*
X020597Y035012D01*
X020539Y035053D01*
X020480Y035090D01*
X020419Y035124D01*
X020355Y035154D01*
X020291Y035181D01*
X020224Y035204D01*
X020157Y035223D01*
X020089Y035238D01*
X020020Y035250D01*
X019950Y035258D01*
X019880Y035262D01*
X019810Y035261D01*
X019740Y035257D01*
X019671Y035249D01*
X019602Y035238D01*
X019533Y035222D01*
X019466Y035203D01*
X019400Y035179D01*
X019335Y035152D01*
X019272Y035122D01*
X019211Y035088D01*
X019152Y035051D01*
X019094Y035010D01*
X019040Y034966D01*
X018988Y034920D01*
X018938Y034870D01*
X018891Y034818D01*
X018848Y034763D01*
X018807Y034706D01*
X018770Y034647D01*
X018736Y034585D01*
X018706Y034522D01*
X018679Y034457D01*
X018656Y034391D01*
X018637Y034324D01*
X018621Y034256D01*
X018609Y034187D01*
X018601Y034117D01*
X018597Y034047D01*
X018597Y033977D01*
X018601Y033907D01*
X018609Y033837D01*
X018621Y033768D01*
X018637Y033700D01*
X018656Y033633D01*
X018679Y033567D01*
X018706Y033502D01*
X018736Y033439D01*
X018770Y033377D01*
X018807Y033318D01*
X018848Y033261D01*
X018891Y033206D01*
X018938Y033154D01*
X018988Y033104D01*
X019040Y033058D01*
X019094Y033014D01*
X019152Y032973D01*
X019211Y032936D01*
X019272Y032902D01*
X019335Y032872D01*
X019400Y032845D01*
X019466Y032821D01*
X019533Y032802D01*
X019602Y032786D01*
X019671Y032775D01*
X019740Y032767D01*
X019810Y032763D01*
X019880Y032762D01*
X019950Y032766D01*
X020020Y032774D01*
X020089Y032786D01*
X020157Y032801D01*
X020224Y032820D01*
X020291Y032843D01*
X020355Y032870D01*
X020419Y032900D01*
X020480Y032934D01*
X020539Y032971D01*
X020597Y033012D01*
X020651Y033055D01*
X020704Y033102D01*
X020753Y033151D01*
X020800Y033203D01*
X020844Y033258D01*
X020837Y033263D01*
X020793Y033209D01*
X020747Y033157D01*
X020698Y033108D01*
X020646Y033062D01*
X020591Y033019D01*
X020534Y032979D01*
X020475Y032942D01*
X020414Y032908D01*
X020352Y032878D01*
X020287Y032852D01*
X020222Y032829D01*
X020155Y032810D01*
X020087Y032794D01*
X020018Y032783D01*
X019949Y032775D01*
X019880Y032771D01*
X019810Y032772D01*
X019741Y032776D01*
X019672Y032783D01*
X019603Y032795D01*
X019536Y032811D01*
X019469Y032830D01*
X019403Y032853D01*
X019339Y032880D01*
X019276Y032910D01*
X019215Y032944D01*
X019157Y032981D01*
X019100Y033021D01*
X019046Y033064D01*
X018994Y033111D01*
X018945Y033160D01*
X018898Y033212D01*
X018855Y033266D01*
X018815Y033323D01*
X018778Y033382D01*
X018744Y033443D01*
X018714Y033506D01*
X018687Y033570D01*
X018664Y033635D01*
X018645Y033702D01*
X018630Y033770D01*
X018618Y033839D01*
X018610Y033908D01*
X018606Y033977D01*
X018606Y034047D01*
X018610Y034116D01*
X018618Y034185D01*
X018630Y034254D01*
X018645Y034322D01*
X018664Y034389D01*
X018687Y034454D01*
X018714Y034518D01*
X018744Y034581D01*
X018778Y034642D01*
X018815Y034701D01*
X018855Y034758D01*
X018898Y034812D01*
X018945Y034864D01*
X018994Y034913D01*
X019046Y034960D01*
X019100Y035003D01*
X019157Y035043D01*
X019215Y035080D01*
X019276Y035114D01*
X019339Y035144D01*
X019403Y035171D01*
X019469Y035194D01*
X019536Y035213D01*
X019603Y035229D01*
X019672Y035241D01*
X019741Y035248D01*
X019810Y035252D01*
X019880Y035253D01*
X019949Y035249D01*
X020018Y035241D01*
X020087Y035230D01*
X020155Y035214D01*
X020222Y035195D01*
X020287Y035172D01*
X020352Y035146D01*
X020414Y035116D01*
X020475Y035082D01*
X020534Y035045D01*
X020591Y035005D01*
X020646Y034962D01*
X020698Y034916D01*
X020747Y034867D01*
X020793Y034815D01*
X020837Y034761D01*
X020830Y034755D01*
X020786Y034809D01*
X020740Y034860D01*
X020691Y034909D01*
X020640Y034955D01*
X020586Y034998D01*
X020529Y035038D01*
X020471Y035074D01*
X020410Y035108D01*
X020348Y035138D01*
X020284Y035164D01*
X020219Y035186D01*
X020153Y035205D01*
X020085Y035221D01*
X020017Y035232D01*
X019949Y035240D01*
X019880Y035244D01*
X019811Y035243D01*
X019742Y035239D01*
X019673Y035232D01*
X019605Y035220D01*
X019538Y035205D01*
X019471Y035185D01*
X019406Y035162D01*
X019343Y035136D01*
X019280Y035106D01*
X019220Y035073D01*
X019162Y035036D01*
X019105Y034996D01*
X019051Y034953D01*
X019000Y034907D01*
X018951Y034858D01*
X018905Y034806D01*
X018862Y034752D01*
X018822Y034696D01*
X018786Y034637D01*
X018752Y034577D01*
X018722Y034515D01*
X018696Y034451D01*
X018673Y034386D01*
X018654Y034319D01*
X018639Y034252D01*
X018627Y034184D01*
X018619Y034115D01*
X018615Y034047D01*
X018615Y033977D01*
X018619Y033909D01*
X018627Y033840D01*
X018639Y033772D01*
X018654Y033705D01*
X018673Y033638D01*
X018696Y033573D01*
X018722Y033509D01*
X018752Y033447D01*
X018786Y033387D01*
X018822Y033328D01*
X018862Y033272D01*
X018905Y033218D01*
X018951Y033166D01*
X019000Y033117D01*
X019051Y033071D01*
X019105Y033028D01*
X019162Y032988D01*
X019220Y032951D01*
X019280Y032918D01*
X019343Y032888D01*
X019406Y032862D01*
X019471Y032839D01*
X019538Y032819D01*
X019605Y032804D01*
X019673Y032792D01*
X019742Y032785D01*
X019811Y032781D01*
X019880Y032780D01*
X019949Y032784D01*
X020017Y032792D01*
X020085Y032803D01*
X020153Y032819D01*
X020219Y032838D01*
X020284Y032860D01*
X020348Y032886D01*
X020410Y032916D01*
X020471Y032950D01*
X020529Y032986D01*
X020586Y033026D01*
X020640Y033069D01*
X020691Y033115D01*
X020740Y033164D01*
X020786Y033215D01*
X020830Y033269D01*
X020822Y033274D01*
X020779Y033220D01*
X020733Y033169D01*
X020683Y033120D01*
X020632Y033074D01*
X020577Y033031D01*
X020520Y032991D01*
X020462Y032955D01*
X020401Y032921D01*
X020338Y032892D01*
X020274Y032866D01*
X020208Y032844D01*
X020141Y032825D01*
X020074Y032810D01*
X020005Y032799D01*
X019936Y032792D01*
X019867Y032789D01*
X019798Y032790D01*
X019728Y032795D01*
X019660Y032803D01*
X019592Y032816D01*
X019524Y032832D01*
X019458Y032853D01*
X019393Y032876D01*
X019329Y032904D01*
X019267Y032935D01*
X019207Y032970D01*
X019149Y033008D01*
X019093Y033049D01*
X019040Y033093D01*
X018989Y033140D01*
X018941Y033190D01*
X018896Y033243D01*
X018854Y033298D01*
X018815Y033355D01*
X018780Y033415D01*
X018748Y033476D01*
X018719Y033539D01*
X018694Y033604D01*
X018673Y033670D01*
X018655Y033737D01*
X018642Y033805D01*
X018632Y033874D01*
X018626Y033943D01*
X018624Y034012D01*
X018626Y034081D01*
X018632Y034150D01*
X018642Y034219D01*
X018655Y034287D01*
X018673Y034354D01*
X018694Y034420D01*
X018719Y034485D01*
X018748Y034548D01*
X018780Y034609D01*
X018815Y034669D01*
X018854Y034726D01*
X018896Y034781D01*
X018941Y034834D01*
X018989Y034884D01*
X019040Y034931D01*
X019093Y034975D01*
X019149Y035016D01*
X019207Y035054D01*
X019267Y035089D01*
X019329Y035120D01*
X019393Y035148D01*
X019458Y035171D01*
X019524Y035192D01*
X019592Y035208D01*
X019660Y035221D01*
X019728Y035229D01*
X019798Y035234D01*
X019867Y035235D01*
X019936Y035232D01*
X020005Y035225D01*
X020074Y035214D01*
X020141Y035199D01*
X020208Y035180D01*
X020274Y035158D01*
X020338Y035132D01*
X020401Y035103D01*
X020462Y035069D01*
X020520Y035033D01*
X020577Y034993D01*
X020632Y034950D01*
X020683Y034904D01*
X020733Y034855D01*
X020779Y034804D01*
X020822Y034750D01*
X020815Y034744D01*
X020772Y034798D01*
X020726Y034849D01*
X020677Y034898D01*
X020626Y034943D01*
X020572Y034986D01*
X020515Y035025D01*
X020457Y035062D01*
X020397Y035095D01*
X020334Y035124D01*
X020271Y035150D01*
X020205Y035172D01*
X020139Y035190D01*
X020072Y035205D01*
X020004Y035216D01*
X019935Y035223D01*
X019867Y035226D01*
X019798Y035225D01*
X019729Y035220D01*
X019661Y035212D01*
X019593Y035199D01*
X019527Y035183D01*
X019461Y035163D01*
X019396Y035139D01*
X019333Y035112D01*
X019272Y035081D01*
X019212Y035047D01*
X019154Y035009D01*
X019099Y034968D01*
X019046Y034924D01*
X018996Y034877D01*
X018948Y034828D01*
X018903Y034776D01*
X018861Y034721D01*
X018823Y034664D01*
X018788Y034605D01*
X018756Y034544D01*
X018727Y034481D01*
X018703Y034417D01*
X018681Y034351D01*
X018664Y034285D01*
X018651Y034217D01*
X018641Y034149D01*
X018635Y034081D01*
X018633Y034012D01*
X018635Y033943D01*
X018641Y033875D01*
X018651Y033807D01*
X018664Y033739D01*
X018681Y033673D01*
X018703Y033607D01*
X018727Y033543D01*
X018756Y033480D01*
X018788Y033419D01*
X018823Y033360D01*
X018861Y033303D01*
X018903Y033248D01*
X018948Y033196D01*
X018996Y033147D01*
X019046Y033100D01*
X019099Y033056D01*
X019154Y033015D01*
X019212Y032977D01*
X019272Y032943D01*
X019333Y032912D01*
X019396Y032885D01*
X019461Y032861D01*
X019527Y032841D01*
X019593Y032825D01*
X019661Y032812D01*
X019729Y032804D01*
X019798Y032799D01*
X019867Y032798D01*
X019935Y032801D01*
X020004Y032808D01*
X020072Y032819D01*
X020139Y032834D01*
X020205Y032852D01*
X020271Y032874D01*
X020334Y032900D01*
X020397Y032929D01*
X020457Y032962D01*
X020515Y032999D01*
X020572Y033038D01*
X020626Y033081D01*
X020677Y033126D01*
X020726Y033175D01*
X020772Y033226D01*
X020815Y033280D01*
M02*
