G75*
G70*
%OFA0B0*%
%FSLAX24Y24*%
%IPPOS*%
%LPD*%
%AMOC8*
5,1,8,0,0,1.08239X$1,22.5*
%
%ADD10C,0.0000*%
%ADD11C,0.0030*%
D10*
X000981Y001135D02*
X000981Y036764D01*
X021650Y036764D01*
X021650Y001135D01*
X000981Y001135D01*
X001218Y001922D02*
X001220Y001969D01*
X001226Y002015D01*
X001236Y002061D01*
X001249Y002106D01*
X001267Y002149D01*
X001288Y002191D01*
X001312Y002231D01*
X001340Y002268D01*
X001371Y002303D01*
X001405Y002336D01*
X001441Y002365D01*
X001480Y002391D01*
X001521Y002414D01*
X001564Y002433D01*
X001608Y002449D01*
X001653Y002461D01*
X001699Y002469D01*
X001746Y002473D01*
X001792Y002473D01*
X001839Y002469D01*
X001885Y002461D01*
X001930Y002449D01*
X001974Y002433D01*
X002017Y002414D01*
X002058Y002391D01*
X002097Y002365D01*
X002133Y002336D01*
X002167Y002303D01*
X002198Y002268D01*
X002226Y002231D01*
X002250Y002191D01*
X002271Y002149D01*
X002289Y002106D01*
X002302Y002061D01*
X002312Y002015D01*
X002318Y001969D01*
X002320Y001922D01*
X002318Y001875D01*
X002312Y001829D01*
X002302Y001783D01*
X002289Y001738D01*
X002271Y001695D01*
X002250Y001653D01*
X002226Y001613D01*
X002198Y001576D01*
X002167Y001541D01*
X002133Y001508D01*
X002097Y001479D01*
X002058Y001453D01*
X002017Y001430D01*
X001974Y001411D01*
X001930Y001395D01*
X001885Y001383D01*
X001839Y001375D01*
X001792Y001371D01*
X001746Y001371D01*
X001699Y001375D01*
X001653Y001383D01*
X001608Y001395D01*
X001564Y001411D01*
X001521Y001430D01*
X001480Y001453D01*
X001441Y001479D01*
X001405Y001508D01*
X001371Y001541D01*
X001340Y001576D01*
X001312Y001613D01*
X001288Y001653D01*
X001267Y001695D01*
X001249Y001738D01*
X001236Y001783D01*
X001226Y001829D01*
X001220Y001875D01*
X001218Y001922D01*
X003209Y003816D02*
X003211Y003864D01*
X003217Y003912D01*
X003227Y003959D01*
X003240Y004005D01*
X003258Y004050D01*
X003278Y004094D01*
X003303Y004136D01*
X003331Y004175D01*
X003361Y004212D01*
X003395Y004246D01*
X003432Y004278D01*
X003470Y004307D01*
X003511Y004332D01*
X003554Y004354D01*
X003599Y004372D01*
X003645Y004386D01*
X003692Y004397D01*
X003740Y004404D01*
X003788Y004407D01*
X003836Y004406D01*
X003884Y004401D01*
X003932Y004392D01*
X003978Y004380D01*
X004023Y004363D01*
X004067Y004343D01*
X004109Y004320D01*
X004149Y004293D01*
X004187Y004263D01*
X004222Y004230D01*
X004254Y004194D01*
X004284Y004156D01*
X004310Y004115D01*
X004332Y004072D01*
X004352Y004028D01*
X004367Y003983D01*
X004379Y003936D01*
X004387Y003888D01*
X004391Y003840D01*
X004391Y003792D01*
X004387Y003744D01*
X004379Y003696D01*
X004367Y003649D01*
X004352Y003604D01*
X004332Y003560D01*
X004310Y003517D01*
X004284Y003476D01*
X004254Y003438D01*
X004222Y003402D01*
X004187Y003369D01*
X004149Y003339D01*
X004109Y003312D01*
X004067Y003289D01*
X004023Y003269D01*
X003978Y003252D01*
X003932Y003240D01*
X003884Y003231D01*
X003836Y003226D01*
X003788Y003225D01*
X003740Y003228D01*
X003692Y003235D01*
X003645Y003246D01*
X003599Y003260D01*
X003554Y003278D01*
X003511Y003300D01*
X003470Y003325D01*
X003432Y003354D01*
X003395Y003386D01*
X003361Y003420D01*
X003331Y003457D01*
X003303Y003496D01*
X003278Y003538D01*
X003258Y003582D01*
X003240Y003627D01*
X003227Y003673D01*
X003217Y003720D01*
X003211Y003768D01*
X003209Y003816D01*
X003209Y022005D02*
X003211Y022053D01*
X003217Y022101D01*
X003227Y022148D01*
X003240Y022194D01*
X003258Y022239D01*
X003278Y022283D01*
X003303Y022325D01*
X003331Y022364D01*
X003361Y022401D01*
X003395Y022435D01*
X003432Y022467D01*
X003470Y022496D01*
X003511Y022521D01*
X003554Y022543D01*
X003599Y022561D01*
X003645Y022575D01*
X003692Y022586D01*
X003740Y022593D01*
X003788Y022596D01*
X003836Y022595D01*
X003884Y022590D01*
X003932Y022581D01*
X003978Y022569D01*
X004023Y022552D01*
X004067Y022532D01*
X004109Y022509D01*
X004149Y022482D01*
X004187Y022452D01*
X004222Y022419D01*
X004254Y022383D01*
X004284Y022345D01*
X004310Y022304D01*
X004332Y022261D01*
X004352Y022217D01*
X004367Y022172D01*
X004379Y022125D01*
X004387Y022077D01*
X004391Y022029D01*
X004391Y021981D01*
X004387Y021933D01*
X004379Y021885D01*
X004367Y021838D01*
X004352Y021793D01*
X004332Y021749D01*
X004310Y021706D01*
X004284Y021665D01*
X004254Y021627D01*
X004222Y021591D01*
X004187Y021558D01*
X004149Y021528D01*
X004109Y021501D01*
X004067Y021478D01*
X004023Y021458D01*
X003978Y021441D01*
X003932Y021429D01*
X003884Y021420D01*
X003836Y021415D01*
X003788Y021414D01*
X003740Y021417D01*
X003692Y021424D01*
X003645Y021435D01*
X003599Y021449D01*
X003554Y021467D01*
X003511Y021489D01*
X003470Y021514D01*
X003432Y021543D01*
X003395Y021575D01*
X003361Y021609D01*
X003331Y021646D01*
X003303Y021685D01*
X003278Y021727D01*
X003258Y021771D01*
X003240Y021816D01*
X003227Y021862D01*
X003217Y021909D01*
X003211Y021957D01*
X003209Y022005D01*
X001218Y035977D02*
X001220Y036024D01*
X001226Y036070D01*
X001236Y036116D01*
X001249Y036161D01*
X001267Y036204D01*
X001288Y036246D01*
X001312Y036286D01*
X001340Y036323D01*
X001371Y036358D01*
X001405Y036391D01*
X001441Y036420D01*
X001480Y036446D01*
X001521Y036469D01*
X001564Y036488D01*
X001608Y036504D01*
X001653Y036516D01*
X001699Y036524D01*
X001746Y036528D01*
X001792Y036528D01*
X001839Y036524D01*
X001885Y036516D01*
X001930Y036504D01*
X001974Y036488D01*
X002017Y036469D01*
X002058Y036446D01*
X002097Y036420D01*
X002133Y036391D01*
X002167Y036358D01*
X002198Y036323D01*
X002226Y036286D01*
X002250Y036246D01*
X002271Y036204D01*
X002289Y036161D01*
X002302Y036116D01*
X002312Y036070D01*
X002318Y036024D01*
X002320Y035977D01*
X002318Y035930D01*
X002312Y035884D01*
X002302Y035838D01*
X002289Y035793D01*
X002271Y035750D01*
X002250Y035708D01*
X002226Y035668D01*
X002198Y035631D01*
X002167Y035596D01*
X002133Y035563D01*
X002097Y035534D01*
X002058Y035508D01*
X002017Y035485D01*
X001974Y035466D01*
X001930Y035450D01*
X001885Y035438D01*
X001839Y035430D01*
X001792Y035426D01*
X001746Y035426D01*
X001699Y035430D01*
X001653Y035438D01*
X001608Y035450D01*
X001564Y035466D01*
X001521Y035485D01*
X001480Y035508D01*
X001441Y035534D01*
X001405Y035563D01*
X001371Y035596D01*
X001340Y035631D01*
X001312Y035668D01*
X001288Y035708D01*
X001267Y035750D01*
X001249Y035793D01*
X001236Y035838D01*
X001226Y035884D01*
X001220Y035930D01*
X001218Y035977D01*
X020312Y035977D02*
X020314Y036024D01*
X020320Y036070D01*
X020330Y036116D01*
X020343Y036161D01*
X020361Y036204D01*
X020382Y036246D01*
X020406Y036286D01*
X020434Y036323D01*
X020465Y036358D01*
X020499Y036391D01*
X020535Y036420D01*
X020574Y036446D01*
X020615Y036469D01*
X020658Y036488D01*
X020702Y036504D01*
X020747Y036516D01*
X020793Y036524D01*
X020840Y036528D01*
X020886Y036528D01*
X020933Y036524D01*
X020979Y036516D01*
X021024Y036504D01*
X021068Y036488D01*
X021111Y036469D01*
X021152Y036446D01*
X021191Y036420D01*
X021227Y036391D01*
X021261Y036358D01*
X021292Y036323D01*
X021320Y036286D01*
X021344Y036246D01*
X021365Y036204D01*
X021383Y036161D01*
X021396Y036116D01*
X021406Y036070D01*
X021412Y036024D01*
X021414Y035977D01*
X021412Y035930D01*
X021406Y035884D01*
X021396Y035838D01*
X021383Y035793D01*
X021365Y035750D01*
X021344Y035708D01*
X021320Y035668D01*
X021292Y035631D01*
X021261Y035596D01*
X021227Y035563D01*
X021191Y035534D01*
X021152Y035508D01*
X021111Y035485D01*
X021068Y035466D01*
X021024Y035450D01*
X020979Y035438D01*
X020933Y035430D01*
X020886Y035426D01*
X020840Y035426D01*
X020793Y035430D01*
X020747Y035438D01*
X020702Y035450D01*
X020658Y035466D01*
X020615Y035485D01*
X020574Y035508D01*
X020535Y035534D01*
X020499Y035563D01*
X020465Y035596D01*
X020434Y035631D01*
X020406Y035668D01*
X020382Y035708D01*
X020361Y035750D01*
X020343Y035793D01*
X020330Y035838D01*
X020320Y035884D01*
X020314Y035930D01*
X020312Y035977D01*
X020312Y001922D02*
X020314Y001969D01*
X020320Y002015D01*
X020330Y002061D01*
X020343Y002106D01*
X020361Y002149D01*
X020382Y002191D01*
X020406Y002231D01*
X020434Y002268D01*
X020465Y002303D01*
X020499Y002336D01*
X020535Y002365D01*
X020574Y002391D01*
X020615Y002414D01*
X020658Y002433D01*
X020702Y002449D01*
X020747Y002461D01*
X020793Y002469D01*
X020840Y002473D01*
X020886Y002473D01*
X020933Y002469D01*
X020979Y002461D01*
X021024Y002449D01*
X021068Y002433D01*
X021111Y002414D01*
X021152Y002391D01*
X021191Y002365D01*
X021227Y002336D01*
X021261Y002303D01*
X021292Y002268D01*
X021320Y002231D01*
X021344Y002191D01*
X021365Y002149D01*
X021383Y002106D01*
X021396Y002061D01*
X021406Y002015D01*
X021412Y001969D01*
X021414Y001922D01*
X021412Y001875D01*
X021406Y001829D01*
X021396Y001783D01*
X021383Y001738D01*
X021365Y001695D01*
X021344Y001653D01*
X021320Y001613D01*
X021292Y001576D01*
X021261Y001541D01*
X021227Y001508D01*
X021191Y001479D01*
X021152Y001453D01*
X021111Y001430D01*
X021068Y001411D01*
X021024Y001395D01*
X020979Y001383D01*
X020933Y001375D01*
X020886Y001371D01*
X020840Y001371D01*
X020793Y001375D01*
X020747Y001383D01*
X020702Y001395D01*
X020658Y001411D01*
X020615Y001430D01*
X020574Y001453D01*
X020535Y001479D01*
X020499Y001508D01*
X020465Y001541D01*
X020434Y001576D01*
X020406Y001613D01*
X020382Y001653D01*
X020361Y001695D01*
X020343Y001738D01*
X020330Y001783D01*
X020320Y001829D01*
X020314Y001875D01*
X020312Y001922D01*
D11*
X005986Y012432D02*
X005924Y012370D01*
X005801Y012370D01*
X005739Y012432D01*
X005617Y012370D02*
X005617Y012740D01*
X005739Y012679D02*
X005801Y012740D01*
X005924Y012740D01*
X005986Y012679D01*
X005986Y012432D01*
X005617Y012555D02*
X005371Y012555D01*
X005249Y012493D02*
X005002Y012493D01*
X005002Y012617D02*
X005249Y012617D01*
X005371Y012740D02*
X005371Y012370D01*
X004881Y012432D02*
X004819Y012370D01*
X004696Y012370D01*
X004634Y012432D01*
X004513Y012432D02*
X004451Y012493D01*
X004266Y012493D01*
X004266Y012555D02*
X004266Y012370D01*
X004451Y012370D01*
X004513Y012432D01*
X004451Y012617D02*
X004327Y012617D01*
X004266Y012555D01*
X004144Y012555D02*
X004082Y012617D01*
X003897Y012617D01*
X003776Y012555D02*
X003714Y012617D01*
X003591Y012617D01*
X003529Y012555D01*
X003529Y012493D01*
X003776Y012493D01*
X003776Y012432D02*
X003776Y012555D01*
X003776Y012432D02*
X003714Y012370D01*
X003591Y012370D01*
X003897Y012432D02*
X003959Y012493D01*
X004082Y012493D01*
X004144Y012555D01*
X004144Y012370D02*
X003959Y012370D01*
X003897Y012432D01*
X003883Y012051D02*
X003821Y011990D01*
X003821Y011743D01*
X003883Y011681D01*
X004068Y011681D01*
X004068Y012051D01*
X003883Y012051D01*
X004189Y012051D02*
X004436Y012051D01*
X004436Y011681D01*
X004189Y011681D01*
X004313Y011866D02*
X004436Y011866D01*
X004558Y011681D02*
X004805Y011681D01*
X004805Y012051D01*
X004881Y012432D02*
X004881Y012679D01*
X004819Y012740D01*
X004696Y012740D01*
X004634Y012679D01*
X004558Y012961D02*
X004805Y012961D01*
X004805Y013331D01*
X004819Y013650D02*
X004696Y013650D01*
X004634Y013711D01*
X004513Y013711D02*
X004451Y013773D01*
X004266Y013773D01*
X004266Y013835D02*
X004266Y013650D01*
X004451Y013650D01*
X004513Y013711D01*
X004451Y013896D02*
X004327Y013896D01*
X004266Y013835D01*
X004144Y013835D02*
X004082Y013896D01*
X003897Y013896D01*
X003776Y013835D02*
X003714Y013896D01*
X003591Y013896D01*
X003529Y013835D01*
X003529Y013773D01*
X003776Y013773D01*
X003776Y013711D02*
X003776Y013835D01*
X003776Y013711D02*
X003714Y013650D01*
X003591Y013650D01*
X003897Y013711D02*
X003959Y013773D01*
X004082Y013773D01*
X004144Y013835D01*
X004144Y013650D02*
X003959Y013650D01*
X003897Y013711D01*
X003883Y013331D02*
X003821Y013269D01*
X003821Y013022D01*
X003883Y012961D01*
X004068Y012961D01*
X004068Y013331D01*
X003883Y013331D01*
X004189Y013331D02*
X004436Y013331D01*
X004436Y012961D01*
X004189Y012961D01*
X004313Y013146D02*
X004436Y013146D01*
X004819Y013650D02*
X004881Y013711D01*
X004881Y013958D01*
X004819Y014020D01*
X004696Y014020D01*
X004634Y013958D01*
X005002Y013896D02*
X005249Y013896D01*
X005249Y013773D02*
X005002Y013773D01*
X005371Y013835D02*
X005371Y013958D01*
X005432Y014020D01*
X005617Y014020D01*
X005617Y013650D01*
X005617Y013773D02*
X005432Y013773D01*
X005371Y013835D01*
X005739Y013958D02*
X005801Y014020D01*
X005924Y014020D01*
X005986Y013958D01*
X005986Y013711D01*
X005924Y013650D01*
X005801Y013650D01*
X005739Y013711D01*
X004903Y014339D02*
X004718Y014339D01*
X004656Y014400D01*
X004718Y014462D01*
X004841Y014462D01*
X004903Y014524D01*
X004841Y014585D01*
X004656Y014585D01*
X004535Y014585D02*
X004535Y014400D01*
X004473Y014339D01*
X004411Y014400D01*
X004350Y014339D01*
X004288Y014400D01*
X004288Y014585D01*
X004166Y014585D02*
X004105Y014585D01*
X004105Y014339D01*
X004166Y014339D02*
X004043Y014339D01*
X003859Y014400D02*
X003798Y014339D01*
X003859Y014400D02*
X003859Y014647D01*
X003798Y014585D02*
X003921Y014585D01*
X004105Y014709D02*
X004105Y014771D01*
X004057Y014929D02*
X004243Y014929D01*
X004364Y014929D02*
X004364Y015114D01*
X004426Y015176D01*
X004549Y015176D01*
X004549Y015053D02*
X004364Y015053D01*
X004364Y014929D02*
X004549Y014929D01*
X004611Y014991D01*
X004549Y015053D01*
X004732Y014991D02*
X004794Y014929D01*
X004918Y014929D01*
X004979Y014991D01*
X004979Y015238D01*
X004918Y015299D01*
X004794Y015299D01*
X004732Y015238D01*
X004634Y015520D02*
X004881Y015520D01*
X004881Y015890D01*
X005002Y015766D02*
X005002Y015520D01*
X005002Y015705D02*
X005249Y015705D01*
X005249Y015766D02*
X005249Y015520D01*
X005494Y015520D02*
X005494Y015890D01*
X005617Y015890D02*
X005371Y015890D01*
X005249Y015766D02*
X005126Y015890D01*
X005002Y015766D01*
X005125Y016110D02*
X005372Y016110D01*
X005125Y016357D01*
X005125Y016419D01*
X005187Y016480D01*
X005310Y016480D01*
X005372Y016419D01*
X005493Y016419D02*
X005555Y016480D01*
X005679Y016480D01*
X005740Y016419D01*
X005740Y016172D01*
X005679Y016110D01*
X005555Y016110D01*
X005493Y016172D01*
X005739Y015890D02*
X005986Y015520D01*
X006022Y015299D02*
X006084Y015238D01*
X006084Y014991D01*
X006022Y014929D01*
X005899Y014929D01*
X005837Y014991D01*
X005716Y014991D02*
X005654Y014929D01*
X005531Y014929D01*
X005469Y014991D01*
X005469Y015053D01*
X005531Y015114D01*
X005654Y015114D01*
X005716Y015176D01*
X005716Y015238D01*
X005654Y015299D01*
X005531Y015299D01*
X005469Y015238D01*
X005348Y015176D02*
X005101Y015176D01*
X005101Y015053D02*
X005348Y015053D01*
X005837Y015238D02*
X005899Y015299D01*
X006022Y015299D01*
X005739Y015520D02*
X005986Y015890D01*
X005986Y016110D02*
X005862Y016110D01*
X005924Y016110D02*
X005924Y016480D01*
X005986Y016480D02*
X005862Y016480D01*
X005862Y017291D02*
X005986Y017291D01*
X005924Y017291D02*
X005924Y017662D01*
X005986Y017662D02*
X005862Y017662D01*
X005740Y017600D02*
X005740Y017353D01*
X005679Y017291D01*
X005555Y017291D01*
X005493Y017353D01*
X005372Y017291D02*
X005125Y017291D01*
X005248Y017291D02*
X005248Y017662D01*
X005372Y017538D01*
X005493Y017600D02*
X005555Y017662D01*
X005679Y017662D01*
X005740Y017600D01*
X005801Y017882D02*
X005739Y017944D01*
X005801Y017882D02*
X005924Y017882D01*
X005986Y017944D01*
X005986Y018190D01*
X005924Y018252D01*
X005801Y018252D01*
X005739Y018190D01*
X005617Y018067D02*
X005371Y018067D01*
X005249Y018129D02*
X005002Y018129D01*
X004881Y018129D02*
X004757Y018252D01*
X004757Y017882D01*
X004634Y017882D02*
X004881Y017882D01*
X005002Y018005D02*
X005249Y018005D01*
X005432Y017882D02*
X005432Y018252D01*
X005617Y018067D01*
X005556Y018571D02*
X005617Y018633D01*
X005556Y018571D02*
X005432Y018571D01*
X005371Y018633D01*
X005371Y018694D01*
X005432Y018756D01*
X005494Y018756D01*
X005432Y018756D02*
X005371Y018818D01*
X005371Y018879D01*
X005432Y018941D01*
X005556Y018941D01*
X005617Y018879D01*
X005739Y018879D02*
X005801Y018941D01*
X005924Y018941D01*
X005986Y018879D01*
X005986Y018633D01*
X005924Y018571D01*
X005801Y018571D01*
X005739Y018633D01*
X005249Y018694D02*
X005002Y018694D01*
X005002Y018818D02*
X005249Y018818D01*
X005249Y019161D02*
X005002Y019532D01*
X004881Y019470D02*
X004881Y019223D01*
X004819Y019161D01*
X004696Y019161D01*
X004634Y019223D01*
X004513Y019161D02*
X004266Y019408D01*
X004266Y019470D01*
X004327Y019532D01*
X004451Y019532D01*
X004513Y019470D01*
X004634Y019470D02*
X004696Y019532D01*
X004819Y019532D01*
X004881Y019470D01*
X004881Y019752D02*
X004634Y019752D01*
X004757Y019752D02*
X004757Y020122D01*
X004881Y019999D01*
X005002Y019999D02*
X005249Y019999D01*
X005249Y019875D02*
X005002Y019875D01*
X004881Y020244D02*
X004634Y020244D01*
X004513Y020244D02*
X004513Y020614D01*
X004327Y020491D02*
X004513Y020367D01*
X004327Y020244D01*
X004327Y020122D02*
X004266Y020060D01*
X004513Y019814D01*
X004451Y019752D01*
X004327Y019752D01*
X004266Y019814D01*
X004266Y020060D01*
X004327Y020122D02*
X004451Y020122D01*
X004513Y020060D01*
X004513Y019814D01*
X004144Y019875D02*
X003959Y019999D01*
X004144Y020122D02*
X004144Y019752D01*
X004144Y019875D02*
X003959Y019752D01*
X003714Y019532D02*
X003776Y019470D01*
X003714Y019532D02*
X003591Y019532D01*
X003529Y019470D01*
X003529Y019408D01*
X003776Y019161D01*
X003529Y019161D01*
X003408Y019161D02*
X003161Y019408D01*
X003161Y019470D01*
X003222Y019532D01*
X003346Y019532D01*
X003408Y019470D01*
X003407Y019752D02*
X003469Y019814D01*
X003469Y019937D01*
X003407Y019999D01*
X003284Y019999D01*
X003222Y019937D01*
X003222Y019814D01*
X003284Y019752D01*
X003407Y019752D01*
X003101Y019752D02*
X003101Y020122D01*
X003101Y020244D02*
X003101Y020491D01*
X003039Y020491D01*
X002977Y020429D01*
X002916Y020491D01*
X002854Y020429D01*
X002854Y020244D01*
X002977Y020244D02*
X002977Y020429D01*
X003222Y020429D02*
X003222Y020244D01*
X003222Y020429D02*
X003284Y020491D01*
X003407Y020491D01*
X003469Y020429D01*
X003590Y020429D02*
X003652Y020491D01*
X003776Y020491D01*
X003837Y020429D01*
X003837Y020306D01*
X003776Y020244D01*
X003652Y020244D01*
X003590Y020306D01*
X003590Y020429D01*
X003469Y020614D02*
X003469Y020244D01*
X003101Y019937D02*
X003039Y019999D01*
X002916Y019999D01*
X002854Y019937D01*
X002854Y019752D01*
X002732Y019752D02*
X002732Y019999D01*
X002671Y019999D01*
X002609Y019937D01*
X002547Y019999D01*
X002485Y019937D01*
X002485Y019752D01*
X002609Y019752D02*
X002609Y019937D01*
X002671Y019532D02*
X002424Y019532D01*
X002548Y019347D02*
X002671Y019347D01*
X002792Y019347D02*
X002792Y019223D01*
X002854Y019161D01*
X003039Y019161D01*
X003161Y019161D02*
X003408Y019161D01*
X003529Y018941D02*
X003776Y018941D01*
X003776Y018571D01*
X003897Y018571D02*
X003897Y018818D01*
X003776Y018756D02*
X003652Y018756D01*
X003897Y018571D02*
X004082Y018571D01*
X004144Y018633D01*
X004144Y018818D01*
X004266Y018879D02*
X004513Y018633D01*
X004451Y018571D01*
X004327Y018571D01*
X004266Y018633D01*
X004266Y018879D01*
X004327Y018941D01*
X004451Y018941D01*
X004513Y018879D01*
X004513Y018633D01*
X004634Y018571D02*
X004881Y018571D01*
X004757Y018571D02*
X004757Y018941D01*
X004881Y018818D01*
X005371Y019161D02*
X005617Y019161D01*
X005494Y019161D02*
X005494Y019532D01*
X005617Y019408D01*
X005739Y019470D02*
X005801Y019532D01*
X005924Y019532D01*
X005986Y019470D01*
X005986Y019223D01*
X005924Y019161D01*
X005801Y019161D01*
X005739Y019223D01*
X005739Y019752D02*
X005862Y019875D01*
X005801Y019875D02*
X005986Y019875D01*
X005986Y019752D02*
X005986Y020122D01*
X005801Y020122D01*
X005739Y020060D01*
X005739Y019937D01*
X005801Y019875D01*
X005617Y019814D02*
X005617Y019752D01*
X005617Y019814D02*
X005371Y020060D01*
X005371Y020122D01*
X005617Y020122D01*
X005556Y020244D02*
X005432Y020244D01*
X005371Y020306D01*
X005371Y020367D01*
X005432Y020429D01*
X005617Y020429D01*
X005617Y020306D01*
X005556Y020244D01*
X005739Y020244D02*
X005862Y020367D01*
X005801Y020367D02*
X005986Y020367D01*
X005986Y020244D02*
X005986Y020614D01*
X005801Y020614D01*
X005739Y020553D01*
X005739Y020429D01*
X005801Y020367D01*
X005617Y020429D02*
X005494Y020553D01*
X005371Y020614D01*
X005249Y020491D02*
X005002Y020491D01*
X004881Y020491D02*
X004757Y020614D01*
X004757Y020244D01*
X005002Y020367D02*
X005249Y020367D01*
X005371Y020835D02*
X005617Y020835D01*
X005739Y020835D02*
X005862Y020958D01*
X005801Y020958D02*
X005986Y020958D01*
X005986Y020835D02*
X005986Y021205D01*
X005801Y021205D01*
X005739Y021143D01*
X005739Y021020D01*
X005801Y020958D01*
X005617Y021081D02*
X005494Y021205D01*
X005494Y020835D01*
X005249Y021020D02*
X005002Y021020D01*
X004881Y020958D02*
X004696Y020958D01*
X004634Y021020D01*
X004634Y021143D01*
X004696Y021205D01*
X004881Y021205D01*
X004881Y020835D01*
X004757Y020958D02*
X004634Y020835D01*
X004513Y020896D02*
X004451Y020835D01*
X004327Y020835D01*
X004266Y020896D01*
X004266Y021020D01*
X004327Y021081D01*
X004389Y021081D01*
X004513Y021020D01*
X004513Y021205D01*
X004266Y021205D01*
X004144Y021081D02*
X003897Y021081D01*
X003897Y020958D02*
X004144Y020958D01*
X003776Y020896D02*
X003714Y020835D01*
X003591Y020835D01*
X003529Y020896D01*
X003529Y020958D01*
X003591Y021020D01*
X003652Y021020D01*
X003591Y021020D02*
X003529Y021081D01*
X003529Y021143D01*
X003591Y021205D01*
X003714Y021205D01*
X003776Y021143D01*
X003408Y021143D02*
X003346Y021205D01*
X003222Y021205D01*
X003161Y021143D01*
X003161Y021081D01*
X003222Y021020D01*
X003161Y020958D01*
X003161Y020896D01*
X003222Y020835D01*
X003346Y020835D01*
X003408Y020896D01*
X003284Y021020D02*
X003222Y021020D01*
X003039Y021143D02*
X003039Y020896D01*
X002792Y021143D01*
X002792Y020896D01*
X002854Y020835D01*
X002978Y020835D01*
X003039Y020896D01*
X003039Y021143D02*
X002978Y021205D01*
X002854Y021205D01*
X002792Y021143D01*
X002303Y021020D02*
X002303Y020896D01*
X002241Y020835D01*
X002117Y020835D01*
X002056Y020896D01*
X002056Y021020D01*
X002117Y021081D01*
X002241Y021081D01*
X002303Y021020D01*
X001934Y021020D02*
X001873Y021081D01*
X001749Y021081D01*
X001687Y021020D01*
X001687Y020835D01*
X001566Y020835D02*
X001566Y021081D01*
X001504Y021081D01*
X001443Y021020D01*
X001381Y021081D01*
X001319Y021020D01*
X001319Y020835D01*
X001443Y020835D02*
X001443Y021020D01*
X001934Y021205D02*
X001934Y020835D01*
X002671Y019532D02*
X002671Y019161D01*
X002792Y019347D02*
X002854Y019408D01*
X003039Y019408D01*
X003039Y019038D01*
X003161Y018252D02*
X003408Y018252D01*
X003408Y017882D01*
X003529Y017882D02*
X003529Y018129D01*
X003408Y018067D02*
X003284Y018067D01*
X003529Y017882D02*
X003714Y017882D01*
X003776Y017944D01*
X003776Y018129D01*
X003897Y018190D02*
X003897Y017944D01*
X003959Y017882D01*
X004082Y017882D01*
X004144Y017944D01*
X003897Y018190D01*
X003959Y018252D01*
X004082Y018252D01*
X004144Y018190D01*
X004144Y017944D01*
X004266Y017944D02*
X004327Y017882D01*
X004451Y017882D01*
X004513Y017944D01*
X004266Y018190D01*
X004266Y017944D01*
X004266Y018190D02*
X004327Y018252D01*
X004451Y018252D01*
X004513Y018190D01*
X004513Y017944D01*
X004512Y017662D02*
X004388Y017538D01*
X004388Y017291D01*
X004388Y017476D02*
X004635Y017476D01*
X004635Y017538D02*
X004512Y017662D01*
X004635Y017538D02*
X004635Y017291D01*
X004757Y017415D02*
X005004Y017415D01*
X005004Y017538D02*
X004757Y017538D01*
X004546Y017071D02*
X004423Y017071D01*
X004361Y017009D01*
X004361Y016948D01*
X004423Y016886D01*
X004361Y016824D01*
X004361Y016762D01*
X004423Y016701D01*
X004546Y016701D01*
X004608Y016762D01*
X004484Y016886D02*
X004423Y016886D01*
X004240Y017009D02*
X004178Y017071D01*
X004054Y017071D01*
X003993Y017009D01*
X003993Y016948D01*
X004240Y016701D01*
X003993Y016701D01*
X003871Y016762D02*
X003871Y016824D01*
X003809Y016886D01*
X003686Y016886D01*
X003624Y016824D01*
X003624Y016762D01*
X003686Y016701D01*
X003809Y016701D01*
X003871Y016762D01*
X003809Y016886D02*
X003871Y016948D01*
X003871Y017009D01*
X003809Y017071D01*
X003686Y017071D01*
X003624Y017009D01*
X003624Y016948D01*
X003686Y016886D01*
X003503Y016824D02*
X003318Y016824D01*
X003256Y016886D01*
X003256Y017009D01*
X003318Y017071D01*
X003503Y017071D01*
X003503Y016701D01*
X003469Y016480D02*
X003530Y016419D01*
X003530Y016357D01*
X003469Y016295D01*
X003345Y016295D01*
X003283Y016234D01*
X003283Y016172D01*
X003345Y016110D01*
X003469Y016110D01*
X003530Y016172D01*
X003652Y016110D02*
X003899Y016110D01*
X003899Y016480D01*
X004082Y016480D02*
X004267Y016295D01*
X004020Y016295D01*
X004082Y016110D02*
X004082Y016480D01*
X004388Y016480D02*
X004388Y016419D01*
X004635Y016172D01*
X004635Y016110D01*
X004757Y016234D02*
X005004Y016234D01*
X005004Y016357D02*
X004757Y016357D01*
X004635Y016480D02*
X004388Y016480D01*
X004608Y017009D02*
X004546Y017071D01*
X004144Y017291D02*
X004144Y017662D01*
X004267Y017662D02*
X004020Y017662D01*
X003899Y017662D02*
X003775Y017538D01*
X003652Y017662D01*
X003652Y017291D01*
X003530Y017291D02*
X003530Y017662D01*
X003283Y017662D01*
X003162Y017600D02*
X003162Y017353D01*
X003100Y017291D01*
X002977Y017291D01*
X002915Y017353D01*
X002915Y017476D01*
X003039Y017476D01*
X003162Y017600D02*
X003100Y017662D01*
X002977Y017662D01*
X002915Y017600D01*
X002794Y017538D02*
X002670Y017662D01*
X002547Y017538D01*
X002547Y017291D01*
X002547Y017476D02*
X002794Y017476D01*
X002794Y017538D02*
X002794Y017291D01*
X003283Y017291D02*
X003530Y017291D01*
X003530Y017476D02*
X003407Y017476D01*
X003899Y017291D02*
X003899Y017662D01*
X003469Y016480D02*
X003345Y016480D01*
X003283Y016419D01*
X003162Y016419D02*
X003100Y016480D01*
X002977Y016480D01*
X002915Y016419D01*
X002915Y016357D01*
X003162Y016110D01*
X002915Y016110D01*
X002794Y016295D02*
X002609Y016480D01*
X002609Y016110D01*
X002425Y016172D02*
X002364Y016110D01*
X002240Y016110D01*
X002179Y016172D01*
X002179Y016295D01*
X002240Y016357D01*
X002302Y016357D01*
X002425Y016295D01*
X002425Y016480D01*
X002179Y016480D01*
X002057Y016480D02*
X001810Y016110D01*
X001810Y016480D01*
X002057Y016480D02*
X002057Y016110D01*
X002056Y015766D02*
X002303Y015520D01*
X002056Y015520D01*
X002056Y015766D02*
X002303Y015766D01*
X002424Y015705D02*
X002424Y015520D01*
X002424Y015705D02*
X002486Y015766D01*
X002609Y015766D01*
X002671Y015705D01*
X002671Y015890D02*
X002671Y015520D01*
X002792Y015520D02*
X002792Y015890D01*
X002916Y015766D01*
X003039Y015890D01*
X003039Y015520D01*
X003529Y015581D02*
X003529Y015643D01*
X003591Y015705D01*
X003776Y015705D01*
X003776Y015581D01*
X003714Y015520D01*
X003591Y015520D01*
X003529Y015581D01*
X003652Y015828D02*
X003776Y015705D01*
X003652Y015828D02*
X003529Y015890D01*
X004021Y015890D02*
X004021Y015520D01*
X004144Y015520D02*
X003897Y015520D01*
X004144Y015766D02*
X004021Y015890D01*
X004266Y015766D02*
X004513Y015766D01*
X004513Y015643D02*
X004266Y015643D01*
X004181Y015176D02*
X003996Y015176D01*
X003874Y015114D02*
X003813Y015176D01*
X003689Y015176D01*
X003627Y015114D01*
X003627Y015053D01*
X003874Y015053D01*
X003874Y015114D02*
X003874Y014991D01*
X003813Y014929D01*
X003689Y014929D01*
X003996Y014991D02*
X004057Y015053D01*
X004181Y015053D01*
X004243Y015114D01*
X004181Y015176D01*
X003996Y014991D02*
X004057Y014929D01*
X003675Y014524D02*
X003675Y014400D01*
X003614Y014339D01*
X003429Y014339D01*
X003307Y014339D02*
X003307Y014709D01*
X003245Y014585D02*
X003122Y014585D01*
X003060Y014524D01*
X003060Y014339D01*
X003245Y014585D02*
X003307Y014524D01*
X003429Y014585D02*
X003614Y014585D01*
X003675Y014524D01*
X003039Y014020D02*
X003039Y013650D01*
X003039Y013773D02*
X002854Y013773D01*
X002792Y013835D01*
X002792Y013958D01*
X002854Y014020D01*
X003039Y014020D01*
X002671Y014020D02*
X002671Y013650D01*
X002548Y013773D01*
X002424Y013650D01*
X002424Y014020D01*
X002303Y014020D02*
X002303Y013650D01*
X002303Y013773D02*
X002117Y013773D01*
X002056Y013835D01*
X002056Y013958D01*
X002117Y014020D01*
X002303Y014020D01*
X002179Y013773D02*
X002056Y013650D01*
X002117Y012740D02*
X002303Y012740D01*
X002303Y012370D01*
X002117Y012370D01*
X002056Y012432D01*
X002056Y012679D01*
X002117Y012740D01*
X002424Y012679D02*
X002486Y012740D01*
X002671Y012740D01*
X002671Y012370D01*
X002486Y012370D01*
X002424Y012432D01*
X002424Y012679D01*
X002792Y012740D02*
X002792Y012370D01*
X002792Y012555D02*
X003039Y012555D01*
X003039Y012370D02*
X003039Y012740D01*
X002794Y016295D02*
X002547Y016295D01*
X003897Y019285D02*
X004144Y019285D01*
X004144Y019408D02*
X003897Y019408D01*
X004266Y019161D02*
X004513Y019161D01*
M02*
